<?xml version="1.0" encoding="UTF-8" standalone="no"?>
<svg
   xmlns:dc="http://purl.org/dc/elements/1.1/"
   xmlns:cc="http://creativecommons.org/ns#"
   xmlns:rdf="http://www.w3.org/1999/02/22-rdf-syntax-ns#"
   xmlns:svg="http://www.w3.org/2000/svg"
   xmlns="http://www.w3.org/2000/svg"
   xmlns:sodipodi="http://sodipodi.sourceforge.net/DTD/sodipodi-0.dtd"
   xmlns:inkscape="http://www.inkscape.org/namespaces/inkscape"
   width="10.583288mm"
   height="10.583288mm"
   viewBox="0 0 10.583288 10.583288"
   version="1.1"
   id="svg2002"
   inkscape:version="1.0.1 (3bc2e813f5, 2020-09-07)"
   sodipodi:docname="arena_wall.svg">
  <defs
     id="defs1996">
    <linearGradient
       x1="117.9"
       y1="55.723999"
       x2="121.9"
       y2="59.688"
       id="linearGradient4643"
       gradientUnits="userSpaceOnUse"
       gradientTransform="translate(33.441427,-27.337706)">
      <stop
         id="stop4618"
         style="stop-color:#ffe4a4;stop-opacity:0.74404764"
         offset="0" />
      <stop
         id="stop4620"
         style="stop-color:#371f00;stop-opacity:0.66071427"
         offset="1" />
    </linearGradient>
  </defs>
  <sodipodi:namedview
     id="base"
     pagecolor="#ffffff"
     bordercolor="#666666"
     borderopacity="1.0"
     inkscape:pageopacity="0.0"
     inkscape:pageshadow="2"
     inkscape:zoom="0.35"
     inkscape:cx="42.857058"
     inkscape:cy="259.99991"
     inkscape:document-units="mm"
     inkscape:current-layer="layer1"
     inkscape:document-rotation="0"
     showgrid="false"
     inkscape:window-width="1254"
     inkscape:window-height="872"
     inkscape:window-x="101"
     inkscape:window-y="0"
     inkscape:window-maximized="0"
     fit-margin-top="0"
     fit-margin-left="0"
     fit-margin-right="0"
     fit-margin-bottom="0"
     inkscape:pagecheckerboard="true" />
  <metadata
     id="metadata1999">
    <rdf:RDF>
      <cc:Work
         rdf:about="">
        <dc:format>image/svg+xml</dc:format>
        <dc:type
           rdf:resource="http://purl.org/dc/dcmitype/StillImage" />
        <dc:title></dc:title>
      </cc:Work>
    </rdf:RDF>
  </metadata>
  <g
     inkscape:label="Ebene 1"
     inkscape:groupmode="layer"
     id="layer1"
     transform="translate(-94.49407,-79.375023)">
    <g
       id="arena_block"
       transform="matrix(0.26458333,0,0,0.26458333,60.097421,76.104221)">
      <rect
         width="39.506001"
         height="39.506001"
         rx="3"
         ry="3"
         x="130.25"
         y="12.609"
         id="rect4593"
         style="fill:#977e3f" />
      <path
         d="m 134.37,46.626 h 20.546 v 5.33 H 134.37 Z"
         id="rect4658"
         style="color:#000000;fill:#996b2e;fill-rule:nonzero;enable-background:accumulate" />
      <path
         d="m 134.2,12.798 h 20.503 v 4.3414 H 134.2 Z"
         id="rect4656"
         style="color:#000000;fill:#996b2e;fill-rule:nonzero;enable-background:accumulate" />
      <path
         d="m 130.41,27.026 h 4.3844 v 9.9722 H 130.41 Z"
         id="rect4662"
         style="color:#000000;fill:#996b2e;fill-rule:nonzero;enable-background:accumulate" />
      <path
         d="m 154.74,27.026 h 14.786 V 37.084 H 154.74 Z"
         id="rect4660"
         style="color:#000000;fill:#996b2e;fill-rule:nonzero;enable-background:accumulate" />
      <path
         d="m 133.72,12.75 v 3.625 h -3.125 c 0.13474,0.55028 -0.39583,1.7659 0.55508,1.5 h 11.851 v 8.3125 h -12.406 c 0.13474,0.55028 -0.39583,1.7659 0.55508,1.5 h 2.9137 v 8.375 h -3.4688 c 0.13474,0.55028 -0.39583,1.7659 0.55508,1.5 h 11.945 v 8.3125 h -12.5 c 0.13474,0.55028 -0.39583,1.7659 0.55508,1.5 h 2.7262 v 4.5938 c 0.68944,-0.0071 1.6321,0.23903 1.3125,-0.77711 v -3.8166 h 18.719 v 4.5938 c 0.68944,-0.0071 1.6321,0.23903 1.3125,-0.77711 v -3.8166 h 14.656 c -0.13474,-0.55028 0.39583,-1.7659 -0.55508,-1.5 h -4.9137 v -8.3125 h 5.4688 c -0.13474,-0.55028 0.39583,-1.7659 -0.55508,-1.5 h -13.914 v -8.375 h 14.469 c -0.13474,-0.55028 0.39583,-1.7659 -0.55508,-1.5 h -4.9762 v -8.3125 h 5.5312 c -0.13474,-0.55028 0.39583,-1.7659 -0.55508,-1.5 h -14.257 v -3.625 c -0.68944,0.0071 -1.6321,-0.23903 -1.3125,0.77711 v 2.8479 h -18.719 v -3.625 h -1.3125 z m 10.594,5.125 h 18.719 v 8.3125 h -18.719 z m -8.9375,9.8125 h 18.719 v 8.375 h -18.719 z m 9,9.875 h 18.75 v 8.3125 h -18.75 z"
         id="path4612"
         style="color:#000000;text-indent:0;text-align:start;text-transform:none;direction:ltr;fill:#dec37c;enable-background:accumulate" />
      <path
         d="m 133.13,12.6 c -1.662,0 -3,1.338 -3,3 v 33.5 c 0,1.662 1.338,3 3,3 h 33.5 c 1.662,0 3,-1.338 3,-3 V 15.6 c 0,-1.662 -1.338,-3 -3,-3 z m 1.8125,2.125 h 29.875 c 1.4814,0 2.6562,1.2061 2.6562,2.6875 v 29.875 c 0,1.4814 -1.1749,2.6562 -2.6562,2.6562 h -29.875 c -1.4814,0 -2.6875,-1.1749 -2.6875,-2.6562 v -29.875 c 0,-1.4814 1.2061,-2.6875 2.6875,-2.6875 z"
         id="rect3839"
         style="color:#000000;fill:url(#linearGradient4643);enable-background:accumulate" />
      <rect
         width="39.506001"
         height="39.506001"
         rx="3"
         ry="3"
         x="130.25"
         y="12.609"
         id="arena_block_old"
         style="fill:none;stroke:#745944;stroke-width:0.49383;stroke-linecap:round;stroke-linejoin:miter;stroke-miterlimit:4;stroke-dasharray:none;stroke-dashoffset:0" />
    </g>
  </g>
</svg>
