<?xml version="1.0" encoding="UTF-8" standalone="no"?>
<svg
   xmlns:dc="http://purl.org/dc/elements/1.1/"
   xmlns:cc="http://creativecommons.org/ns#"
   xmlns:rdf="http://www.w3.org/1999/02/22-rdf-syntax-ns#"
   xmlns:svg="http://www.w3.org/2000/svg"
   xmlns="http://www.w3.org/2000/svg"
   xmlns:sodipodi="http://sodipodi.sourceforge.net/DTD/sodipodi-0.dtd"
   xmlns:inkscape="http://www.inkscape.org/namespaces/inkscape"
   width="10.583288mm"
   height="10.583288mm"
   viewBox="0 0 10.583288 10.583288"
   version="1.1"
   id="svg2150"
   inkscape:version="1.0.1 (3bc2e813f5, 2020-09-07)"
   sodipodi:docname="arena_ice.svg">
  <defs
     id="defs2144">
    <linearGradient
       x1="198.56"
       y1="25.052"
       x2="199.73"
       y2="26.24"
       id="linearGradient5164"
       gradientUnits="userSpaceOnUse">
      <stop
         id="stop3929"
         style="stop-color:#ffffff;stop-opacity:1"
         offset="0" />
      <stop
         id="stop3931"
         style="stop-color:#ffffff;stop-opacity:0"
         offset="1" />
    </linearGradient>
    <linearGradient
       x1="213.49001"
       y1="28.624001"
       x2="187.92"
       y2="51.176998"
       id="linearGradient5138"
       gradientUnits="userSpaceOnUse">
      <stop
         id="stop3365-2-2"
         style="stop-color:#ffffff;stop-opacity:1"
         offset="0" />
      <stop
         id="stop3367-0-2"
         style="stop-color:#ffffff;stop-opacity:0"
         offset="1" />
    </linearGradient>
  </defs>
  <sodipodi:namedview
     id="base"
     pagecolor="#ffffff"
     bordercolor="#666666"
     borderopacity="1.0"
     inkscape:pageopacity="0.0"
     inkscape:pageshadow="2"
     inkscape:zoom="0.35"
     inkscape:cx="165.7142"
     inkscape:cy="151.42849"
     inkscape:document-units="mm"
     inkscape:current-layer="layer1"
     inkscape:document-rotation="0"
     showgrid="false"
     inkscape:window-width="1254"
     inkscape:window-height="872"
     inkscape:window-x="101"
     inkscape:window-y="0"
     inkscape:window-maximized="0"
     fit-margin-top="0"
     fit-margin-left="0"
     fit-margin-right="0"
     fit-margin-bottom="0"
     inkscape:pagecheckerboard="true" />
  <metadata
     id="metadata2147">
    <rdf:RDF>
      <cc:Work
         rdf:about="">
        <dc:format>image/svg+xml</dc:format>
        <dc:type
           rdf:resource="http://purl.org/dc/dcmitype/StillImage" />
        <dc:title></dc:title>
      </cc:Work>
    </rdf:RDF>
  </metadata>
  <g
     inkscape:label="Ebene 1"
     inkscape:groupmode="layer"
     id="layer1"
     transform="translate(-61.988118,-108.10121)">
    <g
       transform="matrix(0.26458333,0,0,0.26458333,14.362302,104.83041)"
       id="arena_ice">
      <rect
         width="39.506001"
         height="39.506001"
         rx="3"
         ry="3"
         x="180.27"
         y="12.491"
         id="rect3984-1"
         style="fill:#c2d2de;fill-rule:nonzero" />
      <path
         d="m 180.54,45.59 c 1.6483,-0.54132 3.4545,-1.497 3.9688,-3.287 -0.0423,-1.8029 -1.164,-3.7285 -0.13242,-5.4421 1.705,-1.3364 3.8002,1.5104 2.4055,2.9819 3.5929,6.3127 12.185,-0.95497 15.262,-5.2791 0.4394,-1.046 0.1039,-3.2923 1.3974,-3.394 1.6538,3.1726 0.16036,7.6174 -3.2351,8.9209 -4.1776,2.3135 -8.8939,3.4173 -13.095,5.6803 -1.5885,-0.2705 -3.1551,2.0147 -1.9093,3.241 2.3668,1.3389 5.2083,0.98195 7.8206,1.1581 3.6229,-0.03087 7.2703,-1.4611 9.7171,-4.1785 1.5232,-1.3935 2.9713,-2.867 4.5069,-4.2472 0.60587,1.3216 -0.96055,2.2322 -1.2559,3.412 -0.45925,0.87406 -0.9185,1.7481 -1.3778,2.6222 1.7164,-2.0456 3.4851,-4.2311 5.999,-5.3185 1.6296,0.55606 1.3236,2.7071 0.58819,3.8717 -0.91917,1.7863 1.8771,2.3548 2.259,0.61781 0.18291,-2.001 3.0118,-0.83955 2.1873,0.72386 -0.97452,1.3886 -2.5163,2.3087 -4.002,3.077 -1.5243,1.1938 -2.8996,-0.10791 -3.2766,-1.6422 -2.5914,-1.8444 -6.1571,1.6928 -9.199,2.4164 -4.0987,0.8523 -8.294,0.18397 -12.428,0.05339 -1.6334,-0.42903 -4.74,0.38711 -4.9011,-1.9926 -0.36774,-1.6001 2.983,-3.1405 0.83361,-4.239 -0.73752,-0.28972 -1.4426,-0.01041 -2.1327,0.24365 z"
         id="path5219-1"
         style="fill:#9e9e9e;fill-opacity:0.147826" />
      <path
         d="m 182.12,18.965 c 1.6615,-1.2563 3.3231,-2.5126 4.9846,-3.7689 -0.97452,1.4166 -2.0077,2.8857 -2.3081,4.6161 3.6748,1.6778 7.96,-2.4976 10.94,-4.6161 -1.4994,0.81051 -2.9989,1.621 -4.4983,2.4315 0.87249,-2.8379 3.8035,-4.4331 6.571,-4.8899 4.2542,-0.77698 8.57,0.12267 12.85,-0.16877 -0.15093,1.4952 -1.9031,1.6735 -2.9236,2.3646 -2.7998,1.6996 -5.7868,3.2781 -7.9264,5.8263 -0.32045,1.1651 -0.93384,2.9877 -2.4651,2.7141 -1.3494,-0.48818 -1.382,-2.4973 -0.38735,-3.3617 1.7762,-2.0349 4.0112,-3.7145 6.5671,-4.6299 0.56447,-1.5931 -1.714,-1.5406 -2.706,-1.4122 -1.3884,-0.12733 -2.8517,0.51139 -3.6015,1.7073 -5.3736,2.9482 -10.523,6.302 -16.017,9.0434 1.6971,-1.38 3.4532,-2.6849 5.1758,-4.0323 -3.1471,2.134 -1.1978,-3.9955 -4.2552,-1.8236 z"
         id="path5221-5"
         style="fill:#9e9e9e;fill-opacity:0.0913043" />
      <path
         d="m 217.5,17.019 c 0,0 -4.2552,3.5257 -3.5257,3.6473 0.72946,0.12158 2.7963,-1.2158 2.7963,-1.2158 0.20802,3.8105 -6.5462,2.4004 -8.1456,5.8357 -0.24316,1.8236 7.4162,-2.7963 7.4162,-2.7963 l -2.9178,3.8905 c 0,0 3.7689,-2.1884 4.3768,-4.7415 0.60789,-2.5531 -0.72946,-3.4041 0,-4.6199 z"
         id="path5223-9"
         style="fill:#9e9e9e;fill-opacity:0.147826" />
      <path
         d="m 180.42,29.055 8.632,-5.1062 c 0,0 -2.4315,1.5805 -4.3768,3.5257 -1.9452,1.9452 3.161,0.12158 3.161,0.12158 -1.9851,2.6826 -5.1241,1.8704 -7.7809,3.0394 l 0.36473,-1.5805 z"
         id="path5227-8"
         style="fill:#858585;fill-opacity:0.23913" />
      <path
         d="m 183.38,35.419 c 0,0 6.5335,-2.4071 5.8458,0 -0.68774,2.4071 -0.51581,5.8458 0.17194,5.5019 0.68774,-0.34387 4.6422,-6.5335 2.0632,-7.5652 -2.579,-1.0316 -8.4248,1.7194 -8.081,2.0632 z"
         id="path5229-4"
         style="fill:#ffffff;fill-opacity:0.121739" />
      <path
         d="m 212.65,32.954 c 0,0 0.76271,1.0929 0.76271,3.2788 0,2.1859 -0.98062,4.2351 -0.98062,4.2351 0,0 2.506,-2.5957 2.1792,-4.5083 -0.32687,-1.9126 -1.9612,-3.1422 -1.9612,-3.0056 z"
         id="path5231-81"
         style="fill:#ffffff;fill-opacity:0.104348" />
      <path
         d="m 210.58,28.713 c 0,0 1.364,5.1581 0.68201,7.3932 -0.68201,2.2352 -1.7537,5.6739 -1.7537,5.6739 0,0 2.9229,-3.2668 2.9229,-6.0177 0,-2.751 -1.9486,-7.2213 -1.8512,-7.0494 z"
         id="path5233-0"
         style="fill:#ffffff;fill-opacity:0.191304" />
      <path
         d="m 192.06,13.583 c 0,0 -4.6422,2.4931 -5.0721,3.5247 -0.42984,1.0316 3.7826,-0.42984 3.7826,-0.42984 l -2.665,0.08597 3.9545,-3.1808 z"
         id="path5235-3"
         style="fill:#ffffff;fill-opacity:0.308696" />
      <path
         d="m 218.19,21.75 c 0,0 0,1.6334 -1.2895,2.579 -1.2895,0.94564 -5.1581,4.2124 -3.4387,4.0405 1.7194,-0.17194 5.5019,-3.4387 5.5019,-3.4387 0,0 -2.579,2.0632 -2.8369,1.6334 -0.2579,-0.42984 2.4071,-3.5247 2.0632,-4.8142 z"
         id="path5237-04"
         style="fill:#ffffff;fill-opacity:0.308696" />
      <path
         d="m 215.96,12.723 c 0,0 2.1492,-0.42984 2.3211,0.60177 0.17193,1.0316 -5.244,2.665 -6.5336,3.4387 -1.2895,0.77371 -3.2668,1.5474 -3.2668,1.5474 0,0 3.8686,-2.665 5.9318,-3.3527 2.0632,-0.68774 2.4931,-1.2895 2.4931,-1.2895 l -7.6511,2.4071 5.1581,-3.0089 -1.3755,1.2895 c 0,0 2.751,-1.0316 2.9229,-1.6334 z"
         id="path5239-4"
         style="fill:#ffffff;fill-opacity:0.134783" />
      <rect
         width="39.506001"
         height="39.506001"
         rx="3"
         ry="3"
         x="180.25"
         y="12.609"
         id="arena_ground-3"
         style="fill:none;stroke:#899eab;stroke-width:0.49383;stroke-linecap:round;stroke-linejoin:miter;stroke-miterlimit:4;stroke-dasharray:none;stroke-dashoffset:0" />
      <path
         d="m 195.6,34.687 7.2014,-6.7604 c 0,0 -6.213,4.3943 -7.2014,6.7604 z"
         id="path4901"
         style="fill:#ffffff" />
      <path
         d="m 197.54,31.447 13.803,-13.261 c 0,0 -11.908,8.6196 -13.803,13.261 z"
         id="path4903"
         style="fill:#ffffff;fill-opacity:0.365217" />
      <path
         d="m 201.88,30.954 7.2014,-6.7604 c 0,0 -6.213,4.3943 -7.2014,6.7604 z"
         id="path4905"
         style="fill:#ffffff;fill-opacity:0.747826" />
      <path
         d="m 184.12,13.553 c -1.5763,0 -2.7912,1.2149 -2.7912,2.7912 v 27.562 l 32.197,-30.354 h -29.406 z"
         id="rect5064"
         style="color:#000000;opacity:0.414634;fill:url(#linearGradient5164);fill-rule:nonzero;enable-background:accumulate" />
      <path
         d="m 184.87,50.986 c 0,0 3.7335,0.33941 4.7518,0.11314 1.0182,-0.22627 29.416,-26.7 29.416,-26.7 l 0.0137,-4.9255 c -0.36,2.28 -1.7839,3.0341 -4.8786,5.8306 -2.7239,2.4614 -29.076,26.135 -29.303,25.682 z"
         id="path5128"
         style="color:#000000;opacity:0.528455;fill:url(#linearGradient5138);fill-rule:nonzero;enable-background:accumulate" />
      <path
         d="m 191.65,51.325 c 0,0 1.2445,0.11314 2.2627,-0.11314 1.0182,-0.22627 25.23,-23.985 25.23,-23.985 l -0.11314,-1.3576 c -9.8266,11.401 -16.28,14.33 -27.379,25.456 z"
         id="path5130"
         style="color:#000000;opacity:0.808943;fill:#ffffff;fill-opacity:0.365217;fill-rule:nonzero;enable-background:accumulate" />
    </g>
  </g>
</svg>
