<?xml version="1.0" encoding="UTF-8" standalone="no"?>
<svg
   xmlns:dc="http://purl.org/dc/elements/1.1/"
   xmlns:cc="http://creativecommons.org/ns#"
   xmlns:rdf="http://www.w3.org/1999/02/22-rdf-syntax-ns#"
   xmlns:svg="http://www.w3.org/2000/svg"
   xmlns="http://www.w3.org/2000/svg"
   xmlns:xlink="http://www.w3.org/1999/xlink"
   xmlns:sodipodi="http://sodipodi.sourceforge.net/DTD/sodipodi-0.dtd"
   xmlns:inkscape="http://www.inkscape.org/namespaces/inkscape"
   width="10.583288mm"
   height="10.583288mm"
   viewBox="0 0 10.583288 10.583288"
   version="1.1"
   id="svg2421"
   inkscape:version="1.0.1 (3bc2e813f5, 2020-09-07)"
   sodipodi:docname="arena_mine.svg">
  <defs
     id="defs2415">
    <linearGradient
       x1="279.92999"
       y1="10.526"
       x2="310.41"
       y2="18.749001"
       id="linearGradient12465"
       gradientUnits="userSpaceOnUse"
       gradientTransform="matrix(0.54388204,0.47349238,-0.47349238,0.54388204,102.61132,-113.5564)"
       spreadMethod="reflect">
      <stop
         id="stop5173-9-1-2"
         style="stop-color:#a6ffb4;stop-opacity:1"
         offset="0" />
      <stop
         id="stop5178-7-0-5"
         style="stop-color:#1bd92d;stop-opacity:1"
         offset="1" />
    </linearGradient>
    <linearGradient
       x1="279.92999"
       y1="10.526"
       x2="310.82001"
       y2="18.749001"
       id="linearGradient12467"
       gradientUnits="userSpaceOnUse"
       gradientTransform="matrix(0.54388204,0.47349238,-0.47349238,0.54388204,102.61132,-113.5564)">
      <stop
         id="stop12391-5"
         style="stop-color:#4e9a5c;stop-opacity:1"
         offset="0" />
      <stop
         id="stop12393-7"
         style="stop-color:#e0fae5;stop-opacity:1"
         offset="1" />
    </linearGradient>
    <radialGradient
       cx="248.11"
       cy="33.675999"
       r="7.467"
       id="radialGradient12453"
       xlink:href="#linearGradient5872"
       gradientUnits="userSpaceOnUse" />
    <linearGradient
       id="linearGradient5872">
      <stop
         id="stop5874"
         style="stop-color:#000000;stop-opacity:1"
         offset="0" />
      <stop
         id="stop5876"
         style="stop-color:#000000;stop-opacity:1"
         offset="0.57766002" />
      <stop
         id="stop5878"
         style="stop-color:#000000;stop-opacity:0"
         offset="1" />
    </linearGradient>
    <radialGradient
       cx="248.11"
       cy="33.675999"
       r="7.467"
       id="radialGradient4972"
       xlink:href="#linearGradient4974"
       gradientUnits="userSpaceOnUse" />
    <linearGradient
       id="linearGradient4974">
      <stop
         id="stop4976"
         style="stop-color:#968f8f;stop-opacity:1"
         offset="0" />
      <stop
         id="stop4978"
         style="stop-color:#313131;stop-opacity:1"
         offset="1" />
    </linearGradient>
    <linearGradient
       x1="250.2"
       y1="36.287998"
       x2="250.2"
       y2="41.563"
       id="linearGradient5007"
       gradientUnits="userSpaceOnUse"
       gradientTransform="matrix(1,0,0,1.0754306,0,-2.6348488)">
      <stop
         id="stop5003"
         style="stop-color:#e7e7e7;stop-opacity:1"
         offset="0" />
      <stop
         id="stop5005"
         style="stop-color:#dddddd;stop-opacity:0"
         offset="1" />
    </linearGradient>
  </defs>
  <sodipodi:namedview
     id="base"
     pagecolor="#ffffff"
     bordercolor="#666666"
     borderopacity="1.0"
     inkscape:pageopacity="0.0"
     inkscape:pageshadow="2"
     inkscape:zoom="0.35"
     inkscape:cx="-42.857226"
     inkscape:cy="188.57134"
     inkscape:document-units="mm"
     inkscape:current-layer="layer1"
     inkscape:document-rotation="0"
     showgrid="false"
     inkscape:window-width="1254"
     inkscape:window-height="872"
     inkscape:window-x="49"
     inkscape:window-y="0"
     inkscape:window-maximized="0"
     fit-margin-top="0"
     fit-margin-left="0"
     fit-margin-right="0"
     fit-margin-bottom="0"
     inkscape:pagecheckerboard="true" />
  <metadata
     id="metadata2418">
    <rdf:RDF>
      <cc:Work
         rdf:about="">
        <dc:format>image/svg+xml</dc:format>
        <dc:type
           rdf:resource="http://purl.org/dc/dcmitype/StillImage" />
        <dc:title></dc:title>
      </cc:Work>
    </rdf:RDF>
  </metadata>
  <g
     inkscape:label="Ebene 1"
     inkscape:groupmode="layer"
     id="layer1"
     transform="translate(-117.17264,-98.273832)">
    <g
       transform="matrix(0.26458333,0,0,0.26458333,56.317659,95.00303)"
       id="arena_mine">
      <rect
         width="39.506001"
         height="39.506001"
         rx="3"
         ry="3"
         x="230.28"
         y="12.605"
         id="rect3984-0"
         style="fill:#cfcfcf;fill-rule:nonzero" />
      <path
         d="m 251.05,49.516 c -1.4209,-1.5286 -2.8418,-3.0572 -4.2627,-4.5859 -1.9732,0.67972 -3.9465,1.3594 -5.9197,2.0392 -0.25103,-2.0719 -0.50207,-4.1437 -0.75311,-6.2156 -1.9959,-0.60994 -3.9918,-1.2199 -5.9877,-1.8298 1.0147,-1.8237 2.0294,-3.6475 3.0442,-5.4712 -1.2562,-1.6666 -2.5124,-3.3332 -3.7686,-4.9998 1.8929,-0.879 3.7858,-1.758 5.6787,-2.637 -0.0367,-2.0867 -0.0734,-4.1734 -0.11005,-6.2601 2.048,0.40149 4.0961,0.80299 6.1441,1.2045 1.1968,-1.7097 2.3937,-3.4195 3.5906,-5.1292 1.4209,1.5286 2.8418,3.0572 4.2627,4.5859 1.9732,-0.67972 3.9465,-1.3594 5.9197,-2.0391 0.25104,2.0719 0.50207,4.1437 0.75311,6.2156 1.9959,0.60994 3.9918,1.2199 5.9877,1.8298 -1.0147,1.8237 -2.0294,3.6475 -3.0442,5.4712 1.2562,1.6666 2.5124,3.3332 3.7686,4.9998 -1.8929,0.879 -3.7858,1.758 -5.6787,2.637 0.0367,2.0867 0.0734,4.1734 0.11005,6.2601 -2.048,-0.4015 -4.0961,-0.80299 -6.1441,-1.2045 -1.1968,1.7097 -2.3937,3.4195 -3.5906,5.1292 z"
         id="path12379"
         style="color:#000000;fill:url(#linearGradient12465);fill-rule:nonzero;stroke:url(#linearGradient12467);stroke-width:0.676;stroke-linecap:butt;stroke-linejoin:miter;stroke-miterlimit:4;stroke-dashoffset:0;enable-background:accumulate" />
      <path
         d="m 255.58,33.676 c 0,4.1239 -3.3431,7.467 -7.467,7.467 -4.1239,0 -7.467,-3.3431 -7.467,-7.467 0,-4.1239 3.3431,-7.467 7.467,-7.467 4.1239,0 7.467,3.3431 7.467,7.467 z"
         transform="matrix(1.5073389,0,0,1.3948863,-122.70962,-11.9723)"
         id="path12451"
         style="opacity:0.760163;fill:url(#radialGradient12453)" />
      <path
         d="m 235.34,36.625 c -0.32155,-0.0069 -0.64906,0.09317 -0.96875,0.34375 -1.0316,1.7137 0.0827,3.6346 0.125,5.4375 -0.5143,1.79 -2.3205,2.7399 -3.9688,3.2812 0.69007,-0.25406 1.4187,-0.50847 2.1562,-0.21875 2.1493,1.0985 -1.2115,2.6187 -0.84375,4.2188 0.16105,2.3797 3.2728,1.571 4.9062,2 4.1338,0.13058 8.3388,0.7898 12.438,-0.0625 3.0419,-0.72362 6.5961,-4.2506 9.1875,-2.4062 0.37695,1.5343 1.757,2.85 3.2812,1.6562 1.4857,-0.76834 3.0255,-1.7052 4,-3.0938 0.82448,-1.5634 -2.0046,-2.7197 -2.1875,-0.71875 -0.38194,1.737 -3.1692,1.1613 -2.25,-0.625 0.57743,-0.91438 0.86854,-2.4313 0.1875,-3.3125 l -1.3438,1.5 -1.5,-0.84375 c -0.18947,0.14437 -0.38107,0.28244 -0.5625,0.4375 l 3.51,4.344 -4.03,-3.843 c -1.0421,0.97839 -1.9654,2.1035 -2.875,3.1875 l 1.375,-2.625 c 0.114,-0.45538 0.42401,-0.86695 0.71875,-1.2812 l -0.875,-0.84375 c -0.7109,0.67509 -1.4133,1.3569 -2.125,2.0312 l -0.72,1.282 -0.28,-0.344 c -1.0335,1.1389 -2.2907,2.044 -3.6562,2.7188 l 0.375,1.4062 -0.59375,-1.3125 c -1.8126,0.85558 -3.8071,1.3267 -5.8125,1.3438 -2.6123,-0.1761 -5.4457,0.18264 -7.8125,-1.1562 -1.2458,-1.2263 0.31772,-3.5205 1.9062,-3.25 1.1085,-0.5971 2.2454,-1.0833 3.4062,-1.5625 l 1.3438,-1.2188 -5.0938,-0.125 1.3438,-1.4062 c -0.50176,-0.38767 -0.94883,-0.89987 -1.3438,-1.5938 1.1333,-1.1956 -0.0441,-3.3138 -1.4375,-3.3438 z m 21.562,6.25 0.28125,0.34375 c 0.0244,-0.05018 0.042,-0.10537 0.0625,-0.15625 z"
         id="path5219-6"
         style="fill:#9e9e9e;fill-opacity:0.147826" />
      <path
         d="m 251,12.531 c -1.0697,0.02947 -2.124,0.11826 -3.1875,0.3125 -2.7674,0.45682 -5.69,2.0684 -6.5625,4.9062 l 4.5,-2.4375 c -1.4647,1.0412 -3.2572,2.5604 -5.125,3.6562 l 0.59375,0.375 c 0.73913,-0.4348 1.4777,-0.88137 2.2188,-1.3125 l -0.0312,-0.125 0.125,0.0625 c 1.2203,-0.7093 2.4504,-1.415 3.6875,-2.0938 0.74974,-1.1959 2.2053,-1.8148 3.5938,-1.6875 0.99207,-0.12836 3.2832,-0.18688 2.7188,1.4062 -0.86883,0.31118 -1.7108,0.71577 -2.5,1.1875 l 0.5,2.375 c 1.8812,-1.6129 4.1064,-2.8427 6.2188,-4.125 0.0462,-0.0313 0.10724,-0.03313 0.15625,-0.0625 l -1.28,-1.218 1.5312,1.0625 c 1.0211,-0.51753 2.3679,-0.81673 2.5,-2.125 -3.21,0.21858 -6.4471,-0.24467 -9.6562,-0.15625 z m -13.875,2.7812 -1.2188,0.90625 0.40625,0.25 c 0.25726,-0.39629 0.54807,-0.77186 0.8125,-1.1562 z m -1.3125,0.96875 -3.6875,2.7812 c 3.0573,-2.1719 1.1029,3.9778 4.25,1.8438 -1.7227,1.3474 -3.4591,2.6513 -5.1562,4.0312 2.0793,-1.0376 4.0822,-2.1859 6.0938,-3.3438 l -0.65625,-0.96875 1.0625,0.75 c 0.93877,-0.54289 1.8778,-1.0751 2.8125,-1.625 l -0.5625,-0.40625 c -1.731,0.89996 -3.4978,1.3509 -5.1562,0.59375 0.21093,-1.2152 0.7779,-2.314 1.4375,-3.3438 l -0.4375,-0.3125 z m 14.469,1 c -1.2321,0.83639 -2.3352,1.8179 -3.3125,2.9375 l 0.8125,0.53125 2.5,-3.4688 z"
         id="path5221-4"
         style="fill:#9e9e9e;fill-opacity:0.0913043" />
      <path
         d="m 268.19,21.875 c 0,0 0.008,1.6169 -1.2812,2.5625 -0.5789,0.42453 -1.6517,1.3173 -2.5312,2.1562 l 1.0312,0.25 -2.0312,1.625 c 0.0343,-3.26e-4 0.0534,0.004 0.0937,0 1.7194,-0.17194 5.5,-3.4375 5.5,-3.4375 0,0 -2.5858,2.0861 -2.8438,1.6562 -0.2579,-0.42984 2.4064,-3.523 2.0625,-4.8125 z"
         id="path5237-6"
         style="fill:#ffffff;fill-opacity:0.308696" />
      <path
         d="m 267.06,12.75 c -0.55879,-0.02149 -1.0938,0.09375 -1.0938,0.09375 -0.17193,0.60177 -2.9375,1.625 -2.9375,1.625 l 1.375,-1.2812 -2.0938,1.2188 -0.6875,1.0312 5.2812,-1.6562 c 0,0 -0.43678,0.59351 -2.5,1.2812 -1.0703,0.35675 -2.5939,1.2271 -3.8438,2 l -0.125,0.21875 0.0937,0.25 c 0.42265,-0.20469 0.8466,-0.43296 1.2188,-0.65625 1.2895,-0.77371 6.7032,-2.4059 6.5312,-3.4375 -0.086,-0.51581 -0.65996,-0.66601 -1.2188,-0.6875 z m -4.875,1.7188 -2.9375,1.7188 2.125,-0.65625 0.8125,-1.0625 z m -2.27,3.031 c -0.78882,0.50472 -1.4062,0.9375 -1.4062,0.9375 0,0 0.71214,-0.29625 1.5625,-0.6875 l -0.15625,-0.25 z"
         id="path5239-0"
         style="fill:#ffffff;fill-opacity:0.134783" />
      <path
         d="m 245.05,28.443 c 0,1.2965 -1.051,2.3476 -2.3476,2.3476 -1.2965,0 -2.3476,-1.0511 -2.3476,-2.3476 0,-1.2965 1.0511,-2.3476 2.3476,-2.3476 1.2965,0 2.3476,1.0511 2.3476,2.3476 z"
         transform="matrix(1,0,0,-1,0.622254,65.295083)"
         id="path4984"
         style="fill:#313131;stroke:#000000;stroke-width:0.2;stroke-miterlimit:4;stroke-dasharray:none" />
      <rect
         width="39.506001"
         height="39.506001"
         rx="3"
         ry="3"
         x="230.25"
         y="12.609"
         id="arena_ground-0"
         style="fill:none;stroke:#9d9d9d;stroke-width:0.49383;stroke-linecap:round;stroke-linejoin:miter;stroke-miterlimit:4;stroke-dasharray:none;stroke-dashoffset:0" />
      <path
         d="m 245.05,28.443 c 0,1.2965 -1.051,2.3476 -2.3476,2.3476 -1.2965,0 -2.3476,-1.0511 -2.3476,-2.3476 0,-1.2965 1.0511,-2.3476 2.3476,-2.3476 1.2965,0 2.3476,1.0511 2.3476,2.3476 z"
         transform="translate(0.62225399,-0.4324475)"
         id="path4980"
         style="fill:#313131;stroke:#000000;stroke-width:0.2;stroke-miterlimit:4;stroke-dasharray:none" />
      <path
         d="m 245.05,28.443 c 0,1.2965 -1.051,2.3476 -2.3476,2.3476 -1.2965,0 -2.3476,-1.0511 -2.3476,-2.3476 0,-1.2965 1.0511,-2.3476 2.3476,-2.3476 1.2965,0 2.3476,1.0511 2.3476,2.3476 z"
         transform="translate(14.36841,-0.4324475)"
         id="path4982"
         style="fill:#313131;stroke:#000000;stroke-width:0.2;stroke-miterlimit:4;stroke-dasharray:none" />
      <path
         d="m 245.05,28.443 c 0,1.2965 -1.051,2.3476 -2.3476,2.3476 -1.2965,0 -2.3476,-1.0511 -2.3476,-2.3476 0,-1.2965 1.0511,-2.3476 2.3476,-2.3476 1.2965,0 2.3476,1.0511 2.3476,2.3476 z"
         transform="matrix(1,0,0,-1,14.36841,65.295083)"
         id="path4986"
         style="fill:#313131;stroke:#000000;stroke-width:0.2;stroke-miterlimit:4;stroke-dasharray:none" />
      <path
         d="m 255.58,33.676 c 0,4.1239 -3.3431,7.467 -7.467,7.467 -4.1239,0 -7.467,-3.3431 -7.467,-7.467 0,-4.1239 3.3431,-7.467 7.467,-7.467 4.1239,0 7.467,3.3431 7.467,7.467 z"
         transform="matrix(1.1818181,0,0,1.1818181,-42.961231,-7.5370919)"
         id="path4959"
         style="fill:url(#radialGradient4972);stroke:#000000;stroke-width:0.169231;stroke-miterlimit:4;stroke-dasharray:none" />
      <path
         d="m 250.19,30.939 c -2.0464,0 -3.6875,1.4792 -3.6875,3.2935 0,1.4099 0.99942,2.5922 2.4062,3.0583 v 0.92457 c 0,0.39102 0.25406,0.59051 0.59375,0.67411 v -1.1282 h 0.1875 v 1.1618 h 0.34375 v -1.1618 h 0.1875 v 1.1618 h 0.28125 v -1.1618 h 0.1875 v 1.1618 c 0.39668,-0.03125 0.6875,-0.27031 0.6875,-0.70772 V 37.3244 c 1.4694,-0.43608 2.5312,-1.6423 2.5312,-3.0919 0,-1.8143 -1.6724,-3.2935 -3.7188,-3.2935 z"
         id="path4988"
         style="fill:url(#linearGradient5007)" />
      <path
         d="m 249.48,35.748 c 0,0.16793 -0.13613,0.30406 -0.30405,0.30406 -0.16793,0 -0.30406,-0.13613 -0.30406,-0.30406 0,-0.16792 0.13613,-0.30406 0.30406,-0.30406 0.16792,0 0.30405,0.13613 0.30405,0.30406 z"
         transform="matrix(1,0,0,1.0754306,-0.12728223,-2.3458889)"
         id="path5011"
         style="fill:#000000" />
      <path
         d="m 249.48,35.748 c 0,0.16793 -0.13613,0.30406 -0.30405,0.30406 -0.16793,0 -0.30406,-0.13613 -0.30406,-0.30406 0,-0.16792 0.13613,-0.30406 0.30406,-0.30406 0.16792,0 0.30405,0.13613 0.30405,0.30406 z"
         transform="matrix(1,0,0,1.0754306,2.0293878,-2.3458889)"
         id="path5013"
         style="fill:#000000" />
    </g>
  </g>
</svg>
