<?xml version="1.0" encoding="UTF-8" standalone="no"?>
<svg
   xmlns:dc="http://purl.org/dc/elements/1.1/"
   xmlns:cc="http://creativecommons.org/ns#"
   xmlns:rdf="http://www.w3.org/1999/02/22-rdf-syntax-ns#"
   xmlns:svg="http://www.w3.org/2000/svg"
   xmlns="http://www.w3.org/2000/svg"
   xmlns:xlink="http://www.w3.org/1999/xlink"
   xmlns:sodipodi="http://sodipodi.sourceforge.net/DTD/sodipodi-0.dtd"
   xmlns:inkscape="http://www.inkscape.org/namespaces/inkscape"
   width="210mm"
   height="297mm"
   viewBox="0 0 210 297"
   version="1.1"
   id="svg2245"
   inkscape:version="1.0.1 (3bc2e813f5, 2020-09-07)"
   sodipodi:docname="arena_bomb_mortar.svg">
  <defs
     id="defs2239">
    <radialGradient
       cx="253.66"
       cy="33.893002"
       r="9.9687996"
       id="radialGradient12457"
       xlink:href="#linearGradient5872"
       gradientUnits="userSpaceOnUse" />
    <linearGradient
       id="linearGradient5872">
      <stop
         id="stop5874"
         style="stop-color:#000000;stop-opacity:1"
         offset="0" />
      <stop
         id="stop5876"
         style="stop-color:#000000;stop-opacity:1"
         offset="0.57766002" />
      <stop
         id="stop5878"
         style="stop-color:#000000;stop-opacity:0"
         offset="1" />
    </linearGradient>
    <linearGradient
       x1="247.89999"
       y1="25.577999"
       x2="261.73001"
       y2="38.008999"
       id="linearGradient12047"
       gradientUnits="userSpaceOnUse">
      <stop
         id="stop12043"
         style="stop-color:#ffd516;stop-opacity:1"
         offset="0" />
      <stop
         id="stop12049"
         style="stop-color:#fff3c9;stop-opacity:1"
         offset="0.5" />
      <stop
         id="stop12045"
         style="stop-color:#ffe748;stop-opacity:1"
         offset="1" />
    </linearGradient>
    <linearGradient
       x1="259.48001"
       y1="40.923"
       x2="246.75999"
       y2="27.677999"
       id="linearGradient12039"
       gradientUnits="userSpaceOnUse">
      <stop
         id="stop12025"
         style="stop-color:#000000;stop-opacity:1"
         offset="0" />
      <stop
         id="stop12031"
         style="stop-color:#ffc200;stop-opacity:1"
         offset="0.5" />
      <stop
         id="stop12027"
         style="stop-color:#fff5c4;stop-opacity:1"
         offset="1" />
    </linearGradient>
    <linearGradient
       x1="246.66"
       y1="25.047001"
       x2="256.42001"
       y2="32.578999"
       id="linearGradient12377"
       gradientUnits="userSpaceOnUse"
       gradientTransform="matrix(1.2633517,0,0,1.2633517,-65.846161,-8.5802519)">
      <stop
         id="stop12043-3-7"
         style="stop-color:#000000;stop-opacity:1"
         offset="0" />
      <stop
         id="stop12049-2-8"
         style="stop-color:#c6c4bc;stop-opacity:1"
         offset="0.5" />
      <stop
         id="stop12045-5-0"
         style="stop-color:#262626;stop-opacity:1"
         offset="1" />
    </linearGradient>
    <radialGradient
       cx="253.66"
       cy="33.893002"
       r="10.256"
       id="radialGradient6238"
       gradientUnits="userSpaceOnUse"
       spreadMethod="reflect">
      <stop
         id="stop14265"
         style="stop-color:#000000;stop-opacity:1"
         offset="0" />
      <stop
         id="stop6234"
         style="stop-color:#000000;stop-opacity:0.94117647"
         offset="0.5" />
      <stop
         id="stop14267"
         style="stop-color:#000000;stop-opacity:0.64705884"
         offset="1" />
    </radialGradient>
    <linearGradient
       x1="251.03999"
       y1="30.736"
       x2="256.85999"
       y2="41.603001"
       id="linearGradient12029"
       gradientUnits="userSpaceOnUse">
      <stop
         id="stop12234"
         style="stop-color:#000000;stop-opacity:1"
         offset="0" />
      <stop
         id="stop12236"
         style="stop-color:#ffc200;stop-opacity:1"
         offset="0.56453001" />
      <stop
         id="stop12238"
         style="stop-color:#fff5c4;stop-opacity:1"
         offset="1" />
    </linearGradient>
  </defs>
  <sodipodi:namedview
     id="base"
     pagecolor="#ffffff"
     bordercolor="#666666"
     borderopacity="1.0"
     inkscape:pageopacity="0.0"
     inkscape:pageshadow="2"
     inkscape:zoom="0.35"
     inkscape:cx="400"
     inkscape:cy="560"
     inkscape:document-units="mm"
     inkscape:current-layer="layer1"
     inkscape:document-rotation="0"
     showgrid="false"
     inkscape:window-width="1254"
     inkscape:window-height="872"
     inkscape:window-x="24"
     inkscape:window-y="0"
     inkscape:window-maximized="0" />
  <metadata
     id="metadata2242">
    <rdf:RDF>
      <cc:Work
         rdf:about="">
        <dc:format>image/svg+xml</dc:format>
        <dc:type
           rdf:resource="http://purl.org/dc/dcmitype/StillImage" />
        <dc:title></dc:title>
      </cc:Work>
    </rdf:RDF>
  </metadata>
  <g
     inkscape:label="Ebene 1"
     inkscape:groupmode="layer"
     id="layer1">
    <g
       transform="matrix(0.26458333,0,0,0.26458333,17.008136,101.05065)"
       id="arena_bomb_mortar">
      <rect
         width="39.506001"
         height="39.506001"
         rx="3"
         ry="3"
         x="230.32001"
         y="12.647"
         id="rect3984-12"
         style="fill:#cfcfcf;fill-rule:nonzero" />
      <path
         d="m 263.62,33.893 c 0,5.5056 -4.4632,9.9688 -9.9688,9.9688 -5.5056,0 -9.9688,-4.4632 -9.9688,-9.9688 0,-5.5056 4.4632,-9.9688 9.9688,-9.9688 5.5056,0 9.9688,4.4632 9.9688,9.9688 z"
         transform="matrix(1.3777542,0,0,1.3526758,-98.569717,-12.015904)"
         id="path12455"
         style="color:#000000;fill:url(#radialGradient12457);fill-rule:nonzero;enable-background:accumulate" />
      <g
         id="g5567">
        <path
           d="m 230.59,45.745 c 1.6483,-0.54132 3.4545,-1.497 3.9688,-3.287 -0.0423,-1.8029 -1.164,-3.7285 -0.13242,-5.4421 1.705,-1.3364 3.8002,1.5104 2.4055,2.9819 3.5929,6.3127 12.185,-0.95497 15.262,-5.2791 0.43939,-1.046 0.1039,-3.2923 1.3974,-3.394 1.6538,3.1726 0.16036,7.6174 -3.2351,8.9209 -4.1776,2.3135 -8.8939,3.4173 -13.095,5.6803 -1.5885,-0.2705 -3.1551,2.0147 -1.9093,3.241 2.3668,1.3389 5.2083,0.98195 7.8206,1.1581 3.6229,-0.03087 7.2703,-1.4611 9.7171,-4.1785 1.5232,-1.3935 2.9713,-2.867 4.5069,-4.2472 0.60587,1.3216 -0.96055,2.2322 -1.2559,3.412 -0.45925,0.87406 -0.91851,1.7481 -1.3778,2.6222 1.7163,-2.0456 3.4851,-4.2311 5.999,-5.3185 1.6296,0.55606 1.3236,2.7071 0.58819,3.8717 -0.91918,1.7863 1.8771,2.3548 2.259,0.61781 0.18291,-2.001 3.0118,-0.83955 2.1873,0.72386 -0.97451,1.3886 -2.5162,2.3087 -4.002,3.077 -1.5243,1.1938 -2.8996,-0.10791 -3.2766,-1.6422 -2.5914,-1.8444 -6.1571,1.6928 -9.199,2.4164 -4.0987,0.8523 -8.294,0.18397 -12.428,0.05339 -1.6334,-0.42903 -4.74,0.38711 -4.9011,-1.9926 -0.36774,-1.6001 2.983,-3.1405 0.83361,-4.239 -0.73752,-0.28972 -1.4426,-0.01041 -2.1327,0.24365 z"
           id="path5219-0"
           style="fill:#9e9e9e;fill-opacity:0.147826" />
        <path
           d="m 232.17,19.12 c 1.6616,-1.2563 3.3231,-2.5126 4.9846,-3.7689 -0.97452,1.4166 -2.0077,2.8857 -2.3081,4.6161 3.6748,1.6778 7.96,-2.4976 10.94,-4.6161 -1.4994,0.81051 -2.9989,1.621 -4.4983,2.4315 0.8725,-2.8379 3.8035,-4.4331 6.571,-4.8899 4.2542,-0.77698 8.57,0.12267 12.85,-0.16877 -0.15093,1.4952 -1.9031,1.6735 -2.9236,2.3646 -2.7998,1.6996 -5.7868,3.2781 -7.9264,5.8263 -0.32045,1.1651 -0.93384,2.9877 -2.4651,2.7141 -1.3494,-0.48818 -1.382,-2.4973 -0.38735,-3.3617 1.7762,-2.0349 4.0112,-3.7145 6.5671,-4.6299 0.56447,-1.5931 -1.714,-1.5406 -2.7061,-1.4122 -1.3884,-0.12733 -2.8517,0.51139 -3.6015,1.7073 -5.3736,2.9482 -10.523,6.302 -16.017,9.0434 1.6971,-1.38 3.4532,-2.6849 5.1759,-4.0323 -3.1471,2.134 -1.1978,-3.9955 -4.2552,-1.8236 z"
           id="path5221-7"
           style="fill:#9e9e9e;fill-opacity:0.0913043" />
        <path
           d="m 265.69,18.531 c 0,0 -3.8628,3.2006 -3.2006,3.311 0.66219,0.11036 2.5384,-1.1037 2.5384,-1.1037 0.18884,3.4591 -5.9425,2.179 -7.3944,5.2975 -0.22074,1.6555 6.7323,-2.5384 6.7323,-2.5384 l -2.6488,3.5317 c 0,0 3.4213,-1.9866 3.9732,-4.3042 0.55183,-2.3177 -0.6622,-3.0902 0,-4.1939 z"
           id="path5223-3"
           style="fill:#9e9e9e;fill-opacity:0.147826" />
        <path
           d="m 230.47,29.211 8.6319,-5.1062 c 0,0 -2.4315,1.5805 -4.3768,3.5257 -1.9452,1.9452 3.161,0.12158 3.161,0.12158 -1.9851,2.6826 -5.1241,1.8704 -7.7809,3.0394 l 0.36473,-1.5805 z"
           id="path5227-1"
           style="fill:#858585;fill-opacity:0.23913" />
        <path
           d="m 235.44,35.875 c 0,0 5.931,-2.1851 5.3067,0 -0.62431,2.1851 -0.46824,5.3067 0.15608,4.9946 0.62433,-0.31216 4.2142,-5.931 1.873,-6.8675 -2.3412,-0.93648 -7.6479,1.5608 -7.3358,1.873 z"
           id="path5229-1"
           style="fill:#ffffff;fill-opacity:0.121739" />
        <path
           d="m 262.01,33.638 c 0,0 0.69237,0.99214 0.69237,2.9764 0,1.98426 -0.89019,3.8445 -0.89019,3.8445 0,0 2.2749,-2.3563 1.9782,-4.0926 -0.29673,-1.7362 -1.7804,-2.8524 -1.7804,-2.7284 z"
           id="path5231-9"
           style="fill:#ffffff;fill-opacity:0.104348" />
        <path
           d="m 260.14,29.788 c 0,0 1.2382,4.6824 0.61912,6.7114 -0.61912,2.029 -1.592,5.1506 -1.592,5.1506 0,0 2.6534,-2.9655 2.6534,-5.4628 0,-2.4973 -1.7689,-6.5554 -1.6805,-6.3993 z"
           id="path5233-05"
           style="fill:#ffffff;fill-opacity:0.191304" />
        <path
           d="m 242.11,13.739 c 0,0 -4.6422,2.4931 -5.0721,3.5247 -0.42984,1.0316 3.7826,-0.42984 3.7826,-0.42984 l -2.665,0.08597 3.9545,-3.1808 z"
           id="path5235-6"
           style="fill:#ffffff;fill-opacity:0.308696" />
        <path
           d="m 266.33,22.825 c 0,0 0,1.4828 -1.1706,2.3412 -1.1706,0.85844 -4.6824,3.824 -3.1216,3.6679 1.5608,-0.15608 4.9946,-3.1216 4.9946,-3.1216 0,0 -2.3412,1.873 -2.5753,1.4828 -0.23412,-0.3902 2.1851,-3.1996 1.873,-4.3702 z"
           id="path5237-7"
           style="fill:#ffffff;fill-opacity:0.308696" />
        <path
           d="m 266.01,12.879 c 0,0 2.1492,-0.42984 2.3211,0.60177 0.17194,1.0316 -5.244,2.665 -6.5335,3.4387 -1.2895,0.77371 -3.2668,1.5474 -3.2668,1.5474 0,0 3.8685,-2.665 5.9318,-3.3527 2.0632,-0.68774 2.4931,-1.2895 2.4931,-1.2895 l -7.6511,2.4071 5.1581,-3.0089 -1.3755,1.2895 c 0,0 2.751,-1.0316 2.9229,-1.6334 z"
           id="path5239-7"
           style="fill:#ffffff;fill-opacity:0.134783" />
      </g>
      <rect
         width="4.0904002"
         height="8.1808004"
         rx="7.2051001"
         ry="2.0639999"
         x="169.2"
         y="196.27"
         transform="rotate(-45)"
         id="rect6205"
         style="color:#000000;fill:#a69e9e;fill-rule:nonzero;stroke:#000000;stroke-width:0.35695;stroke-miterlimit:4;stroke-dasharray:none;stroke-opacity:0.23913;enable-background:accumulate" />
      <rect
         width="39.506001"
         height="39.506001"
         rx="3"
         ry="3"
         x="230.25"
         y="12.609"
         id="arena_ground-0-5"
         style="color:#000000;fill:none;stroke:#9d9d9d;stroke-width:0.49383;stroke-linecap:round;stroke-linejoin:miter;stroke-miterlimit:4;stroke-dasharray:none;stroke-dashoffset:0;enable-background:accumulate" />
      <path
         d="m 263.62,33.893 c 0,5.5056 -4.4632,9.9688 -9.9688,9.9688 -5.5056,0 -9.9688,-4.4632 -9.9688,-9.9688 0,-5.5056 4.4632,-9.9688 9.9688,-9.9688 5.5056,0 9.9688,4.4632 9.9688,9.9688 z"
         transform="matrix(1.3025191,0,0,1.3025191,-80.360862,-11.565919)"
         id="path11917"
         style="color:#000000;fill:url(#linearGradient12047);fill-rule:nonzero;stroke:url(#linearGradient12039);stroke-width:0.319107;stroke-linecap:butt;stroke-linejoin:miter;stroke-miterlimit:4;stroke-dasharray:none;stroke-dashoffset:0;stroke-opacity:0.882609;enable-background:accumulate" />
      <path
         d="m 249.52,19.608 v 7.5406 c -0.658,-2.4477 -1.316,-4.8955 -1.974,-7.3432 -0.7496,0.12526 -1.6783,0.23523 -1.1347,1.1359 0.5888,2.2139 1.1776,4.4278 1.7664,6.6417 -1.2765,-2.224 -2.553,-4.4481 -3.8295,-6.6721 -0.69717,0.30421 -1.5859,0.63362 -0.82135,1.3714 1.1292,1.9643 2.2584,3.9286 3.3875,5.8929 -1.7898,-1.7897 -3.5795,-3.5795 -5.3692,-5.3692 -0.60256,0.46519 -1.3916,1.0001 -0.45536,1.5186 l 4.956,4.9561 c -2.2635,-1.3028 -4.527,-2.6057 -6.7905,-3.9085 -0.45082,0.61141 -1.0339,1.3358 -0.0109,1.5878 2.0039,1.1552 4.0079,2.3104 6.0118,3.4656 -2.5004,-0.67116 -5.0008,-1.3423 -7.5012,-2.0135 -0.27952,0.70724 -0.67977,1.5718 0.38506,1.5524 2.2799,0.61428 4.5598,1.2286 6.8397,1.8428 h -7.896 c -0.11986,0.76203 -0.18559,1.6735 0.80767,1.3818 h 7.0883 c -2.553,0.68432 -5.106,1.3686 -7.6591,2.0529 0.12457,0.74943 0.23484,1.6788 1.1354,1.1332 2.293,-0.61461 4.586,-1.2292 6.8789,-1.8438 -2.2767,1.316 -4.5533,2.632 -6.83,3.948 0.30607,0.69405 0.64887,1.5305 1.3714,0.78194 2.0564,-1.1818 4.1128,-2.3637 6.1692,-3.5455 -1.8687,1.8687 -3.7374,3.7374 -5.6061,5.6061 0.48723,0.58345 1.049,1.3421 1.5581,0.41589 1.652,-1.652 3.304,-3.304 4.9561,-4.9561 -1.3028,2.2503 -2.6057,4.5007 -3.9085,6.751 0.62992,0.42425 1.3792,0.99072 1.6286,-0.02782 1.1679,-2.0174 2.3359,-4.0347 3.5038,-6.0521 -0.67116,2.5135 -1.3423,5.0271 -2.0135,7.5406 0.71817,0.24342 1.5748,0.57278 1.5527,-0.46394 0.60101,-2.2273 1.202,-4.4546 1.803,-6.6819 v 7.6985 c 0.91443,0.13509 1.7012,0.05651 1.4213,-0.994 v -6.7046 c 0.65799,2.4609 1.316,4.9218 1.974,7.3827 0.74957,-0.12699 1.6791,-0.23272 1.1337,-1.1356 -0.58845,-2.2008 -1.1769,-4.4016 -1.7654,-6.6025 1.2634,2.1977 2.5267,4.3954 3.7901,6.5931 0.67938,-0.34454 1.5933,-0.7127 0.81953,-1.4493 -1.1286,-1.9515 -2.2571,-3.903 -3.3857,-5.8545 l 5.3298,5.3298 c 0.5834,-0.48722 1.3424,-1.0487 0.41589,-1.5581 l -4.8376,-4.8376 c 2.1977,1.2634 4.3954,2.5267 6.5931,3.7901 0.43809,-0.61842 0.97728,-1.3407 -0.0277,-1.5892 -1.9253,-1.1152 -3.8505,-2.2305 -5.7758,-3.3457 2.3951,0.64484 4.7902,1.2897 7.1853,1.9345 0.25074,-0.7186 0.64354,-1.6154 -0.42516,-1.5896 -2.1613,-0.57556 -4.3225,-1.1511 -6.4838,-1.7267 h 7.5012 c 0.11216,-0.75249 0.18416,-1.6741 -0.80767,-1.3818 h -6.6935 c 2.4083,-0.64484 4.8165,-1.2897 7.2248,-1.9345 -0.1245,-0.74939 -0.23461,-1.6788 -1.1355,-1.1334 -2.1482,0.5752 -4.2964,1.1504 -6.4446,1.7256 2.1582,-1.2502 4.3164,-2.5004 6.4747,-3.7506 -0.30636,-0.69409 -0.64907,-1.5306 -1.3711,-0.78139 -1.9381,1.1159 -3.8761,2.2317 -5.8142,3.3476 1.7766,-1.7766 3.5532,-3.5532 5.3298,-5.3298 -0.4864,-0.58388 -1.0498,-1.3413 -1.5581,-0.41589 -1.5599,1.5599 -3.1198,3.1198 -4.6797,4.6797 1.237,-2.1451 2.4741,-4.2901 3.7111,-6.4352 -0.61202,-0.45025 -1.3348,-1.0339 -1.5906,-0.01253 -1.128,1.9387 -2.2559,3.8774 -3.3839,5.8161 0.658,-2.4346 1.316,-4.8692 1.974,-7.3038 -0.71304,-0.26178 -1.574,-0.62542 -1.5512,0.42487 -0.5752,2.1482 -1.1504,4.2964 -1.7256,6.4446 v -7.5012 c -0.47221,-0.04871 -0.94748,-0.03201 -1.4213,-0.03948 z"
         id="path12242"
         style="color:#000000;text-indent:0;text-align:start;text-transform:none;direction:ltr;opacity:0.784553;fill:url(#linearGradient12377);fill-rule:nonzero;enable-background:accumulate" />
      <path
         d="m 263.62,33.893 c 0,5.5056 -4.4632,9.9688 -9.9688,9.9688 -5.5056,0 -9.9688,-4.4632 -9.9688,-9.9688 0,-5.5056 4.4632,-9.9688 9.9688,-9.9688 5.5056,0 9.9688,4.4632 9.9688,9.9688 z"
         transform="matrix(1.0753483,0,0,1.0753483,-22.737567,-3.8663146)"
         id="path11919"
         style="color:#000000;fill:url(#radialGradient6238);fill-rule:nonzero;stroke:url(#linearGradient12029);stroke-width:0.574492;stroke-linecap:butt;stroke-linejoin:miter;stroke-miterlimit:4;stroke-dasharray:none;stroke-dashoffset:0;stroke-opacity:0.586956;enable-background:accumulate" />
      <rect
         width="2.4461999"
         height="4.8923998"
         rx="4.3088999"
         ry="1.2343"
         x="170.11"
         y="198"
         transform="rotate(-45)"
         id="rect12362"
         style="color:#000000;fill:#dadada;fill-rule:nonzero;stroke:#000000;stroke-width:0.36245;stroke-miterlimit:4;stroke-dasharray:none;stroke-opacity:0.23913;enable-background:accumulate" />
      <path
         d="m 249.22,26.901 c 0,0.16827 -0.13641,0.30469 -0.30469,0.30469 -0.16827,0 -0.30469,-0.13641 -0.30469,-0.30469 0,-0.16827 0.13642,-0.30469 0.30469,-0.30469 0.16828,0 0.30469,0.13641 0.30469,0.30469 z"
         transform="matrix(1.6757866,-1.6757866,1.6757866,1.6757866,-200.10055,391.83496)"
         id="path12364"
         style="color:#000000;fill:#3aff40;fill-rule:nonzero;stroke:#000000;stroke-width:0.105;stroke-linecap:butt;stroke-linejoin:miter;stroke-miterlimit:4;stroke-dasharray:none;stroke-dashoffset:0;stroke-opacity:0.23913;enable-background:accumulate" />
      <path
         d="m 249.22,26.901 c 0,0.16827 -0.13641,0.30469 -0.30469,0.30469 -0.16827,0 -0.30469,-0.13641 -0.30469,-0.30469 0,-0.16827 0.13642,-0.30469 0.30469,-0.30469 0.16828,0 0.30469,0.13641 0.30469,0.30469 z"
         transform="matrix(1.6757866,-1.6757866,1.6757866,1.6757866,-198.50363,393.43188)"
         id="path12368"
         style="color:#000000;fill:#98190a;fill-rule:nonzero;stroke:#000000;stroke-width:0.105;stroke-linecap:butt;stroke-linejoin:miter;stroke-miterlimit:4;stroke-dasharray:none;stroke-dashoffset:0;stroke-opacity:0.23913;enable-background:accumulate" />
      <path
         d="m 249.22,26.901 c 0,0.16827 -0.13641,0.30469 -0.30469,0.30469 -0.16827,0 -0.30469,-0.13641 -0.30469,-0.30469 0,-0.16827 0.13642,-0.30469 0.30469,-0.30469 0.16828,0 0.30469,0.13641 0.30469,0.30469 z"
         transform="matrix(0.91893886,-0.91893886,0.91893886,0.91893886,8.559096,223.79262)"
         id="path12374"
         style="color:#000000;fill:#ffffff;fill-opacity:0.821739;fill-rule:nonzero;stroke:#c3ffaf;stroke-width:0.105;stroke-linecap:butt;stroke-linejoin:miter;stroke-miterlimit:4;stroke-dasharray:none;stroke-dashoffset:0;enable-background:accumulate" />
      <path
         d="m 249.22,26.901 c 0,0.16827 -0.13641,0.30469 -0.30469,0.30469 -0.16827,0 -0.30469,-0.13641 -0.30469,-0.30469 0,-0.16827 0.13642,-0.30469 0.30469,-0.30469 0.16828,0 0.30469,0.13641 0.30469,0.30469 z"
         transform="matrix(0.87354833,-0.87354833,0.87354833,0.87354833,20.729787,213.65231)"
         id="path12370"
         style="color:#000000;fill:#ffffff;fill-opacity:0.586956;fill-rule:nonzero;enable-background:accumulate" />
      <path
         d="m 249.22,26.901 c 0,0.16827 -0.13641,0.30469 -0.30469,0.30469 -0.16827,0 -0.30469,-0.13641 -0.30469,-0.30469 0,-0.16827 0.13642,-0.30469 0.30469,-0.30469 0.16828,0 0.30469,0.13641 0.30469,0.30469 z"
         transform="matrix(0.87354833,-0.87354833,0.87354833,0.87354833,22.596637,215.3226)"
         id="path12366"
         style="color:#000000;fill:#b64539;fill-rule:nonzero;enable-background:accumulate" />
      <path
         d="m 263.46,18.876 c 0,0 -1.127,-0.97227 -1.7015,-0.97227 -0.57452,0 -1.2816,0.57452 -1.4363,1.1932 -0.15468,0.61872 0.0221,0.88388 0.35355,1.4142 0.33146,0.53033 1.1932,1.4584 1.1932,1.4584 0,0 -2.3423,-1.6352 -2.2981,-2.7179 0.0442,-1.0828 0.55243,-1.4805 1.0828,-1.6794 0.53033,-0.19887 1.5247,-0.39775 2.8063,1.3037 z"
         id="path6207"
         style="color:#000000;fill:#c4c4c4;fill-rule:nonzero;enable-background:accumulate" />
      <path
         d="m 262.25,22.327 c 0,0 1.127,0.97227 1.7015,0.97227 0.57452,0 1.2816,-0.57452 1.4363,-1.1932 0.15468,-0.61872 -0.0221,-0.88388 -0.35355,-1.4142 -0.33146,-0.53033 -1.1932,-1.4584 -1.1932,-1.4584 0,0 2.3423,1.6352 2.2981,2.7179 -0.0442,1.0828 -0.55243,1.4805 -1.0828,1.6794 -0.53033,0.19887 -1.5247,0.39775 -2.8063,-1.3037 z"
         id="path6210"
         style="color:#000000;fill:#6a6a6a;fill-opacity:0.569565;fill-rule:nonzero;enable-background:accumulate" />
    </g>
  </g>
</svg>
