<?xml version="1.0" encoding="UTF-8" standalone="no"?>
<svg
   xmlns:dc="http://purl.org/dc/elements/1.1/"
   xmlns:cc="http://creativecommons.org/ns#"
   xmlns:rdf="http://www.w3.org/1999/02/22-rdf-syntax-ns#"
   xmlns:svg="http://www.w3.org/2000/svg"
   xmlns="http://www.w3.org/2000/svg"
   xmlns:sodipodi="http://sodipodi.sourceforge.net/DTD/sodipodi-0.dtd"
   xmlns:inkscape="http://www.inkscape.org/namespaces/inkscape"
   width="210mm"
   height="297mm"
   viewBox="0 0 210 297"
   version="1.1"
   id="svg2546"
   inkscape:version="1.0.1 (3bc2e813f5, 2020-09-07)"
   sodipodi:docname="arena_arrow_up.svg">
  <defs
     id="defs2540">
    <linearGradient
       x1="300"
       y1="35.769001"
       x2="300"
       y2="19.014999"
       id="linearGradient5200"
       gradientUnits="userSpaceOnUse"
       spreadMethod="reflect">
      <stop
         id="stop5173"
         style="stop-color:#a6ffb4;stop-opacity:1"
         offset="0" />
      <stop
         id="stop5178"
         style="stop-color:#1bd92d;stop-opacity:1"
         offset="1" />
    </linearGradient>
  </defs>
  <sodipodi:namedview
     id="base"
     pagecolor="#ffffff"
     bordercolor="#666666"
     borderopacity="1.0"
     inkscape:pageopacity="0.0"
     inkscape:pageshadow="2"
     inkscape:zoom="0.35"
     inkscape:cx="400"
     inkscape:cy="560"
     inkscape:document-units="mm"
     inkscape:current-layer="layer1"
     inkscape:document-rotation="0"
     showgrid="false"
     inkscape:window-width="1254"
     inkscape:window-height="872"
     inkscape:window-x="73"
     inkscape:window-y="0"
     inkscape:window-maximized="0" />
  <metadata
     id="metadata2543">
    <rdf:RDF>
      <cc:Work
         rdf:about="">
        <dc:format>image/svg+xml</dc:format>
        <dc:type
           rdf:resource="http://purl.org/dc/dcmitype/StillImage" />
        <dc:title></dc:title>
      </cc:Work>
    </rdf:RDF>
  </metadata>
  <g
     inkscape:label="Ebene 1"
     inkscape:groupmode="layer"
     id="layer1">
    <g
       transform="matrix(0.26458333,0,0,0.26458333,-30.991151,64.764935)"
       id="arena_arrow_up">
      <rect
         width="39.506001"
         height="39.506001"
         rx="3"
         ry="3"
         x="280.25"
         y="12.609"
         id="arena_ground-6"
         style="fill:#cfcfcf;fill-rule:nonzero;stroke:#9d9d9d;stroke-width:0.49383;stroke-linecap:round;stroke-linejoin:miter;stroke-miterlimit:4;stroke-dasharray:none;stroke-dashoffset:0" />
      <path
         d="m 280.46,45.747 c 1.6483,-0.54132 3.4545,-1.497 3.9688,-3.287 -0.0423,-1.8029 -1.164,-3.7285 -0.13242,-5.4421 1.705,-1.3364 3.8002,1.5104 2.4055,2.9819 3.5929,6.3127 12.185,-0.95497 15.262,-5.2791 0.4394,-1.046 0.10391,-3.2923 1.3974,-3.394 1.6538,3.1726 0.16036,7.6174 -3.2351,8.9209 -4.1776,2.3135 -8.8939,3.4173 -13.095,5.6803 -1.5885,-0.2705 -3.1551,2.0147 -1.9093,3.241 2.3668,1.3389 5.2083,0.98195 7.8206,1.1581 3.6229,-0.03087 7.2703,-1.4611 9.7171,-4.1785 1.5233,-1.3935 2.9713,-2.867 4.5069,-4.2472 0.60586,1.3216 -0.96056,2.2322 -1.2559,3.412 -0.45926,0.87406 -0.91851,1.7481 -1.3778,2.6222 1.7164,-2.0456 3.4851,-4.2311 5.999,-5.3185 1.6296,0.55606 1.3236,2.7071 0.58819,3.8717 -0.91918,1.7863 1.8771,2.3548 2.259,0.61781 0.18291,-2.001 3.0118,-0.83955 2.1873,0.72386 -0.97451,1.3886 -2.5163,2.3087 -4.002,3.077 -1.5243,1.1938 -2.8996,-0.10791 -3.2766,-1.6422 -2.5914,-1.8444 -6.1571,1.6928 -9.199,2.4164 -4.0987,0.8523 -8.294,0.18397 -12.428,0.05339 -1.6335,-0.42903 -4.74,0.38711 -4.9011,-1.9926 -0.36775,-1.6001 2.983,-3.1405 0.8336,-4.239 -0.73752,-0.28972 -1.4426,-0.01041 -2.1327,0.24365 z"
         id="path5219-2"
         style="fill:#9e9e9e;fill-opacity:0.147826" />
      <path
         d="m 282.04,19.122 c 1.6616,-1.2563 3.3231,-2.5126 4.9846,-3.7689 -0.97452,1.4166 -2.0077,2.8857 -2.3081,4.6161 3.6748,1.6778 7.96,-2.4976 10.94,-4.6161 -1.4994,0.81051 -2.9989,1.621 -4.4983,2.4315 0.87249,-2.8379 3.8035,-4.4331 6.571,-4.8899 4.2542,-0.77698 8.57,0.12267 12.85,-0.16877 -0.15093,1.4952 -1.9031,1.6735 -2.9236,2.3646 -2.7998,1.6996 -5.7868,3.2781 -7.9264,5.8263 -0.32045,1.1651 -0.93385,2.9877 -2.4651,2.7141 -1.3494,-0.48818 -1.382,-2.4973 -0.38736,-3.3617 1.7762,-2.0349 4.0112,-3.7145 6.5671,-4.6299 0.56446,-1.5931 -1.714,-1.5406 -2.7061,-1.4122 -1.3884,-0.12733 -2.8517,0.51139 -3.6015,1.7073 -5.3736,2.9482 -10.523,6.302 -16.017,9.0434 1.6971,-1.38 3.4532,-2.6849 5.1759,-4.0323 -3.1471,2.134 -1.1979,-3.9955 -4.2552,-1.8236 z"
         id="path5221-9"
         style="fill:#9e9e9e;fill-opacity:0.0913043" />
      <path
         d="m 317.42,17.176 c 0,0 -4.2552,3.5257 -3.5257,3.6473 0.72946,0.12158 2.7963,-1.2158 2.7963,-1.2158 0.20801,3.8104 -6.5462,2.4004 -8.1456,5.8357 -0.24315,1.8236 7.4162,-2.7963 7.4162,-2.7963 l -2.9178,3.8905 c 0,0 3.7689,-2.1884 4.3768,-4.7415 0.60788,-2.5531 -0.72946,-3.4041 0,-4.6199 z"
         id="path5223-7"
         style="fill:#9e9e9e;fill-opacity:0.147826" />
      <path
         d="m 280.34,29.212 8.6319,-5.1062 c 0,0 -2.4315,1.5805 -4.3768,3.5257 -1.9452,1.9452 3.161,0.12158 3.161,0.12158 -1.9851,2.6826 -5.1241,1.8704 -7.7809,3.0394 l 0.36473,-1.5805 z"
         id="path5227-7"
         style="fill:#858585;fill-opacity:0.23913" />
      <path
         d="m 283.3,35.576 c 0,0 6.5335,-2.4071 5.8458,0 -0.68774,2.4071 -0.5158,5.8458 0.17194,5.5019 0.68774,-0.34387 4.6422,-6.5335 2.0632,-7.5652 -2.579,-1.0316 -8.4248,1.7194 -8.081,2.0632 z"
         id="path5229-6"
         style="fill:#ffffff;fill-opacity:0.121739" />
      <path
         d="m 312.57,33.111 c 0,0 0.7627,1.0929 0.7627,3.2788 0,2.1859 -0.98062,4.2351 -0.98062,4.2351 0,0 2.506,-2.5957 2.1792,-4.5083 -0.32687,-1.9126 -1.9612,-3.1422 -1.9612,-3.0056 z"
         id="path5231-8"
         style="fill:#ffffff;fill-opacity:0.104348" />
      <path
         d="m 310.51,28.87 c 0,0 1.364,5.1581 0.68202,7.3932 -0.68202,2.2352 -1.7538,5.6739 -1.7538,5.6739 0,0 2.9229,-3.2668 2.9229,-6.0177 0,-2.751 -1.9486,-7.2213 -1.8512,-7.0494 z"
         id="path5233-1"
         style="fill:#ffffff;fill-opacity:0.191304" />
      <path
         d="m 291.99,13.74 c 0,0 -4.6423,2.4931 -5.0721,3.5247 -0.42984,1.0316 3.7826,-0.42984 3.7826,-0.42984 l -2.665,0.08597 3.9545,-3.1808 z"
         id="path5235-2"
         style="fill:#ffffff;fill-opacity:0.308696" />
      <path
         d="m 318.12,21.907 c 0,0 0,1.6334 -1.2895,2.579 -1.2895,0.94564 -5.1581,4.2124 -3.4387,4.0405 1.7194,-0.17194 5.5019,-3.4387 5.5019,-3.4387 0,0 -2.579,2.0632 -2.8369,1.6334 -0.25791,-0.42984 2.4071,-3.5247 2.0632,-4.8142 z"
         id="path5237-0"
         style="fill:#ffffff;fill-opacity:0.308696" />
      <path
         d="m 315.89,12.88 c 0,0 2.1492,-0.42984 2.3211,0.60177 0.17193,1.0316 -5.244,2.665 -6.5336,3.4387 -1.2895,0.77371 -3.2668,1.5474 -3.2668,1.5474 0,0 3.8686,-2.665 5.9318,-3.3527 2.0632,-0.68774 2.4931,-1.2895 2.4931,-1.2895 l -7.6511,2.4071 5.1581,-3.0089 -1.3755,1.2895 c 0,0 2.751,-1.0316 2.9229,-1.6334 z"
         id="path5239-3"
         style="fill:#ffffff;fill-opacity:0.134783" />
      <path
         d="M 300.01,17.342 C 299.96,17.347 290,32.375 290,32.375 h 5 v 15 h 10 v -15 h 5 c 0,0 -9.9061,-15.028 -9.989,-15.033 z"
         id="rect4176"
         style="fill:url(#linearGradient5200);fill-rule:evenodd" />
      <path
         d="m 295.14,47.382 c 0,0 9.2519,-0.07071 9.86,0 l 0.94,0.95917 c -0.48083,0.07071 -11.76,0 -11.76,0 z"
         id="path5169"
         style="color:#000000;fill:#d2facf;fill-rule:nonzero;enable-background:accumulate" />
      <path
         d="m 294.13,33.272 0.88919,-0.91349 c 0,0 0.18561,14.71 0.11489,15.007 l -0.93337,0.96167 -0.0708,-15.033 5e-5,-0.0221 z"
         id="path5165"
         style="color:#000000;fill:#75b36b;fill-rule:nonzero;enable-background:accumulate" />
      <path
         d="m 299.98,17.402 c 0.17678,0.53033 10.124,15.142 10.124,15.142 l 1.4802,0.76108 c 0,0 -10.899,-16.897 -11.606,-17.958 l 10e-4,2.0546 h -3e-5 3.6e-4 z"
         id="path5159"
         style="color:#000000;fill:#b7ebb3;fill-rule:nonzero;enable-background:accumulate" />
      <path
         d="m 299.99,17.38 c -0.0718,0.07734 -9.7488,14.745 -9.898,15.054 l -1.7461,0.8735 c 0.0939,-0.16573 11.645,-17.938 11.645,-17.938 l -0.001,2.0104 z"
         id="path5146"
         style="fill:#75b36b" />
      <path
         d="m 288.32,33.336 c 0,0 5.6171,0.03315 5.8049,-0.01105 l 0.87681,-0.94752 c -0.26517,-0.06629 -4.8488,0.0031 -4.8488,0.0031 l -1.833,0.95548 z"
         id="path5161"
         style="color:#000000;fill:#b7ebb3;fill-rule:nonzero;enable-background:accumulate" />
      <path
         d="m 311.64,33.349 -5.5847,2e-6 c 0,0 -0.90066,-0.7338 -1.0845,-0.96007 0,-0.08485 4.9308,0.01414 4.9308,0.01414 l 1.7385,0.94593 z"
         id="path5163"
         style="color:#000000;fill:#d2facf;fill-rule:nonzero;enable-background:accumulate" />
      <path
         d="m 305.98,33.294 -0.97581,-0.84853 c -0.0707,0.31113 -0.0707,14.637 -0.0141,14.948 l 0.90509,0.98995 0.0849,-15.09 z"
         id="path5167"
         style="color:#000000;fill:#b7ebb3;fill-rule:nonzero;enable-background:accumulate" />
      <path
         d="m 303.07,32.641 c 0,0 0.38504,12.462 0.1022,12.631 -0.21213,0.21213 -7.1482,0 -7.1482,0 0,0 6.6273,-0.43039 6.7122,-0.55767 0.16971,-0.12728 0.33383,-12.074 0.33383,-12.074 z"
         id="path5204"
         style="color:#000000;fill:#ecf9ce;fill-opacity:0.891304;fill-rule:nonzero;enable-background:accumulate" />
    </g>
  </g>
</svg>
