<?xml version="1.0" encoding="UTF-8" standalone="no"?>
<svg
   xmlns:dc="http://purl.org/dc/elements/1.1/"
   xmlns:cc="http://creativecommons.org/ns#"
   xmlns:rdf="http://www.w3.org/1999/02/22-rdf-syntax-ns#"
   xmlns:svg="http://www.w3.org/2000/svg"
   xmlns="http://www.w3.org/2000/svg"
   xmlns:xlink="http://www.w3.org/1999/xlink"
   xmlns:sodipodi="http://sodipodi.sourceforge.net/DTD/sodipodi-0.dtd"
   xmlns:inkscape="http://www.inkscape.org/namespaces/inkscape"
   width="210mm"
   height="297mm"
   viewBox="0 0 210 297"
   version="1.1"
   id="svg1864"
   inkscape:version="1.0.1 (3bc2e813f5, 2020-09-07)"
   sodipodi:docname="bomb_blast_south_2.svg">
  <defs
     id="defs1858">
    <radialGradient
       cx="647.09998"
       cy="91.628998"
       r="10"
       id="radialGradient4533"
       xlink:href="#radialGradient4016"
       gradientUnits="userSpaceOnUse"
       gradientTransform="matrix(1.7537778,0,7.8782907e-8,7.075507,-487.77209,-531.31392)" />
    <radialGradient
       cx="647.09998"
       cy="91.628998"
       r="10"
       id="radialGradient4016"
       gradientUnits="userSpaceOnUse"
       gradientTransform="matrix(1.7537778,0,7.8782907e-8,7.075507,-487.77209,-531.31392)">
      <stop
         id="stop4303-2"
         style="stop-color:#ffd133;stop-opacity:1"
         offset="0" />
      <stop
         id="stop4018"
         style="stop-color:#ffd133;stop-opacity:1"
         offset="0.34999999" />
      <stop
         id="stop4309-6"
         style="stop-color:#ffa933;stop-opacity:1"
         offset="0.84858" />
      <stop
         id="stop4305-9"
         style="stop-color:#ffa933;stop-opacity:0"
         offset="1" />
    </radialGradient>
    <linearGradient
       x1="647.09998"
       y1="110.91"
       x2="647.09998"
       y2="46.250999"
       id="linearGradient4539"
       xlink:href="#linearGradient3385-1"
       gradientUnits="userSpaceOnUse" />
    <linearGradient
       x1="216.89"
       y1="122.59"
       x2="216.89"
       y2="37.970001"
       id="linearGradient3385-1"
       gradientUnits="userSpaceOnUse"
       gradientTransform="translate(-152)">
      <stop
         id="stop3381-7"
         style="stop-color:#fffc07;stop-opacity:1"
         offset="0" />
      <stop
         id="stop3383-2"
         style="stop-color:#fffc07;stop-opacity:0"
         offset="1" />
    </linearGradient>
    <linearGradient
       x1="647.09998"
       y1="81.628998"
       x2="647.09998"
       y2="46.250999"
       id="linearGradient4535"
       xlink:href="#linearGradient4300-0"
       gradientUnits="userSpaceOnUse"
       gradientTransform="translate(-152)" />
    <linearGradient
       x1="647.09998"
       y1="81.628998"
       x2="647.09998"
       y2="46.250999"
       id="linearGradient4300-0"
       gradientUnits="userSpaceOnUse"
       gradientTransform="translate(-152)">
      <stop
         id="stop3381-4"
         style="stop-color:#fffc07;stop-opacity:1"
         offset="0" />
      <stop
         id="stop3383-8"
         style="stop-color:#fffc07;stop-opacity:0"
         offset="1" />
    </linearGradient>
    <radialGradient
       cx="115.88"
       cy="219.77"
       r="28.885"
       fx="136.75999"
       id="radialGradient4541"
       xlink:href="#linearGradient4683"
       gradientUnits="userSpaceOnUse"
       gradientTransform="matrix(1,0,0,0.14583333,0,187.71615)" />
    <linearGradient
       id="linearGradient4683">
      <stop
         id="stop4685"
         style="stop-color:#ffffff;stop-opacity:1"
         offset="0" />
      <stop
         id="stop4687"
         style="stop-color:#ffffff;stop-opacity:1"
         offset="0.41523999" />
      <stop
         id="stop4689"
         style="stop-color:#ffffff;stop-opacity:0"
         offset="1" />
    </linearGradient>
    <radialGradient
       cx="115.88"
       cy="219.77"
       r="28.885"
       fx="136.75999"
       id="radialGradient4543"
       xlink:href="#linearGradient4683"
       gradientUnits="userSpaceOnUse"
       gradientTransform="matrix(1,0,0,0.14583333,0,187.71615)" />
    <radialGradient
       cx="115.88"
       cy="219.77"
       r="28.885"
       fx="136.75999"
       id="radialGradient4545"
       xlink:href="#linearGradient4683"
       gradientUnits="userSpaceOnUse"
       gradientTransform="matrix(1,0,0,0.14583333,0,187.71615)" />
    <linearGradient
       inkscape:collect="always"
       xlink:href="#linearGradient3385-1"
       id="linearGradient2303"
       gradientUnits="userSpaceOnUse"
       x1="647.09998"
       y1="110.91"
       x2="647.09998"
       y2="46.250999" />
  </defs>
  <sodipodi:namedview
     id="base"
     pagecolor="#ffffff"
     bordercolor="#666666"
     borderopacity="1.0"
     inkscape:pageopacity="0.0"
     inkscape:pageshadow="2"
     inkscape:zoom="0.35"
     inkscape:cx="400"
     inkscape:cy="560"
     inkscape:document-units="mm"
     inkscape:current-layer="layer1"
     inkscape:document-rotation="0"
     showgrid="false"
     inkscape:window-width="1254"
     inkscape:window-height="872"
     inkscape:window-x="101"
     inkscape:window-y="0"
     inkscape:window-maximized="0" />
  <metadata
     id="metadata1861">
    <rdf:RDF>
      <cc:Work
         rdf:about="">
        <dc:format>image/svg+xml</dc:format>
        <dc:type
           rdf:resource="http://purl.org/dc/dcmitype/StillImage" />
        <dc:title></dc:title>
      </cc:Work>
    </rdf:RDF>
  </metadata>
  <g
     inkscape:label="Ebene 1"
     inkscape:groupmode="layer"
     id="layer1">
    <g
       transform="matrix(0,-0.22436555,0.26458333,0,37.686683,115.84503)"
       id="bomb_blast_south_2">
      <g
         transform="rotate(-90,450.63401,416.88528)"
         id="g5050-6-3">
        <path
           d="m 641.6,46.251 h 11 c 2.493,0 4.5,1.561 4.5,3.5 l -2,7.9694 2,7.9694 -2,7.9694 2,7.9694 -2,7.9694 2,7.9694 -2,7.9694 2,7.9694 c 0,1.939 -2.007,3.5 -4.5,3.5 l -5.5,-2 -5.5,2 c -2.493,0 -4.5,-1.561 -4.5,-3.5 l 2,-7.9694 -2,-7.9694 2,-7.9694 -2,-7.9694 2,-7.9694 -2,-7.9694 2,-7.9694 -2,-7.9694 c 0,-1.939 2.007,-3.5 4.5,-3.5 z"
           id="rect4473-5-8"
           style="fill:url(#radialGradient4533);fill-rule:nonzero" />
        <g
           transform="matrix(0.74209697,0,0,0.93498498,166.88988,5.3070983)"
           id="g4284-9-0"
           style="fill:url(#linearGradient4539)">
          <g
             id="g4286-5-4"
             style="fill:url(#linearGradient2303)">
            <path
               d="m 641.6,46.251 h 11 c 2.493,0 4.5,1.561 4.5,3.5 l -2,7.9694 2,7.9694 -2,7.9694 2,7.9694 -2,7.9694 2,7.9694 -2,7.9694 2,7.9694 c 0,1.939 -2.007,3.5 -4.5,3.5 l -5.5,-2 -5.5,2 c -2.493,0 -4.5,-1.561 -4.5,-3.5 l 2,-7.9694 -2,-7.9694 2,-7.9694 -2,-7.9694 2,-7.9694 -2,-7.9694 2,-7.9694 -2,-7.9694 c 0,-1.939 2.007,-3.5 4.5,-3.5 z"
               id="path4288-6-0"
               style="fill:url(#linearGradient4535);fill-rule:nonzero" />
          </g>
        </g>
        <path
           d="m 144.77,219.77 c 0,2.3265 -12.932,4.2124 -28.885,4.2124 -15.953,0 -28.885,-1.886 -28.885,-4.2124 0,-2.3264 12.932,-4.2124 28.885,-4.2124 15.953,0 28.885,1.886 28.885,4.2124 z"
           transform="matrix(0,0.65196097,-2.1213984,0,1113.3557,22.184615)"
           id="path4304-1-9"
           style="color:#000000;fill:url(#radialGradient4541);fill-rule:nonzero;enable-background:accumulate" />
        <path
           d="m 144.77,219.77 c 0,2.3265 -12.932,4.2124 -28.885,4.2124 -15.953,0 -28.885,-1.886 -28.885,-4.2124 0,-2.3264 12.932,-4.2124 28.885,-4.2124 15.953,0 28.885,1.886 28.885,4.2124 z"
           transform="matrix(0,1.0922619,-0.90391161,0,846.05857,-47.621252)"
           id="path4314-1-1"
           style="color:#000000;fill:url(#radialGradient4543);fill-rule:nonzero;enable-background:accumulate" />
        <path
           d="m 144.77,219.77 c 0,2.3265 -12.932,4.2124 -28.885,4.2124 -15.953,0 -28.885,-1.886 -28.885,-4.2124 0,-2.3264 12.932,-4.2124 28.885,-4.2124 15.953,0 28.885,1.886 28.885,4.2124 z"
           transform="matrix(0,0.65196097,-2.1213984,0,1113.3557,-6.5285885)"
           id="path4318-4-9"
           style="color:#000000;fill:url(#radialGradient4545);fill-rule:nonzero;enable-background:accumulate" />
      </g>
    </g>
  </g>
</svg>
