<?xml version="1.0" encoding="UTF-8" standalone="no"?>
<svg
   xmlns:dc="http://purl.org/dc/elements/1.1/"
   xmlns:cc="http://creativecommons.org/ns#"
   xmlns:rdf="http://www.w3.org/1999/02/22-rdf-syntax-ns#"
   xmlns:svg="http://www.w3.org/2000/svg"
   xmlns="http://www.w3.org/2000/svg"
   xmlns:xlink="http://www.w3.org/1999/xlink"
   xmlns:sodipodi="http://sodipodi.sourceforge.net/DTD/sodipodi-0.dtd"
   xmlns:inkscape="http://www.inkscape.org/namespaces/inkscape"
   width="210mm"
   height="297mm"
   viewBox="0 0 210 297"
   version="1.1"
   id="svg4659"
   inkscape:version="1.0.1 (3bc2e813f5, 2020-09-07)"
   sodipodi:docname="bomb_blast_core_2.svg">
  <defs
     id="defs4653">
    <radialGradient
       cx="173.56"
       cy="219.66"
       r="20"
       id="radialGradient4700"
       xlink:href="#radialGradient5091"
       gradientUnits="userSpaceOnUse"
       gradientTransform="matrix(1.0000117,-2.3710264e-6,2.371005e-6,1.0000028,-0.00278185,-1.5611008e-4)" />
    <radialGradient
       cx="173.56"
       cy="219.66"
       r="20"
       id="radialGradient5091"
       gradientUnits="userSpaceOnUse"
       gradientTransform="matrix(1.0000117,-2.3710264e-6,2.371005e-6,1.0000028,-0.00278185,-1.5611008e-4)">
      <stop
         id="stop5114"
         style="stop-color:#ffc233;stop-opacity:1"
         offset="0" />
      <stop
         id="stop5116"
         style="stop-color:#ffa933;stop-opacity:1"
         offset="0.75739998" />
      <stop
         id="stop5118"
         style="stop-color:#ffa933;stop-opacity:0"
         offset="1" />
    </radialGradient>
    <radialGradient
       cx="173.67"
       cy="219.2"
       r="19.358999"
       id="radialGradient4702"
       xlink:href="#radialGradient5094"
       gradientUnits="userSpaceOnUse"
       gradientTransform="matrix(1,-8.9852435e-7,8.9852572e-7,1.0000015,-1.7813538e-4,-1.4718075e-4)" />
    <radialGradient
       cx="173.67"
       cy="219.2"
       r="19.358999"
       id="radialGradient5094"
       gradientUnits="userSpaceOnUse"
       gradientTransform="matrix(1,-8.9852435e-7,8.9852572e-7,1.0000015,-1.7813538e-4,-1.4718075e-4)">
      <stop
         id="stop5098"
         style="stop-color:#ffe533;stop-opacity:1"
         offset="0" />
      <stop
         id="stop5102"
         style="stop-color:#ffe533;stop-opacity:1"
         offset="0.65401" />
      <stop
         id="stop5100"
         style="stop-color:#ffe533;stop-opacity:0"
         offset="1" />
    </radialGradient>
    <radialGradient
       cx="173.96001"
       cy="219.98"
       r="14.657"
       id="radialGradient4704"
       xlink:href="#radialGradient4211"
       gradientUnits="userSpaceOnUse"
       gradientTransform="matrix(1.0257715,1.1038723e-7,-4.2216218e-8,0.42521994,-4.4830892,126.44019)" />
    <radialGradient
       cx="173.96001"
       cy="219.98"
       r="14.657"
       id="radialGradient4211"
       gradientUnits="userSpaceOnUse"
       gradientTransform="matrix(1.0257715,1.1038723e-7,-4.2216218e-8,0.42521994,-4.4830892,126.44019)">
      <stop
         id="stop4253"
         style="stop-color:#ffffff;stop-opacity:1"
         offset="0" />
      <stop
         id="stop4255"
         style="stop-color:#ffffff;stop-opacity:1"
         offset="0.74383003" />
      <stop
         id="stop4257"
         style="stop-color:#ffffff;stop-opacity:0"
         offset="1" />
    </radialGradient>
    <radialGradient
       cx="173.96001"
       cy="219.98"
       r="14.657"
       id="radialGradient4706"
       xlink:href="#radialGradient4217"
       gradientUnits="userSpaceOnUse"
       gradientTransform="matrix(1,1.6479739e-7,-5.9255482e-8,0.42521994,1.3035115e-5,126.44018)" />
    <radialGradient
       cx="173.96001"
       cy="219.98"
       r="14.657"
       id="radialGradient4217"
       gradientUnits="userSpaceOnUse"
       gradientTransform="matrix(1,1.6479739e-7,-5.9255482e-8,0.42521994,1.3035115e-5,126.44018)">
      <stop
         id="stop5106"
         style="stop-color:#ffffff;stop-opacity:1"
         offset="0" />
      <stop
         id="stop5108"
         style="stop-color:#ffffff;stop-opacity:1"
         offset="0.56987" />
      <stop
         id="stop5110"
         style="stop-color:#ffffff;stop-opacity:0"
         offset="1" />
    </radialGradient>
    <radialGradient
       cx="173.96001"
       cy="219.98"
       r="14.657"
       id="radialGradient4708"
       xlink:href="#linearGradient4205"
       gradientUnits="userSpaceOnUse"
       gradientTransform="matrix(1,0,0,0.42521994,0,126.44021)" />
    <linearGradient
       id="linearGradient4205">
      <stop
         id="stop4207"
         style="stop-color:#ffffff;stop-opacity:1"
         offset="0" />
      <stop
         id="stop4213"
         style="stop-color:#ffffff;stop-opacity:1"
         offset="0.58275998" />
      <stop
         id="stop4209"
         style="stop-color:#ffffff;stop-opacity:0"
         offset="1" />
    </linearGradient>
    <radialGradient
       cx="173.96001"
       cy="219.98"
       r="14.657"
       id="radialGradient4710"
       xlink:href="#linearGradient4205"
       gradientUnits="userSpaceOnUse"
       gradientTransform="matrix(1,0,0,0.42521994,0,126.44021)" />
  </defs>
  <sodipodi:namedview
     id="base"
     pagecolor="#ffffff"
     bordercolor="#666666"
     borderopacity="1.0"
     inkscape:pageopacity="0.0"
     inkscape:pageshadow="2"
     inkscape:zoom="0.35"
     inkscape:cx="400"
     inkscape:cy="560"
     inkscape:document-units="mm"
     inkscape:current-layer="layer1"
     inkscape:document-rotation="0"
     showgrid="false"
     inkscape:window-width="1254"
     inkscape:window-height="872"
     inkscape:window-x="101"
     inkscape:window-y="0"
     inkscape:window-maximized="0" />
  <metadata
     id="metadata4656">
    <rdf:RDF>
      <cc:Work
         rdf:about="">
        <dc:format>image/svg+xml</dc:format>
        <dc:type
           rdf:resource="http://purl.org/dc/dcmitype/StillImage" />
        <dc:title></dc:title>
      </cc:Work>
    </rdf:RDF>
  </metadata>
  <g
     inkscape:label="Ebene 1"
     inkscape:groupmode="layer"
     id="layer1">
    <g
       transform="matrix(0.26458333,0,0,0.26458333,-139.57065,112.46159)"
       id="bomb_blast_core_2"
       style="fill-rule:nonzero">
      <path
         d="m 163.56,199.66 -2,5 c 0.0884,0.35355 2,5 2,5 0,0 -3.4974,-1.6464 -5,-2 l -5,2 v 20 l 5,2 c 3.3588,-0.7955 5,-2 5,-2 0,0 -1.6464,3.2322 -2,5 l 2,5 h 20 l 2,-5 c 0.17678,-1.5026 -2,-5 -2,-5 0,0 3.9393,2 5,2 l 5,-2 v -20 l -5,-2 c -2.2097,0.35355 -5,2 -5,2 0,0 1.4697,-3.0555 2,-5 l -2,-5 z"
         transform="translate(473.6424,-78.453876)"
         id="rect3516-8"
         style="fill:url(#radialGradient4700)" />
      <path
         d="m 165.31,199.84 c 0,0 -1.7348,3.6742 -2,5 -0.35355,1.0607 0.71875,5.2812 0.71875,5.2812 0,0 -2.9046,-0.59911 -4.9375,-0.6875 l -4.7812,2 v 16.75 l 4.7812,2 c 1.9445,0 6.0625,-0.84375 6.0625,-0.84375 -1.2374,1.591 -1.8438,4.4375 -1.8438,4.4375 l 2,4.7812 h 16.719 l 2,-4.7812 c 0,-1.591 -1.8438,-4.375 -1.8438,-4.375 0,0 4.284,0.4277 5.875,0.78125 l 4.9688,-2 v -16.75 l -4.9688,-2 c -1.0607,-0.0884 -4.7188,0.625 -4.7188,0.625 0,0 0.77589,-4.8652 0.6875,-5.2188 l -2,-5 h -16.719 z"
         transform="translate(473.6424,-78.453876)"
         id="rect4326-0"
         style="fill:url(#radialGradient4702)" />
      <path
         d="m 188.99,219.98 c 0,3.822 -6.7315,6.9204 -15.035,6.9204 -8.3037,0 -15.035,-3.0984 -15.035,-6.9204 0,-3.822 6.7315,-6.9204 15.035,-6.9204 8.3037,0 15.035,3.0984 15.035,6.9204 z"
         transform="matrix(1.4932289,0,0,1.236542,387.7565,-131.3481)"
         id="path4203-3"
         style="color:#000000;fill:url(#radialGradient4704);enable-background:accumulate" />
      <path
         d="m 188.61,219.98 c 0,3.822 -6.5624,6.9204 -14.657,6.9204 -8.0951,0 -14.657,-3.0984 -14.657,-6.9204 0,-3.822 6.5624,-6.9204 14.657,-6.9204 8.0951,0 14.657,3.0984 14.657,6.9204 z"
         transform="matrix(0,1.5454545,-1.1838384,0,907.93299,-128.17385)"
         id="path4215-7"
         style="color:#000000;fill:url(#radialGradient4706);enable-background:accumulate" />
      <path
         d="m 188.61,219.98 c 0,3.822 -6.5624,6.9204 -14.657,6.9204 -8.0951,0 -14.657,-3.0984 -14.657,-6.9204 0,-3.822 6.5624,-6.9204 14.657,-6.9204 8.0951,0 14.657,3.0984 14.657,6.9204 z"
         transform="matrix(0.64810807,0.73272196,-0.14200081,0.69836561,565.2171,-139.99554)"
         id="path4219-0"
         style="color:#000000;fill:url(#radialGradient4708);enable-background:accumulate" />
      <path
         d="m 188.61,219.98 c 0,3.822 -6.5624,6.9204 -14.657,6.9204 -8.0951,0 -14.657,-3.0984 -14.657,-6.9204 0,-3.822 6.5624,-6.9204 14.657,-6.9204 8.0951,0 14.657,3.0984 14.657,6.9204 z"
         transform="matrix(-0.71168447,0.79316356,-0.17349462,-0.57783481,809.84362,129.68199)"
         id="path4221-6"
         style="color:#000000;fill:url(#radialGradient4710);enable-background:accumulate" />
    </g>
  </g>
</svg>
