<?xml version="1.0" encoding="UTF-8" standalone="no"?>
<svg
   xmlns:dc="http://purl.org/dc/elements/1.1/"
   xmlns:cc="http://creativecommons.org/ns#"
   xmlns:rdf="http://www.w3.org/1999/02/22-rdf-syntax-ns#"
   xmlns:svg="http://www.w3.org/2000/svg"
   xmlns="http://www.w3.org/2000/svg"
   xmlns:xlink="http://www.w3.org/1999/xlink"
   xmlns:sodipodi="http://sodipodi.sourceforge.net/DTD/sodipodi-0.dtd"
   xmlns:inkscape="http://www.inkscape.org/namespaces/inkscape"
   width="210mm"
   height="297mm"
   viewBox="0 0 210 297"
   version="1.1"
   id="svg5167"
   inkscape:version="1.0.1 (3bc2e813f5, 2020-09-07)"
   sodipodi:docname="bomb_blast_core_4.svg">
  <defs
     id="defs5161">
    <radialGradient
       cx="173.56"
       cy="219.66"
       r="20"
       id="radialGradient4369-2"
       xlink:href="#radialGradient5091-8"
       gradientUnits="userSpaceOnUse"
       gradientTransform="matrix(1.0000117,-2.3710264e-6,2.371005e-6,1.0000028,-0.00278185,-1.5611008e-4)" />
    <radialGradient
       cx="173.56"
       cy="219.66"
       r="20"
       id="radialGradient5091-8"
       gradientUnits="userSpaceOnUse"
       gradientTransform="matrix(1.0000117,-2.3710264e-6,2.371005e-6,1.0000028,-0.00278185,-1.5611008e-4)">
      <stop
         id="stop5114-9"
         style="stop-color:#ffc233;stop-opacity:1"
         offset="0" />
      <stop
         id="stop5116-3"
         style="stop-color:#ffa933;stop-opacity:1"
         offset="0.75739998" />
      <stop
         id="stop5118-6"
         style="stop-color:#ffa933;stop-opacity:0"
         offset="1" />
    </radialGradient>
    <radialGradient
       cx="173.67"
       cy="219.2"
       r="19.358999"
       id="radialGradient4371-80"
       xlink:href="#radialGradient5094-2"
       gradientUnits="userSpaceOnUse"
       gradientTransform="matrix(1,-8.9852435e-7,8.9852572e-7,1.0000015,-1.7813538e-4,-1.4718075e-4)" />
    <radialGradient
       cx="173.67"
       cy="219.2"
       r="19.358999"
       id="radialGradient5094-2"
       gradientUnits="userSpaceOnUse"
       gradientTransform="matrix(1,-8.9852435e-7,8.9852572e-7,1.0000015,-1.7813538e-4,-1.4718075e-4)">
      <stop
         id="stop5098-1"
         style="stop-color:#ffe533;stop-opacity:1"
         offset="0" />
      <stop
         id="stop5102-0"
         style="stop-color:#ffe533;stop-opacity:1"
         offset="0.65401" />
      <stop
         id="stop5100-5"
         style="stop-color:#ffe533;stop-opacity:0"
         offset="1" />
    </radialGradient>
    <radialGradient
       cx="173.96001"
       cy="219.98"
       r="14.657"
       id="radialGradient4373-1"
       xlink:href="#radialGradient4211-1"
       gradientUnits="userSpaceOnUse"
       gradientTransform="matrix(1.5317116,5.5288969e-8,-6.3038477e-8,0.21297728,381.06222,93.815704)" />
    <radialGradient
       cx="173.96001"
       cy="219.98"
       r="14.657"
       id="radialGradient4211-1"
       gradientUnits="userSpaceOnUse"
       gradientTransform="matrix(1.0257715,1.1038723e-7,-4.2216218e-8,0.42521994,-4.4830892,126.44019)">
      <stop
         id="stop4253-0"
         style="stop-color:#ffffff;stop-opacity:1"
         offset="0" />
      <stop
         id="stop4255-8"
         style="stop-color:#ffffff;stop-opacity:1"
         offset="0.74383003" />
      <stop
         id="stop4257-50"
         style="stop-color:#ffffff;stop-opacity:0"
         offset="1" />
    </radialGradient>
    <radialGradient
       cx="173.96001"
       cy="219.98"
       r="14.657"
       id="radialGradient4375-6"
       xlink:href="#radialGradient4217-4"
       gradientUnits="userSpaceOnUse"
       gradientTransform="matrix(-7.7132331e-8,1.5454545,-0.19902139,-9.1576651e-8,691.29291,-128.17383)" />
    <radialGradient
       cx="173.96001"
       cy="219.98"
       r="14.657"
       id="radialGradient4217-4"
       gradientUnits="userSpaceOnUse"
       gradientTransform="matrix(1,1.6479739e-7,-5.9255482e-8,0.42521994,1.3035115e-5,126.44018)">
      <stop
         id="stop5106-6"
         style="stop-color:#ffffff;stop-opacity:1"
         offset="0" />
      <stop
         id="stop5108-2"
         style="stop-color:#ffffff;stop-opacity:1"
         offset="0.56987" />
      <stop
         id="stop5110-5"
         style="stop-color:#ffffff;stop-opacity:0"
         offset="1" />
    </radialGradient>
    <radialGradient
       cx="173.96001"
       cy="219.98"
       r="14.657"
       id="radialGradient4377-86"
       xlink:href="#linearGradient4205-2"
       gradientUnits="userSpaceOnUse"
       gradientTransform="matrix(0.51940821,0.58721966,-0.04839114,0.23798953,567.01256,-13.411397)" />
    <linearGradient
       id="linearGradient4205-2">
      <stop
         id="stop4207-8"
         style="stop-color:#ffffff;stop-opacity:1"
         offset="0" />
      <stop
         id="stop4213-47"
         style="stop-color:#ffffff;stop-opacity:1"
         offset="0.58275998" />
      <stop
         id="stop4209-2"
         style="stop-color:#ffffff;stop-opacity:0"
         offset="1" />
    </linearGradient>
    <radialGradient
       r="14.657"
       cy="219.98"
       cx="173.96001"
       gradientTransform="matrix(-0.49719705,0.52691212,-0.05153956,-0.16322729,745.7052,84.791828)"
       gradientUnits="userSpaceOnUse"
       id="radialGradient4744-0"
       xlink:href="#linearGradient4205-2"
       inkscape:collect="always" />
  </defs>
  <sodipodi:namedview
     id="base"
     pagecolor="#ffffff"
     bordercolor="#666666"
     borderopacity="1.0"
     inkscape:pageopacity="0.0"
     inkscape:pageshadow="2"
     inkscape:zoom="0.35"
     inkscape:cx="400"
     inkscape:cy="560"
     inkscape:document-units="mm"
     inkscape:current-layer="layer1"
     inkscape:document-rotation="0"
     showgrid="false"
     inkscape:window-width="1254"
     inkscape:window-height="872"
     inkscape:window-x="24"
     inkscape:window-y="0"
     inkscape:window-maximized="0" />
  <metadata
     id="metadata5164">
    <rdf:RDF>
      <cc:Work
         rdf:about="">
        <dc:format>image/svg+xml</dc:format>
        <dc:type
           rdf:resource="http://purl.org/dc/dcmitype/StillImage" />
        <dc:title></dc:title>
      </cc:Work>
    </rdf:RDF>
  </metadata>
  <g
     inkscape:label="Ebene 1"
     inkscape:groupmode="layer"
     id="layer1">
    <g
       transform="matrix(0.26458333,0,0,0.26458333,-81.362319,56.521117)"
       id="bomb_blast_core_4"
       style="fill-rule:nonzero">
      <path
         d="m 170.85278,199.66 -0.87653,4.75676 c 0.0884,0.35355 -3.40002,6.8973 -3.40002,6.8973 0,0 -2.93604,1.79072 -4.71384,2.60672 l -8.30239,2 v 6.53919 l 8.60001,1.70811 c 2.58042,1.15045 4.90878,2.80873 4.90878,2.80873 0,0 1.44959,4.40179 2.05919,5.61919 l 1.5872,7.064 h 6.03364 l 1.6442,-6.81443 c 0.17678,-1.5026 2.30386,-5.96116 2.30386,-5.96116 0,0 4.12673,-3.00822 5.18743,-3.00822 l 7.67569,-1.07567 v -7.05942 l -7.1892,-1.22162 c -2.06375,-0.86267 -5.28759,-2.79549 -5.28759,-2.79549 0,0 -2.7271,-4.56909 -2.9536,-6.44479 l -1.21899,-5.6192 z"
         transform="translate(473.6424,-78.453876)"
         id="rect3516-2"
         style="fill:url(#radialGradient4369-2)"
         sodipodi:nodetypes="ccccccccccccccccccccc" />
      <path
         d="m 171.43975,199.84 c 0,0 -0.56723,5.37691 -0.83243,6.70271 -0.35355,1.0607 -3.61099,5.47579 -3.61099,5.47579 0,0 -3.25779,2.59478 -4.80909,3.26319 l -7.87719,1.7248 v 4.70692 l 8.04067,1.22161 c 2.38234,0.68109 5.48622,2.75854 5.48622,2.75854 0.5514,3.24219 2.42179,7.12069 2.42179,7.12069 l 1.03681,5.71 4.81662,0.0344 1.30021,-6.3066 c 0,-1.591 2.60947,-5.90731 2.60947,-5.90731 0,0 3.91757,-3.22813 5.75182,-3.70161 l 7.25529,-1.02702 v -5.02563 l -6.9634,-0.88108 c -1.0607,-0.0884 -5.54499,-3.03631 -5.54499,-3.03631 0,0 -3.82476,-5.92569 -3.91315,-6.27929 l -0.45302,-6.5539 h -10.84454 z"
         transform="translate(473.6424,-78.453876)"
         id="rect4326-9"
         style="fill:url(#radialGradient4371-80)"
         sodipodi:nodetypes="cccccccccccccccccccccc" />
      <path
         d="m 669.96183,140.66641 c 0,1.9143 -10.05167,3.46618 -22.4507,3.46618 -12.39932,0 -22.45069,-1.55188 -22.45069,-3.46618 0,-1.9143 10.05167,-3.46618 22.45069,-3.46618 12.39933,0 22.4507,1.55188 22.4507,3.46618 z"
         id="path4203-90"
         style="color:#000000;fill:url(#radialGradient4373-1);enable-background:accumulate" />
      <path
         d="m 647.51222,163.31432 c -1.78886,0 -3.23905,-10.14189 -3.23905,-22.65172 0,-12.51061 1.45019,-22.65173 3.23905,-22.65173 1.78886,0 3.23905,10.14189 3.23905,22.65173 0,12.51061 -1.45019,22.65172 -3.23905,22.65172 z"
         id="path4215-8"
         style="color:#000000;fill:url(#radialGradient4375-6);enable-background:accumulate" />
      <path
         d="m 654.33307,149.69699 c -0.43495,2.13912 -4.19612,0.0197 -8.40052,-4.73363 -4.20467,-4.7536 -7.26036,-10.34101 -6.82541,-12.48013 0.43495,-2.13912 4.19612,-0.0197 8.40052,4.73363 4.20467,4.7536 7.26036,10.34101 6.82541,12.48013 z"
         id="path4219-13"
         style="color:#000000;fill:url(#radialGradient4377-86);enable-background:accumulate" />
      <path
         d="m 640.59121,148.26602 c -0.46325,-1.46713 2.424,-6.11431 6.44862,-10.37945 4.02486,-4.26541 7.66296,-6.53359 8.12621,-5.06645 0.46325,1.46713 -2.424,6.11431 -6.44862,10.37945 -4.02486,4.26541 -7.66296,6.53358 -8.12621,5.06645 z"
         id="path4221-1"
         style="color:#000000;fill:url(#radialGradient4744-0);enable-background:accumulate" />
    </g>
  </g>
</svg>
