<?xml version="1.0" encoding="UTF-8" standalone="no"?>
<svg
   xmlns:dc="http://purl.org/dc/elements/1.1/"
   xmlns:cc="http://creativecommons.org/ns#"
   xmlns:rdf="http://www.w3.org/1999/02/22-rdf-syntax-ns#"
   xmlns:svg="http://www.w3.org/2000/svg"
   xmlns="http://www.w3.org/2000/svg"
   xmlns:xlink="http://www.w3.org/1999/xlink"
   xmlns:sodipodi="http://sodipodi.sourceforge.net/DTD/sodipodi-0.dtd"
   xmlns:inkscape="http://www.inkscape.org/namespaces/inkscape"
   width="10.583333mm"
   height="10.583333mm"
   viewBox="0 0 10.583333 10.583333"
   version="1.1"
   id="svg4038"
   inkscape:version="1.0.1 (3bc2e813f5, 2020-09-07)"
   sodipodi:docname="bonus_kick.svg">
  <defs
     id="defs4032">
    <linearGradient
       x1="374.92001"
       y1="62.589001"
       x2="414.92001"
       y2="62.589001"
       id="linearGradient5217"
       xlink:href="#linearGradient5142"
       gradientUnits="userSpaceOnUse"
       gradientTransform="translate(88.060379,-40.527306)" />
    <linearGradient
       id="linearGradient5142">
      <stop
         id="stop5144"
         style="stop-color:#b5eda9;stop-opacity:1"
         offset="0" />
      <stop
         id="stop5146"
         style="stop-color:#71d19c;stop-opacity:1"
         offset="1" />
    </linearGradient>
    <linearGradient
       x1="476.48999"
       y1="15.529"
       x2="494.10999"
       y2="27.908001"
       id="linearGradient5356"
       xlink:href="#linearGradient5170"
       gradientUnits="userSpaceOnUse"
       spreadMethod="reflect" />
    <linearGradient
       id="linearGradient5170">
      <stop
         id="stop5172"
         style="stop-color:#ffffff;stop-opacity:1"
         offset="0" />
      <stop
         id="stop5338"
         style="stop-color:#00ffa1;stop-opacity:1"
         offset="0.24004" />
      <stop
         id="stop5176"
         style="stop-color:#3c704c;stop-opacity:1"
         offset="0.80585003" />
      <stop
         id="stop5174"
         style="stop-color:#35493b;stop-opacity:1"
         offset="1" />
    </linearGradient>
    <radialGradient
       cx="250.19"
       cy="92.300003"
       r="14.625"
       fx="252.31"
       fy="96.365997"
       id="radialGradient5954"
       gradientUnits="userSpaceOnUse">
      <stop
         id="stop5907"
         style="stop-color:#ffffff;stop-opacity:1"
         offset="0" />
      <stop
         id="stop5909"
         style="stop-color:#ffffff;stop-opacity:1"
         offset="0.80427003" />
      <stop
         id="stop5911"
         style="stop-color:#9daca7;stop-opacity:1"
         offset="1" />
    </radialGradient>
  </defs>
  <sodipodi:namedview
     id="base"
     pagecolor="#ffffff"
     bordercolor="#666666"
     borderopacity="1.0"
     inkscape:pageopacity="0.0"
     inkscape:pageshadow="2"
     inkscape:zoom="0.35"
     inkscape:cx="194.28572"
     inkscape:cy="305.71429"
     inkscape:document-units="mm"
     inkscape:current-layer="layer1"
     inkscape:document-rotation="0"
     showgrid="false"
     inkscape:window-width="1254"
     inkscape:window-height="872"
     inkscape:window-x="73"
     inkscape:window-y="0"
     inkscape:window-maximized="0"
     fit-margin-top="0"
     fit-margin-left="0"
     fit-margin-right="0"
     fit-margin-bottom="0"
     inkscape:pagecheckerboard="true" />
  <metadata
     id="metadata4035">
    <rdf:RDF>
      <cc:Work
         rdf:about="">
        <dc:format>image/svg+xml</dc:format>
        <dc:type
           rdf:resource="http://purl.org/dc/dcmitype/StillImage" />
        <dc:title></dc:title>
      </cc:Work>
    </rdf:RDF>
  </metadata>
  <g
     inkscape:label="Ebene 1"
     inkscape:groupmode="layer"
     id="layer1"
     transform="translate(-54.428571,-67.279762)">
    <g
       transform="matrix(0.26458333,0,0,0.26458333,-68.068222,66.734138)"
       id="bonus_kick"
       style="display:inline">
      <rect
         width="40"
         height="40"
         rx="3"
         ry="3"
         x="462.98001"
         y="2.0622001"
         id="rect6075"
         style="fill:url(#linearGradient5217);fill-rule:nonzero" />
      <rect
         width="35.652"
         height="35.652"
         rx="2.6738999"
         ry="2.6738999"
         x="465.14999"
         y="4.2360001"
         id="rect6077"
         style="fill:#041400;stroke:url(#linearGradient5356);stroke-width:1.0491" />
      <path
         d="m 264.81,92.3 c 0,8.0772 -6.5478,14.625 -14.625,14.625 -8.0772,0 -14.625,-6.5478 -14.625,-14.625 0,-8.0772 6.5478,-14.625 14.625,-14.625 8.0772,0 14.625,6.5478 14.625,14.625 z"
         transform="matrix(0.98726655,0,0,0.98726655,236.10114,-69.092959)"
         id="path5895"
         style="color:#000000;fill:url(#radialGradient5954);fill-rule:nonzero;stroke:#000000;stroke-width:0.2;stroke-opacity:0.334783;enable-background:accumulate" />
      <path
         d="m 258.88,85.425 c 0,0 3.75,0.6875 4.375,2 0.625,1.3125 1.0625,5.375 1.0625,5.375 0,0 -1.75,4.875 -2.875,5 -1.125,0.125 -3.1875,-1.3125 -3.1875,-1.3125 0,0 -0.4375,-6.8125 -2.625,-8.25 -2.1875,-1.4375 -4.0625,-0.875 -4.0625,-0.875 0,0 -5.875,4.625 -5.5,5.625 0.375,1 1,4.5 1,4.5 0,0 4.1875,2.5 7.5625,2.375 3.375,-0.125 0.6875,3.25 0.6875,3.25 0,0 -1.625,2.6875 -5.75,3.1875 -4.125,0.5 -5.5625,-1.9375 -5.5625,-1.9375 0,0 -1.875,-4.1875 -0.75,-5.6875"
         transform="translate(233.10289,-70.330752)"
         id="path5945"
         style="color:#000000;fill:none;stroke:#000000;stroke-width:0.3;stroke-linecap:round;stroke-linejoin:miter;stroke-miterlimit:4;stroke-dasharray:none;stroke-dashoffset:0;enable-background:accumulate" />
      <path
         d="m 236.19,95.3 c 0,0 2.75,0.6875 3.9375,-0.125 1.1875,-0.8125 1.1875,-3.5 1.1875,-3.5 0,0 -2,-7.75 -0.6875,-8.375 1.3125,-0.625 4.3125,-2.1875 4.3125,-2.1875 0,0 3.8125,0.125 5.8125,1.4375 2,1.3125 4.625,-0.4375 4.625,-0.4375 0,0 0.3125,-2 0.25,-3.125"
         transform="translate(233.10289,-70.330752)"
         id="path5943"
         style="color:#000000;fill:none;stroke:#000000;stroke-width:0.3;stroke-miterlimit:4;stroke-dasharray:none;enable-background:accumulate" />
      <path
         d="m 259.91,101.88 c 0,0 0.45313,0.51562 0.53125,0.51562"
         transform="translate(233.10289,-70.330752)"
         id="path5947"
         style="color:#000000;fill:none;stroke:#000000;stroke-width:0.3;stroke-linecap:round;stroke-linejoin:miter;stroke-miterlimit:4;stroke-dasharray:none;stroke-dashoffset:0;enable-background:accumulate" />
      <path
         d="m 477.90212,8.450248 c -0.66847,0.17898 -1.24945,0.55438 -1.8571,0.875 -1.02423,0.5633 -1.9982,1.243 -2.83278,2.0625 -1.0618,0.99027 -2.02046,2.0941 -2.70687,3.375 0.0218,0.29207 0.62115,-0.01839 0.88131,0.03125 0.54725,-0.01985 1.15517,-0.06251 1.66814,0.15625 0.27736,0.40514 0.11876,0.93606 0.20605,1.3976 0.0499,0.46359 0.1963,0.98396 0.32645,1.432 0.0487,-0.71084 -0.2472,-1.4594 -0.2807,-2.1734 -0.0594,-0.43428 0.0326,-0.89511 0.34623,-1.2188 1.15174,-1.4603 2.55771,-2.8203 4.34359,-3.4688 0.42951,-0.11339 0.88274,-0.08452 1.32196,-0.09375 l -1.19606,-0.0625 c -0.0538,-0.74827 -0.0811,-1.5038 -0.15737,-2.25 0.001,-0.03264 -0.025,-0.07263 -0.0629,-0.0625 z m 10.47498,2.469 c -1.69735,0.20197 -3.45604,0.35146 -5.00462,1.125 -0.10804,1.1398 0.35284,2.4239 0.40917,3.625 0.21234,0.81607 -0.24267,2.1098 1.07017,1.875 1.70852,0.47829 3.42914,0.99063 5.03604,1.75 0.87179,-1.2942 1.80724,-2.5474 2.51803,-3.9375 1.05072,2.66e-4 -0.50554,-0.6848 -0.62951,-1.2812 -0.94678,-1.169 -1.92377,-2.403 -3.24322,-3.157 h -0.15737 l 0.001,7e-4 z m 7.80588,5.2188 c -0.0713,0.03572 -0.12847,0.11681 -0.15738,0.21875 -0.18984,0.16641 -0.0856,0.39633 0.0315,0.53125 0.0783,0.28628 0.14241,0.58139 0.28328,0.84375 0.15633,0.52265 0.27056,1.0433 0.44066,1.5625 0.15373,0.37907 0.23257,0.78838 0.31475,1.1875 0.0672,0.23346 0.0454,0.50347 0.15738,0.71875 0.0562,0.29126 0.0234,0.57985 0.0314,0.875 2.6e-4,0.05657 -5.5e-4,0.13076 0,0.1875 0.0315,0.133 -0.0733,0.65198 0.0629,0.53125 0.31705,0.04387 0.1884,-0.4028 0.22033,-0.59375 -0.0239,-0.8662 -0.0656,-1.7354 -0.18885,-2.5938 -0.12812,-0.40778 -0.17265,-0.83715 -0.28328,-1.25 -0.13018,-0.38808 -0.25686,-0.79598 -0.37771,-1.1875 -0.12731,-0.29717 -0.21873,-0.57747 -0.34622,-0.875 -0.0409,-0.16048 -0.11755,-0.19197 -0.18885,-0.15625 z m -22.18984,4 c -0.51513,1.3217 -1.52129,2.5059 -1.76262,3.9688 -0.23141,0.80771 -0.63737,1.2009 0.0943,1.8438 0.79402,1.5456 2.03848,2.8143 3.3679,3.9062 0.18892,0.68278 0.22643,1.0585 0.28328,0.1875 0.10143,-0.54096 0.99333,-0.46843 1.38491,-0.78125 1.1736,-0.48402 2.28264,-1.0939 3.46229,-1.5625 -0.68371,-1.8718 -0.99008,-3.8645 -1.38492,-5.8125 -0.82726,-0.77306 -2.28082,-0.73191 -3.36791,-1.125 -0.67863,-0.19879 -1.51282,-0.16588 -2.07736,-0.625 z m -5.22491,4.0625 c -0.0176,7.21e-4 -0.0418,0.02096 -0.0315,0.0625 0.053,0.37848 0.12529,0.74817 0.18885,1.125 0.023,0.08951 0.0257,0.2121 0.0943,0.28125 0.0661,0.16066 0.0803,0.33278 0.1259,0.5 0.0294,0.11425 0.0603,0.19952 0.0944,0.3125 0.0193,0.04155 0.0325,0.1673 0.063,0.15625 0.0193,-0.27084 0.0365,-0.54128 0.0315,-0.8125 -0.0106,-0.23102 -0.006,-0.46185 -0.063,-0.6875 -0.0294,-0.07717 -0.0885,-0.1698 -0.15737,-0.21875 -0.13174,-0.21644 -0.18981,-0.46744 -0.31475,-0.6875 -0.0104,-0.03397 -0.0138,-0.03197 -0.0315,-0.03125 z m 22.31575,0.125 c 0.16246,0.83371 -0.11277,1.6401 -0.81836,2.1562 -1.11498,1.1402 -2.35929,2.2342 -3.68256,3.0938 0.50568,1.2703 0.71486,2.6234 1.07016,3.9375 1.9288,-0.17414 4.00426,-0.44114 5.4767,-1.8125 0.90187,-1.4074 1.49501,-3.0108 1.76262,-4.6562 -1.13492,-0.48215 -2.24356,-1.0362 -3.39933,-1.4688 -0.36318,-0.28279 -0.2912,-0.83983 -0.40918,-1.25 z m -14.10094,9.4688 c -0.47378,0.35079 -2.05008,-0.0953 -2.00143,0.30714 1.70561,1.0972 3.57287,1.8337 5.58961,2.1929 0.66019,0.082 1.85689,0.4309 2.26622,0.0625 -0.003,-1.093 -1.6496,-0.58627 -2.39212,-1 -1.21006,-0.35238 -2.42718,-0.83848 -3.46228,-1.5625 z"
         id="path5915"
         style="color:#000000;fill:#000000;fill-rule:nonzero;enable-background:accumulate" />
      <path
         d="m 468.3,5.2237 c -2.0069,0 -1.9772,1.7194 -1.9772,1.7194 l -0.25,25.358 30.86,-26.733 -28.63,-0.3439 z"
         id="path6083"
         style="color:#000000;fill:#ffffff;fill-opacity:0.552174;fill-rule:nonzero;enable-background:accumulate" />
    </g>
  </g>
</svg>
