<?xml version="1.0" encoding="UTF-8" standalone="no"?>
<svg
   xmlns:dc="http://purl.org/dc/elements/1.1/"
   xmlns:cc="http://creativecommons.org/ns#"
   xmlns:rdf="http://www.w3.org/1999/02/22-rdf-syntax-ns#"
   xmlns:svg="http://www.w3.org/2000/svg"
   xmlns="http://www.w3.org/2000/svg"
   xmlns:xlink="http://www.w3.org/1999/xlink"
   xmlns:sodipodi="http://sodipodi.sourceforge.net/DTD/sodipodi-0.dtd"
   xmlns:inkscape="http://www.inkscape.org/namespaces/inkscape"
   width="10.583333mm"
   height="10.583333mm"
   viewBox="0 0 10.583333 10.583333"
   version="1.1"
   id="svg3988"
   inkscape:version="1.0.1 (3bc2e813f5, 2020-09-07)"
   sodipodi:docname="bonus_neutral_teleport.svg">
  <defs
     id="defs3982">
    <linearGradient
       x1="418.41"
       y1="22.815001"
       x2="458.41"
       y2="22.815001"
       id="linearGradient7054"
       xlink:href="#linearGradient6612"
       gradientUnits="userSpaceOnUse"
       gradientTransform="translate(-238.20161,124.23681)" />
    <linearGradient
       id="linearGradient6612">
      <stop
         id="stop6614"
         style="stop-color:#edeaa9;stop-opacity:1"
         offset="0" />
      <stop
         id="stop6616"
         style="stop-color:#d1c871;stop-opacity:1"
         offset="1" />
    </linearGradient>
    <linearGradient
       x1="430.25"
       y1="15.637"
       x2="447.85999"
       y2="31.047001"
       id="linearGradient7326"
       xlink:href="#linearGradient6618"
       gradientUnits="userSpaceOnUse"
       gradientTransform="translate(-238.20161,124.23681)"
       spreadMethod="reflect" />
    <linearGradient
       id="linearGradient6618">
      <stop
         id="stop6620"
         style="stop-color:#ffffff;stop-opacity:1"
         offset="0" />
      <stop
         id="stop6622"
         style="stop-color:#f8ff00;stop-opacity:1"
         offset="0.24004" />
      <stop
         id="stop6624"
         style="stop-color:#706d3c;stop-opacity:1"
         offset="0.80585003" />
      <stop
         id="stop6626"
         style="stop-color:#494935;stop-opacity:1"
         offset="1" />
    </linearGradient>
    <linearGradient
       x1="149.45"
       y1="203.53999"
       x2="149.45"
       y2="177.35001"
       id="linearGradient6208"
       xlink:href="#linearGradient6176"
       gradientUnits="userSpaceOnUse"
       gradientTransform="matrix(1.0176766,0,0,1,47.739658,-43.133514)" />
    <linearGradient
       id="linearGradient6176">
      <stop
         id="stop6178"
         style="stop-color:#ffe919;stop-opacity:1"
         offset="0" />
      <stop
         id="stop6180"
         style="stop-color:#ffe919;stop-opacity:0"
         offset="1" />
    </linearGradient>
    <linearGradient
       x1="194.07001"
       y1="158.99001"
       x2="202.25999"
       y2="158.99001"
       id="linearGradient6135"
       xlink:href="#linearGradient14273"
       gradientUnits="userSpaceOnUse"
       gradientTransform="matrix(1.003229,0,0,0.95924645,-0.64462503,6.6340232)"
       spreadMethod="reflect" />
    <linearGradient
       id="linearGradient14273">
      <stop
         id="stop14275"
         style="stop-color:#b8b8b8;stop-opacity:1"
         offset="0" />
      <stop
         id="stop14281"
         style="stop-color:#ffffff;stop-opacity:1"
         offset="0.29550001" />
      <stop
         id="stop14277"
         style="stop-color:#5d5d5d;stop-opacity:1"
         offset="1" />
    </linearGradient>
    <radialGradient
       cx="150.28"
       cy="200.74001"
       r="7.1561999"
       id="radialGradient6143"
       gradientUnits="userSpaceOnUse"
       gradientTransform="matrix(1,0,0,0.33187773,0,134.11699)">
      <stop
         id="stop6139"
         style="stop-color:#ffffff;stop-opacity:1"
         offset="0" />
      <stop
         id="stop6145"
         style="stop-color:#ffe387;stop-opacity:1"
         offset="0.71380001" />
      <stop
         id="stop6141"
         style="stop-color:#bc9f40;stop-opacity:1"
         offset="1" />
    </radialGradient>
    <linearGradient
       x1="149.53"
       y1="187.64999"
       x2="149.53"
       y2="197.69"
       id="linearGradient6172"
       gradientUnits="userSpaceOnUse">
      <stop
         id="stop6168"
         style="stop-color:#3e3e3e;stop-opacity:1"
         offset="0" />
      <stop
         id="stop6170"
         style="stop-color:#8a751b;stop-opacity:1"
         offset="1" />
    </linearGradient>
    <linearGradient
       x1="149.53"
       y1="195.84"
       x2="149.53"
       y2="182.48"
       id="linearGradient6164"
       gradientUnits="userSpaceOnUse">
      <stop
         id="stop6160"
         style="stop-color:#fff26e;stop-opacity:1"
         offset="0" />
      <stop
         id="stop6162"
         style="stop-color:#ece5a0;stop-opacity:0"
         offset="1" />
    </linearGradient>
    <linearGradient
       x1="149.45"
       y1="195.35001"
       x2="149.45"
       y2="177.35001"
       id="linearGradient6205"
       xlink:href="#linearGradient6176"
       gradientUnits="userSpaceOnUse"
       gradientTransform="matrix(0.91161791,0,0,1,63.589757,-43.133514)" />
    <linearGradient
       x1="149.45"
       y1="195.35001"
       x2="149.45"
       y2="177.35001"
       id="linearGradient6211"
       xlink:href="#linearGradient3363"
       gradientUnits="userSpaceOnUse"
       gradientTransform="matrix(0.70211325,0,0,0.67203298,94.899508,22.320024)" />
    <linearGradient
       id="linearGradient3363">
      <stop
         id="stop3365"
         style="stop-color:#ffffff;stop-opacity:1"
         offset="0" />
      <stop
         id="stop3367"
         style="stop-color:#ffffff;stop-opacity:0"
         offset="1" />
    </linearGradient>
    <radialGradient
       cx="203.62"
       cy="135.3"
       r="2.401"
       id="radialGradient6219"
       xlink:href="#linearGradient4683"
       gradientUnits="userSpaceOnUse"
       gradientTransform="matrix(0.30974503,0,0,0.30374679,141.23215,93.30614)" />
    <linearGradient
       id="linearGradient4683">
      <stop
         id="stop4685"
         style="stop-color:#ffffff;stop-opacity:1"
         offset="0" />
      <stop
         id="stop4687"
         style="stop-color:#ffffff;stop-opacity:1"
         offset="0.41523999" />
      <stop
         id="stop4689"
         style="stop-color:#ffffff;stop-opacity:0"
         offset="1" />
    </linearGradient>
    <radialGradient
       cx="203.62"
       cy="135.3"
       r="2.401"
       id="radialGradient6223"
       xlink:href="#linearGradient4683"
       gradientUnits="userSpaceOnUse"
       gradientTransform="matrix(0.30974503,0,0,0.30374679,137.60823,98.079111)" />
    <radialGradient
       cx="203.62"
       cy="135.3"
       r="2.401"
       id="radialGradient6227"
       xlink:href="#linearGradient4683"
       gradientUnits="userSpaceOnUse"
       gradientTransform="matrix(0.30974503,0,0,0.30374679,136.90112,104.13371)" />
    <radialGradient
       cx="203.62"
       cy="135.3"
       r="2.401"
       id="radialGradient6232"
       xlink:href="#linearGradient4683"
       gradientUnits="userSpaceOnUse"
       gradientTransform="matrix(0.30974503,0,0,0.30374679,133.54237,91.980315)" />
    <radialGradient
       cx="203.62"
       cy="135.3"
       r="2.401"
       id="radialGradient6236"
       xlink:href="#linearGradient4683"
       gradientUnits="userSpaceOnUse"
       gradientTransform="matrix(0.30974503,0,0,0.30374679,130.97911,101.26109)" />
    <radialGradient
       cx="203.62"
       cy="135.3"
       r="2.401"
       id="radialGradient6240"
       xlink:href="#linearGradient4683"
       gradientUnits="userSpaceOnUse"
       gradientTransform="matrix(0.30974503,0,0,0.30374679,134.1169,110.45348)" />
    <radialGradient
       cx="203.62"
       cy="135.3"
       r="2.401"
       id="radialGradient6244"
       xlink:href="#linearGradient4683"
       gradientUnits="userSpaceOnUse"
       gradientTransform="matrix(0.30974503,0,0,0.30374679,140.74603,107.35989)" />
    <radialGradient
       cx="203.62"
       cy="135.3"
       r="2.401"
       id="radialGradient6248"
       xlink:href="#linearGradient4683"
       gradientUnits="userSpaceOnUse"
       gradientTransform="matrix(0.30974503,0,0,0.30374679,139.99473,102.49853)" />
    <radialGradient
       cx="203.62"
       cy="135.3"
       r="2.401"
       id="radialGradient6252"
       xlink:href="#linearGradient4683"
       gradientUnits="userSpaceOnUse"
       gradientTransform="matrix(0.19010107,0,0,0.18641975,162.43373,106.63324)" />
    <radialGradient
       cx="203.62"
       cy="135.3"
       r="2.401"
       id="radialGradient6256"
       xlink:href="#linearGradient4683"
       gradientUnits="userSpaceOnUse"
       gradientTransform="matrix(0.19010107,0,0,0.18641975,159.47272,112.06912)" />
    <radialGradient
       cx="203.62"
       cy="135.3"
       r="2.401"
       id="radialGradient6260"
       xlink:href="#linearGradient4683"
       gradientUnits="userSpaceOnUse"
       gradientTransform="matrix(0.19010107,0,0,0.18641975,156.02557,108.401)" />
    <radialGradient
       cx="203.62"
       cy="135.3"
       r="2.401"
       id="radialGradient6264"
       xlink:href="#linearGradient4683"
       gradientUnits="userSpaceOnUse"
       gradientTransform="matrix(0.19010107,0,0,0.18641975,159.91466,117.10726)" />
    <radialGradient
       cx="203.62"
       cy="135.3"
       r="2.401"
       id="radialGradient6268"
       xlink:href="#linearGradient4683"
       gradientUnits="userSpaceOnUse"
       gradientTransform="matrix(0.19010107,0,0,0.18641975,156.90946,119.31697)" />
    <radialGradient
       cx="203.62"
       cy="135.3"
       r="2.401"
       id="radialGradient6272"
       xlink:href="#linearGradient4683"
       gradientUnits="userSpaceOnUse"
       gradientTransform="matrix(0.19010107,0,0,0.18641975,159.42853,122.71992)" />
    <radialGradient
       cx="203.62"
       cy="135.3"
       r="2.401"
       id="radialGradient6276"
       xlink:href="#linearGradient4683"
       gradientUnits="userSpaceOnUse"
       gradientTransform="matrix(0.19010107,0,0,0.18641975,165.21797,126.6532)" />
    <radialGradient
       cx="203.62"
       cy="135.3"
       r="2.401"
       id="radialGradient6280"
       xlink:href="#linearGradient4683"
       gradientUnits="userSpaceOnUse"
       gradientTransform="matrix(0.19010107,0,0,0.18641975,160.445,125.32737)" />
    <radialGradient
       cx="203.62"
       cy="135.3"
       r="2.401"
       id="radialGradient6284"
       xlink:href="#linearGradient4683"
       gradientUnits="userSpaceOnUse"
       gradientTransform="matrix(0.19010107,0,0,0.18641975,157.52818,123.5596)" />
    <radialGradient
       cx="203.62"
       cy="135.3"
       r="2.401"
       id="radialGradient6289"
       xlink:href="#linearGradient4683"
       gradientUnits="userSpaceOnUse"
       gradientTransform="matrix(0.19010107,0,0,0.18641975,162.16857,121.39409)" />
    <radialGradient
       cx="203.62"
       cy="135.3"
       r="2.401"
       id="radialGradient6294"
       xlink:href="#linearGradient4683"
       gradientUnits="userSpaceOnUse"
       gradientTransform="matrix(0.19010107,0,0,0.18641975,163.27342,117.10726)" />
    <radialGradient
       cx="203.62"
       cy="135.3"
       r="2.401"
       id="radialGradient6298"
       xlink:href="#linearGradient4683"
       gradientUnits="userSpaceOnUse"
       gradientTransform="matrix(0.19010107,0,0,0.18641975,165.83668,112.2459)" />
  </defs>
  <sodipodi:namedview
     id="base"
     pagecolor="#ffffff"
     bordercolor="#666666"
     borderopacity="1.0"
     inkscape:pageopacity="0.0"
     inkscape:pageshadow="2"
     inkscape:zoom="0.35"
     inkscape:cx="60"
     inkscape:cy="140"
     inkscape:document-units="mm"
     inkscape:current-layer="layer1"
     inkscape:document-rotation="0"
     showgrid="false"
     inkscape:window-width="1254"
     inkscape:window-height="872"
     inkscape:window-x="49"
     inkscape:window-y="0"
     inkscape:window-maximized="0"
     fit-margin-top="0"
     fit-margin-left="0"
     fit-margin-right="0"
     fit-margin-bottom="0"
     inkscape:pagecheckerboard="true" />
  <metadata
     id="metadata3985">
    <rdf:RDF>
      <cc:Work
         rdf:about="">
        <dc:format>image/svg+xml</dc:format>
        <dc:type
           rdf:resource="http://purl.org/dc/dcmitype/StillImage" />
        <dc:title></dc:title>
      </cc:Work>
    </rdf:RDF>
  </metadata>
  <g
     inkscape:label="Ebene 1"
     inkscape:groupmode="layer"
     id="layer1"
     transform="translate(-89.958333,-111.125)">
    <g
       transform="matrix(0.26458333,0,0,0.26458333,42.280418,77.509687)"
       id="bonus_neutral_teleport">
      <rect
         width="40"
         height="40"
         rx="3"
         ry="3"
         x="180.2"
         y="127.05"
         id="rect5176"
         style="color:#000000;fill:url(#linearGradient7054);fill-rule:nonzero;enable-background:accumulate" />
      <rect
         width="35.652"
         height="35.652"
         rx="2.6738999"
         ry="2.6738999"
         x="182.31"
         y="129.25999"
         id="rect5178"
         style="fill:#041400;stroke:url(#linearGradient7326);stroke-width:1" />
      <path
         d="m 192.63,155.29 c 1.3816,1.8458 3.8502,2.3894 6.0342,2.4748 2.2187,0.003 4.5114,-0.1681 6.5765,-1.0376 1.2023,-0.35203 1.504,-1.553 1.363,-2.6606 0.16048,-5.9625 0.40483,-11.925 0.41088,-17.89 -0.16384,-1.0063 -0.35224,1.3526 -0.42495,1.7446 -0.1782,1.4958 -0.33071,2.9946 -0.47543,4.494 -0.16961,-3.5833 -0.33923,-7.1667 -0.50884,-10.75 -0.31802,3.1042 -0.63605,6.2083 -0.95407,9.3125 -0.50884,-3.0417 -1.0177,-6.0833 -1.5265,-9.125 -0.16961,2.5 -0.33922,5 -0.50883,7.5 -0.25442,-1.6458 -0.50884,-3.2917 -0.76326,-4.9375 -0.29682,2.8542 -0.59364,5.7083 -0.89046,8.5625 -0.16962,-3.4167 -0.33923,-6.8333 -0.50885,-10.25 -0.23321,3.0208 -0.46643,6.0417 -0.69964,9.0625 -0.19082,-3.3542 -0.38163,-6.7083 -0.57245,-10.062 -0.44524,3.2292 -0.89047,6.4583 -1.3357,9.6875 -0.14841,-2.7708 -0.29682,-5.5417 -0.44523,-8.3125 -0.19081,1.3333 -0.38163,2.6667 -0.57244,4 -0.14841,-1.6667 -0.29682,-3.3333 -0.44523,-5 -0.12721,3.7083 -0.25442,7.4167 -0.38163,11.125 -0.27447,-3.2911 -0.50087,-6.5909 -0.82687,-9.875 -0.13515,2.7935 -0.33462,5.5837 -0.50883,8.375 -0.38163,-3.0625 -0.76326,-6.125 -1.1449,-9.1875 0.0424,4.5208 0.0848,9.0417 0.12726,13.562 -0.25442,-3.4167 -0.50884,-6.8333 -0.76326,-10.25 -0.0848,6.4792 -0.16956,12.958 -0.25446,19.438 z"
         id="path6188"
         style="color:#000000;opacity:0.577236;fill:url(#linearGradient6208);fill-rule:nonzero;enable-background:accumulate" />
      <path
         d="m 192.48,155.54 h 14.296 c 0.30936,0.13258 2,4.2628 2,4.6164 0,1.7215 -3.1599,3.2679 -9.148,3.2596 -6.2536,-0.009 -9.148,-1.5189 -9.148,-3.2596 -0.0884,-0.44194 1.6464,-4.4396 2,-4.6164 z"
         id="rect6118"
         style="color:#000000;fill:url(#linearGradient6135);fill-rule:nonzero;stroke:#000000;stroke-width:0.0980991;enable-background:accumulate" />
      <path
         d="m 157.38,200.74 c 0,1.2772 -3.176,2.3125 -7.0938,2.3125 -3.9178,0 -7.0938,-1.0353 -7.0938,-2.3125 0,-1.2772 3.176,-2.3125 7.0938,-2.3125 3.9178,0 7.0938,1.0353 7.0938,2.3125 z"
         transform="matrix(1.0109558,0,0,0.99988377,47.719278,-45.047683)"
         id="path5344"
         style="color:#000000;fill:url(#radialGradient6143);fill-rule:nonzero;stroke:#000000;stroke-width:0.1;stroke-opacity:0.478261;enable-background:accumulate" />
      <path
         d="m 149.5,182.62 c -1.864,0 -3.375,1.511 -3.375,3.375 0,1.5145 1.0011,2.7602 2.375,3.1875 l 0.0625,0.875 -4.375,-2.1875 -0.0625,2.3125 4.25,1.75 -2.5625,6.4375 2.125,0.5625 1.5938,-5.2812 1.5938,5.2812 2.125,-0.5625 -2.5625,-6.4375 4.25,-1.75 -0.0625,-2.3125 -4.375,2.1875 0.0625,-0.90625 c 1.3394,-0.4475 2.3125,-1.6664 2.3125,-3.1562 0,-1.864 -1.511,-3.375 -3.375,-3.375 z"
         transform="translate(50.381357,-43.133514)"
         id="path6151"
         style="color:#000000;fill:url(#linearGradient6172);fill-rule:nonzero;stroke:url(#linearGradient6164);stroke-width:0.3;stroke-linecap:round;stroke-linejoin:miter;stroke-miterlimit:4;stroke-dasharray:none;stroke-dashoffset:0;enable-background:accumulate" />
      <path
         d="m 193.38,155.29 c 1.3041,1.968 3.8704,2.528 6.0891,2.4806 1.937,-0.1059 4.0025,-0.26058 5.6765,-1.3321 1.0055,-0.56917 0.67281,-1.806 0.76239,-2.7523 0.13967,-5.8359 0.3538,-11.672 0.35752,-17.51 -0.14745,-1.0039 -0.31575,1.356 -0.38066,1.7446 -0.15967,1.4962 -0.29627,2.9948 -0.42588,4.494 -0.15194,-3.5833 -0.30388,-7.1667 -0.45582,-10.75 -0.28488,3.1042 -0.56975,6.2083 -0.85463,9.3125 -0.45581,-3.0417 -0.91163,-6.0833 -1.3674,-9.125 -0.15193,2.5 -0.30387,5 -0.4558,7.5 -0.22791,-1.6458 -0.45581,-3.2917 -0.68372,-4.9375 -0.26589,2.8542 -0.53177,5.7083 -0.79766,8.5625 -0.15194,-3.4167 -0.30387,-6.8333 -0.45581,-10.25 -0.20891,3.0208 -0.41782,6.0417 -0.62673,9.0625 -0.17093,-3.3542 -0.34186,-6.7083 -0.51279,-10.062 -0.39884,3.2292 -0.79767,6.4583 -1.1965,9.6875 -0.13294,-2.7708 -0.26589,-5.5417 -0.39883,-8.3125 -0.17093,1.3333 -0.34185,2.6667 -0.51278,4 -0.13294,-1.6667 -0.26589,-3.3333 -0.39883,-5 -0.11395,3.7083 -0.22791,7.4167 -0.34186,11.125 -0.24597,-3.2912 -0.44936,-6.5894 -0.74069,-9.875 -0.12104,2.7932 -0.29974,5.5836 -0.4558,8.375 -0.34186,-3.0625 -0.68372,-6.125 -1.0256,-9.1875 0.038,4.5208 0.076,9.0417 0.11399,13.562 -0.2279,-3.4167 -0.45581,-6.8333 -0.68371,-10.25 -0.076,6.4792 -0.15188,12.958 -0.22794,19.438 z"
         id="path6174"
         style="color:#000000;opacity:0.691057;fill:url(#linearGradient6205);fill-rule:nonzero;enable-background:accumulate" />
      <path
         d="m 194.86,155.67 c 0.94776,1.2298 2.6069,1.589 4.079,1.6601 1.5324,0.0163 3.1091,-0.10263 4.5488,-0.66188 0.75469,-0.21209 1.1436,-0.91316 1.0079,-1.6646 0.11266,-4.0589 0.28343,-8.1178 0.28843,-12.179 -0.1129,-0.67672 -0.24297,0.90838 -0.29318,1.1725 -0.12296,1.0052 -0.22812,2.0124 -0.328,3.0201 -0.11702,-2.4081 -0.23405,-4.8162 -0.35107,-7.2244 -0.21941,2.0861 -0.43881,4.1722 -0.65822,6.2583 -0.35106,-2.0441 -0.70212,-4.0882 -1.0532,-6.1323 -0.11702,1.6801 -0.23403,3.3602 -0.35105,5.0402 -0.17553,-1.1061 -0.35106,-2.2121 -0.52659,-3.3182 -0.20478,1.9181 -0.40956,3.8362 -0.61434,5.7543 -0.11702,-2.2961 -0.23404,-4.5922 -0.35106,-6.8883 -0.1609,2.0301 -0.3218,4.0602 -0.4827,6.0903 -0.13165,-2.2541 -0.26329,-4.5082 -0.39494,-6.7623 -0.30718,2.1701 -0.61435,4.3402 -0.92153,6.5103 -0.10239,-1.8621 -0.20479,-3.7242 -0.30718,-5.5863 -0.13164,0.89604 -0.26329,1.7921 -0.39493,2.6881 -0.10239,-1.12 -0.20478,-2.2401 -0.30717,-3.3602 -0.0878,2.4921 -0.17553,4.9842 -0.2633,7.4764 -0.18912,-2.2117 -0.34526,-4.4296 -0.57047,-6.6363 -0.0932,1.8774 -0.23097,3.7524 -0.35105,5.6283 -0.26329,-2.0581 -0.52659,-4.1162 -0.78988,-6.1743 0.0293,3.0382 0.0585,6.0763 0.0878,9.1144 -0.17553,-2.2961 -0.35105,-4.5922 -0.52658,-6.8884 -0.0585,4.3542 -0.11695,8.7085 -0.17557,13.063 z"
         id="path6194"
         style="color:#000000;opacity:0.666667;fill:url(#linearGradient6211);fill-rule:nonzero;enable-background:accumulate" />
      <path
         d="m 204.84,135.04 c -0.16092,-0.0659 -0.32184,-0.13176 -0.48276,-0.19764 -0.1455,0.0952 -0.29099,0.19042 -0.43649,0.28563 0.013,-0.1734 0.0259,-0.3468 0.0388,-0.5202 -0.13551,-0.10896 -0.27103,-0.21791 -0.40654,-0.32687 0.16891,-0.0413 0.33782,-0.0826 0.50673,-0.12386 0.0618,-0.16254 0.12349,-0.3251 0.18524,-0.48764 0.0915,0.14788 0.18292,0.29577 0.27438,0.44365 0.17368,0.008 0.34735,0.017 0.52103,0.0255 -0.11238,0.13269 -0.22477,0.26537 -0.33715,0.39806 0.0456,0.16779 0.0912,0.33559 0.13677,0.50339 z"
         id="path6201"
         style="color:#000000;fill:url(#radialGradient6219);fill-rule:nonzero;enable-background:accumulate" />
      <path
         d="m 201.22,139.82 c -0.16092,-0.0659 -0.32184,-0.13176 -0.48276,-0.19764 -0.1455,0.0952 -0.29099,0.19042 -0.43649,0.28563 0.013,-0.1734 0.0259,-0.3468 0.0388,-0.5202 -0.13551,-0.10896 -0.27103,-0.21791 -0.40654,-0.32687 0.16891,-0.0413 0.33782,-0.0826 0.50673,-0.12386 0.0618,-0.16254 0.12349,-0.3251 0.18524,-0.48764 0.0915,0.14788 0.18292,0.29577 0.27438,0.44365 0.17368,0.008 0.34735,0.017 0.52103,0.0255 -0.11238,0.13269 -0.22477,0.26537 -0.33715,0.39806 0.0456,0.16779 0.0912,0.33559 0.13677,0.50339 z"
         id="path6221"
         style="color:#000000;fill:url(#radialGradient6223);fill-rule:nonzero;enable-background:accumulate" />
      <path
         d="m 200.51,145.87 c -0.16092,-0.0659 -0.32184,-0.13176 -0.48276,-0.19764 -0.1455,0.0952 -0.29099,0.19042 -0.43649,0.28563 0.013,-0.1734 0.0259,-0.3468 0.0388,-0.5202 -0.13551,-0.10896 -0.27103,-0.21791 -0.40654,-0.32687 0.16891,-0.0413 0.33782,-0.0826 0.50673,-0.12386 0.0618,-0.16254 0.12349,-0.3251 0.18524,-0.48764 0.0915,0.14788 0.18292,0.29577 0.27438,0.44365 0.17368,0.008 0.34735,0.017 0.52103,0.0255 -0.11238,0.13269 -0.22477,0.26537 -0.33715,0.39806 0.0456,0.16779 0.0912,0.33559 0.13677,0.50339 z"
         id="path6225"
         style="color:#000000;fill:url(#radialGradient6227);fill-rule:nonzero;enable-background:accumulate" />
      <path
         d="m 197.15,133.72 c -0.16092,-0.0659 -0.32184,-0.13176 -0.48276,-0.19764 -0.1455,0.0952 -0.29099,0.19042 -0.43649,0.28563 0.013,-0.1734 0.0259,-0.3468 0.0388,-0.5202 -0.13551,-0.10896 -0.27103,-0.21791 -0.40654,-0.32687 0.16891,-0.0413 0.33782,-0.0826 0.50673,-0.12386 0.0618,-0.16254 0.12349,-0.3251 0.18524,-0.48764 0.0915,0.14788 0.18292,0.29577 0.27438,0.44365 0.17368,0.008 0.34735,0.017 0.52103,0.0255 -0.11238,0.13269 -0.22477,0.26537 -0.33715,0.39806 0.0456,0.16779 0.0912,0.33559 0.13677,0.50339 z"
         id="path6230"
         style="color:#000000;fill:url(#radialGradient6232);fill-rule:nonzero;enable-background:accumulate" />
      <path
         d="m 194.59,143 c -0.16092,-0.0659 -0.32184,-0.13176 -0.48276,-0.19764 -0.1455,0.0952 -0.29099,0.19042 -0.43649,0.28563 0.013,-0.1734 0.0259,-0.3468 0.0388,-0.5202 -0.13551,-0.10896 -0.27103,-0.21791 -0.40654,-0.32687 0.16891,-0.0413 0.33782,-0.0826 0.50673,-0.12386 0.0618,-0.16254 0.12349,-0.3251 0.18524,-0.48764 0.0915,0.14788 0.18292,0.29577 0.27438,0.44365 0.17368,0.008 0.34735,0.017 0.52103,0.0255 -0.11238,0.13269 -0.22477,0.26537 -0.33715,0.39806 0.0456,0.16779 0.0912,0.33559 0.13677,0.50339 z"
         id="path6234"
         style="color:#000000;fill:url(#radialGradient6236);fill-rule:nonzero;enable-background:accumulate" />
      <path
         d="m 197.73,152.19 c -0.16092,-0.0659 -0.32184,-0.13176 -0.48276,-0.19764 -0.1455,0.0952 -0.29099,0.19042 -0.43649,0.28563 0.013,-0.1734 0.0259,-0.3468 0.0388,-0.5202 -0.13551,-0.10896 -0.27103,-0.21791 -0.40654,-0.32687 0.16891,-0.0413 0.33782,-0.0826 0.50673,-0.12386 0.0618,-0.16254 0.12349,-0.3251 0.18524,-0.48764 0.0915,0.14788 0.18292,0.29577 0.27438,0.44365 0.17368,0.008 0.34735,0.017 0.52103,0.0255 -0.11238,0.13269 -0.22477,0.26537 -0.33715,0.39806 0.0456,0.16779 0.0912,0.33559 0.13677,0.50339 z"
         id="path6238"
         style="color:#000000;fill:url(#radialGradient6240);fill-rule:nonzero;enable-background:accumulate" />
      <path
         d="m 204.36,149.1 c -0.16092,-0.0659 -0.32184,-0.13176 -0.48276,-0.19764 -0.1455,0.0952 -0.29099,0.19042 -0.43649,0.28563 0.013,-0.1734 0.0259,-0.3468 0.0388,-0.5202 -0.13551,-0.10896 -0.27103,-0.21791 -0.40654,-0.32687 0.16891,-0.0413 0.33782,-0.0826 0.50673,-0.12386 0.0618,-0.16254 0.12349,-0.3251 0.18524,-0.48764 0.0915,0.14788 0.18292,0.29577 0.27438,0.44365 0.17368,0.008 0.34735,0.017 0.52103,0.0255 -0.11238,0.13269 -0.22477,0.26537 -0.33715,0.39806 0.0456,0.16779 0.0912,0.33559 0.13677,0.50339 z"
         id="path6242"
         style="color:#000000;fill:url(#radialGradient6244);fill-rule:nonzero;enable-background:accumulate" />
      <path
         d="m 203.61,144.24 c -0.16092,-0.0659 -0.32184,-0.13176 -0.48276,-0.19764 -0.1455,0.0952 -0.29099,0.19042 -0.43649,0.28563 0.013,-0.1734 0.0259,-0.3468 0.0388,-0.5202 -0.13551,-0.10896 -0.27103,-0.21791 -0.40654,-0.32687 0.16891,-0.0413 0.33782,-0.0826 0.50673,-0.12386 0.0618,-0.16254 0.12349,-0.3251 0.18524,-0.48764 0.0915,0.14788 0.18292,0.29577 0.27438,0.44365 0.17368,0.008 0.34735,0.017 0.52103,0.0255 -0.11238,0.13269 -0.22477,0.26537 -0.33715,0.39806 0.0456,0.16779 0.0912,0.33559 0.13677,0.50339 z"
         id="path6246"
         style="color:#000000;fill:url(#radialGradient6248);fill-rule:nonzero;enable-background:accumulate" />
      <path
         d="m 201.47,132.25 c -0.0988,-0.0404 -0.19752,-0.0809 -0.29629,-0.1213 -0.0893,0.0584 -0.17859,0.11687 -0.26789,0.1753 0.008,-0.10642 0.0159,-0.21284 0.0238,-0.31926 -0.0832,-0.0669 -0.16634,-0.13374 -0.24951,-0.20062 0.10367,-0.0253 0.20733,-0.0507 0.311,-0.076 0.0379,-0.0998 0.0758,-0.19953 0.11369,-0.29928 0.0562,0.0907 0.11226,0.18152 0.16839,0.27228 0.1066,0.005 0.21318,0.0104 0.31978,0.0156 -0.069,0.0814 -0.13795,0.16287 -0.20692,0.2443 0.028,0.10298 0.056,0.20597 0.0839,0.30895 z"
         id="path6250"
         style="color:#000000;fill:url(#radialGradient6252);fill-rule:nonzero;enable-background:accumulate" />
      <path
         d="m 198.51,137.68 c -0.0988,-0.0404 -0.19752,-0.0809 -0.29629,-0.1213 -0.0893,0.0584 -0.17859,0.11687 -0.26789,0.1753 0.008,-0.10642 0.0159,-0.21284 0.0238,-0.31926 -0.0832,-0.0669 -0.16634,-0.13374 -0.24951,-0.20062 0.10367,-0.0253 0.20733,-0.0507 0.311,-0.076 0.0379,-0.0998 0.0758,-0.19953 0.11369,-0.29928 0.0562,0.0907 0.11226,0.18152 0.16839,0.27228 0.1066,0.005 0.21318,0.0104 0.31978,0.0156 -0.069,0.0814 -0.13795,0.16287 -0.20692,0.2443 0.028,0.10298 0.056,0.20597 0.0839,0.30895 z"
         id="path6254"
         style="color:#000000;fill:url(#radialGradient6256);fill-rule:nonzero;enable-background:accumulate" />
      <path
         d="m 195.07,134.02 c -0.0988,-0.0404 -0.19752,-0.0809 -0.29629,-0.1213 -0.0893,0.0584 -0.17859,0.11687 -0.26789,0.1753 0.008,-0.10642 0.0159,-0.21284 0.0238,-0.31926 -0.0832,-0.0669 -0.16634,-0.13374 -0.24951,-0.20062 0.10367,-0.0253 0.20733,-0.0507 0.311,-0.076 0.0379,-0.0998 0.0758,-0.19953 0.11369,-0.29928 0.0562,0.0907 0.11226,0.18152 0.16839,0.27228 0.1066,0.005 0.21318,0.0104 0.31978,0.0156 -0.069,0.0814 -0.13795,0.16287 -0.20692,0.2443 0.028,0.10298 0.056,0.20597 0.0839,0.30895 z"
         id="path6258"
         style="color:#000000;fill:url(#radialGradient6260);fill-rule:nonzero;enable-background:accumulate" />
      <path
         d="m 198.96,142.72 c -0.0988,-0.0404 -0.19752,-0.0809 -0.29629,-0.1213 -0.0893,0.0584 -0.17859,0.11687 -0.26789,0.1753 0.008,-0.10642 0.0159,-0.21284 0.0238,-0.31926 -0.0832,-0.0669 -0.16634,-0.13374 -0.24951,-0.20062 0.10367,-0.0253 0.20733,-0.0507 0.311,-0.076 0.0379,-0.0998 0.0758,-0.19953 0.11369,-0.29928 0.0562,0.0907 0.11226,0.18152 0.16839,0.27228 0.1066,0.005 0.21318,0.0104 0.31978,0.0156 -0.069,0.0814 -0.13795,0.16287 -0.20692,0.2443 0.028,0.10298 0.056,0.20597 0.0839,0.30895 z"
         id="path6262"
         style="color:#000000;fill:url(#radialGradient6264);fill-rule:nonzero;enable-background:accumulate" />
      <path
         d="m 195.95,144.93 c -0.0988,-0.0404 -0.19752,-0.0809 -0.29629,-0.1213 -0.0893,0.0584 -0.17859,0.11687 -0.26789,0.1753 0.008,-0.10642 0.0159,-0.21284 0.0238,-0.31926 -0.0832,-0.0669 -0.16634,-0.13374 -0.24951,-0.20062 0.10367,-0.0253 0.20733,-0.0507 0.311,-0.076 0.0379,-0.0998 0.0758,-0.19953 0.11369,-0.29928 0.0562,0.0907 0.11226,0.18152 0.16839,0.27228 0.1066,0.005 0.21318,0.0104 0.31978,0.0156 -0.069,0.0814 -0.13795,0.16287 -0.20692,0.2443 0.028,0.10298 0.056,0.20597 0.0839,0.30895 z"
         id="path6266"
         style="color:#000000;fill:url(#radialGradient6268);fill-rule:nonzero;enable-background:accumulate" />
      <path
         d="m 198.47,148.34 c -0.0988,-0.0404 -0.19752,-0.0809 -0.29629,-0.1213 -0.0893,0.0584 -0.17859,0.11687 -0.26789,0.1753 0.008,-0.10642 0.0159,-0.21284 0.0238,-0.31926 -0.0832,-0.0669 -0.16634,-0.13374 -0.24951,-0.20062 0.10367,-0.0253 0.20733,-0.0507 0.311,-0.076 0.0379,-0.0998 0.0758,-0.19953 0.11369,-0.29928 0.0562,0.0907 0.11226,0.18152 0.16839,0.27228 0.1066,0.005 0.21318,0.0104 0.31978,0.0156 -0.069,0.0814 -0.13795,0.16287 -0.20692,0.2443 0.028,0.10298 0.056,0.20597 0.0839,0.30895 z"
         id="path6270"
         style="color:#000000;fill:url(#radialGradient6272);fill-rule:nonzero;enable-background:accumulate" />
      <path
         d="m 204.26,152.27 c -0.0988,-0.0404 -0.19752,-0.0809 -0.29629,-0.1213 -0.0893,0.0584 -0.17859,0.11687 -0.26789,0.1753 0.008,-0.10642 0.0159,-0.21284 0.0238,-0.31926 -0.0832,-0.0669 -0.16634,-0.13374 -0.24951,-0.20062 0.10367,-0.0253 0.20733,-0.0507 0.311,-0.076 0.0379,-0.0998 0.0758,-0.19953 0.11369,-0.29928 0.0562,0.0907 0.11226,0.18152 0.16839,0.27228 0.1066,0.005 0.21318,0.0104 0.31978,0.0156 -0.069,0.0814 -0.13795,0.16287 -0.20692,0.2443 0.028,0.10298 0.056,0.20597 0.0839,0.30895 z"
         id="path6274"
         style="color:#000000;fill:url(#radialGradient6276);fill-rule:nonzero;enable-background:accumulate" />
      <path
         d="m 199.49,150.94 c -0.0988,-0.0404 -0.19752,-0.0809 -0.29629,-0.1213 -0.0893,0.0584 -0.17859,0.11687 -0.26789,0.1753 0.008,-0.10642 0.0159,-0.21284 0.0238,-0.31926 -0.0832,-0.0669 -0.16634,-0.13374 -0.24951,-0.20062 0.10367,-0.0253 0.20733,-0.0507 0.311,-0.076 0.0379,-0.0998 0.0758,-0.19953 0.11369,-0.29928 0.0562,0.0907 0.11226,0.18152 0.16839,0.27228 0.1066,0.005 0.21318,0.0104 0.31978,0.0156 -0.069,0.0814 -0.13795,0.16287 -0.20692,0.2443 0.028,0.10298 0.056,0.20597 0.0839,0.30895 z"
         id="path6278"
         style="color:#000000;fill:url(#radialGradient6280);fill-rule:nonzero;enable-background:accumulate" />
      <path
         d="m 196.57,149.17 c -0.0988,-0.0404 -0.19752,-0.0809 -0.29629,-0.1213 -0.0893,0.0584 -0.17859,0.11687 -0.26789,0.1753 0.008,-0.10642 0.0159,-0.21284 0.0238,-0.31926 -0.0832,-0.0669 -0.16634,-0.13374 -0.24951,-0.20062 0.10367,-0.0253 0.20733,-0.0507 0.311,-0.076 0.0379,-0.0998 0.0758,-0.19953 0.11369,-0.29928 0.0562,0.0907 0.11226,0.18152 0.16839,0.27228 0.1066,0.005 0.21318,0.0104 0.31978,0.0156 -0.069,0.0814 -0.13795,0.16287 -0.20692,0.2443 0.028,0.10298 0.056,0.20597 0.0839,0.30895 z"
         id="path6282"
         style="color:#000000;fill:url(#radialGradient6284);fill-rule:nonzero;enable-background:accumulate" />
      <path
         d="m 201.21,147.01 c -0.0988,-0.0404 -0.19752,-0.0809 -0.29629,-0.1213 -0.0893,0.0584 -0.17859,0.11687 -0.26789,0.1753 0.008,-0.10642 0.0159,-0.21284 0.0238,-0.31926 -0.0832,-0.0669 -0.16634,-0.13374 -0.24951,-0.20062 0.10367,-0.0253 0.20733,-0.0507 0.311,-0.076 0.0379,-0.0998 0.0758,-0.19953 0.11369,-0.29928 0.0562,0.0907 0.11226,0.18152 0.16839,0.27228 0.1066,0.005 0.21318,0.0104 0.31978,0.0156 -0.069,0.0814 -0.13795,0.16287 -0.20692,0.2443 0.028,0.10298 0.056,0.20597 0.0839,0.30895 z"
         id="path6287"
         style="color:#000000;fill:url(#radialGradient6289);fill-rule:nonzero;enable-background:accumulate" />
      <path
         d="m 202.31,142.72 c -0.0988,-0.0404 -0.19752,-0.0809 -0.29629,-0.1213 -0.0893,0.0584 -0.17859,0.11687 -0.26789,0.1753 0.008,-0.10642 0.0159,-0.21284 0.0238,-0.31926 -0.0832,-0.0669 -0.16634,-0.13374 -0.24951,-0.20062 0.10367,-0.0253 0.20733,-0.0507 0.311,-0.076 0.0379,-0.0998 0.0758,-0.19953 0.11369,-0.29928 0.0562,0.0907 0.11226,0.18152 0.16839,0.27228 0.1066,0.005 0.21318,0.0104 0.31978,0.0156 -0.069,0.0814 -0.13795,0.16287 -0.20692,0.2443 0.028,0.10298 0.056,0.20597 0.0839,0.30895 z"
         id="path6292"
         style="color:#000000;fill:url(#radialGradient6294);fill-rule:nonzero;enable-background:accumulate" />
      <path
         d="m 204.88,137.86 c -0.0988,-0.0404 -0.19752,-0.0809 -0.29629,-0.1213 -0.0893,0.0584 -0.17859,0.11687 -0.26789,0.1753 0.008,-0.10642 0.0159,-0.21284 0.0238,-0.31926 -0.0832,-0.0669 -0.16634,-0.13374 -0.24951,-0.20062 0.10367,-0.0253 0.20733,-0.0507 0.311,-0.076 0.0379,-0.0998 0.0758,-0.19953 0.11369,-0.29928 0.0562,0.0907 0.11226,0.18152 0.16839,0.27228 0.1066,0.005 0.21318,0.0104 0.31978,0.0156 -0.069,0.0814 -0.13795,0.16287 -0.20692,0.2443 0.028,0.10298 0.056,0.20597 0.0839,0.30895 z"
         id="path6296"
         style="color:#000000;fill:url(#radialGradient6298);fill-rule:nonzero;enable-background:accumulate" />
      <path
         d="m 185.46,130.24 c -2.0069,0 -1.9772,1.7194 -1.9772,1.7194 l -0.25791,25.358 30.862,-26.734 -28.627,-0.34387 z"
         id="path5261"
         style="color:#000000;fill:#ffffff;fill-opacity:0.552174;fill-rule:nonzero;enable-background:accumulate" />
    </g>
  </g>
</svg>
