<?xml version="1.0" encoding="UTF-8" standalone="no"?>
<svg
   xmlns:dc="http://purl.org/dc/elements/1.1/"
   xmlns:cc="http://creativecommons.org/ns#"
   xmlns:rdf="http://www.w3.org/1999/02/22-rdf-syntax-ns#"
   xmlns:svg="http://www.w3.org/2000/svg"
   xmlns="http://www.w3.org/2000/svg"
   xmlns:xlink="http://www.w3.org/1999/xlink"
   xmlns:sodipodi="http://sodipodi.sourceforge.net/DTD/sodipodi-0.dtd"
   xmlns:inkscape="http://www.inkscape.org/namespaces/inkscape"
   width="10.583333mm"
   height="10.583333mm"
   viewBox="0 0 10.583333 10.583333"
   version="1.1"
   id="svg1848"
   inkscape:version="1.0.1 (3bc2e813f5, 2020-09-07)"
   sodipodi:docname="bonus_shield.svg">
  <defs
     id="defs1842">
    <linearGradient
       x1="374.92001"
       y1="62.589001"
       x2="414.92001"
       y2="62.589001"
       id="linearGradient14205"
       gradientUnits="userSpaceOnUse">
      <stop
         id="stop5144-1"
         style="stop-color:#b5eda9;stop-opacity:1"
         offset="0" />
      <stop
         id="stop5146-1"
         style="stop-color:#71d19c;stop-opacity:1"
         offset="1" />
    </linearGradient>
    <linearGradient
       x1="389.04999"
       y1="54.152"
       x2="408.29001"
       y2="69.032997"
       id="linearGradient5360"
       xlink:href="#linearGradient5170"
       gradientUnits="userSpaceOnUse"
       spreadMethod="reflect" />
    <linearGradient
       id="linearGradient5170">
      <stop
         id="stop5172"
         style="stop-color:#ffffff;stop-opacity:1"
         offset="0" />
      <stop
         id="stop5338"
         style="stop-color:#00ffa1;stop-opacity:1"
         offset="0.24004" />
      <stop
         id="stop5176"
         style="stop-color:#3c704c;stop-opacity:1"
         offset="0.80585003" />
      <stop
         id="stop5174"
         style="stop-color:#35493b;stop-opacity:1"
         offset="1" />
    </linearGradient>
    <linearGradient
       x1="101.72"
       y1="150.64"
       x2="95.5"
       y2="147.94"
       id="linearGradient14269"
       xlink:href="#linearGradient7147-9"
       gradientUnits="userSpaceOnUse"
       gradientTransform="matrix(1.2070393,0,0,1.2070393,279.7665,-115.56074)" />
    <linearGradient
       id="linearGradient7147-9">
      <stop
         id="stop7149-6"
         style="stop-color:#717171;stop-opacity:1"
         offset="0" />
      <stop
         id="stop7151-3"
         style="stop-color:#ffffff;stop-opacity:1"
         offset="1" />
    </linearGradient>
    <radialGradient
       cx="90.000999"
       cy="146.59"
       r="9.5775003"
       id="radialGradient5719"
       gradientUnits="userSpaceOnUse"
       gradientTransform="matrix(1.2989565,0.35009494,-0.61640731,2.3593821,362.87105,-317.79927)">
      <stop
         id="stop14328"
         style="stop-color:#7df0f9;stop-opacity:1"
         offset="0" />
      <stop
         id="stop14330"
         style="stop-color:#a3e3f3;stop-opacity:1"
         offset="0.22758999" />
      <stop
         id="stop14332"
         style="stop-color:#7db0f9;stop-opacity:1"
         offset="0.69634002" />
      <stop
         id="stop14334"
         style="stop-color:#3c5880;stop-opacity:1"
         offset="1" />
    </radialGradient>
    <linearGradient
       x1="85.014999"
       y1="147.83"
       x2="103.42"
       y2="147.83"
       id="linearGradient14279"
       xlink:href="#linearGradient14273"
       gradientUnits="userSpaceOnUse"
       gradientTransform="matrix(1.2070393,0,0,1.2070393,279.7665,-115.56074)" />
    <linearGradient
       id="linearGradient14273">
      <stop
         id="stop14275"
         style="stop-color:#b8b8b8;stop-opacity:1"
         offset="0" />
      <stop
         id="stop14281"
         style="stop-color:#ffffff;stop-opacity:1"
         offset="0.29550001" />
      <stop
         id="stop14277"
         style="stop-color:#5d5d5d;stop-opacity:1"
         offset="1" />
    </linearGradient>
    <linearGradient
       x1="90.188004"
       y1="142.88"
       x2="90.188004"
       y2="152.53999"
       id="linearGradient14336"
       gradientUnits="userSpaceOnUse"
       gradientTransform="matrix(1.2070393,0,0,1.2070393,279.7665,-115.56074)">
      <stop
         id="stop14313"
         style="stop-color:#ddfdff;stop-opacity:0.83766234"
         offset="0" />
      <stop
         id="stop14315"
         style="stop-color:#d3fdff;stop-opacity:0"
         offset="1" />
    </linearGradient>
  </defs>
  <sodipodi:namedview
     id="base"
     pagecolor="#ffffff"
     bordercolor="#666666"
     borderopacity="1.0"
     inkscape:pageopacity="0.0"
     inkscape:pageshadow="2"
     inkscape:zoom="0.35"
     inkscape:cx="188.57143"
     inkscape:cy="14.285696"
     inkscape:document-units="mm"
     inkscape:current-layer="layer1"
     inkscape:document-rotation="0"
     showgrid="false"
     inkscape:window-width="1254"
     inkscape:window-height="872"
     inkscape:window-x="24"
     inkscape:window-y="0"
     inkscape:window-maximized="0"
     fit-margin-top="0"
     fit-margin-left="0"
     fit-margin-right="0"
     fit-margin-bottom="0"
     inkscape:pagecheckerboard="true" />
  <metadata
     id="metadata1845">
    <rdf:RDF>
      <cc:Work
         rdf:about="">
        <dc:format>image/svg+xml</dc:format>
        <dc:type
           rdf:resource="http://purl.org/dc/dcmitype/StillImage" />
        <dc:title></dc:title>
      </cc:Work>
    </rdf:RDF>
  </metadata>
  <g
     inkscape:label="Ebene 1"
     inkscape:groupmode="layer"
     id="layer1"
     transform="translate(-55.940477,-144.38691)">
    <g
       transform="matrix(0.26458333,0,0,0.26458333,-43.257109,133.11857)"
       id="bonus_shield">
      <rect
         width="40"
         height="40"
         rx="3"
         ry="3"
         x="374.92001"
         y="42.589001"
         id="rect14179"
         style="fill:url(#linearGradient14205);fill-rule:nonzero" />
      <rect
         width="35.652"
         height="35.652"
         rx="2.6738999"
         ry="2.6738999"
         x="377.09"
         y="44.763"
         id="rect14181"
         style="fill:#041400;stroke:url(#linearGradient5360);stroke-width:1.0491" />
      <path
         d="m 384.32,52.783 c 6.0584,0.87637 10.745,-3.0482 10.745,-3.0482 0,0 4.42,3.8103 10.593,3.1626 0,0 0.38101,11.926 0.2286,13.793 -1.2193,4.458 -10.821,9.6019 -10.821,9.6019 0,0 -8.2683,-4.1913 -10.669,-9.2209 -0.49533,-1.0669 -0.0762,-14.289 -0.0762,-14.289 z"
         id="path14253"
         style="color:#000000;fill:url(#linearGradient14269);fill-rule:nonzero;enable-background:accumulate" />
      <path
         d="m 395.03,49.049 c -0.39613,0.46521 -0.79226,0.93043 -1.1884,1.3956 4.1745,4.2656 8.2859,8.5966 12.571,12.751 0.19356,-0.03633 -0.0222,-0.85412 0.007,-1.205 -0.0828,-1.2334 -0.16559,-2.4669 -0.24839,-3.7003 -3.2452,-3.0524 -6.4414,-6.1566 -9.6557,-9.2414 h -1.4855 z m -4.6422,2.6781 c -1.2008,0.22632 -2.4015,0.45264 -3.6023,0.67896 5.5869,5.5863 11.238,11.115 16.594,16.926 0.56786,0.5047 0.96097,1.793 1.4198,0.61257 0.482,-0.69115 0.964,-1.3823 1.446,-2.0734 -5.2403,-5.4254 -10.567,-10.768 -15.858,-16.144 z m -5.942,3.0176 c -0.5193,1.0988 -0.79569,2.3737 -0.6973,3.5949 0.54046,1.0752 1.7707,1.7158 2.5553,2.661 4.4306,4.3922 8.7755,8.87 13.108,13.359 0.73445,-0.45957 2.6312,-0.60649 2.6022,-1.5363 -3.6401,-4.2392 -7.6231,-8.1701 -11.514,-12.177 -2.0068,-1.9736 -3.9224,-4.0689 -6.0547,-5.9015 z m -0.22283,8.5624 c -0.48109,1.5259 -0.58125,3.2886 0.0725,4.7735 1.5406,2.3151 3.8353,3.9926 5.9688,5.7253 1.199,0.90401 2.3904,1.8312 3.6886,2.5901 0.74602,-0.39048 2.4455,-0.45917 1.2012,-1.4824 -3.4282,-4.0619 -7.2255,-7.8009 -10.931,-11.606 z"
         id="path14286"
         style="color:#000000;fill:url(#radialGradient5719);fill-rule:nonzero;enable-background:accumulate" />
      <path
         d="m 395,47.276 c -3.0482,3.7341 -8.2122,3.8798 -12.523,3.3948 0,0 -0.22862,15.493 0,16.484 0.76205,4.9534 12.825,11.354 12.825,11.354 0,0 11.951,-7.0092 12.561,-11.429 0.1524,-1.3717 0.0793,-15.187 -0.30176,-16.559 0,0 -7.836,1.3284 -12.561,-3.2439 z m 0.0754,2.4518 c 0,0 4.4266,3.8162 10.599,3.1685 0,0 0.37873,11.938 0.22632,13.806 -1.2193,4.458 -10.826,9.5809 -10.826,9.5809 0,0 -8.2743,-4.1741 -10.675,-9.2037 -0.49534,-1.0669 -0.0754,-14.296 -0.0754,-14.296 6.0584,0.87637 10.75,-3.0553 10.75,-3.0553 z"
         id="path14271"
         style="color:#000000;fill:url(#linearGradient14279);fill-rule:nonzero;enable-background:accumulate" />
      <path
         d="m 384.32,52.783 c 3.9276,0.60225 7.5962,-0.78238 10.745,-3.0482 2.9702,2.5644 6.7559,3.4159 10.593,3.1626 0.13866,4.5971 0.3062,9.1935 0.22857,13.793 -2.0166,4.5642 -6.7321,7.1013 -10.821,9.6019 -3.8247,-2.0742 -7.3816,-4.5615 -10.012,-8.0643 -0.4902,-0.56572 -0.69877,-1.2311 -0.79257,-1.9285 -0.2434,-4.4971 -0.13777,-9.018 0.06,-13.517 h -1.5e-4 z"
         id="path14303"
         style="color:#000000;fill:none;stroke:#2d4262;stroke-width:0.6;stroke-miterlimit:4;stroke-dasharray:none;enable-background:accumulate" />
      <path
         d="m 391.27,53.576 c 0,0 -1.5078,0.53242 -2.7913,0.82984 0.47287,0.46862 1.4966,1.5019 2.3764,2.3764 0.0717,-1.1575 0.21769,-2.2639 0.41492,-3.2062 z m -5.922,2.3764 c 0.0158,0.95117 0.0381,2.49 0.1131,4.5641 1.4058,1.347 3.4598,3.4185 5.6203,5.5826 -0.12769,-1.4989 -0.21329,-3.1072 -0.26404,-4.715 -2.5502,-2.5268 -4.7744,-4.7491 -5.4694,-5.4317 z m 0.33948,9.166 c 0.13083,1.7072 0.30137,3.0473 0.52808,3.3194 0.76206,0.91448 5.7334,4.8659 5.7334,4.8659 0,0 -0.12619,-0.84924 -0.30176,-2.2255 -2.1936,-2.2529 -4.4067,-4.4226 -5.9598,-5.9598 z"
         id="path14309"
         style="color:#000000;fill:url(#linearGradient14336);enable-background:accumulate" />
      <path
         d="m 380.24,45.751 c -2.0069,0 -1.9772,1.7194 -1.9772,1.7194 l -0.25791,25.358 30.862,-26.734 -28.627,-0.34387 z"
         id="path14203"
         style="color:#000000;fill:#ffffff;fill-opacity:0.517391;fill-rule:nonzero;enable-background:accumulate" />
      <path
         d="m 42.25,137.59 c 0,0 3.8891,-0.53032 7.513,-2.9168 0,0 -3.9775,3.403 -7.513,2.9168 z"
         transform="translate(344.91913,-84.772694)"
         id="path5732"
         style="color:#000000;fill:#ffffff;fill-opacity:0.617391;enable-background:accumulate" />
      <path
         d="m 395.12,76.31 c 0,0 4.0822,-2.4081 6.0706,-3.995 1.9884,-1.5869 3.8748,-4.1019 3.8748,-4.1019 0,0 -0.49411,2.1299 -4.1718,4.6541 -3.67769,2.5242 -5.735,3.5356 -5.7736,3.4428 z"
         id="path5734"
         style="color:#000000;fill:#ffffff;fill-opacity:0.817391;fill-rule:nonzero;enable-background:accumulate" />
    </g>
  </g>
</svg>
