<?xml version="1.0" encoding="UTF-8" standalone="no"?>
<svg
   xmlns:dc="http://purl.org/dc/elements/1.1/"
   xmlns:cc="http://creativecommons.org/ns#"
   xmlns:rdf="http://www.w3.org/1999/02/22-rdf-syntax-ns#"
   xmlns:svg="http://www.w3.org/2000/svg"
   xmlns="http://www.w3.org/2000/svg"
   xmlns:xlink="http://www.w3.org/1999/xlink"
   xmlns:sodipodi="http://sodipodi.sourceforge.net/DTD/sodipodi-0.dtd"
   xmlns:inkscape="http://www.inkscape.org/namespaces/inkscape"
   width="210mm"
   height="297mm"
   viewBox="0 0 210 297"
   version="1.1"
   id="svg3364"
   inkscape:version="1.0.1 (3bc2e813f5, 2020-09-07)"
   sodipodi:docname="bonus_throw.svg">
  <defs
     id="defs3358">
    <linearGradient
       x1="374.92001"
       y1="62.589001"
       x2="414.92001"
       y2="62.589001"
       id="linearGradient5441"
       xlink:href="#linearGradient5142"
       gradientUnits="userSpaceOnUse"
       gradientTransform="translate(-194.89354,29.803446)" />
    <linearGradient
       id="linearGradient5142">
      <stop
         id="stop5144"
         style="stop-color:#b5eda9;stop-opacity:1"
         offset="0" />
      <stop
         id="stop5146"
         style="stop-color:#71d19c;stop-opacity:1"
         offset="1" />
    </linearGradient>
    <linearGradient
       x1="476.23999"
       y1="14.654"
       x2="493.85999"
       y2="25.437"
       id="linearGradient5857"
       xlink:href="#linearGradient5170"
       gradientUnits="userSpaceOnUse"
       gradientTransform="translate(-282.95392,70.330752)"
       spreadMethod="reflect" />
    <linearGradient
       id="linearGradient5170">
      <stop
         id="stop5172"
         style="stop-color:#ffffff;stop-opacity:1"
         offset="0" />
      <stop
         id="stop5338"
         style="stop-color:#00ffa1;stop-opacity:1"
         offset="0.24004" />
      <stop
         id="stop5176"
         style="stop-color:#3c704c;stop-opacity:1"
         offset="0.80585003" />
      <stop
         id="stop5174"
         style="stop-color:#35493b;stop-opacity:1"
         offset="1" />
    </linearGradient>
    <radialGradient
       cx="251.19"
       cy="41.393002"
       r="16.5"
       id="radialGradient6023"
       gradientUnits="userSpaceOnUse"
       gradientTransform="matrix(1,0,0,0.52462121,0,19.67756)">
      <stop
         id="stop5745"
         style="stop-color:#000000;stop-opacity:1"
         offset="0" />
      <stop
         id="stop5749"
         style="stop-color:#000000;stop-opacity:1"
         offset="0.80221999" />
      <stop
         id="stop5747"
         style="stop-color:#000000;stop-opacity:0"
         offset="1" />
    </radialGradient>
    <radialGradient
       cx="261.95001"
       cy="38.870998"
       r="5.3144002"
       fx="264.98999"
       fy="39.453999"
       id="radialGradient5502"
       xlink:href="#linearGradient5536"
       gradientUnits="userSpaceOnUse"
       gradientTransform="matrix(0.49934179,0.27267917,-0.24177136,0.44274209,88.468927,9.5847498)" />
    <linearGradient
       id="linearGradient5536">
      <stop
         id="stop5538"
         style="stop-color:#7a726a;stop-opacity:1"
         offset="0" />
      <stop
         id="stop5540"
         style="stop-color:#292524;stop-opacity:1"
         offset="1" />
    </linearGradient>
    <radialGradient
       cx="240.24001"
       cy="30.792"
       r="0.48614001"
       fx="240.02"
       fy="30.676001"
       id="radialGradient4459"
       xlink:href="#linearGradient5546"
       gradientUnits="userSpaceOnUse"
       gradientTransform="matrix(1,0,0,1.0454546,0,-1.3996269)" />
    <linearGradient
       id="linearGradient5546">
      <stop
         id="stop5548"
         style="stop-color:#ffffff;stop-opacity:1"
         offset="0" />
      <stop
         id="stop5554"
         style="stop-color:#726767;stop-opacity:1"
         offset="0.5" />
      <stop
         id="stop5550"
         style="stop-color:#252525;stop-opacity:1"
         offset="1" />
    </linearGradient>
    <radialGradient
       cx="244.17"
       cy="27.211"
       r="12.905"
       id="radialGradient5480"
       xlink:href="#linearGradient5536"
       gradientUnits="userSpaceOnUse"
       gradientTransform="matrix(0.81973788,0,0,0.60076677,-4.2572993,82.619033)" />
    <linearGradient
       x1="263.70001"
       y1="31.940001"
       x2="264.04999"
       y2="32.596001"
       id="linearGradient5494"
       gradientUnits="userSpaceOnUse"
       gradientTransform="matrix(0.81973788,0,0,0.81973788,-4.9093966,66.244168)">
      <stop
         id="stop5148"
         style="stop-color:#5f4621;stop-opacity:1"
         offset="0" />
      <stop
         id="stop5150"
         style="stop-color:#7b6545;stop-opacity:1"
         offset="1" />
    </linearGradient>
    <linearGradient
       x1="244.82001"
       y1="23.882"
       x2="254.86"
       y2="33.428001"
       id="linearGradient5491"
       gradientUnits="userSpaceOnUse"
       gradientTransform="matrix(0.81973788,0,0,0.81973788,-2.3104185,65.901605)">
      <stop
         id="stop5321"
         style="stop-color:#7d5e19;stop-opacity:1"
         offset="0" />
      <stop
         id="stop5330"
         style="stop-color:#b98819;stop-opacity:1"
         offset="0.11968" />
      <stop
         id="stop5332"
         style="stop-color:#fff2d5;stop-opacity:1"
         offset="0.25216001" />
      <stop
         id="stop5341"
         style="stop-color:#f1e1bc;stop-opacity:1"
         offset="0.46551001" />
      <stop
         id="stop5339"
         style="stop-color:#b98819;stop-opacity:1"
         offset="0.58679003" />
      <stop
         id="stop5334"
         style="stop-color:#6d5318;stop-opacity:1"
         offset="0.71705002" />
      <stop
         id="stop5336"
         style="stop-color:#312507;stop-opacity:1"
         offset="0.87458998" />
      <stop
         id="stop5323"
         style="stop-color:#4a3607;stop-opacity:1"
         offset="1" />
    </linearGradient>
    <radialGradient
       cx="263.17999"
       cy="15.966"
       r="2.7188001"
       id="radialGradient6013"
       gradientUnits="userSpaceOnUse"
       gradientTransform="matrix(1.2584634,0.8329646,-1.2458422,1.6027708,-48.623942,-229.31403)">
      <stop
         id="stop5290"
         style="stop-color:#e7d569;stop-opacity:1"
         offset="0" />
      <stop
         id="stop5296"
         style="stop-color:#d8b36d;stop-opacity:1"
         offset="0.67862999" />
      <stop
         id="stop5292"
         style="stop-color:#ad6934;stop-opacity:1"
         offset="1" />
    </radialGradient>
    <radialGradient
       cx="263.57999"
       cy="18.493"
       r="2.7188001"
       fx="262.73999"
       fy="19.924999"
       id="radialGradient6011"
       gradientUnits="userSpaceOnUse"
       gradientTransform="matrix(1.0007111,0.11532405,-0.07414211,1.0166353,1.1836698,-29.634161)">
      <stop
         id="stop5256"
         style="stop-color:#ba903a;stop-opacity:1"
         offset="0" />
      <stop
         id="stop5258"
         style="stop-color:#51390e;stop-opacity:1"
         offset="1" />
    </radialGradient>
    <radialGradient
       cx="251.69"
       cy="18.667"
       r="3.6269"
       id="radialGradient5485"
       xlink:href="#linearGradient3345"
       gradientUnits="userSpaceOnUse"
       gradientTransform="matrix(0.39170466,0.23688144,-0.45754216,0.75658689,113.92337,6.6378762)" />
    <linearGradient
       x1="278.47"
       y1="77.652"
       x2="200.17999"
       y2="31.110001"
       id="linearGradient3345"
       gradientUnits="userSpaceOnUse"
       gradientTransform="translate(-37.771032,-0.1213203)">
      <stop
         id="stop1565"
         style="stop-color:#ffffff;stop-opacity:1"
         offset="0" />
      <stop
         id="stop1567"
         style="stop-color:#ffffff;stop-opacity:0"
         offset="1" />
    </linearGradient>
    <radialGradient
       cx="244.17"
       cy="27.211"
       r="12.905"
       id="radialGradient3427"
       xlink:href="#linearGradient5536"
       gradientUnits="userSpaceOnUse"
       gradientTransform="matrix(0.81973788,0,0,0.60076677,-4.2572993,82.619033)" />
    <radialGradient
       cx="244.17"
       cy="27.211"
       r="12.905"
       id="radialGradient3435"
       xlink:href="#linearGradient5536"
       gradientUnits="userSpaceOnUse"
       gradientTransform="matrix(0.81973788,0,0,0.60076677,-4.2572993,82.619033)" />
    <radialGradient
       cx="240.24001"
       cy="30.792"
       r="0.48614001"
       fx="240.02"
       fy="30.676001"
       id="radialGradient4461"
       xlink:href="#linearGradient5546"
       gradientUnits="userSpaceOnUse"
       gradientTransform="matrix(1,0,0,1.0454546,0,-1.3996269)" />
    <linearGradient
       x1="230.98"
       y1="41.292"
       x2="256.72"
       y2="41.292"
       id="linearGradient5476"
       gradientUnits="userSpaceOnUse"
       gradientTransform="matrix(0.81973788,0,0,0.81973788,-4.2572993,66.82381)">
      <stop
         id="stop5626"
         style="stop-color:#4e453d;stop-opacity:1"
         offset="0" />
      <stop
         id="stop5632"
         style="stop-color:#90806f;stop-opacity:1"
         offset="0.5" />
      <stop
         id="stop5628"
         style="stop-color:#433e39;stop-opacity:1"
         offset="1" />
    </linearGradient>
    <linearGradient
       x1="245.89"
       y1="27.559999"
       x2="253.53"
       y2="37.57"
       id="linearGradient5470"
       gradientUnits="userSpaceOnUse"
       gradientTransform="matrix(0.81973788,0,0,0.81973788,-4.2572993,66.82381)">
      <stop
         id="stop5406"
         style="stop-color:#7a7973;stop-opacity:1"
         offset="0" />
      <stop
         id="stop5412"
         style="stop-color:#464542;stop-opacity:1"
         offset="0.056507" />
      <stop
         id="stop5414"
         style="stop-color:#9b9467;stop-opacity:1"
         offset="0.19256" />
      <stop
         id="stop5418"
         style="stop-color:#fff4af;stop-opacity:1"
         offset="0.29951" />
      <stop
         id="stop5416"
         style="stop-color:#a0986c;stop-opacity:1"
         offset="0.40645999" />
      <stop
         id="stop5420"
         style="stop-color:#282828;stop-opacity:1"
         offset="0.70323002" />
      <stop
         id="stop5423"
         style="stop-color:#434341;stop-opacity:1"
         offset="0.85162002" />
      <stop
         id="stop5408"
         style="stop-color:#9a8d65;stop-opacity:1"
         offset="1" />
    </linearGradient>
    <linearGradient
       x1="244.42999"
       y1="31.478001"
       x2="249.25999"
       y2="34.205002"
       id="linearGradient5999"
       xlink:href="#linearGradient5363"
       gradientUnits="userSpaceOnUse" />
    <linearGradient
       id="linearGradient5363">
      <stop
         id="stop5365"
         style="stop-color:#bebebe;stop-opacity:0"
         offset="0" />
      <stop
         id="stop5371"
         style="stop-color:#bebebe;stop-opacity:1"
         offset="0.5" />
      <stop
         id="stop5367"
         style="stop-color:#3a362d;stop-opacity:0"
         offset="1" />
    </linearGradient>
    <linearGradient
       x1="244.42999"
       y1="31.478001"
       x2="248.16"
       y2="34.740002"
       id="linearGradient5997"
       xlink:href="#linearGradient5363"
       gradientUnits="userSpaceOnUse" />
    <linearGradient
       x1="250.83"
       y1="43.575001"
       x2="252.47"
       y2="44.612999"
       id="linearGradient5995"
       xlink:href="#linearGradient5363"
       gradientUnits="userSpaceOnUse" />
    <radialGradient
       cx="248.38"
       cy="46.104"
       r="0.82811999"
       id="radialGradient5993"
       xlink:href="#linearGradient4974"
       gradientUnits="userSpaceOnUse"
       gradientTransform="matrix(1,0,0,1.3301887,0,-15.223141)" />
    <linearGradient
       id="linearGradient4974">
      <stop
         id="stop4976"
         style="stop-color:#968f8f;stop-opacity:1"
         offset="0" />
      <stop
         id="stop4978"
         style="stop-color:#313131;stop-opacity:1"
         offset="1" />
    </linearGradient>
    <linearGradient
       x1="249.8"
       y1="44.116001"
       x2="251.00999"
       y2="46.071999"
       id="linearGradient5460"
       gradientUnits="userSpaceOnUse"
       gradientTransform="matrix(0.81973787,0,0,0.81973787,-4.2572955,66.823809)">
      <stop
         id="stop5460"
         style="stop-color:#414141;stop-opacity:1"
         offset="0" />
      <stop
         id="stop5466"
         style="stop-color:#c4c4c4;stop-opacity:1"
         offset="0.23138" />
      <stop
         id="stop5684"
         style="stop-color:#2e2e2e;stop-opacity:1"
         offset="0.75" />
      <stop
         id="stop5462"
         style="stop-color:#000000;stop-opacity:1"
         offset="1" />
    </linearGradient>
    <radialGradient
       cx="248.63"
       cy="46.101002"
       r="2.1440001"
       id="radialGradient5462"
       gradientUnits="userSpaceOnUse"
       gradientTransform="matrix(0.65911436,-0.03804866,0.03142165,0.54431518,34.229227,88.930107)">
      <stop
         id="stop5452"
         style="stop-color:#bebebe;stop-opacity:1"
         offset="0" />
      <stop
         id="stop5454"
         style="stop-color:#bebebe;stop-opacity:0"
         offset="1" />
    </radialGradient>
    <radialGradient
       cx="240.24001"
       cy="30.792"
       r="0.48614001"
       fx="240.02"
       fy="30.676001"
       id="radialGradient4463"
       xlink:href="#linearGradient5546"
       gradientUnits="userSpaceOnUse"
       gradientTransform="matrix(1,0,0,1.0454546,0,-1.3996269)" />
    <radialGradient
       cx="240.24001"
       cy="30.792"
       r="0.48614001"
       fx="240.02"
       fy="30.676001"
       id="radialGradient4465"
       xlink:href="#linearGradient5546"
       gradientUnits="userSpaceOnUse"
       gradientTransform="matrix(1,0,0,1.0454546,0,-1.3996269)" />
    <radialGradient
       cx="240.24001"
       cy="30.792"
       r="0.48614001"
       fx="240.02"
       fy="30.676001"
       id="radialGradient4467"
       xlink:href="#linearGradient5546"
       gradientUnits="userSpaceOnUse"
       gradientTransform="matrix(1,0,0,1.0454546,0,-1.3996269)" />
    <radialGradient
       cx="240.24001"
       cy="30.792"
       r="0.48614001"
       fx="240.02"
       fy="30.676001"
       id="radialGradient4469"
       xlink:href="#linearGradient5546"
       gradientUnits="userSpaceOnUse"
       gradientTransform="matrix(1,0,0,1.0454546,0,-1.3996269)" />
    <radialGradient
       cx="240.24001"
       cy="30.792"
       r="0.48614001"
       fx="240.02"
       fy="30.676001"
       id="radialGradient4471"
       xlink:href="#linearGradient5546"
       gradientUnits="userSpaceOnUse"
       gradientTransform="matrix(1,0,0,1.0454546,0,-1.3996269)" />
    <radialGradient
       cx="240.24001"
       cy="30.792"
       r="0.48614001"
       fx="240.02"
       fy="30.676001"
       id="radialGradient4473"
       xlink:href="#linearGradient5546"
       gradientUnits="userSpaceOnUse"
       gradientTransform="matrix(1,0,0,1.0454546,0,-1.3996269)" />
    <radialGradient
       cx="240.24001"
       cy="30.792"
       r="0.48614001"
       fx="240.02"
       fy="30.676001"
       id="radialGradient4475"
       xlink:href="#linearGradient5546"
       gradientUnits="userSpaceOnUse"
       gradientTransform="matrix(1,0,0,1.0454546,0,-1.3996269)" />
    <radialGradient
       cx="240.24001"
       cy="30.792"
       r="0.48614001"
       fx="240.02"
       fy="30.676001"
       id="radialGradient4477"
       xlink:href="#linearGradient5546"
       gradientUnits="userSpaceOnUse"
       gradientTransform="matrix(1,0,0,1.0454546,0,-1.3996269)" />
    <radialGradient
       cx="240.24001"
       cy="30.792"
       r="0.48614001"
       fx="240.02"
       fy="30.676001"
       id="radialGradient4479"
       xlink:href="#linearGradient5546"
       gradientUnits="userSpaceOnUse"
       gradientTransform="matrix(1,0,0,1.0454546,0,-1.3996269)" />
    <radialGradient
       cx="240.24001"
       cy="30.792"
       r="0.48614001"
       fx="240.02"
       fy="30.676001"
       id="radialGradient4481"
       xlink:href="#linearGradient5546"
       gradientUnits="userSpaceOnUse"
       gradientTransform="matrix(1,0,0,1.0454546,0,-1.3996269)" />
    <radialGradient
       cx="240.24001"
       cy="30.792"
       r="0.48614001"
       fx="240.02"
       fy="30.676001"
       id="radialGradient4483"
       xlink:href="#linearGradient5546"
       gradientUnits="userSpaceOnUse"
       gradientTransform="matrix(1,0,0,1.0454546,0,-1.3996269)" />
    <radialGradient
       cx="240.24001"
       cy="30.792"
       r="0.48614001"
       fx="240.02"
       fy="30.676001"
       id="radialGradient4485"
       xlink:href="#linearGradient5546"
       gradientUnits="userSpaceOnUse"
       gradientTransform="matrix(1,0,0,1.0454546,0,-1.3996269)" />
    <radialGradient
       cx="240.24001"
       cy="30.792"
       r="0.48614001"
       fx="240.02"
       fy="30.676001"
       id="radialGradient5963"
       xlink:href="#linearGradient5546"
       gradientUnits="userSpaceOnUse"
       gradientTransform="matrix(1,0,0,1.0454546,0,-1.3996269)" />
    <radialGradient
       inkscape:collect="always"
       xlink:href="#linearGradient5536"
       id="radialGradient3665"
       gradientUnits="userSpaceOnUse"
       gradientTransform="matrix(0.81973788,0,0,0.60076677,-4.2572993,82.619033)"
       cx="244.17"
       cy="27.211"
       r="12.905" />
  </defs>
  <sodipodi:namedview
     id="base"
     pagecolor="#ffffff"
     bordercolor="#666666"
     borderopacity="1.0"
     inkscape:pageopacity="0.0"
     inkscape:pageshadow="2"
     inkscape:zoom="0.35"
     inkscape:cx="400"
     inkscape:cy="560"
     inkscape:document-units="mm"
     inkscape:current-layer="layer1"
     inkscape:document-rotation="0"
     showgrid="false"
     inkscape:window-width="1254"
     inkscape:window-height="872"
     inkscape:window-x="49"
     inkscape:window-y="0"
     inkscape:window-maximized="0" />
  <metadata
     id="metadata3361">
    <rdf:RDF>
      <cc:Work
         rdf:about="">
        <dc:format>image/svg+xml</dc:format>
        <dc:type
           rdf:resource="http://purl.org/dc/dcmitype/StillImage" />
        <dc:title></dc:title>
      </cc:Work>
    </rdf:RDF>
  </metadata>
  <g
     inkscape:label="Ebene 1"
     inkscape:groupmode="layer"
     id="layer1">
    <g
       id="bonus_throw"
       transform="matrix(0.26458333,0,0,0.26458333,-12.859127,45.101972)">
      <rect
         width="40"
         height="40"
         rx="3"
         ry="3"
         x="180.03"
         y="72.392998"
         id="rect6031"
         style="fill:url(#linearGradient5441);fill-rule:nonzero" />
      <path
         d="m 184.87,74.567 h 30.305 c 1.4814,0 2.6739,1.1926 2.6739,2.6739 v 30.305 c 0,1.4814 -1.1926,2.6739 -2.6739,2.6739 H 184.87 c -1.4814,0 -2.6739,-1.1926 -2.6739,-2.6739 v -30.305 c 0,-1.4814 1.1926,-2.6739 2.6739,-2.6739 z"
         id="rect6033"
         style="fill:#041400;stroke:url(#linearGradient5857);stroke-width:1.04915" />
      <path
         d="m 267.69,41.393 a 16.5,8.6562 0 1 1 -33,0 16.5,8.6562 0 1 1 33,0 z"
         transform="matrix(0.93724815,0.25489961,-0.19311426,0.86177985,-27.273799,-0.70206108)"
         id="path5733"
         style="color:#000000;opacity:0.471545;fill:url(#radialGradient6023);fill-rule:nonzero;enable-background:accumulate" />
      <path
         d="m 205.03,95.67 c 0.94782,0 8.8114,3.7343 9.0931,4.5285 -1.1784,1.6907 -6.7746,5.3255 -6.7746,5.3255 l -7.3542,-6.9195 5.0356,-2.9344 z"
         id="path5660"
         style="color:#000000;fill:#4a3e38;enable-background:accumulate" />
      <path
         d="m 213.92,100.4 c 0,0 0.48725,-0.93109 0.30794,-1.6484 -0.0512,-0.66604 -2.9862,-5.474 -3.2424,-5.8326 l -1.6846,-0.41662 -3.7858,3.7133 8.4048,4.1843 z"
         id="path5640"
         style="color:#000000;fill:url(#radialGradient5502);fill-rule:nonzero;enable-background:accumulate" />
      <path
         d="m 206.13,95.709 c 3.3878,1.796 4.9325,2.7639 7.4801,3.8169 0.20494,-0.12808 0.25616,-0.4611 0.25616,-0.4611"
         id="path5658"
         style="color:#000000;fill:none;stroke:#261717;stroke-width:0.163948;stroke-linecap:round;stroke-linejoin:miter;stroke-miterlimit:4;stroke-dasharray:none;stroke-dashoffset:0;stroke-opacity:0.504348;enable-background:accumulate" />
      <path
         d="m 240.73,30.792 a 0.48614,0.50823 0 1 1 -0.97227,0 0.48614,0.50823 0 1 1 0.97227,0 z"
         transform="matrix(0.96230095,0,0,0.96230095,-20.540831,64.499016)"
         id="path5650"
         style="color:#000000;opacity:0.581301;fill:url(#radialGradient4459);fill-rule:nonzero;stroke:url(#radialGradient3665);stroke-width:0.2;stroke-linecap:round;stroke-linejoin:miter;stroke-miterlimit:4;stroke-dasharray:none;stroke-dashoffset:0;enable-background:accumulate" />
      <path
         d="m 209.13,92.276 c 0,0 1.7932,-0.02562 2.3311,1.1528 0.53796,1.1784 0.99906,1.9469 0.10248,2.741 -0.89659,0.79412 -1.6651,0.53795 -1.3065,1.3321 0.35863,0.79412 1.4602,1.8188 2.1006,2.1006 -0.42173,-0.04443 -1.0064,0.15466 -2.3311,0.07689 -1.1528,0.38426 -2.075,0.48673 -1.6651,1.5114 0.40987,1.0247 1.2808,2.6642 1.2808,2.6642 l -1.9725,1.4089 -5.2514,-7.7875 6.7116,-5.2002 z"
         id="path5690"
         style="color:#000000;fill:#000000;fill-opacity:0.478261;fill-rule:nonzero;enable-background:accumulate" />
      <path
         d="m 214.16,99.057 c 0,0 -0.50717,1.9019 -0.25358,2.1012 0.25358,0.19925 0.25358,0.21736 0.25358,0.21736 l 1.0144,-0.96003 c 0,0 0.48907,-1.8114 0.10869,-1.9563 -0.3804,-0.14491 -1.1049,0.61587 -1.1231,0.59776 z"
         id="path5638"
         style="color:#000000;fill:#2c1e0c;fill-rule:nonzero;enable-background:accumulate" />
      <path
         d="m 212.54,93.608 c 0.53795,0.53795 3.0228,4.816 2.7922,4.8672 -0.23055,0.05123 -0.94781,0.87097 -1.0759,0.69165 -0.12809,-0.17932 -2.8435,-4.9697 -2.741,-5.1234 0.10246,-0.1537 1.0759,-0.35863 1.0247,-0.43548 z"
         id="path5636"
         style="color:#000000;fill:#4c3f20;fill-rule:nonzero;enable-background:accumulate" />
      <path
         d="m 209.08,92.481 1.7932,0.6148 c 0,0 0.62761,0.9094 0.74288,1.2296 l 0.99906,-0.6148 c 0,-0.3074 -0.71727,-1.2808 -1.0247,-1.4602 -0.3074,-0.17932 -1.1015,-0.84536 -1.7419,-0.58919 l -0.76851,0.81974 z"
         id="path5634"
         style="color:#000000;fill:url(#linearGradient5494);fill-rule:nonzero;enable-background:accumulate" />
      <path
         d="m 202.88,77.938 c -1.7389,1.2317 -6.9557,8.7671 -6.9557,8.7671 -2.4635,1.9563 -0.50719,12.317 9.7815,10.434 0,0 7.3904,-6.3761 8.6222,-8.6946 l -11.44,-10.506 z"
         id="path5316"
         style="color:#000000;fill:url(#linearGradient5491);enable-background:accumulate" />
      <path
         d="m 266.5,16.8 a 2.7188,4.4375 0 1 1 -5.4375,0 2.7188,4.4375 0 1 1 5.4375,0 z"
         transform="matrix(1.0623622,-1.3504107,1.3291243,1.1327113,-94.146684,420.59684)"
         id="path5284"
         style="color:#000000;fill:url(#radialGradient6013);enable-background:accumulate" />
      <path
         d="m 266.5,16.8 a 2.7188,4.4375 0 1 1 -5.4375,0 2.7188,4.4375 0 1 1 5.4375,0 z"
         transform="matrix(0.70063812,-0.85026057,0.72300694,0.7131902,11.913065,295.48388)"
         id="path5252"
         style="color:#000000;fill:url(#radialGradient6011);enable-background:accumulate" />
      <path
         d="m 202.29,80.928 c 0,0 0.48308,1.724 1.1747,2.9537 0.69166,1.2296 2.3091,2.9638 2.3091,2.9638 0,0 -2.3055,-1.8012 -2.9459,-3.3895 -0.6404,-1.5882 -0.81973,-2.3487 -0.53794,-2.528 z"
         id="path5262"
         style="color:#000000;fill:#ffffff;fill-opacity:0.786957;enable-background:accumulate" />
      <path
         d="m 208.38,78.383 c 0,0 -1.4224,-1.0431 -3.2241,-0.66379 -1.8017,0.3793 -2.3232,0.85344 -2.2758,1.8017 0.0474,0.94827 0.18966,3.0819 1.0431,4.2198 0.85344,1.1379 3.1293,2.7974 3.1293,2.7974 0,0 -3.1767,-3.3189 -2.4181,-5.4999 0.75862,-2.181 1.1853,-3.1767 3.7457,-2.6551 z"
         id="path5298"
         style="color:#000000;fill:url(#radialGradient5485);enable-background:accumulate" />
      <path
         d="m 212.01,86.995 c 0,0 1.0506,-1.1955 0.83323,-2.391 -0.21736,-1.1955 -1.1593,-2.9344 -1.1593,-2.9344 0,0 1.9201,2.7895 1.5216,3.8039 -0.39851,1.0144 -1.2318,1.5578 -1.1955,1.5216 z"
         id="path5312"
         style="color:#000000;fill:#f3d5b8;fill-opacity:0.56087;enable-background:accumulate" />
      <path
         d="m 209.58,88.335 c 0,0 2.3282,0.86946 3.4402,-0.10868 1.112,-0.97815 1.251,-2.7533 1.251,-2.7533 l -0.55599,-2.4273 c 0,0 1.1815,2.2461 0.93821,3.2967 -0.24324,1.0506 -0.79921,2.4635 -1.6679,2.6446 -0.86872,0.18114 -3.4749,-0.61587 -3.4054,-0.6521 z"
         id="path5314"
         style="color:#000000;fill:#643211;fill-opacity:0.465217;enable-background:accumulate" />
      <path
         d="m 185.32,94.184 c 0,0 7.1917,-2.9707 7.4991,-2.9707 0.33302,0 8.9837,6.1305 9.4192,6.4123 0.4611,0.23055 4.2386,7.3904 4.2386,7.3904 l -0.6521,1.7027 -2.4272,-1.5578 -2.2461,1.3042 -15.179,-9.6728 -0.6521,-2.6084 z"
         id="path5534"
         style="color:#000000;fill:url(#radialGradient5480);fill-rule:nonzero;stroke:url(#radialGradient5480);stroke-width:0.2;stroke-linecap:round;stroke-linejoin:miter;stroke-miterlimit:4;stroke-dasharray:none;stroke-dashoffset:0;enable-background:accumulate" />
      <path
         d="m 240.73,30.792 a 0.48614,0.50823 0 1 1 -0.97227,0 0.48614,0.50823 0 1 1 0.97227,0 z"
         transform="matrix(0.81973788,0,0,0.81973788,-0.63453181,72.402866)"
         id="path5576"
         style="color:#000000;fill:url(#radialGradient4461);fill-rule:nonzero;enable-background:accumulate" />
      <path
         d="m 185.87,93.858 -0.77889,0.10868 c 0,0 0.14104,3.0486 0.5253,3.5865 0.87096,0.48672 14.564,10.216 15.071,9.9264 0.50719,-0.28982 2.391,-1.7389 2.6084,-1.7027 0.21737,0.0362 2.4635,1.2318 2.5359,1.0868 0.0725,-0.14491 0.36228,-0.76078 0.36228,-0.76078 0,0 -2.4272,-1.3042 -2.8258,-1.1955 -0.3985,0.10868 -1.4491,1.268 -1.7389,1.1955 -0.28982,-0.0724 -15.288,-9.4554 -15.288,-9.4554 l -0.47096,-2.7895 z"
         id="path5436"
         style="color:#000000;fill:url(#linearGradient5476);enable-background:accumulate" />
      <path
         d="m 206.71,104.8 c 0,0 -0.81511,2.1374 -0.61586,2.2461 0.19926,0.10868 0.85135,-0.10868 1.1593,-0.27171 0.30794,-0.16302 0.61586,-0.57964 0.61586,-0.57964 0,0 0.5072,-2.5178 0.2536,-2.4091 -0.2536,0.10868 -1.3585,1.0506 -1.4129,1.0144 z"
         id="path5428"
         style="color:#000000;fill:#4f453a;enable-background:accumulate" />
      <path
         d="m 203.29,98.387 c 0,0 3.0431,6.6297 3.5503,6.4485 0.50718,-0.18113 1.5216,-0.797 1.3404,-1.0868 -0.18115,-0.28981 -3.2967,-5.9776 -3.5141,-5.9776 -0.21737,0 -1.268,0.72455 -1.3766,0.61587 z"
         id="path5425"
         style="color:#000000;fill:#847147;enable-background:accumulate" />
      <path
         d="m 203.41,98.677 c 0.70643,-0.03623 1.4327,-0.73046 1.4327,-0.73046 l -1.0146,-1.7505 -1.7163,-1.1271 c 0.15369,-0.84536 -0.51989,-3.841 -2.2543,-4.9184 -1.6907,-1.0503 -2.3568,-0.66604 -2.3568,-0.66604 l -1.5882,0.6148 -0.53795,0.64042 -1.3065,-0.35864 c 0,0 -0.81974,0.17932 -0.97344,0.28178 -0.15369,0.10247 0.97344,0.87097 1.204,0.89659 0.23056,0.02562 0.51234,-0.07685 0.51234,-0.07685 l 8.599,7.1945 z"
         id="path5401"
         style="color:#000000;fill:url(#linearGradient5470);enable-background:accumulate" />
      <path
         d="m 197.07,90.34 c -1.5126,-0.12013 -2.1518,1.1271 -2.1518,1.1271 h -0.71726 l -1.1271,-0.71727 -0.7429,0.20493 0.0512,0.02562 -7.4289,2.9972 0.43548,0.20494 c 0,0 6.3801,-2.1614 7.2496,-2.741 0.36228,0.07246 2.0494,1.1528 2.0494,1.1528 0,0 0.33301,3.5351 2.6129,5.0977 0,0 1.87,0.4611 2.4592,-0.10247 0.5892,-0.56357 0.69166,-0.81974 0.69166,-0.81974 l 1.9725,1.2296 3.945,6.8653 -0.61479,1.9981 c 0,0 0.0403,0.19432 0.3664,0.22148 l 0.60703,-2.0915 c 0,0 -2.8208,-5.8257 -4.0475,-7.3776 l -0.20493,-0.40987 c 0,0 -1.6907,-0.97344 -1.8188,-1.4345 -0.12808,-0.4611 -0.87096,-4.6366 -2.8947,-5.2771 -0.25296,-0.08005 -0.47556,-0.13654 -0.69165,-0.1537 z"
         id="path5377"
         style="color:#000000;fill:#393534;enable-background:accumulate" />
      <path
         d="m 249.25,33.237 a 3,4.125 0 1 1 -6,0 3,4.125 0 1 1 6,0 z"
         transform="matrix(0.89000671,0,0.19148696,0.95677858,-28.258512,62.115262)"
         id="path5373"
         style="color:#000000;fill:#373737;stroke:url(#linearGradient5999);stroke-width:0.177665;stroke-miterlimit:4;stroke-dasharray:none;enable-background:accumulate" />
      <path
         d="m 249.25,33.237 a 3,4.125 0 1 1 -6,0 3,4.125 0 1 1 6,0 z"
         transform="matrix(0.74519965,0,0.16033139,0.80110747,8.4357621,67.289331)"
         id="path5352"
         style="color:#000000;fill:#554e49;stroke:url(#linearGradient5997);stroke-width:0.318284;stroke-miterlimit:4;stroke-dasharray:none;enable-background:accumulate" />
      <path
         d="m 252.37,44.613 a 1.0165,1.5578 0 1 1 -2.0329,0 1.0165,1.5578 0 1 1 2.0329,0 z"
         transform="matrix(0.89947631,0,0,0.75549089,-24.544431,69.572352)"
         id="path5438"
         style="color:#000000;fill:#252525;stroke:url(#linearGradient5995);stroke-width:0.2;enable-background:accumulate" />
      <path
         d="m 249.2,46.104 a 0.82812,1.1016 0 1 1 -1.6562,0 0.82812,1.1016 0 1 1 1.6562,0 z"
         transform="matrix(0.81973788,0,0.12790237,0.81973788,-10.077304,66.811001)"
         id="path5524"
         style="color:#000000;fill:url(#radialGradient5993);fill-rule:nonzero;enable-background:accumulate" />
      <path
         d="m 202.01,104.19 c 0.35877,-0.41833 0.18843,-1.1209 -0.11002,-1.4884 -0.29847,-0.36748 -0.72504,-0.39982 -0.72504,-0.39982 l -2.3367,1.5034 c 0,0 0.67562,-0.40156 1.0868,0.38038 0.40005,0.76075 0.0181,1.2318 0.0181,1.2318 l 2.0668,-1.2273 z"
         id="path5448"
         style="color:#000000;fill:url(#linearGradient5460);stroke:url(#radialGradient5462);stroke-width:0.163948;stroke-linecap:round;stroke-linejoin:miter;stroke-miterlimit:4;stroke-dasharray:none;stroke-dashoffset:0;enable-background:accumulate" />
      <path
         d="m 240.73,30.792 a 0.48614,0.50823 0 1 1 -0.97227,0 0.48614,0.50823 0 1 1 0.97227,0 z"
         transform="matrix(0.81973788,0,0,0.81973788,-4.2572956,66.82381)"
         id="path5544"
         style="color:#000000;fill:url(#radialGradient4463);fill-rule:nonzero;enable-background:accumulate" />
      <path
         d="m 240.73,30.792 a 0.48614,0.50823 0 1 1 -0.97227,0 0.48614,0.50823 0 1 1 0.97227,0 z"
         transform="matrix(0.81973788,0,0,0.81973788,-7.0105969,67.801956)"
         id="path5556"
         style="color:#000000;fill:url(#radialGradient4465);fill-rule:nonzero;enable-background:accumulate" />
      <path
         d="m 240.73,30.792 a 0.48614,0.50823 0 1 1 -0.97227,0 0.48614,0.50823 0 1 1 0.97227,0 z"
         transform="matrix(0.81973788,0,0,0.81973788,-9.1299134,68.598964)"
         id="path5560"
         style="color:#000000;fill:url(#radialGradient4467);fill-rule:nonzero;enable-background:accumulate" />
      <path
         d="m 240.73,30.792 a 0.48614,0.50823 0 1 1 -0.97227,0 0.48614,0.50823 0 1 1 0.97227,0 z"
         transform="matrix(0.81973788,0,0,0.81973788,-9.5827584,70.211093)"
         id="path5564"
         style="color:#000000;fill:url(#radialGradient4469);fill-rule:nonzero;enable-background:accumulate" />
      <path
         d="m 240.73,30.792 a 0.48614,0.50823 0 1 1 -0.97227,0 0.48614,0.50823 0 1 1 0.97227,0 z"
         transform="matrix(0.81973788,0,0,0.81973788,-7.0287095,72.565891)"
         id="path5568"
         style="color:#000000;fill:url(#radialGradient4471);fill-rule:nonzero;enable-background:accumulate" />
      <path
         d="m 240.73,30.792 a 0.48614,0.50823 0 1 1 -0.97227,0 0.48614,0.50823 0 1 1 0.97227,0 z"
         transform="matrix(0.81973788,0,0,0.81973788,-2.4096867,70.19298)"
         id="path5572"
         style="color:#000000;fill:url(#radialGradient4473);fill-rule:nonzero;enable-background:accumulate" />
      <path
         d="m 240.73,30.792 a 0.48614,0.50823 0 1 1 -0.97227,0 0.48614,0.50823 0 1 1 0.97227,0 z"
         transform="matrix(0.96230095,0,0,0.96230095,-31.880082,69.208609)"
         id="path5580"
         style="color:#000000;fill:url(#radialGradient4475);fill-rule:nonzero;enable-background:accumulate" />
      <path
         d="m 240.73,30.792 a 0.48614,0.50823 0 1 1 -0.97227,0 0.48614,0.50823 0 1 1 0.97227,0 z"
         transform="matrix(0.96230095,0,0,0.96230095,-28.583367,69.679569)"
         id="path5584"
         style="color:#000000;fill:url(#radialGradient4477);fill-rule:nonzero;enable-background:accumulate" />
      <path
         d="m 240.73,30.792 a 0.48614,0.50823 0 1 1 -0.97227,0 0.48614,0.50823 0 1 1 0.97227,0 z"
         transform="matrix(0.96230095,0,0,0.96230095,-26.771985,73.084967)"
         id="path5588"
         style="color:#000000;fill:url(#radialGradient4479);fill-rule:nonzero;enable-background:accumulate" />
      <path
         d="m 240.73,30.792 a 0.48614,0.50823 0 1 1 -0.97227,0 0.48614,0.50823 0 1 1 0.97227,0 z"
         transform="matrix(0.96230095,0,0,0.96230095,-26.119888,75.222398)"
         id="path5592"
         style="color:#000000;fill:url(#radialGradient4481);fill-rule:nonzero;enable-background:accumulate" />
      <path
         d="m 240.73,30.792 a 0.48614,0.50823 0 1 1 -0.97227,0 0.48614,0.50823 0 1 1 0.97227,0 z"
         transform="matrix(1.0335825,0,0,1.0335825,-54.801151,68.499058)"
         id="path5596"
         style="color:#000000;fill:url(#radialGradient4483);fill-rule:nonzero;enable-background:accumulate" />
      <path
         d="m 240.73,30.792 a 0.48614,0.50823 0 1 1 -0.97227,0 0.48614,0.50823 0 1 1 0.97227,0 z"
         transform="matrix(0.96230095,0,0,0.96230095,-33.619009,73.084967)"
         id="path5600"
         style="color:#000000;fill:url(#radialGradient4485);fill-rule:nonzero;enable-background:accumulate" />
      <path
         d="m 240.73,30.792 a 0.48614,0.50823 0 1 1 -0.97227,0 0.48614,0.50823 0 1 1 0.97227,0 z"
         transform="matrix(0.96230095,0,0,0.96230095,-18.946814,67.469683)"
         id="path5654"
         style="color:#000000;opacity:0.544715;fill:url(#radialGradient5963);fill-rule:nonzero;enable-background:accumulate" />
      <path
         d="m 211.8,94.51 c 0,0 2.3186,4.5285 2.5178,4.5103 C 214.51706,99.00219 211.8362,94.51 211.8,94.51 Z"
         id="path5731"
         style="color:#000000;fill:#cf9e4a;fill-opacity:0.330435;fill-rule:nonzero;enable-background:accumulate" />
      <path
         d="m 203.91,98.93 c 0,0 3.2243,5.6877 2.9344,5.6877 -0.28982,0 -2.9707,-5.724 -2.9344,-5.6877 z"
         id="path5686"
         style="color:#000000;fill:#ffffff;fill-opacity:0.486956;fill-rule:nonzero;enable-background:accumulate" />
      <path
         d="m 186.22,93.502 c 0,0 5.9378,-2.3888 5.9698,-2.2296 0.0322,0.15926 -5.4563,2.2296 -5.9698,2.2296 z"
         id="path5688"
         style="color:#000000;fill:#a39b7f;fill-opacity:0.352174;fill-rule:nonzero;enable-background:accumulate" />
      <path
         d="m 185.35,75.554 c -2.0069,0 -1.9772,1.7194 -1.9772,1.7194 l -0.25791,25.358 30.862,-26.734 -28.627,-0.34387 z"
         id="path6051"
         style="color:#000000;fill:#ffffff;fill-opacity:0.552174;fill-rule:nonzero;enable-background:accumulate" />
    </g>
  </g>
</svg>
