<?xml version="1.0" encoding="UTF-8" standalone="no"?>
<svg
   xmlns:dc="http://purl.org/dc/elements/1.1/"
   xmlns:cc="http://creativecommons.org/ns#"
   xmlns:rdf="http://www.w3.org/1999/02/22-rdf-syntax-ns#"
   xmlns:svg="http://www.w3.org/2000/svg"
   xmlns="http://www.w3.org/2000/svg"
   xmlns:xlink="http://www.w3.org/1999/xlink"
   xmlns:sodipodi="http://sodipodi.sourceforge.net/DTD/sodipodi-0.dtd"
   xmlns:inkscape="http://www.inkscape.org/namespaces/inkscape"
   width="10.583333mm"
   height="10.583333mm"
   viewBox="0 0 10.583333 10.583333"
   version="1.1"
   id="svg3009"
   inkscape:version="1.0.1 (3bc2e813f5, 2020-09-07)"
   sodipodi:docname="bonus_speed.svg">
  <defs
     id="defs3003">
    <linearGradient
       x1="374.92001"
       y1="62.589001"
       x2="414.92001"
       y2="62.589001"
       id="linearGradient5148"
       xlink:href="#linearGradient5142"
       gradientUnits="userSpaceOnUse" />
    <linearGradient
       id="linearGradient5142">
      <stop
         id="stop5144"
         style="stop-color:#b5eda9;stop-opacity:1"
         offset="0" />
      <stop
         id="stop5146"
         style="stop-color:#71d19c;stop-opacity:1"
         offset="1" />
    </linearGradient>
    <linearGradient
       x1="389.04999"
       y1="54.152"
       x2="408.29001"
       y2="69.032997"
       id="linearGradient4349"
       xlink:href="#linearGradient5170"
       gradientUnits="userSpaceOnUse"
       spreadMethod="reflect" />
    <linearGradient
       id="linearGradient5170">
      <stop
         id="stop5172"
         style="stop-color:#ffffff;stop-opacity:1"
         offset="0" />
      <stop
         id="stop5338"
         style="stop-color:#00ffa1;stop-opacity:1"
         offset="0.24004" />
      <stop
         id="stop5176"
         style="stop-color:#3c704c;stop-opacity:1"
         offset="0.80585003" />
      <stop
         id="stop5174"
         style="stop-color:#35493b;stop-opacity:1"
         offset="1" />
    </linearGradient>
    <radialGradient
       cx="398.13"
       cy="63.383999"
       r="10.119"
       id="radialGradient4596"
       xlink:href="#linearGradient4590"
       gradientUnits="userSpaceOnUse"
       gradientTransform="matrix(1,0,0,0.80608306,0,11.545489)" />
    <linearGradient
       id="linearGradient4590">
      <stop
         id="stop4592"
         style="stop-color:#730e0e;stop-opacity:1"
         offset="0" />
      <stop
         id="stop4594"
         style="stop-color:#ba1f1f;stop-opacity:1"
         offset="1" />
    </linearGradient>
    <radialGradient
       cx="393.73999"
       cy="65.307999"
       r="11.157"
       id="radialGradient4622"
       xlink:href="#linearGradient4606"
       gradientUnits="userSpaceOnUse"
       gradientTransform="matrix(1.2614584,-0.01235202,0.00544826,0.55640722,-103.30339,33.833702)" />
    <linearGradient
       id="linearGradient4606">
      <stop
         id="stop4609"
         style="stop-color:#b97f7f;stop-opacity:1"
         offset="0" />
      <stop
         id="stop4611"
         style="stop-color:#e8d9d9;stop-opacity:1"
         offset="1" />
    </linearGradient>
    <radialGradient
       cx="400.70001"
       cy="62.457001"
       r="9.5661001"
       id="radialGradient4604"
       xlink:href="#linearGradient4590"
       gradientUnits="userSpaceOnUse"
       gradientTransform="matrix(0.28193795,0.20334451,-0.61236748,0.84904989,325.97479,-72.139626)" />
    <radialGradient
       cx="390.94"
       cy="71.030998"
       r="10.564"
       id="radialGradient4613"
       xlink:href="#linearGradient4606"
       gradientUnits="userSpaceOnUse"
       gradientTransform="matrix(0.24043495,0.14385702,-0.27933358,0.46686326,316.78262,-18.369788)" />
  </defs>
  <sodipodi:namedview
     id="base"
     pagecolor="#ffffff"
     bordercolor="#666666"
     borderopacity="1.0"
     inkscape:pageopacity="0.0"
     inkscape:pageshadow="2"
     inkscape:zoom="0.35"
     inkscape:cx="-11.428572"
     inkscape:cy="214.28571"
     inkscape:document-units="mm"
     inkscape:current-layer="layer1"
     inkscape:document-rotation="0"
     showgrid="false"
     inkscape:window-width="1254"
     inkscape:window-height="872"
     inkscape:window-x="101"
     inkscape:window-y="0"
     inkscape:window-maximized="0"
     fit-margin-top="0"
     fit-margin-left="0"
     fit-margin-right="0"
     fit-margin-bottom="0"
     inkscape:pagecheckerboard="true" />
  <metadata
     id="metadata3006">
    <rdf:RDF>
      <cc:Work
         rdf:about="">
        <dc:format>image/svg+xml</dc:format>
        <dc:type
           rdf:resource="http://purl.org/dc/dcmitype/StillImage" />
        <dc:title></dc:title>
      </cc:Work>
    </rdf:RDF>
  </metadata>
  <g
     inkscape:label="Ebene 1"
     inkscape:groupmode="layer"
     id="layer1"
     transform="translate(-108.85714,-91.470239)">
    <g
       transform="matrix(0.26458333,0,0,0.26458333,9.6595573,80.201899)"
       id="bonus_speed">
      <rect
         width="40"
         height="40"
         rx="3"
         ry="3"
         x="374.92001"
         y="42.589001"
         id="rect3566"
         style="fill:url(#linearGradient5148);fill-rule:nonzero" />
      <rect
         width="35.652"
         height="35.652"
         rx="2.6738999"
         ry="2.6738999"
         x="377.09"
         y="44.763"
         id="rect5150"
         style="fill:#041400;stroke:url(#linearGradient4349);stroke-width:1.0491" />
      <path
         d="m 383.63,61.864 c 0,0 4.977,-0.95159 7.189,-3.294 2.212,-2.34241 4.0093,-6.7344 4.0093,-6.7344 l 8.0185,-0.2196 c 0,0 -0.62212,4.392 -0.553,5.9292 0.0691,1.5372 0.8295,2.2692 0.34563,4.5384 -0.48388,2.2692 -2.1429,3.7332 -2.1429,3.7332 0,0 -2.3503,-0.6588 -5.5991,0.1464 -3.2489,0.80519 -9.8849,1.6836 -10.714,1.464 -0.8295,-0.2196 -1.106,-0.5856 -1.106,-0.5856 0,0 1.106,-2.3424 0.553,-4.9776 z"
         id="path5334"
         style="color:#000000;fill:url(#radialGradient4596);fill-rule:nonzero;stroke:#770000;stroke-width:0.268;stroke-linecap:butt;stroke-linejoin:miter;stroke-miterlimit:4;stroke-dasharray:none;stroke-dashoffset:0;enable-background:accumulate" />
      <path
         d="m 383.91,61.644 c 0,0 -3.5103,1.1397 -3.6485,3.5553 -0.13825,2.4156 0.46878,2.7526 3.372,3.4974 2.8837,0.73975 5.527,-0.16184 7.7269,-0.92947 3.3296,-1.1618 5.8907,-1.0725 8.1027,-0.92606 2.212,0.1464 2.6268,-1.9032 2.6268,-1.9032 0,0 -3.8693,0.16853 -6.6343,0.24173 -2.765,0.07321 -9.2645,2.6131 -11.891,1.5883 0.50211,-2.6393 0.35367,-3.3092 0.34562,-5.124 z"
         id="path5311"
         style="color:#000000;fill:url(#radialGradient4622);fill-rule:nonzero;stroke:#5d5d5d;stroke-width:0.268;stroke-linecap:butt;stroke-linejoin:miter;stroke-miterlimit:4;stroke-dasharray:none;stroke-dashoffset:0;enable-background:accumulate" />
      <path
         d="m 16.717,87.135 c 0,0.99039 -0.65318,1.7933 -1.4589,1.7933 -0.80574,0 -1.4589,-0.80287 -1.4589,-1.7933 0,-0.99039 0.65318,-1.7933 1.4589,-1.7933 0.80574,0 1.4589,0.80287 1.4589,1.7933 z"
         transform="matrix(0.83021292,0,-0.11431087,1.0385668,397.09696,-31.116396)"
         id="path5288"
         style="color:#000000;fill:#375686;fill-rule:nonzero;stroke:#3a4249;stroke-width:0.211157;stroke-linecap:butt;stroke-linejoin:miter;stroke-miterlimit:4;stroke-dasharray:none;stroke-dashoffset:0;enable-background:accumulate" />
      <path
         d="m 401.33,58.799 c -1.1025,2.3759 -1.4979,4.7128 -3.4348,5.9122 -1.9368,1.1994 -5.6105,2.4581 -6.5456,4.0113 l 4.8491,5.3901 c 0,0 4.9928,-0.07011 7.0007,-1.7638 2.0078,-1.6937 5.9661,-4.8778 6.4389,-6.2103 0,0 0.84798,-2.6724 0.10468,-4.2029 -1.0492,-2.5346 -1.0298,-4.79 -0.88486,-7.4177 l -7.2984,1.805 -0.22974,2.4762 h 3e-5 z"
         id="path5238"
         style="color:#000000;fill:url(#radialGradient4604);fill-rule:nonzero;stroke:#770000;stroke-width:0.234;stroke-linecap:butt;stroke-linejoin:miter;stroke-miterlimit:4;stroke-dasharray:none;stroke-dashoffset:0;enable-background:accumulate" />
      <path
         d="m 391.75,68.272 c 0,0 4.6604,2.1386 4.522,5.6515 5.6245,-1.1187 7.4016,-2.3029 11.553,-5.861 1.454,-1.1919 1.9698,-2.5627 1.9698,-2.5627 0,0 -0.004,2.4974 -0.68053,3.3189 -1.2125,1.4725 -2.2641,1.3506 -3.6353,2.2339 -2.6967,1.737 -2.7982,3.3944 -7.5263,4.8156 -4.8465,1.4568 -7.6903,0.42514 -8.3826,-1.3313 -1.1442,-2.8381 -0.11357,-4.6967 2.1795,-6.2649 z"
         id="path5210"
         style="fill:url(#radialGradient4613);stroke:#5d5d5d;stroke-width:0.234;stroke-linecap:butt;stroke-linejoin:miter;stroke-miterlimit:4;stroke-dasharray:none" />
      <path
         d="m 401.03,61.594 c -0.0625,0.15625 -0.125,0.3125 -0.1875,0.46875 0.53125,0.36458 1.0625,0.72917 1.5938,1.0938 -0.95846,-0.10291 -1.9185,-0.19211 -2.875,-0.3125 0.79907,0.71056 1.5836,1.4372 2.375,2.1562 -0.83283,-0.23094 -1.6696,-0.44772 -2.5,-0.6875 -0.21301,0.59721 0.41901,1.1159 0.94612,1.225 0.35475,0.06283 0.55908,0.68308 0.0124,0.44539 -0.63791,-0.13095 -1.2494,-0.38755 -1.8476,-0.60232 -0.57351,-0.10497 -0.82307,0.57931 -0.31574,0.8507 0.4671,0.42515 1.011,0.75833 1.4568,1.2082 0.35937,0.25016 0.0168,0.13104 -0.1869,0.06501 -1.1571,-0.34527 -2.3142,-0.69054 -3.4713,-1.0358 -0.46017,0.42884 0.44513,0.98867 0.38581,1.1678 -0.88066,-0.41153 -1.8617,-0.75003 -2.8459,-0.56639 -0.28853,0.63962 0.65256,0.69531 1.0382,0.89031 0.68864,0.32175 1.2807,0.81692 1.8021,1.3638 -0.0754,0.51184 0.93447,1.0058 0.85561,0.27178 -0.2254,-0.5327 -0.73528,-0.87534 -1.1518,-1.2482 -0.43632,-0.41704 0.42045,-0.11827 0.5751,0.01136 0.43674,0.294 0.92998,0.47501 1.3793,0.74347 0.36812,0.21655 0.72964,0.44418 1.0866,0.67855 0.10417,-0.14583 0.20833,-0.29167 0.3125,-0.4375 -0.80208,-0.67708 -1.6042,-1.3542 -2.4062,-2.0312 1.2812,0.38542 2.5625,0.77083 3.8438,1.1562 0.26515,-0.41991 -0.094,-0.88329 -0.43547,-1.1245 -0.45523,-0.3537 -0.99146,-0.65091 -1.3147,-1.1394 1.1903,0.3176 2.3747,0.65681 3.5627,0.98265 0.29204,-0.5957 -0.38804,-1.0444 -0.84899,-1.264 -0.24188,-0.13729 -0.80319,-0.40721 -0.75451,-0.59948 0.57687,0.14975 1.1523,0.30491 1.7285,0.45726 0.32359,-0.59925 -0.36286,-1.0595 -0.76438,-1.3864 -0.22865,-0.17587 -0.97624,-0.56593 -0.61633,-0.82098 0.52809,0.05771 1.0583,0.10838 1.5848,0.16613 0.42414,0.26363 0.84464,-0.47289 0.34739,-0.6321 -0.282,-0.04751 -0.93733,-0.47825 -0.4723,-0.67949 0.5434,0.28248 0.758,-0.88407 0.075,-0.61258 -0.66356,0.02136 -1.3334,-0.0083 -1.9668,-0.22208 z"
         id="path5212"
         style="color:#000000;text-indent:0;text-align:start;text-transform:none;direction:ltr;fill:#e1dada;enable-background:accumulate" />
      <path
         d="m 402.02,60.618 c 0,0 1.177,-1.0664 1.5232,-1.8819 0.34618,-0.8155 -0.13847,-1.8819 1.5232,-2.0074 1.6617,-0.12546 3.3233,-0.50184 3.7387,-1.1919 0.41541,-0.69004 0.75149,-2.2169 -1.7764,-1.7073 -2.3582,0.47538 -4.1778,0.57817 -3.9701,1.3937 0.20771,0.8155 -1.454,1.0664 -1.454,1.0664 0,0 0.71935,0.81549 0.44241,1.6937 10e-4,1.1086 0.13044,1.6408 -0.027,2.6347 z"
         id="path5214"
         style="color:#000000;fill:#7b1919;fill-rule:nonzero;stroke:#4e0202;stroke-width:0.234;stroke-linecap:butt;stroke-linejoin:miter;stroke-miterlimit:4;stroke-dasharray:none;stroke-dashoffset:0;enable-background:accumulate" />
      <path
         d="m 23.254,91.05 c 0,0.74779 -0.39451,1.354 -0.88117,1.354 -0.48666,0 -0.88117,-0.6062 -0.88117,-1.354 0,-0.74779 0.39451,-1.354 0.88117,-1.354 0.48666,0 0.88117,0.6062 0.88117,1.354 z"
         transform="matrix(1.1036261,0,0,1.7073631,383.4294,-92.334327)"
         id="path5240"
         style="color:#000000;fill:#3b88f7;fill-rule:nonzero;stroke:#4b5056;stroke-width:0.21584;stroke-linecap:butt;stroke-linejoin:miter;stroke-miterlimit:4;stroke-dasharray:none;stroke-dashoffset:0;enable-background:accumulate" />
      <path
         d="m 394.48,54.983 c 0,0 0.0691,-1.5372 0.8295,-2.2692 0.76038,-0.732 2.4194,-0.87839 3.8019,-0.2196 1.3825,0.6588 3.3871,0.5124 3.7328,-0.2196 0.34563,-0.732 0.20738,-1.83 -0.69125,-1.6104 -0.89863,0.2196 -1.3825,0.5124 -2.6268,0.4392 -1.2443,-0.07321 -2.9724,-0.5124 -3.9401,0.07321 -0.96775,0.5856 -1.1751,1.098 -1.659,2.3424 -0.48388,1.2444 0.48387,1.464 0.553,1.464 z"
         id="path5242"
         style="color:#000000;fill:#671b1b;fill-rule:nonzero;stroke:#551414;stroke-width:0.234;stroke-linecap:butt;stroke-linejoin:miter;stroke-miterlimit:4;stroke-dasharray:none;stroke-dashoffset:0;enable-background:accumulate" />
      <path
         d="m 393.34,55.403 c -0.0387,0.13535 -0.25203,0.34236 -0.17437,0.42997 0.44354,0.20162 0.88708,0.40323 1.3306,0.60485 -0.67708,0.01393 -1.3535,0.02321 -2.0312,0.04187 0.3818,0.5916 0.74967,1.1934 1.125,1.7898 -0.76106,-0.12701 -1.5282,-0.23491 -2.2812,-0.38711 0.48544,0.67548 0.97911,1.3443 1.4688,2.0164 -0.94845,-0.29588 -1.8837,-0.62242 -2.8438,-0.89138 0.38348,0.80918 0.79185,1.6031 1.1875,2.4048 -0.94789,-0.443 -1.8916,-0.89335 -2.8438,-1.3289 0.3995,0.82985 0.83248,1.6388 1.25,2.4574 -0.85415,-0.54123 -1.7065,-1.085 -2.5625,-1.6236 0.29917,0.804 0.58405,1.6152 0.875,2.4233 -0.64562,-0.7308 -1.2813,-1.4709 -1.9375,-2.1918 0.11634,1.3334 0.16488,2.6822 0.25,4.0227 0.15625,-0.03527 0.3125,-0.07054 0.46875,-0.10582 -0.0521,-0.84588 -0.10417,-1.6918 -0.15625,-2.5376 0.59619,0.68466 1.2038,1.3604 1.7929,2.0506 0.1011,0.04729 0.2869,-0.1601 0.42143,-0.2133 -0.26636,-0.73694 -0.51669,-1.5047 -0.77681,-2.2535 0.69556,0.4441 1.4099,0.86399 2.0938,1.3232 0.0834,-0.1149 0.3494,-0.22618 0.31487,-0.34341 -0.34143,-0.65063 -0.64445,-1.3286 -0.97112,-1.9897 0.93746,0.44468 1.8843,0.87315 2.8125,1.3339 -0.19809,-0.43577 -0.44475,-0.83674 -0.63683,-1.2758 -0.21481,-0.4547 -0.42961,-0.9094 -0.64442,-1.3641 1.0417,0.33431 2.0824,0.67073 3.125,1.0029 -0.55661,-0.72839 -1.0642,-1.4963 -1.5938,-2.2465 0.71875,0.12525 1.4375,0.2505 2.1562,0.37574 -0.41601,-0.67378 -0.83334,-1.3466 -1.25,-2.0199 0.72917,-0.02224 1.4583,-0.04448 2.1875,-0.06673 0.0171,-0.1349 0.20182,-0.37553 0.10686,-0.43972 -0.7628,-0.31251 -1.5076,-0.66921 -2.2631,-0.99852 z"
         id="path5265"
         style="color:#000000;text-indent:0;text-align:start;text-transform:none;direction:ltr;fill:#cb9898;enable-background:accumulate" />
      <path
         d="m 380.24,45.751 c -2.0069,0 -1.9772,1.7194 -1.9772,1.7194 l -0.25791,25.358 30.862,-26.734 -28.627,-0.34387 z"
         id="path5427"
         style="color:#000000;fill:#ffffff;fill-opacity:0.517391;fill-rule:nonzero;enable-background:accumulate" />
    </g>
  </g>
</svg>
