<?xml version="1.0" encoding="UTF-8" standalone="no"?>
<svg
   xmlns:dc="http://purl.org/dc/elements/1.1/"
   xmlns:cc="http://creativecommons.org/ns#"
   xmlns:rdf="http://www.w3.org/1999/02/22-rdf-syntax-ns#"
   xmlns:svg="http://www.w3.org/2000/svg"
   xmlns="http://www.w3.org/2000/svg"
   xmlns:xlink="http://www.w3.org/1999/xlink"
   xmlns:sodipodi="http://sodipodi.sourceforge.net/DTD/sodipodi-0.dtd"
   xmlns:inkscape="http://www.inkscape.org/namespaces/inkscape"
   width="10.583333mm"
   height="10.583333mm"
   viewBox="0 0 10.583333 10.583333"
   version="1.1"
   id="svg1979"
   inkscape:version="1.0.1 (3bc2e813f5, 2020-09-07)"
   sodipodi:docname="bonus_bad_slow.svg">
  <defs
     id="defs1973">
    <linearGradient
       x1="374.92001"
       y1="62.589001"
       x2="414.92001"
       y2="62.589001"
       id="linearGradient4437"
       xlink:href="#linearGradient6384"
       gradientUnits="userSpaceOnUse"
       gradientTransform="translate(88.060379,-40.527306)" />
    <linearGradient
       id="linearGradient6384">
      <stop
         id="stop6386"
         style="stop-color:#f9af94;stop-opacity:1"
         offset="0" />
      <stop
         id="stop6388"
         style="stop-color:#dc5e4b;stop-opacity:1"
         offset="1" />
    </linearGradient>
    <linearGradient
       x1="476.48999"
       y1="15.529"
       x2="494.10999"
       y2="27.908001"
       id="linearGradient4439"
       xlink:href="#linearGradient6390"
       gradientUnits="userSpaceOnUse"
       spreadMethod="reflect" />
    <linearGradient
       id="linearGradient6390">
      <stop
         id="stop6392"
         style="stop-color:#ffffff;stop-opacity:1"
         offset="0" />
      <stop
         id="stop6394"
         style="stop-color:#ff4000;stop-opacity:1"
         offset="0.24004" />
      <stop
         id="stop6396"
         style="stop-color:#5b1300;stop-opacity:1"
         offset="0.80585003" />
      <stop
         id="stop6398"
         style="stop-color:#450e00;stop-opacity:1"
         offset="1" />
    </linearGradient>
    <radialGradient
       cx="473.59"
       cy="256.57999"
       r="24.851999"
       id="radialGradient5843"
       gradientUnits="userSpaceOnUse"
       gradientTransform="matrix(-0.38575519,-0.13758405,-0.0413652,0.18973225,671.16779,45.282706)">
      <stop
         id="stop5659-1"
         style="stop-color:#784242;stop-opacity:0"
         offset="0" />
      <stop
         id="stop5661-4"
         style="stop-color:#73350b;stop-opacity:0.89610392"
         offset="1" />
    </radialGradient>
    <radialGradient
       cx="438.92999"
       cy="235.64999"
       r="27.856001"
       fx="435.57001"
       fy="220.86"
       id="radialGradient5840"
       gradientUnits="userSpaceOnUse"
       gradientTransform="matrix(-0.37737695,0.02524952,0.01199078,0.29317841,652.77645,-61.339978)">
      <stop
         id="stop5372-1-8"
         style="stop-color:#ffa04f;stop-opacity:1"
         offset="0" />
      <stop
         id="stop5378-2-3"
         style="stop-color:#e05327;stop-opacity:1"
         offset="0.55901003" />
      <stop
         id="stop5374-1-3"
         style="stop-color:#903910;stop-opacity:1"
         offset="1" />
    </radialGradient>
    <radialGradient
       cx="433.06"
       cy="236.33"
       r="16.797001"
       id="radialGradient5836"
       gradientUnits="userSpaceOnUse"
       gradientTransform="matrix(-0.37789294,0,0,0.46327598,655.82858,-90.692975)">
      <stop
         id="stop4618-2-1-1"
         style="stop-color:#f9e8cf;stop-opacity:0.75294119"
         offset="0" />
      <stop
         id="stop4620-5-3-5"
         style="stop-color:#40290b;stop-opacity:0.57254905"
         offset="1" />
    </radialGradient>
    <linearGradient
       x1="421.70001"
       y1="228.63"
       x2="434.39001"
       y2="228.63"
       id="linearGradient5832"
       xlink:href="#linearGradient5185-4-4"
       gradientUnits="userSpaceOnUse"
       gradientTransform="matrix(-0.37789294,0,0,0.4833369,655.82858,-95.622688)" />
    <linearGradient
       id="linearGradient5185-4-4">
      <stop
         id="stop5187-6-6"
         style="stop-color:#ffffff;stop-opacity:0"
         offset="0" />
      <stop
         id="stop5189-4-6"
         style="stop-color:#ffffff;stop-opacity:1"
         offset="0.5" />
      <stop
         id="stop5191-2-9"
         style="stop-color:#ffffff;stop-opacity:0"
         offset="1" />
    </linearGradient>
    <linearGradient
       x1="421.70001"
       y1="228.63"
       x2="434.39001"
       y2="228.63"
       id="linearGradient5829"
       xlink:href="#linearGradient5185-4-4"
       gradientUnits="userSpaceOnUse"
       gradientTransform="matrix(0.20336883,-0.27886535,0.1436572,0.39477674,364.12773,51.24196)" />
  </defs>
  <sodipodi:namedview
     id="base"
     pagecolor="#ffffff"
     bordercolor="#666666"
     borderopacity="1.0"
     inkscape:pageopacity="0.0"
     inkscape:pageshadow="2"
     inkscape:zoom="0.35"
     inkscape:cx="54.285715"
     inkscape:cy="148.57143"
     inkscape:document-units="mm"
     inkscape:current-layer="layer1"
     inkscape:document-rotation="0"
     showgrid="false"
     inkscape:window-width="1254"
     inkscape:window-height="872"
     inkscape:window-x="49"
     inkscape:window-y="0"
     inkscape:window-maximized="0"
     fit-margin-top="0"
     fit-margin-left="0"
     fit-margin-right="0"
     fit-margin-bottom="0"
     inkscape:pagecheckerboard="true" />
  <metadata
     id="metadata1976">
    <rdf:RDF>
      <cc:Work
         rdf:about="">
        <dc:format>image/svg+xml</dc:format>
        <dc:type
           rdf:resource="http://purl.org/dc/dcmitype/StillImage" />
        <dc:title></dc:title>
      </cc:Work>
    </rdf:RDF>
  </metadata>
  <g
     inkscape:label="Ebene 1"
     inkscape:groupmode="layer"
     id="layer1"
     transform="translate(-91.470238,-108.85714)">
    <g
       transform="matrix(0.26458333,0,0,0.26458333,-31.026555,108.31152)"
       id="bonus_bad_slow">
      <rect
         width="40"
         height="40"
         rx="3"
         ry="3"
         x="462.98001"
         y="2.0622001"
         id="rect6370"
         style="fill:url(#linearGradient4437);fill-rule:nonzero" />
      <rect
         width="35.652"
         height="35.652"
         rx="2.6738999"
         ry="2.6738999"
         x="465.14999"
         y="4.2360001"
         id="rect6372"
         style="fill:#041400;stroke:url(#linearGradient4439);stroke-width:1.0491" />
      <path
         d="m 495.18,27.803 c 0,0 4.1096,-0.54375 4.0624,0.18125 -0.0472,0.725 -1.9367,3.3229 -4.6764,2.5375"
         id="path5554"
         style="color:#000000;fill:#e1dfd6;fill-rule:nonzero;stroke:#40250e;stroke-width:0.213688;stroke-miterlimit:4;stroke-dasharray:none;stroke-opacity:0.334783;enable-background:accumulate" />
      <path
         d="m 496.55,27.652 c 0,0 1.4407,0.12083 1.3699,0.24167 -0.0709,0.12083 -0.73216,0.81563 -0.63769,0.96667 0.0945,0.15104 1.9839,-1.2386 1.8186,-0.84584 -0.16533,0.39271 -0.33066,1.1479 -1.0628,1.5708 -0.73216,0.42292 -1.9603,1.3594 -2.8342,1.0271 -0.87388,-0.33229 1.299,-2.9302 1.3462,-2.9604 z"
         id="path5557"
         style="color:#000000;fill:#363221;fill-opacity:0.278261;fill-rule:nonzero;enable-background:accumulate" />
      <path
         d="m 470.74,23.35 c 0,0 -0.15183,1.0593 0.32897,3.0505 0.48079,1.9912 2.6191,3.3005 4.3999,4.418 1.2336,0.78892 1.8093,2.4194 4.8111,2.6823 3.0018,0.26297 7.6386,-0.85417 8.2554,-0.486 0.61681,0.36816 -7.5974,-8.4025 -7.5974,-8.4025 l -1.686,1.3675 -2.1383,-1.1571"
         id="path5618"
         style="color:#000000;fill:#e1dfd6;fill-rule:nonzero;stroke:#40250e;stroke-width:0.186021;stroke-linecap:butt;stroke-linejoin:miter;stroke-miterlimit:4;stroke-dasharray:none;stroke-dashoffset:0;stroke-opacity:0.23913;enable-background:accumulate" />
      <path
         d="m 479.42,25.822 c 0,0 -1.5215,-0.52594 -2.2616,-1.6304 -0.74017,-1.1045 -1.8916,-1.7356 -2.8373,-2.0512 -0.94577,-0.31557 -1.7271,-0.89411 -1.9738,-1.683 -0.24673,-0.78892 -2.056,-7.4158 -2.056,-7.4158 0,0 0,-0.89411 -0.2056,-0.84152 -0.2056,0.0526 -0.45233,0.68373 -0.24672,0.84152 0.2056,0.15778 0.45232,0.52594 0.74017,1.946 0.28784,1.4201 1.3159,5.7854 1.1514,6.5743 -0.16448,0.78892 -0.31481,0.78267 -0.75097,1.1174 -0.43615,0.33472 -3.2548,-4.0431 -3.4874,-4.1547 -0.23261,-0.11157 -0.37799,-0.33471 -0.43615,-0.07438 -0.0582,0.26033 -0.14538,0.3763 0.378,0.59504 0.4815,0.20124 1.5256,3 2.6237,4.3897 0.59834,0.75724 1.2708,0.91787 1.2708,0.91787"
         id="path5559"
         style="color:#000000;fill:#e1dfd6;fill-rule:nonzero;stroke:#40250e;stroke-width:0.186021;stroke-linecap:butt;stroke-linejoin:miter;stroke-miterlimit:4;stroke-dasharray:none;stroke-dashoffset:0;stroke-opacity:0.23913;enable-background:accumulate" />
      <path
         d="m 470.72,24.091 c 0.0196,0.01498 0.0433,0.03896 0.0617,0.0526 0.7813,0.57854 1.2747,1.5778 2.5906,2.0512 1.3159,0.47336 3.3719,2.6823 5.6335,3.1031 1.7476,0.32513 3.4799,-1.5128 4.184,-2.3668 1.9365,1.9957 5.7506,6.3298 5.3461,6.0883 -0.61681,-0.36816 -5.2536,0.74898 -8.2554,0.486 -3.0018,-0.26297 -3.5775,-1.8934 -4.8111,-2.6823 -1.7808,-1.1175 -3.9191,-2.4268 -4.3999,-4.418 -0.2486,-1.0295 -0.33075,-1.8005 -0.34953,-2.3142 z"
         id="path5620"
         style="color:#000000;opacity:0.414634;fill:url(#radialGradient5843);fill-rule:nonzero;enable-background:accumulate" />
      <path
         d="m 488.56,33.301 c 0,0 -4.6292,-4.0479 -5.8573,-4.8334 -1.2282,-0.78542 -4.8654,-3.0813 -4.9126,-4.4709 -0.0472,-1.3896 0.33066,-2.8396 0.80303,-3.5646 0.47236,-0.72501 0.75578,-1.9333 2.9759,-5.2563 2.2201,-3.3229 8.1247,-6.0417 11.998,-3.2021 3.8734,2.8396 6.0935,8.398 4.6292,13.533 -1.4643,5.1355 -5.2433,9.6063 -9.6363,7.7938 z"
         id="path4577"
         style="color:#000000;fill:url(#radialGradient5840);fill-rule:nonzero;stroke:#572900;stroke-width:0.213688;stroke-miterlimit:4;stroke-dasharray:none;stroke-opacity:0.521739;enable-background:accumulate" />
      <path
         d="m 480.57,16.753 c -0.27912,0.87086 -0.43694,1.8041 -0.43694,2.7641 0,5.12 4.2778,9.274 9.5536,9.274 4.1029,0 7.5984,-2.5175 8.9513,-6.0417 -0.0389,0.92171 -0.17671,1.8515 -0.43694,2.7641 -1.4643,5.1355 -5.2433,9.6063 -9.6363,7.7938 0,0 -4.6292,-4.0479 -5.8573,-4.8334 -1.2282,-0.78542 -4.8654,-3.0813 -4.9126,-4.4709 -0.0472,-1.3896 0.33066,-2.8396 0.80303,-3.5646 0.38743,-0.59464 0.66606,-1.5404 1.9721,-3.6854 z"
         id="path5402"
         style="color:#000000;fill:#5e0404;fill-opacity:0.413043;fill-rule:nonzero;enable-background:accumulate" />
      <path
         d="m 492.74,25.024 c 0.54319,-1.0831 -0.25247,-1.6478 -0.65571,-1.2384 -0.40324,0.40946 -0.50256,1.4499 0.11643,2.0389 1.0767,1.0246 2.0942,-1.4585 1.5312,-2.5627 -0.52747,-1.0346 -1.656,-1.086 -2.3736,-0.39774 -2.0333,3.4967 0.29408,6.3298 2.9055,3.5948 1.2588,-1.301 1.0224,-4.6517 0.10582,-5.5131 -0.91661,-0.86133 -3.3226,-2.3772 -5.011,-0.3172 -4.0876,6.0638 1.3644,11.431 5.1645,8.3376 2.4629,-3.1282 2.5773,-8.1645 1.0982,-10.336 -2.5167,-3.6957 -6.231,-4.2278 -8.8765,-0.78039 -2.937,3.8272 -3.6558,9.225 -0.68887,12.914"
         id="path5351"
         style="fill:none;stroke:url(#radialGradient5836);stroke-width:0.299163;stroke-linecap:butt;stroke-linejoin:miter;stroke-miterlimit:4;stroke-dasharray:none" />
      <path
         d="m 483.31,13.365 c -2.9727,3.9731 -4.655,8.567 -4.242,10.68 0.43422,2.2215 2.0041,1.1962 3.5071,4.1013"
         id="path5399"
         style="color:#000000;fill:none;stroke:#40250e;stroke-width:0.3419;stroke-linecap:round;stroke-linejoin:miter;stroke-miterlimit:4;stroke-dasharray:none;stroke-dashoffset:0;stroke-opacity:0.813043;enable-background:accumulate" />
      <path
         d="m 492.2,12.809 c 0,0 0.76822,-0.29905 1.8037,0.68354 1.0354,0.98259 2.4717,3.5031 2.4717,3.5031 0,0 -2.4717,-2.9905 -3.3735,-2.9905 -0.90183,0 -2.1377,-1.0253 -0.90183,-1.1962 z"
         id="path5407"
         style="color:#000000;opacity:0.804878;fill:url(#linearGradient5832);fill-rule:nonzero;enable-background:accumulate" />
      <path
         d="m 484.42,19.053 c 0,0 -0.50231,0.32266 -0.76751,1.8893 -0.26519,1.5667 -0.28898,4.6853 -0.28898,4.6853 0,0 0.44136,-4.2665 0.92669,-4.932 0.48534,-0.66551 0.84568,-2.4149 0.1298,-1.6425 z"
         id="path5421"
         style="color:#000000;opacity:0.804878;fill:url(#linearGradient5829);fill-rule:nonzero;enable-background:accumulate" />
      <path
         d="m 472.37,21.7 c 0,0 -0.38633,0.51686 -0.49075,1.2543 -0.10442,0.73741 -0.11486,1.2217 -0.11486,1.2217 0,0 0.28192,-1.554 0.61605,-1.9537 0.33412,-0.39976 0.57427,-0.54639 0.57427,-0.54639 0,0 -0.67869,1.2043 -0.7831,2.0212 -0.10441,0.81686 0.094,1.0446 0.094,1.0446 0,0 0.37589,-2.1779 0.79355,-2.479 0.41765,-0.30106 0.58471,-0.20962 0.58471,-0.20962 0,0 -1.0441,1.6267 -1.0232,2.2208 0.0209,0.5941 0.36545,0.92841 0.36545,0.92841 0,0 0,-1.3772 0.50118,-1.9769 0.50119,-0.59965 0.58472,-0.39501 0.58472,-0.39501 0,0 -0.72046,1.2874 -0.69957,1.855 0.0209,0.56762 0.4281,0.93623 0.4281,0.93623 0,0 -0.24016,-0.72739 0.094,-1.5774 0.33413,-0.85003 0.54295,-1.0006 0.54295,-1.0006 0,0 -0.28192,0.41511 -0.34456,1.3078 -0.0627,0.8927 0.27147,1.208 0.27147,1.208 0,0 -0.12529,-0.86316 0.0104,-1.5172 0.13574,-0.65405 0.24015,-0.80877 0.24015,-0.80877 0,0 -0.13574,0.38919 -0.11486,1.2746 0.0209,0.88545 0.27148,0.89022 0.27148,0.89022 0,0 -0.16706,-0.99197 -0.1253,-1.4723 0.0418,-0.48036 0.14618,-0.55562 0.14618,-0.55562 0,0 -0.11485,0.66548 0.1253,1.1015 0.24015,0.43606 0.65465,1.1078 0.65465,1.1078 0,0 -0.48759,-1.3077 -0.55024,-1.8452"
         id="path5663"
         style="color:#000000;fill:none;stroke:#40250e;stroke-width:0.133037;stroke-opacity:0.0956521;enable-background:accumulate" />
      <path
         d="m 475.63,24.07 c 0,0 -0.23437,0.32739 -0.0845,0.98046 0.14986,0.65307 0.31128,1.1061 0.31128,1.1061 0,0 -0.24874,-1.3505 -0.0292,-1.589 0.21955,-0.23852 0.42754,-0.27706 0.42754,-0.27706 0,0 -0.30602,0.85507 -0.12781,1.5832 0.1782,0.72812 0.47447,1.0259 0.47447,1.0259 0,0 -0.36945,-1.9007 -0.0241,-2.0112 0.34529,-0.11052 0.55898,0.04539 0.55898,0.04539 0,0 -0.55146,1.1019 -0.3169,1.6718 0.23455,0.56986 0.72726,1.0291 0.72726,1.0291 0,0 -0.49127,-1.3009 -0.16194,-1.6587 0.32931,-0.35779 0.49284,-0.12972 0.49284,-0.12972 0,0 -0.32164,0.91616 -0.0965,1.461 0.22511,0.54484 0.79795,1.0625 0.79795,1.0625 0,0 -0.51975,-0.78704 -0.46081,-1.4509 0.0589,-0.66382 0.23158,-0.71908 0.23158,-0.71908 0,0 -0.15749,0.27474 0.093,1.0919 0.25052,0.81713 0.72514,1.2541 0.72514,1.2541 0,0 -0.44369,-0.86747 -0.52988,-1.4287 -0.0862,-0.56129 -0.0282,-0.66396 -0.0282,-0.66396 0,0 -0.008,0.3111 0.33018,1.1562 0.33847,0.84506 0.61178,0.95388 0.61178,0.95388 0,0 -0.53491,-1.0065 -0.66098,-1.4429 -0.12608,-0.43635 -0.0398,-0.46398 -0.0398,-0.46398 0,0 0.11289,0.58078 0.52872,1.0926 0.41583,0.51185 0.67724,0.51229 0.67724,0.51229 0,0 -0.56747,-0.63156 -0.8271,-1.1654"
         id="path5665"
         style="color:#000000;fill:none;stroke:#40250e;stroke-width:0.124466;stroke-opacity:0.0478261;enable-background:accumulate" />
      <path
         d="m 468.3,5.2237 c -2.0069,0 -1.9772,1.7194 -1.9772,1.7194 l -0.25,25.358 30.86,-26.733 -28.63,-0.3439 z"
         id="path6378"
         style="color:#000000;fill:#ffffff;fill-opacity:0.552174;fill-rule:nonzero;enable-background:accumulate" />
    </g>
  </g>
</svg>
