<?xml version="1.0" encoding="UTF-8" standalone="no"?>
<svg
   xmlns:dc="http://purl.org/dc/elements/1.1/"
   xmlns:cc="http://creativecommons.org/ns#"
   xmlns:rdf="http://www.w3.org/1999/02/22-rdf-syntax-ns#"
   xmlns:svg="http://www.w3.org/2000/svg"
   xmlns="http://www.w3.org/2000/svg"
   xmlns:xlink="http://www.w3.org/1999/xlink"
   xmlns:sodipodi="http://sodipodi.sourceforge.net/DTD/sodipodi-0.dtd"
   xmlns:inkscape="http://www.inkscape.org/namespaces/inkscape"
   width="210mm"
   height="297mm"
   viewBox="0 0 210 297"
   version="1.1"
   id="svg3327"
   inkscape:version="1.0.1 (3bc2e813f5, 2020-09-07)"
   sodipodi:docname="bonus_neutral_pandora.svg">
  <defs
     id="defs3321">
    <linearGradient
       x1="418.41"
       y1="22.815001"
       x2="458.41"
       y2="22.815001"
       id="linearGradient6793"
       xlink:href="#linearGradient6612"
       gradientUnits="userSpaceOnUse"
       gradientTransform="translate(-288.40619,124.23681)" />
    <linearGradient
       id="linearGradient6612">
      <stop
         id="stop6614"
         style="stop-color:#edeaa9;stop-opacity:1"
         offset="0" />
      <stop
         id="stop6616"
         style="stop-color:#d1c871;stop-opacity:1"
         offset="1" />
    </linearGradient>
    <linearGradient
       x1="426.35999"
       y1="15.814"
       x2="452.89999"
       y2="31.841999"
       id="linearGradient6887"
       xlink:href="#linearGradient6618"
       gradientUnits="userSpaceOnUse"
       gradientTransform="translate(-288.40619,124.23681)"
       spreadMethod="reflect" />
    <linearGradient
       id="linearGradient6618">
      <stop
         id="stop6620"
         style="stop-color:#ffffff;stop-opacity:1"
         offset="0" />
      <stop
         id="stop6622"
         style="stop-color:#f8ff00;stop-opacity:1"
         offset="0.24004" />
      <stop
         id="stop6624"
         style="stop-color:#706d3c;stop-opacity:1"
         offset="0.80585003" />
      <stop
         id="stop6626"
         style="stop-color:#494935;stop-opacity:1"
         offset="1" />
    </linearGradient>
    <linearGradient
       x1="193"
       y1="137.71001"
       x2="189.58"
       y2="145.00999"
       id="linearGradient6827"
       xlink:href="#linearGradient6682"
       gradientUnits="userSpaceOnUse"
       gradientTransform="matrix(1.0000704,0,0,0.96240176,-38.13824,6.48524)" />
    <linearGradient
       id="linearGradient6682">
      <stop
         id="stop6684"
         style="stop-color:#fff08e;stop-opacity:1"
         offset="0" />
      <stop
         id="stop6686"
         style="stop-color:#ffffff;stop-opacity:1"
         offset="1" />
    </linearGradient>
    <linearGradient
       x1="184.06"
       y1="136.96001"
       x2="185.81"
       y2="146.52"
       id="linearGradient6833"
       xlink:href="#linearGradient6682"
       gradientUnits="userSpaceOnUse"
       gradientTransform="matrix(1.0000704,0,0,0.96240176,-38.13824,6.48524)" />
    <radialGradient
       cx="181.21001"
       cy="147.07001"
       r="6.6875"
       id="radialGradient6780"
       xlink:href="#linearGradient6644"
       gradientUnits="userSpaceOnUse"
       gradientTransform="matrix(1.6730489,0.93828488,-0.70993633,1.5079644,-55.57867,-246.48921)" />
    <linearGradient
       id="linearGradient6644">
      <stop
         id="stop6646"
         style="stop-color:#ffdd00;stop-opacity:1"
         offset="0" />
      <stop
         id="stop6648"
         style="stop-color:#bdab36;stop-opacity:1"
         offset="1" />
    </linearGradient>
    <radialGradient
       cx="181.19"
       cy="146.95"
       r="6.6875"
       id="radialGradient6776"
       xlink:href="#linearGradient6644"
       gradientUnits="userSpaceOnUse"
       gradientTransform="matrix(-1.5265391,0.69563734,0.27840095,0.72776878,392.24264,-87.8784)" />
    <linearGradient
       x1="134.19"
       y1="139.61"
       x2="150"
       y2="139.61"
       id="linearGradient6703"
       xlink:href="#linearGradient4683"
       gradientUnits="userSpaceOnUse" />
    <linearGradient
       id="linearGradient4683">
      <stop
         id="stop4685"
         style="stop-color:#ffffff;stop-opacity:1"
         offset="0" />
      <stop
         id="stop4687"
         style="stop-color:#ffffff;stop-opacity:1"
         offset="0.41523999" />
      <stop
         id="stop4689"
         style="stop-color:#ffffff;stop-opacity:0"
         offset="1" />
    </linearGradient>
    <linearGradient
       x1="134.19"
       y1="139.61"
       x2="150"
       y2="139.61"
       id="linearGradient6707"
       xlink:href="#linearGradient4683"
       gradientUnits="userSpaceOnUse"
       gradientTransform="matrix(-0.61660079,0,0,1,243.05262,-0.3125)" />
    <linearGradient
       x1="134.19"
       y1="139.61"
       x2="150"
       y2="139.61"
       id="linearGradient6711"
       xlink:href="#linearGradient4683"
       gradientUnits="userSpaceOnUse"
       gradientTransform="matrix(-0.50606837,-0.08684343,-0.57130319,1.120376,311.04251,-3.0572056)" />
    <linearGradient
       x1="139.61"
       y1="141.03"
       x2="146.59"
       y2="141.03"
       id="linearGradient6721"
       xlink:href="#linearGradient4683"
       gradientUnits="userSpaceOnUse" />
    <radialGradient
       cx="152.66"
       cy="131.97"
       r="1.0893"
       id="radialGradient6883"
       xlink:href="#linearGradient4683"
       gradientUnits="userSpaceOnUse"
       gradientTransform="matrix(1,0,0,0.97602727,0.40625,3.4448856)" />
    <radialGradient
       cx="152.66"
       cy="131.97"
       r="1.0893"
       id="radialGradient6878"
       xlink:href="#linearGradient4683"
       gradientUnits="userSpaceOnUse"
       gradientTransform="matrix(0.75614167,0,0,0.73801489,32.962342,38.895433)" />
    <radialGradient
       cx="152.66"
       cy="131.97"
       r="1.0893"
       id="radialGradient6873"
       xlink:href="#linearGradient4683"
       gradientUnits="userSpaceOnUse"
       gradientTransform="matrix(0.93598604,0.87578581,-0.85479083,0.9135479,116.67111,-121.82481)" />
    <radialGradient
       cx="152.66"
       cy="131.97"
       r="1.0893"
       id="radialGradient6868"
       xlink:href="#linearGradient4683"
       gradientUnits="userSpaceOnUse"
       gradientTransform="matrix(0.69074718,0.64632008,-0.63082602,0.67418808,129.40059,-53.399266)" />
    <radialGradient
       cx="152.66"
       cy="131.97"
       r="1.0893"
       id="radialGradient6863"
       xlink:href="#linearGradient4683"
       gradientUnits="userSpaceOnUse"
       gradientTransform="matrix(0.32822017,0.30710988,-0.29974762,0.32035184,139.65829,42.080346)" />
    <radialGradient
       cx="152.66"
       cy="131.97"
       r="1.0893"
       id="radialGradient6858"
       xlink:href="#linearGradient4683"
       gradientUnits="userSpaceOnUse"
       gradientTransform="matrix(0.32822017,0.30710988,-0.29974762,0.32035184,137.81454,44.986596)" />
    <radialGradient
       cx="152.66"
       cy="131.97"
       r="1.0893"
       id="radialGradient6853"
       xlink:href="#linearGradient4683"
       gradientUnits="userSpaceOnUse"
       gradientTransform="matrix(0.32822017,0.30710988,-0.29974762,0.32035184,140.25204,50.611596)" />
    <radialGradient
       cx="152.66"
       cy="131.97"
       r="1.0893"
       id="radialGradient6848"
       xlink:href="#linearGradient4683"
       gradientUnits="userSpaceOnUse"
       gradientTransform="matrix(0.32822017,0.30710988,-0.29974762,0.32035184,146.00204,46.299096)" />
    <radialGradient
       cx="152.66"
       cy="131.97"
       r="1.0893"
       id="radialGradient6843"
       xlink:href="#linearGradient4683"
       gradientUnits="userSpaceOnUse"
       gradientTransform="matrix(0.32822017,0.30710988,-0.29974762,0.32035184,133.90829,42.049096)" />
    <radialGradient
       cx="152.66"
       cy="131.97"
       r="1.0893"
       id="radialGradient6838"
       xlink:href="#linearGradient4683"
       gradientUnits="userSpaceOnUse"
       gradientTransform="matrix(0.32822017,0.30710988,-0.29974762,0.32035184,134.68954,46.236596)" />
  </defs>
  <sodipodi:namedview
     id="base"
     pagecolor="#ffffff"
     bordercolor="#666666"
     borderopacity="1.0"
     inkscape:pageopacity="0.0"
     inkscape:pageshadow="2"
     inkscape:zoom="0.35"
     inkscape:cx="400"
     inkscape:cy="560"
     inkscape:document-units="mm"
     inkscape:current-layer="layer1"
     inkscape:document-rotation="0"
     showgrid="false"
     inkscape:window-width="1254"
     inkscape:window-height="872"
     inkscape:window-x="101"
     inkscape:window-y="0"
     inkscape:window-maximized="0" />
  <metadata
     id="metadata3324">
    <rdf:RDF>
      <cc:Work
         rdf:about="">
        <dc:format>image/svg+xml</dc:format>
        <dc:type
           rdf:resource="http://purl.org/dc/dcmitype/StillImage" />
        <dc:title></dc:title>
      </cc:Work>
    </rdf:RDF>
  </metadata>
  <g
     inkscape:label="Ebene 1"
     inkscape:groupmode="layer"
     id="layer1">
    <g
       transform="matrix(0.26458333,0,0,0.26458333,48.002977,91.872782)"
       id="bonus_neutral_pandora">
      <rect
         width="40"
         height="40"
         rx="3"
         ry="3"
         x="130"
         y="127.05"
         id="rect6592"
         style="color:#000000;fill:url(#linearGradient6793);fill-rule:nonzero;enable-background:accumulate" />
      <rect
         width="35.652"
         height="35.652"
         rx="2.6738999"
         ry="2.6738999"
         x="132.11"
         y="129.25999"
         id="rect6594"
         style="fill:#041400;stroke:url(#linearGradient6887);stroke-width:1" />
      <path
         d="m 163.06,140.25 c -4.4586,-1.9448 -8.9173,-3.8897 -13.376,-5.8346 0.0417,5.3133 0.0833,10.627 0.12502,15.94 4.417,-3.3684 8.834,-6.7368 13.251,-10.105 z"
         id="path6690"
         style="color:#000000;fill:url(#linearGradient6827);fill-rule:nonzero;stroke:#ffffff;stroke-width:0.0981055;enable-background:accumulate" />
      <path
         d="m 147.96,154.12 1.7236,-19.534 1.812,21.434 -3.5355,-1.9004 z"
         id="path6885"
         style="color:#000000;fill:#ffffff;fill-rule:nonzero;enable-background:accumulate" />
      <path
         d="m 136.37,140.25 c 4.4378,-1.9448 8.8756,-3.8897 13.313,-5.8346 0.0417,5.3133 0.0833,10.627 0.12502,15.94 -4.4795,-3.3684 -8.959,-6.7368 -13.438,-10.105 z"
         id="path6680"
         style="color:#000000;fill:url(#linearGradient6833);fill-rule:nonzero;stroke:#ffffff;stroke-width:0.0981055;enable-background:accumulate" />
      <path
         d="m 136.44,140.31 c 4.4791,2.4861 9.0207,5.0064 13.5,7.4925 0,5.0324 -0.0625,10.031 -0.0625,15.063 -4.1833,-2.9673 -8.3666,-5.9346 -12.55,-8.9019 -0.2958,-4.5512 -0.59158,-9.1024 -0.88737,-13.654 z"
         id="path6642"
         style="color:#000000;fill:url(#radialGradient6780);fill-rule:nonzero;stroke:#ffffff;stroke-width:0.0987915;enable-background:accumulate" />
      <path
         d="m 137.94,143.52 c 0,0 -0.12501,-0.51128 0.25001,-0.30075 0.37503,0.21052 9.2507,5.5037 9.4694,5.6541 0.21877,0.15037 0.12501,0.78195 0.15626,1.2932 0.0312,0.51128 0.12501,8.3007 0.0937,8.5413 -0.0312,0.2406 0.18751,0.57143 -0.37503,0.18045 -0.56254,-0.39098 -8.6256,-6.2556 -8.7506,-6.3158 -0.12501,-0.0601 -0.28128,-0.27068 -0.28128,-0.69173 0,-0.42105 -0.53129,-8.3007 -0.56253,-8.3609 z"
         id="path6652"
         style="color:#000000;fill:#ffee82;fill-rule:nonzero;stroke:#ffffff;stroke-width:0.0981055;stroke-linecap:round;stroke-linejoin:miter;stroke-miterlimit:4;stroke-dasharray:none;stroke-dashoffset:0;enable-background:accumulate" />
      <path
         d="m 163.19,140.31 c -4.417,2.4862 -8.834,4.9724 -13.251,7.4586 v 15.098 c 4.1253,-2.9674 8.2506,-5.9348 12.376,-8.9022 0.29169,-4.5514 0.58337,-9.1027 0.87507,-13.654 z"
         id="path6654"
         style="color:#000000;fill:url(#radialGradient6776);fill-rule:nonzero;stroke:#ffffff;stroke-width:0.0981055;enable-background:accumulate" />
      <path
         d="m 161.69,143.52 c 0,0 0.12501,-0.51128 -0.25002,-0.30075 -0.37502,0.21052 -9.2506,5.5037 -9.4694,5.6541 -0.21877,0.15037 -0.12501,0.78195 -0.15627,1.2932 -0.0312,0.51128 -0.12501,8.3007 -0.0937,8.5413 0.0312,0.2406 -0.18751,0.57143 0.37502,0.18045 0.56254,-0.39098 8.6256,-6.2556 8.7506,-6.3158 0.125,-0.0601 0.28127,-0.27068 0.28127,-0.69173 0,-0.42105 0.53129,-8.3007 0.56254,-8.3609 z"
         id="path6657"
         style="color:#000000;fill:#ffee82;fill-rule:nonzero;stroke:#ffffff;stroke-width:0.0981055;stroke-linecap:round;stroke-linejoin:miter;stroke-miterlimit:4;stroke-dasharray:none;stroke-dashoffset:0;enable-background:accumulate" />
      <path
         d="m 157,146.51 c -0.23618,0.0439 -0.73867,0.26878 -0.93757,1.3534 -0.26518,1.4461 0.5398,5.4032 0.93757,5.2331 0.39778,-0.17013 0.62505,-4.006 0.62505,-4.6015 0,-0.59546 0.0303,-1.8148 -0.50005,-1.985 0,0 -0.0463,-0.0146 -0.125,0 z m 0.0312,7.1579 c -0.18956,0.0658 -0.40628,0.27068 -0.40628,0.27068 -0.0221,0 0.0382,0.62427 0.28127,0.75187 0.24309,0.1276 0.47413,-0.30742 0.56254,-0.54135 0.0884,-0.23393 -0.0511,-0.39612 -0.25002,-0.4812 -0.0497,-0.0213 -0.12432,-0.0219 -0.18751,0 z"
         id="path6674"
         style="color:#000000;fill:#483e00;fill-opacity:0.504348;fill-rule:nonzero;enable-background:accumulate" />
      <path
         d="m 162.9,140.78 c -4.2293,2.3806 -8.4586,4.7611 -12.688,7.1417 -0.0726,4.6206 -0.21753,9.2437 -0.0912,13.864 -0.11467,0.68847 0.22478,0.59019 0.58808,0.23447 3.7844,-2.7222 7.5687,-5.4443 11.353,-8.1665 0.2793,-4.358 0.55859,-8.7159 0.83788,-13.074 z"
         id="path6661"
         style="color:#000000;fill:#483e00;fill-opacity:0.473913;fill-rule:nonzero;enable-background:accumulate" />
      <path
         d="m 140.5,148.21 c 0,0 0.10564,0.63618 0.63323,0.66973 0.52759,0.0335 1.012,-1.038 1.5863,-0.70756 0.57424,0.33047 1.0261,0.74018 0.80943,1.6371 -0.21671,0.89688 -0.95386,0.14385 -1.1582,1.0831 -0.2044,0.9392 -0.31453,1.7917 0.34162,1.9932 0.65617,0.20148 -0.24831,-1.3993 0.65361,-1.5848 0.90191,-0.18551 1.9139,-1.5216 1.1723,-2.6999 -0.74155,-1.1783 -1.9112,-1.703 -2.7435,-1.6888 -0.83232,0.0142 -1.9897,0.4167 -1.2948,1.298 z"
         id="path6670"
         style="color:#000000;fill:#483e00;fill-opacity:0.504348;fill-rule:nonzero;enable-background:accumulate" />
      <path
         d="m 142.94,153.49 c 0,0 -0.99445,0.0179 -0.83975,0.3941 0.15468,0.37623 0.35357,0.7597 0.83975,0.41401 0.48616,-0.34568 0,-0.80811 0,-0.80811 z"
         id="path6672"
         style="color:#000000;fill:#483e00;fill-opacity:0.504348;fill-rule:nonzero;enable-background:accumulate" />
      <path
         d="m 148.38,145.42 c -3.5,-16.812 -14.188,-9.5625 -14.188,-9.5625 0,0 11.875,-8.5 15.812,8.9375"
         id="path6695"
         style="color:#000000;fill:url(#linearGradient6703);fill-rule:nonzero;enable-background:accumulate" />
      <path
         d="m 151.56,145.11 c 2.1581,-16.812 8.748,-9.5625 8.748,-9.5625 0,0 -7.3221,-8.5 -9.75,8.9375"
         id="path6705"
         style="color:#000000;fill:url(#linearGradient6707);fill-rule:nonzero;enable-background:accumulate" />
      <path
         d="m 152.87,146.99 c 11.376,-18.532 12.643,-9.4815 12.643,-9.4815 0,0 -1.1535,-10.554 -13.108,8.6402"
         id="path6709"
         style="color:#000000;fill:url(#linearGradient6711);fill-rule:nonzero;enable-background:accumulate" />
      <path
         d="m 146.5,144.22 c -2.6075,-5.8336 -6.8943,-7.6014 -6.8943,-7.6014 0,0 3.6681,1.9004 6.9827,8.8388"
         id="path6713"
         style="color:#000000;fill:url(#linearGradient6721);fill-rule:nonzero;enable-background:accumulate" />
      <path
         d="m 154.16,132.61 c -0.25383,0.0162 -0.50766,0.0324 -0.7615,0.0485 -0.13057,0.21828 -0.26114,0.43656 -0.39171,0.65483 -0.0938,-0.23641 -0.18766,-0.47282 -0.28148,-0.70922 -0.24795,-0.0567 -0.49589,-0.11346 -0.74383,-0.17019 0.19585,-0.16229 0.39169,-0.32458 0.58753,-0.48688 -0.0227,-0.25333 -0.0453,-0.50667 -0.068,-0.76 0.21486,0.1361 0.42973,0.27221 0.6446,0.40832 0.23393,-0.0998 0.46786,-0.19968 0.7018,-0.29952 -0.0631,0.2464 -0.1261,0.49281 -0.18915,0.73922 0.16725,0.19164 0.33449,0.38327 0.50173,0.5749 z"
         id="path6723"
         style="color:#000000;fill:url(#radialGradient6883);fill-rule:nonzero;enable-background:accumulate" />
      <path
         d="m 149.22,136.56 c -0.1922,0.0301 -0.42634,-0.009 -0.5924,0.0645 -0.0987,0.10542 -0.22009,0.49164 -0.30345,0.40728 -0.10383,-0.15508 -0.0858,-0.45222 -0.28356,-0.4978 -0.11408,-0.0653 -0.60168,-0.0417 -0.36826,-0.18959 0.12218,-0.14385 0.41223,-0.21775 0.33025,-0.44665 0.004,-0.16566 -0.12903,-0.55679 0.12691,-0.3098 0.17174,0.10664 0.33792,0.28214 0.53169,0.11606 0.21349,-0.11084 0.40731,-0.19875 0.25834,0.11301 -0.094,0.20716 -0.0818,0.38903 0.11247,0.52761 0.0627,0.0718 0.12534,0.14361 0.18801,0.21542 z"
         id="path6733"
         style="color:#000000;fill:url(#radialGradient6878);fill-rule:nonzero;enable-background:accumulate" />
      <path
         d="m 147.46,133.72 c -0.25175,-0.20716 -0.5035,-0.41432 -0.75526,-0.62148 -0.31338,0.09 -0.62676,0.17991 -0.94013,0.26986 0.11923,-0.30345 0.23845,-0.60691 0.35767,-0.91034 -0.1824,-0.27025 -0.36478,-0.54049 -0.54717,-0.81073 0.32545,0.0196 0.65088,0.0392 0.97633,0.0588 0.20065,-0.25696 0.4013,-0.51394 0.60196,-0.7709 0.0819,0.31556 0.16382,0.63114 0.24573,0.94672 0.3064,0.11142 0.61279,0.22284 0.91919,0.33428 -0.27481,0.1754 -0.54962,0.35082 -0.82444,0.52624 -0.0113,0.32585 -0.0226,0.65168 -0.0339,0.97751 z"
         id="path6737"
         style="color:#000000;fill:url(#radialGradient6873);fill-rule:nonzero;enable-background:accumulate" />
      <path
         d="m 152.12,135.19 c -0.18579,-0.15288 -0.37158,-0.30576 -0.55738,-0.45865 -0.23127,0.0664 -0.46254,0.13277 -0.6938,0.19915 0.088,-0.22394 0.17596,-0.44788 0.26395,-0.67181 -0.13461,-0.19944 -0.2692,-0.39888 -0.4038,-0.59831 0.24017,0.0145 0.48034,0.029 0.72051,0.0434 0.14808,-0.18964 0.29616,-0.37928 0.44424,-0.56891 0.0605,0.23288 0.1209,0.46577 0.18135,0.69866 0.22612,0.0822 0.45223,0.16446 0.67835,0.24669 -0.2028,0.12945 -0.40561,0.25891 -0.60842,0.38837 -0.008,0.24047 -0.0167,0.48093 -0.025,0.72139 z"
         id="path6741"
         style="color:#000000;fill:url(#radialGradient6868);fill-rule:nonzero;enable-background:accumulate" />
      <path
         d="m 150.46,131.69 c -0.15009,-0.15051 -0.30496,-0.27796 -0.51352,-0.14656 -0.20272,0.0401 0.19413,-0.32914 -0.046,-0.43 -0.25958,-0.27264 0.18277,-0.0446 0.28075,-0.18061 0.15025,-0.28736 0.21689,-0.17159 0.25252,0.0937 0.15867,0.0952 0.47261,0.12627 0.13645,0.25799 -0.17533,0.0567 -0.0764,0.2663 -0.11017,0.40552 z"
         id="path6746"
         style="color:#000000;fill:url(#radialGradient6863);fill-rule:nonzero;enable-background:accumulate" />
      <path
         d="m 148.61,134.6 c -0.15009,-0.15051 -0.30496,-0.27796 -0.51352,-0.14656 -0.20272,0.0401 0.19413,-0.32914 -0.046,-0.43 -0.25958,-0.27264 0.18277,-0.0446 0.28075,-0.18061 0.15025,-0.28736 0.21689,-0.17159 0.25252,0.0937 0.15867,0.0952 0.47261,0.12627 0.13645,0.25799 -0.17533,0.0567 -0.0764,0.2663 -0.11017,0.40552 z"
         id="path6750"
         style="color:#000000;fill:url(#radialGradient6858);fill-rule:nonzero;enable-background:accumulate" />
      <path
         d="m 151.05,140.22 c -0.15009,-0.15051 -0.30496,-0.27796 -0.51352,-0.14656 -0.20272,0.0401 0.19413,-0.32914 -0.046,-0.43 -0.25958,-0.27264 0.18277,-0.0446 0.28075,-0.18061 0.15025,-0.28736 0.21689,-0.17159 0.25252,0.0937 0.15867,0.0952 0.47261,0.12627 0.13645,0.25799 -0.17533,0.0567 -0.0764,0.2663 -0.11017,0.40552 z"
         id="path6754"
         style="color:#000000;fill:url(#radialGradient6853);fill-rule:nonzero;enable-background:accumulate" />
      <path
         d="m 156.8,135.91 c -0.15009,-0.15051 -0.30496,-0.27796 -0.51352,-0.14656 -0.20272,0.0401 0.19413,-0.32914 -0.046,-0.43 -0.25958,-0.27264 0.18277,-0.0446 0.28075,-0.18061 0.15025,-0.28736 0.21689,-0.17159 0.25252,0.0937 0.15867,0.0952 0.47261,0.12627 0.13645,0.25799 -0.17533,0.0567 -0.0764,0.2663 -0.11017,0.40552 z"
         id="path6758"
         style="color:#000000;fill:url(#radialGradient6848);fill-rule:nonzero;enable-background:accumulate" />
      <path
         d="m 144.71,131.66 c -0.15009,-0.15051 -0.30496,-0.27796 -0.51352,-0.14656 -0.20272,0.0401 0.19413,-0.32914 -0.046,-0.43 -0.25958,-0.27264 0.18277,-0.0446 0.28075,-0.18061 0.15025,-0.28736 0.21689,-0.17159 0.25252,0.0937 0.15867,0.0952 0.47261,0.12627 0.13645,0.25799 -0.17533,0.0567 -0.0764,0.2663 -0.11017,0.40552 z"
         id="path6762"
         style="color:#000000;fill:url(#radialGradient6843);fill-rule:nonzero;enable-background:accumulate" />
      <path
         d="m 145.49,135.85 c -0.15009,-0.15051 -0.30496,-0.27796 -0.51352,-0.14656 -0.20272,0.0401 0.19413,-0.32914 -0.046,-0.43 -0.25958,-0.27264 0.18277,-0.0446 0.28075,-0.18061 0.15025,-0.28736 0.21689,-0.17159 0.25252,0.0937 0.15867,0.0952 0.47261,0.12627 0.13645,0.25799 -0.17533,0.0567 -0.0764,0.2663 -0.11017,0.40552 z"
         id="path6766"
         style="color:#000000;fill:url(#radialGradient6838);fill-rule:nonzero;enable-background:accumulate" />
      <path
         d="m 135.26,130.24 c -2.0069,0 -1.9772,1.7194 -1.9772,1.7194 l -0.25791,25.358 30.862,-26.734 -28.627,-0.34387 z"
         id="path6598"
         style="color:#000000;fill:#ffffff;fill-opacity:0.552174;fill-rule:nonzero;enable-background:accumulate" />
    </g>
  </g>
</svg>
