<?xml version="1.0" encoding="UTF-8" standalone="no"?>
<svg
   xmlns:dc="http://purl.org/dc/elements/1.1/"
   xmlns:cc="http://creativecommons.org/ns#"
   xmlns:rdf="http://www.w3.org/1999/02/22-rdf-syntax-ns#"
   xmlns:svg="http://www.w3.org/2000/svg"
   xmlns="http://www.w3.org/2000/svg"
   xmlns:xlink="http://www.w3.org/1999/xlink"
   xmlns:sodipodi="http://sodipodi.sourceforge.net/DTD/sodipodi-0.dtd"
   xmlns:inkscape="http://www.inkscape.org/namespaces/inkscape"
   width="210mm"
   height="297mm"
   viewBox="0 0 210 297"
   version="1.1"
   id="svg2493"
   inkscape:version="1.0.1 (3bc2e813f5, 2020-09-07)"
   sodipodi:docname="bonus_bad_mirror.svg">
  <defs
     id="defs2487">
    <linearGradient
       x1="374.92001"
       y1="62.589001"
       x2="414.92001"
       y2="62.589001"
       id="linearGradient4445"
       xlink:href="#linearGradient6384"
       gradientUnits="userSpaceOnUse"
       gradientTransform="translate(88.060379,-40.527306)" />
    <linearGradient
       id="linearGradient6384">
      <stop
         id="stop6386"
         style="stop-color:#f9af94;stop-opacity:1"
         offset="0" />
      <stop
         id="stop6388"
         style="stop-color:#dc5e4b;stop-opacity:1"
         offset="1" />
    </linearGradient>
    <linearGradient
       x1="476.48999"
       y1="15.529"
       x2="494.10999"
       y2="27.908001"
       id="linearGradient4447"
       xlink:href="#linearGradient6390"
       gradientUnits="userSpaceOnUse"
       spreadMethod="reflect" />
    <linearGradient
       id="linearGradient6390">
      <stop
         id="stop6392"
         style="stop-color:#ffffff;stop-opacity:1"
         offset="0" />
      <stop
         id="stop6394"
         style="stop-color:#ff4000;stop-opacity:1"
         offset="0.24004" />
      <stop
         id="stop6396"
         style="stop-color:#5b1300;stop-opacity:1"
         offset="0.80585003" />
      <stop
         id="stop6398"
         style="stop-color:#450e00;stop-opacity:1"
         offset="1" />
    </linearGradient>
    <radialGradient
       cx="416.41"
       cy="194.77"
       r="5.5531001"
       id="radialGradient4449"
       xlink:href="#linearGradient6832-4"
       gradientUnits="userSpaceOnUse"
       gradientTransform="matrix(0.42261891,0.1617607,-0.36908675,0.55255473,376.93488,-166.51771)"
       spreadMethod="reflect" />
    <linearGradient
       id="linearGradient6832-4">
      <stop
         id="stop6834-86"
         style="stop-color:#f3ca71;stop-opacity:1"
         offset="0" />
      <stop
         id="stop6836-5"
         style="stop-color:#9f803c;stop-opacity:1"
         offset="1" />
    </linearGradient>
    <radialGradient
       cx="416.41"
       cy="194.77"
       r="5.5531001"
       id="radialGradient4451"
       xlink:href="#linearGradient6832-4"
       gradientUnits="userSpaceOnUse"
       gradientTransform="matrix(0.42261891,0.1617607,-0.36908675,0.55255473,376.93488,-166.51771)"
       spreadMethod="reflect" />
    <radialGradient
       cx="416.41"
       cy="194.77"
       r="5.5531001"
       id="radialGradient4453"
       xlink:href="#linearGradient6832-4"
       gradientUnits="userSpaceOnUse"
       gradientTransform="matrix(0.42261891,0.1617607,-0.36908675,0.55255473,376.93488,-166.51771)"
       spreadMethod="reflect" />
    <radialGradient
       cx="416.41"
       cy="194.77"
       r="5.5531001"
       id="radialGradient6846-8"
       xlink:href="#linearGradient6832-4"
       gradientUnits="userSpaceOnUse"
       gradientTransform="matrix(0.42261891,0.1617607,-0.36908675,0.55255473,376.93488,-166.51771)"
       spreadMethod="reflect" />
    <radialGradient
       cx="418.94"
       cy="251.03"
       r="8.7867002"
       id="radialGradient6838-7"
       xlink:href="#linearGradient6832-4"
       gradientUnits="userSpaceOnUse"
       gradientTransform="matrix(0.58207074,0,0,0.17239587,237.91197,-4.8321194)" />
    <radialGradient
       cx="417.5"
       cy="217.00999"
       r="16.944"
       id="radialGradient6724-5-3"
       gradientUnits="userSpaceOnUse"
       gradientTransform="matrix(1.2909381,-0.02310999,0.0392318,1.7674329,-133.24121,-166.92349)">
      <stop
         id="stop6771-1"
         style="stop-color:#fff7d2;stop-opacity:1"
         offset="0" />
      <stop
         id="stop6773-5"
         style="stop-color:#a4803c;stop-opacity:1"
         offset="1" />
    </radialGradient>
    <radialGradient
       cx="426.91"
       cy="230.36"
       r="16.944"
       id="radialGradient6724-1"
       gradientUnits="userSpaceOnUse"
       gradientTransform="matrix(1.2909381,-0.02310999,0.0392318,1.7674329,-133.24121,-166.92349)">
      <stop
         id="stop6720-4"
         style="stop-color:#fff7d2;stop-opacity:1"
         offset="0" />
      <stop
         id="stop6722-10"
         style="stop-color:#c5b468;stop-opacity:1"
         offset="1" />
    </radialGradient>
    <linearGradient
       x1="421.44"
       y1="209.94"
       x2="425.14999"
       y2="230.13"
       id="linearGradient6716-7"
       gradientUnits="userSpaceOnUse">
      <stop
         id="stop6712-4"
         style="stop-color:#8c8a97;stop-opacity:1"
         offset="0" />
      <stop
         id="stop6714-4"
         style="stop-color:#dcdbe0;stop-opacity:1"
         offset="1" />
    </linearGradient>
    <linearGradient
       x1="426.69"
       y1="209.55"
       x2="426.69"
       y2="224.02"
       id="linearGradient6767-2"
       gradientUnits="userSpaceOnUse"
       gradientTransform="translate(-37.771032,-0.1213203)">
      <stop
         id="stop1565-9"
         style="stop-color:#ffffff;stop-opacity:1"
         offset="0" />
      <stop
         id="stop1567-3"
         style="stop-color:#ffffff;stop-opacity:0"
         offset="1" />
    </linearGradient>
  </defs>
  <sodipodi:namedview
     id="base"
     pagecolor="#ffffff"
     bordercolor="#666666"
     borderopacity="1.0"
     inkscape:pageopacity="0.0"
     inkscape:pageshadow="2"
     inkscape:zoom="0.35"
     inkscape:cx="400"
     inkscape:cy="560"
     inkscape:document-units="mm"
     inkscape:current-layer="layer1"
     inkscape:document-rotation="0"
     showgrid="false"
     inkscape:window-width="1254"
     inkscape:window-height="872"
     inkscape:window-x="101"
     inkscape:window-y="0"
     inkscape:window-maximized="0" />
  <metadata
     id="metadata2490">
    <rdf:RDF>
      <cc:Work
         rdf:about="">
        <dc:format>image/svg+xml</dc:format>
        <dc:type
           rdf:resource="http://purl.org/dc/dcmitype/StillImage" />
        <dc:title></dc:title>
      </cc:Work>
    </rdf:RDF>
  </metadata>
  <g
     inkscape:label="Ebene 1"
     inkscape:groupmode="layer"
     id="layer1">
    <g
       transform="matrix(0.26458333,0,0,0.26458333,-66.556317,156.69247)"
       id="bonus_bad_mirror">
      <rect
         width="40"
         height="40"
         rx="3"
         ry="3"
         x="462.98001"
         y="2.0622001"
         id="rect6461"
         style="fill:url(#linearGradient4445);fill-rule:nonzero" />
      <rect
         width="35.652"
         height="35.652"
         rx="2.6738999"
         ry="2.6738999"
         x="465.14999"
         y="4.2360001"
         id="rect6463"
         style="fill:#041400;stroke:url(#linearGradient4447);stroke-width:1.0491" />
      <path
         d="m 483.3,6.0904 c -0.19599,0 -0.35659,0.15249 -0.35659,0.33991 0,0.18739 0.1606,0.3399 0.35659,0.3399 0.19598,0 0.35658,-0.15251 0.35658,-0.3399 0,-0.18742 -0.1606,-0.33991 -0.35658,-0.33991 z m 2.047,1.0897 c -0.20113,0 -0.36979,0.13203 -0.36979,0.29992 0,0.16788 0.16866,0.30992 0.36979,0.30992 0.20116,0 0.35661,-0.14204 0.35661,-0.30992 0,-0.16789 -0.15545,-0.29992 -0.35661,-0.29992 z m -4.0677,0.08 c -0.16505,0 -0.30376,0.11329 -0.30376,0.24994 0,0.13665 0.13871,0.24994 0.30376,0.24994 0.16504,0 0.30374,-0.11329 0.30374,-0.24994 0,-0.13665 -0.1387,-0.24994 -0.30374,-0.24994 z"
         id="path6682"
         style="color:#000000;fill:url(#radialGradient4449);fill-rule:nonzero;stroke:#2a1c0e;stroke-width:0.0735398;stroke-linecap:round;stroke-linejoin:round;stroke-miterlimit:4;stroke-dasharray:none;stroke-dashoffset:0;stroke-opacity:0.378261;enable-background:accumulate" />
      <path
         d="m 481.17,8.2958 c 0,0 -0.37356,-0.1838 -0.59768,-0.0283 -0.22413,0.15553 -0.20544,0.3676 -0.20544,0.3676 0,0 -0.44826,0.22622 -0.54166,0.36761 -0.0935,0.14137 -0.0748,0.25447 -0.0748,0.25447 0,0 -0.46692,0.0425 -0.74708,0.31106 -0.28016,0.26862 -0.31753,0.46657 -0.31753,0.46657 0,0 -0.35487,0.35345 -0.61633,0.49483 -0.26149,0.14139 -0.59769,0.39589 -0.48561,0.48071 0.11207,0.0848 0.48561,0.0565 0.35487,0.16966 -0.13075,0.11311 -0.46695,0.0141 -0.61636,0.19794 -0.14942,0.1838 0.33618,0.28276 -0.0187,0.41002 -0.35486,0.12724 -0.78443,-0.0141 -0.87781,0.18379 -0.0935,0.19795 0.37353,0.24036 0.16808,0.35346 -0.20545,0.11311 -0.80312,0.22621 -0.72841,0.35347 0.0748,0.12724 0.50429,0 0.28016,0.14137 -0.22413,0.14139 -0.59767,0.0989 -0.63504,0.48072 -0.0372,0.38173 0.54165,0.39586 0.54165,0.39586 0,0 2.839,-2.5166 3.1004,-2.5732 0.26149,-0.0565 0.0935,-0.35346 0.2428,-0.3676 0.14943,-0.0141 0.59768,0.0283 0.59768,0.0283 0,0 0.28016,-0.0708 0.31751,-0.22622 0.0372,-0.15552 -0.22412,-0.16966 -0.44826,-0.26862 -0.22413,-0.0989 -0.44824,-0.25449 -0.20544,-0.38174 0.24281,-0.12725 0.579,-0.2969 0.579,-0.0989 0,0.19794 0.44825,0.0565 0.37355,0.22623 -0.0746,0.16965 -0.3362,0.46656 0.0372,0.4807 0.37353,0.0141 -0.0372,-0.28277 0.35486,-0.38173 0.39223,-0.0989 0.67237,-0.28277 1.1953,-0.0141 0.52296,0.26864 -1.0273,-1.7814 -1.0273,-1.8239 z"
         id="path6692"
         style="color:#000000;fill:url(#radialGradient4451);fill-rule:nonzero;stroke:#2a1c0e;stroke-width:0.0735398;stroke-linecap:round;stroke-linejoin:round;stroke-miterlimit:4;stroke-dasharray:none;stroke-dashoffset:0;stroke-opacity:0.378261;enable-background:accumulate" />
      <path
         d="m 485.59,8.2958 c 0,0 0.37356,-0.1838 0.59768,-0.0283 0.22413,0.15553 0.20545,0.3676 0.20545,0.3676 0,0 0.44825,0.22622 0.54164,0.36761 0.0935,0.14137 0.0748,0.25447 0.0748,0.25447 0,0 0.46694,0.0425 0.74708,0.31106 0.28017,0.26862 0.31752,0.46657 0.31752,0.46657 0,0 0.35488,0.35345 0.61634,0.49483 0.26148,0.14139 0.59768,0.39589 0.48562,0.48071 -0.11207,0.0848 -0.48562,0.0565 -0.35488,0.16966 0.13074,0.11311 0.46694,0.0141 0.61634,0.19794 0.14943,0.1838 -0.33616,0.28276 0.0187,0.41002 0.35486,0.12724 0.78444,-0.0141 0.87781,0.18379 0.0935,0.19795 -0.37353,0.24036 -0.16807,0.35346 0.20545,0.11311 0.80312,0.22621 0.72841,0.35347 -0.0748,0.12724 -0.50429,0 -0.28016,0.14137 0.22412,0.14139 0.59766,0.0989 0.63504,0.48072 0.0372,0.38173 -0.54165,0.39586 -0.54165,0.39586 0,0 -2.839,-2.5166 -3.1004,-2.5732 -0.26149,-0.0565 -0.0935,-0.35346 -0.2428,-0.3676 -0.14943,-0.0141 -0.59768,0.0283 -0.59768,0.0283 0,0 -0.28016,-0.0708 -0.31751,-0.22622 -0.0372,-0.15552 0.22412,-0.16966 0.44825,-0.26862 0.22413,-0.0989 0.44825,-0.25449 0.20545,-0.38174 -0.24281,-0.12725 -0.579,-0.2969 -0.579,-0.0989 0,0.19794 -0.44824,0.0565 -0.37355,0.22623 0.0747,0.16965 0.3362,0.46656 -0.0372,0.4807 -0.37354,0.0141 0.0372,-0.28277 -0.35487,-0.38173 -0.39222,-0.0989 -0.67237,-0.28277 -1.1953,-0.0141 -0.52298,0.26864 1.0272,-1.7814 1.0272,-1.8239 z"
         id="path6694"
         style="color:#000000;fill:url(#radialGradient4453);fill-rule:nonzero;stroke:#2a1c0e;stroke-width:0.0735398;stroke-linecap:round;stroke-linejoin:round;stroke-miterlimit:4;stroke-dasharray:none;stroke-dashoffset:0;stroke-opacity:0.378261;enable-background:accumulate" />
      <path
         d="m 483.37,6.4703 c -1.2701,0 -2.298,0.83646 -2.298,1.8695 0,1.0331 1.0279,2.1135 2.298,2.1135 1.2701,0 2.3112,-1.0804 2.3112,-2.1135 0,-1.033 -1.0411,-1.8695 -2.3112,-1.8695 z m 0,0.43989 c 0.96965,0 1.7565,0.64096 1.7565,1.4296 0,0.78865 -0.78687,1.4296 -1.7565,1.4296 -0.96961,0 -1.7565,-0.64098 -1.7565,-1.4296 0,-0.78865 0.7869,-1.4296 1.7565,-1.4296 z"
         id="path6679"
         style="color:#000000;fill:url(#radialGradient6846-8);fill-rule:nonzero;stroke:#2a1c0e;stroke-width:0.0735398;stroke-linecap:round;stroke-linejoin:round;stroke-miterlimit:4;stroke-dasharray:none;stroke-dashoffset:0;stroke-opacity:0.378261;enable-background:accumulate" />
      <path
         d="m 478.58,36.322 c -0.19266,0.0153 -0.34987,0.0999 -0.41837,0.23646 -0.137,0.27316 0.13112,0.66513 0.58207,0.8913 0.28185,0.14136 0.55125,0.16711 0.76397,0.10918 -0.005,0.0247 -0.0181,0.0469 -0.0181,0.0727 0,0.30559 0.405,0.54569 0.90948,0.54569 0.21338,0 0.40839,-0.0531 0.56387,-0.12732 0.0277,0.35802 0.29788,0.65481 0.63665,0.65481 0.35707,0 0.63664,-0.32389 0.63664,-0.70939 0,-0.38548 -0.27957,-0.69122 -0.63664,-0.69122 -0.13126,0 -0.24364,0.0547 -0.3456,0.12734 -0.13034,-0.2092 -0.46394,-0.3638 -0.85492,-0.3638 -0.22201,0 -0.40559,0.0658 -0.56388,0.14552 0.002,-0.25487 -0.22984,-0.55999 -0.60027,-0.74577 -0.22547,-0.1131 -0.46216,-0.16092 -0.65483,-0.14553 z m 9.204,0 c -0.19265,-0.0153 -0.42935,0.0325 -0.65484,0.14551 -0.36237,0.18175 -0.5928,0.47616 -0.60025,0.72759 -0.15518,-0.0737 -0.35137,-0.12732 -0.56388,-0.12732 -0.39097,0 -0.72459,0.15458 -0.85492,0.36378 -0.1019,-0.0725 -0.21434,-0.12733 -0.34559,-0.12733 -0.35709,0 -0.63665,0.30573 -0.63665,0.69123 0,0.38548 0.27956,0.70939 0.63665,0.70939 0.33874,0 0.60901,-0.2968 0.63663,-0.65483 0.15709,0.0773 0.3457,0.12733 0.56388,0.12733 0.50448,0 0.90948,-0.2401 0.90948,-0.5457 0,-0.0258 -0.0126,-0.048 -0.0181,-0.0727 0.21272,0.058 0.48212,0.0321 0.76397,-0.10917 0.45094,-0.22617 0.71908,-0.61812 0.58208,-0.89129 -0.0686,-0.13658 -0.22572,-0.22107 -0.41836,-0.23647 z m -4.6384,1.1823 c -0.32676,0 -0.60025,0.39718 -0.60025,0.87311 0,0.47594 0.27349,0.85492 0.60025,0.85492 0.32677,0 0.58207,-0.37898 0.58207,-0.85492 0,-0.47593 -0.2553,-0.87311 -0.58207,-0.87311 z"
         id="path6662"
         style="color:#000000;fill:url(#radialGradient6838-7);fill-rule:nonzero;stroke:#2a1c0e;stroke-width:0.116414;stroke-linecap:round;stroke-linejoin:round;stroke-miterlimit:4;stroke-dasharray:none;stroke-dashoffset:0;stroke-opacity:0.478261;enable-background:accumulate" />
      <path
         d="m 438.23,217.36 c 0,9.275 -7.5188,16.794 -16.794,16.794 -9.275,0 -16.794,-7.5188 -16.794,-16.794 0,-9.275 7.5188,-16.794 16.794,-16.794 9.275,0 16.794,7.5188 16.794,16.794 z"
         transform="matrix(0.74694981,0,0,0.83174837,168.63185,-156.7785)"
         id="path6660"
         style="color:#000000;fill:url(#radialGradient6724-5-3);fill-rule:nonzero;stroke:#8a6642;stroke-width:0.272376;stroke-linecap:butt;stroke-linejoin:miter;stroke-miterlimit:4;stroke-dasharray:none;stroke-dashoffset:0;stroke-opacity:0.508696;enable-background:accumulate" />
      <path
         d="m 438.23,217.36 c 0,9.275 -7.5188,16.794 -16.794,16.794 -9.275,0 -16.794,-7.5188 -16.794,-16.794 0,-9.275 7.5188,-16.794 16.794,-16.794 9.275,0 16.794,7.5188 16.794,16.794 z"
         transform="matrix(0.67816989,0,0,0.75516015,197.61816,-140.13147)"
         id="path6658"
         style="color:#000000;fill:url(#radialGradient6724-1);fill-rule:nonzero;stroke:#8a6642;stroke-width:0.3;stroke-opacity:0.508696;enable-background:accumulate" />
      <path
         d="m 438.23,217.36 c 0,9.275 -7.5188,16.794 -16.794,16.794 -9.275,0 -16.794,-7.5188 -16.794,-16.794 0,-9.275 7.5188,-16.794 16.794,-16.794 9.275,0 16.794,7.5188 16.794,16.794 z"
         transform="matrix(0.63415073,0,0,0.70614368,216.16939,-129.47737)"
         id="path6656"
         style="color:#000000;fill:url(#linearGradient6716-7);fill-rule:nonzero;stroke:#8a6642;stroke-width:0.30009;stroke-miterlimit:4;stroke-dasharray:none;stroke-opacity:0.5;enable-background:accumulate" />
      <path
         d="m 478.03,17.481 c -0.26706,8.6781 4.3034,11.142 5.6019,13.156 1.6447,-2.2533 6.0637,-5.9525 5.7751,-13.156 -3.6934,1.9802 -7.5897,2.1447 -11.377,0 z m 4.418,3.6562 a 0.090101,0.09751 0 0 1 0.0289,0 0.090101,0.09751 0 0 1 0.0289,0 0.090101,0.09751 0 0 1 0,0.0312 0.090101,0.09751 0 0 1 0.0289,0 0.090101,0.09751 0 0 1 0.0289,0.0312 0.090101,0.09751 0 0 1 0,0.0312 0.090101,0.09751 0 0 1 0,0.0312 0.090101,0.09751 0 0 1 0,0.0312 0.090101,0.09751 0 0 1 -0.0289,0.0312 c -0.14515,0.0924 -0.38526,0.15885 -0.66414,0.21875 -0.2789,0.0599 -0.61708,0.11635 -0.92403,0.15625 -0.61391,0.0797 -1.155,0.125 -1.155,0.125 a 0.090101,0.09751 0 0 1 -0.0289,0 0.090101,0.09751 0 0 1 -0.0289,-0.0312 0.090101,0.09751 0 0 1 -0.0289,-0.0312 0.090101,0.09751 0 0 1 0,-0.0312 0.090101,0.09751 0 0 1 0,-0.0312 0.090101,0.09751 0 0 1 0,-0.0312 0.090101,0.09751 0 0 1 0.0289,-0.0312 0.090101,0.09751 0 0 1 0.0289,0 0.090101,0.09751 0 0 1 0.0289,0 c 0,0 0.54664,-0.046 1.155,-0.125 0.30419,-0.0395 0.62365,-0.0979 0.89515,-0.15625 0.27151,-0.0583 0.47721,-0.1236 0.57752,-0.1875 a 0.090101,0.09751 0 0 1 0.0289,0 0.090101,0.09751 0 0 1 0,-0.0312 z m 2.1946,0 a 0.090101,0.09751 0 0 1 0.0289,0 0.090101,0.09751 0 0 1 0.0289,0.0312 0.090101,0.09751 0 0 1 0.0289,0 c 0.10031,0.0639 0.30601,0.1292 0.57752,0.1875 0.2715,0.0582 0.59096,0.11675 0.89513,0.15625 0.6084,0.079 1.155,0.125 1.155,0.125 a 0.090101,0.09751 0 0 1 0.0289,0 0.090101,0.09751 0 0 1 0.0289,0 0.090101,0.09751 0 0 1 0.0289,0.0312 0.090101,0.09751 0 0 1 0,0.0312 0.090101,0.09751 0 0 1 0,0.0312 0.090101,0.09751 0 0 1 0,0.0312 0.090101,0.09751 0 0 1 -0.0289,0.0312 0.090101,0.09751 0 0 1 -0.0289,0.0312 0.090101,0.09751 0 0 1 -0.0289,0 c 0,0 -0.54111,-0.0453 -1.155,-0.125 -0.30695,-0.0399 -0.64511,-0.0964 -0.92401,-0.15625 -0.2789,-0.0599 -0.51899,-0.12635 -0.66414,-0.21875 a 0.090101,0.09751 0 0 1 -0.0289,-0.0312 0.090101,0.09751 0 0 1 0,-0.0312 0.090101,0.09751 0 0 1 0,-0.0312 0.090101,0.09751 0 0 1 0,-0.0312 0.090101,0.09751 0 0 1 0.0289,-0.0312 0.090101,0.09751 0 0 1 0.0289,0 0.090101,0.09751 0 0 1 0,-0.0312 z m -1.2417,2.75 c 0.0346,-0.0182 0.0756,0 0.1155,0 0.15948,0 0.28876,0.14527 0.28876,0.34375 0,0.19848 -0.12928,0.375 -0.28876,0.375 -0.15947,0 -0.28875,-0.17652 -0.28875,-0.375 0,-0.14886 0.0696,-0.28919 0.17325,-0.34375 z"
         id="path6907"
         style="color:#000000;fill:#c8e4f0;enable-background:accumulate" />
      <path
         d="m 443.36,216.34 c 0,5.687 -7.4595,10.297 -16.661,10.297 -9.2018,0 -16.661,-4.6102 -16.661,-10.297 0,-5.687 7.4595,-10.297 16.661,-10.297 9.2018,0 16.661,4.6102 16.661,10.297 z"
         transform="matrix(0.45313149,0,0,0.58328788,290.15147,-107.73728)"
         id="path6763"
         style="color:#000000;opacity:0.630081;fill:url(#linearGradient6767-2);fill-rule:nonzero;enable-background:accumulate" />
      <path
         d="m 438.23,217.36 c 0,9.275 -7.5188,16.794 -16.794,16.794 -9.275,0 -16.794,-7.5188 -16.794,-16.794 0,-9.275 7.5188,-16.794 16.794,-16.794 9.275,0 16.794,7.5188 16.794,16.794 z"
         transform="matrix(0.7141872,0,0,0.79526638,182.43916,-148.84886)"
         id="path6775"
         style="color:#000000;fill:none;stroke:#2a1c0e;stroke-width:0.374185;stroke-linecap:round;stroke-linejoin:miter;stroke-miterlimit:4;stroke-dasharray:0.374185, 0.748371;stroke-dashoffset:0;stroke-opacity:0.226087;enable-background:accumulate" />
      <path
         d="m 480.77,8.4357 c -0.12792,-0.0246 -0.22127,0.0263 -0.18479,0.1299 -0.0257,0.14741 0.14031,0.18132 0.23161,0.25653 0.0776,0.0492 0.12017,0.0679 0.16442,0.10317 0.0545,0.092 0.14828,0.1624 0.14511,0.26978 -0.005,0.10427 6.5e-4,0.20908 0.0791,0.28984 0.0448,0.12289 0.32627,0.11656 0.23759,0.24983 -0.0718,0.081 -0.22739,0.12543 -0.35644,0.13984 -0.1404,0.0375 -0.23883,0.1045 -0.26392,-0.0401 -0.007,-0.11877 -0.0289,-0.21393 -0.0396,-0.32907 -6.5e-4,-0.10851 -0.0617,-0.23899 -0.13193,-0.30058 -0.0718,-0.0734 -0.15704,-0.16369 -0.31685,-0.13989 -0.24075,-4.9e-4 -0.11954,0.1995 -0.066,0.28984 0.043,0.12213 0.26982,0.20077 0.13186,0.32975 -0.15125,0.0274 -0.26062,-0.0918 -0.34325,-0.13986 -0.15804,-0.0618 -0.36127,-0.0173 -0.52818,-0.01 -0.18647,0.0146 -0.41081,0.0968 -0.39602,0.26291 -0.0546,0.18068 0.13898,0.0353 0.19793,-0.01 0.0499,-0.0746 0.19924,-0.0947 0.15846,0.0471 -0.0492,0.11318 -0.23301,0.15238 -0.30366,0.25984 -0.15592,0.14818 0.0626,0.20637 0.23766,0.20983 0.14965,0.0161 0.32729,0.0147 0.39612,0.10984 0.067,0.0454 0.14905,0.19618 -0.066,0.17978 -0.15394,-0.002 -0.27918,-0.0398 -0.4129,-0.0938 -0.10783,-0.017 -0.22343,-0.0718 -0.35278,-0.10594 -0.24087,-0.0173 0.0551,-0.22533 -0.0396,-0.23977 -0.18611,0.005 -0.2363,0.18257 -0.38288,0.23981 -0.11409,0.076 -0.21887,0.12631 -0.35646,0.2098 -0.0749,0.0936 -0.20756,0.16929 -0.26398,0.23982 0.0926,0.0714 0.36333,0.14223 0.39798,0.01 0.0863,-0.0417 0.15393,-0.19749 0.31503,-0.1998 0.13143,8.5e-4 0.30022,-0.013 0.2904,0.0929 0.0186,0.12861 -0.13837,0.2577 -0.31687,0.24678 -0.10026,0.0229 -0.28379,0.0268 -0.35451,0.0884 -0.16019,0.0446 -0.0443,0.21831 -0.16036,0.28133 -0.12494,0.0344 -0.22739,0.0956 -0.36962,0.0799 -0.16064,0.0448 0.072,0.22128 -0.0396,0.28983 -0.0406,0.0606 -0.17449,0.0592 -0.21124,0.1127 -0.081,0.0271 -0.13872,0.0842 -0.22422,0.11704 -0.0358,0.0436 -0.16319,0.0433 -0.27727,0.0399 -0.065,-0.0667 -0.39685,-0.0195 -0.19806,0.0699 0.16543,0.0313 0.12368,0.19772 0.0698,0.2397 -0.0794,0.013 -0.17313,0.0804 -0.25162,0.13775 -0.0985,0.0406 -0.18265,0.0539 -0.27514,0.0911 -0.0779,0.0263 0.005,0.1545 0.14024,0.12089 -0.0245,0.0461 -0.13221,0.0698 -0.1886,0.12133 -0.14504,0.0489 -0.2205,0.14639 -0.26002,0.2283 -0.0401,0.0362 -0.0475,0.12001 -0.1231,0.16435 -0.0352,0.0144 -0.13679,0.1241 -0.022,0.0755"
         id="path6890"
         style="color:#000000;opacity:0.630081;fill:none;stroke:#2a1c0e;stroke-width:0.0735398;stroke-linecap:round;stroke-linejoin:round;stroke-miterlimit:4;stroke-dasharray:none;stroke-dashoffset:0;stroke-opacity:0.378261;enable-background:accumulate" />
      <path
         d="m 485.98,8.4357 c 0.12792,-0.0246 0.22127,0.0263 0.1848,0.1299 0.0257,0.14741 -0.14031,0.18132 -0.23163,0.25653 -0.0775,0.0492 -0.12014,0.0679 -0.16439,0.10317 -0.0545,0.092 -0.14829,0.1624 -0.14512,0.26978 0.005,0.10427 -6.7e-4,0.20908 -0.0791,0.28984 -0.0448,0.12289 -0.32626,0.11656 -0.2376,0.24983 0.0718,0.081 0.22742,0.12543 0.35645,0.13984 0.1404,0.0375 0.23883,0.1045 0.26392,-0.0401 0.007,-0.11877 0.029,-0.21393 0.0396,-0.32907 6.6e-4,-0.10851 0.0617,-0.23899 0.13194,-0.30058 0.0718,-0.0734 0.15704,-0.16369 0.31683,-0.13989 0.24076,-4.9e-4 0.11956,0.1995 0.066,0.28984 -0.043,0.12213 -0.26981,0.20077 -0.13185,0.32975 0.15125,0.0274 0.26058,-0.0918 0.34323,-0.13986 0.15804,-0.0618 0.36128,-0.0173 0.52817,-0.01 0.18649,0.0146 0.41082,0.0968 0.39604,0.26291 0.0546,0.18068 -0.13899,0.0353 -0.19793,-0.01 -0.0499,-0.0746 -0.19924,-0.0947 -0.15846,0.0471 0.0492,0.11318 0.23299,0.15238 0.30366,0.25984 0.15589,0.14818 -0.0626,0.20637 -0.23767,0.20983 -0.14963,0.0161 -0.32728,0.0147 -0.39613,0.10984 -0.067,0.0454 -0.14904,0.19618 0.0661,0.17978 0.15394,-0.002 0.27919,-0.0398 0.41292,-0.0938 0.10783,-0.017 0.22342,-0.0718 0.35276,-0.10594 0.24086,-0.0173 -0.055,-0.22533 0.0396,-0.23977 0.18608,0.005 0.23627,0.18257 0.38286,0.23981 0.11408,0.076 0.21887,0.12631 0.35645,0.2098 0.075,0.0936 0.20757,0.16929 0.26399,0.23982 -0.0926,0.0714 -0.36334,0.14223 -0.39798,0.01 -0.0864,-0.0417 -0.15393,-0.19749 -0.31503,-0.1998 -0.13144,8.5e-4 -0.30022,-0.013 -0.2904,0.0929 -0.0186,0.12861 0.13835,0.2577 0.31687,0.24678 0.10025,0.0229 0.28377,0.0268 0.3545,0.0884 0.1602,0.0446 0.0443,0.21831 0.16037,0.28133 0.12494,0.0344 0.2274,0.0956 0.36963,0.0799 0.16063,0.0448 -0.072,0.22128 0.0396,0.28983 0.0406,0.0606 0.1745,0.0592 0.21125,0.1127 0.0809,0.0271 0.13871,0.0842 0.22421,0.11704 0.0357,0.0436 0.1632,0.0433 0.27725,0.0399 0.065,-0.0667 0.39687,-0.0195 0.1981,0.0699 -0.16545,0.0313 -0.1237,0.19772 -0.0698,0.2397 0.0791,0.013 0.17313,0.0804 0.25161,0.13775 0.0985,0.0406 0.18266,0.0539 0.27514,0.0911 0.0779,0.0263 -0.005,0.1545 -0.14023,0.12089 0.0245,0.0461 0.1322,0.0698 0.18859,0.12133 0.14504,0.0489 0.22047,0.14639 0.26001,0.2283 0.0401,0.0362 0.0476,0.12001 0.12311,0.16435 0.0352,0.0144 0.13679,0.1241 0.022,0.0755"
         id="path6897"
         style="color:#000000;opacity:0.630081;fill:none;stroke:#2a1c0e;stroke-width:0.0735398;stroke-linecap:round;stroke-linejoin:round;stroke-miterlimit:4;stroke-dasharray:none;stroke-dashoffset:0;stroke-opacity:0.378261;enable-background:accumulate" />
      <path
         d="m 426.21,193.56 c 0,2.99 -2.0875,5.4138 -4.6625,5.4138 -2.575,0 -4.6625,-2.4238 -4.6625,-5.4138 0,-2.99 2.0875,-5.4138 4.6625,-5.4138 2.575,0 4.6625,2.4238 4.6625,5.4138 z"
         transform="matrix(0.43062092,0,0,0.31468545,301.85683,-52.522527)"
         id="path6901"
         style="color:#000000;fill:none;stroke:#2a1c0e;stroke-width:0.199773;stroke-linecap:round;stroke-linejoin:round;stroke-miterlimit:4;stroke-dasharray:0.199773, 0.399546;stroke-dashoffset:0;stroke-opacity:0.382609;enable-background:accumulate" />
      <path
         d="m 468.3,5.2237 c -2.0069,0 -1.9772,1.7194 -1.9772,1.7194 l -0.25,25.358 30.86,-26.733 -28.63,-0.3439 z"
         id="path6469"
         style="color:#000000;fill:#ffffff;fill-opacity:0.552174;fill-rule:nonzero;enable-background:accumulate" />
    </g>
  </g>
</svg>
