<?xml version="1.0" encoding="UTF-8" standalone="no"?>
<svg
   xmlns:dc="http://purl.org/dc/elements/1.1/"
   xmlns:cc="http://creativecommons.org/ns#"
   xmlns:rdf="http://www.w3.org/1999/02/22-rdf-syntax-ns#"
   xmlns:svg="http://www.w3.org/2000/svg"
   xmlns="http://www.w3.org/2000/svg"
   xmlns:xlink="http://www.w3.org/1999/xlink"
   xmlns:sodipodi="http://sodipodi.sourceforge.net/DTD/sodipodi-0.dtd"
   xmlns:inkscape="http://www.inkscape.org/namespaces/inkscape"
   width="210mm"
   height="297mm"
   viewBox="0 0 210 297"
   version="1.1"
   id="svg4509"
   inkscape:version="1.0.1 (3bc2e813f5, 2020-09-07)"
   sodipodi:docname="bonus_mason.svg">
  <defs
     id="defs4503">
    <linearGradient
       x1="374.92001"
       y1="62.589001"
       x2="414.92001"
       y2="62.589001"
       id="linearGradient5971"
       xlink:href="#linearGradient6612"
       gradientUnits="userSpaceOnUse"
       gradientTransform="translate(-294.41913,84.772694)" />
    <linearGradient
       id="linearGradient6612">
      <stop
         id="stop6614"
         style="stop-color:#edeaa9;stop-opacity:1"
         offset="0" />
      <stop
         id="stop6616"
         style="stop-color:#d1c871;stop-opacity:1"
         offset="1" />
    </linearGradient>
    <linearGradient
       x1="386.76001"
       y1="55.831001"
       x2="408.29001"
       y2="69.032997"
       id="linearGradient5968"
       xlink:href="#linearGradient6618"
       gradientUnits="userSpaceOnUse"
       gradientTransform="translate(-294.41913,84.772694)"
       spreadMethod="reflect" />
    <linearGradient
       id="linearGradient6618">
      <stop
         id="stop6620"
         style="stop-color:#ffffff;stop-opacity:1"
         offset="0" />
      <stop
         id="stop6622"
         style="stop-color:#f8ff00;stop-opacity:1"
         offset="0.24004" />
      <stop
         id="stop6624"
         style="stop-color:#706d3c;stop-opacity:1"
         offset="0.80585003" />
      <stop
         id="stop6626"
         style="stop-color:#494935;stop-opacity:1"
         offset="1" />
    </linearGradient>
    <radialGradient
       cx="157.42"
       cy="163.38"
       r="10.766"
       id="radialGradient5893"
       gradientUnits="userSpaceOnUse"
       gradientTransform="matrix(0.36121997,-0.37439613,1.1435533,1.1033081,-134.95264,38.167072)">
      <stop
         id="stop5889"
         style="stop-color:#e3e6ed;stop-opacity:1"
         offset="0" />
      <stop
         id="stop5895"
         style="stop-color:#e3e6ed;stop-opacity:1"
         offset="0.78920001" />
      <stop
         id="stop5891"
         style="stop-color:#b0b4bd;stop-opacity:1"
         offset="1" />
    </radialGradient>
    <radialGradient
       cx="151.89"
       cy="155.28"
       r="9.3281002"
       id="radialGradient5881"
       gradientUnits="userSpaceOnUse"
       gradientTransform="matrix(0.33735586,-0.26824599,0.71401636,0.89797277,-55.439466,56.050137)">
      <stop
         id="stop5872"
         style="stop-color:#dfe6ef;stop-opacity:1"
         offset="0" />
      <stop
         id="stop5879"
         style="stop-color:#ccd3da;stop-opacity:1"
         offset="1" />
    </radialGradient>
    <radialGradient
       cx="138.75999"
       cy="137.89"
       r="5.1903"
       fx="137.45"
       fy="137.97"
       id="radialGradient5962"
       gradientUnits="userSpaceOnUse"
       gradientTransform="matrix(0.26827885,-0.25400214,0.96103716,1.0150542,-76.645159,32.799321)">
      <stop
         id="stop5958"
         style="stop-color:#ff788e;stop-opacity:1"
         offset="0" />
      <stop
         id="stop5960"
         style="stop-color:#c3334a;stop-opacity:1"
         offset="1" />
    </radialGradient>
    <linearGradient
       x1="140.49001"
       y1="143"
       x2="142.78999"
       y2="140.89999"
       id="linearGradient5952"
       xlink:href="#linearGradient14273"
       gradientUnits="userSpaceOnUse"
       gradientTransform="matrix(0.9610362,0,0,0.9610362,-39.295306,5.5133462)" />
    <linearGradient
       id="linearGradient14273">
      <stop
         id="stop14275"
         style="stop-color:#b8b8b8;stop-opacity:1"
         offset="0" />
      <stop
         id="stop14281"
         style="stop-color:#ffffff;stop-opacity:1"
         offset="0.29550001" />
      <stop
         id="stop14277"
         style="stop-color:#5d5d5d;stop-opacity:1"
         offset="1" />
    </linearGradient>
  </defs>
  <sodipodi:namedview
     id="base"
     pagecolor="#ffffff"
     bordercolor="#666666"
     borderopacity="1.0"
     inkscape:pageopacity="0.0"
     inkscape:pageshadow="2"
     inkscape:zoom="0.35"
     inkscape:cx="400"
     inkscape:cy="560"
     inkscape:document-units="mm"
     inkscape:current-layer="layer1"
     inkscape:document-rotation="0"
     showgrid="false"
     inkscape:window-width="1254"
     inkscape:window-height="872"
     inkscape:window-x="98"
     inkscape:window-y="0"
     inkscape:window-maximized="0" />
  <metadata
     id="metadata4506">
    <rdf:RDF>
      <cc:Work
         rdf:about="">
        <dc:format>image/svg+xml</dc:format>
        <dc:type
           rdf:resource="http://purl.org/dc/dcmitype/StillImage" />
        <dc:title></dc:title>
      </cc:Work>
    </rdf:RDF>
  </metadata>
  <g
     inkscape:label="Ebene 1"
     inkscape:groupmode="layer"
     id="layer1">
    <g
       transform="matrix(0.26458333,0,0,0.26458333,86.04628,66.844334)"
       id="bonus_mason">
      <rect
         width="40"
         height="40"
         rx="3"
         ry="3"
         x="80.5"
         y="127.36"
         id="rect5809"
         style="fill:url(#linearGradient5971);fill-rule:nonzero" />
      <rect
         width="35.652"
         height="35.652"
         rx="2.6738999"
         ry="2.6738999"
         x="82.674004"
         y="129.53999"
         id="rect5811"
         style="fill:#041400;stroke:url(#linearGradient5968);stroke-width:1.0491" />
      <path
         d="m 95.37,151.34 -0.51055,1.3815 c 0,0 9.1599,5.8864 14.506,8.1688 5.3458,2.2825 6.4269,2.1623 6.4269,2.1623 l -20.42,-11.71 z"
         id="path5897"
         style="color:#000000;fill:#8b94ab;fill-rule:nonzero;enable-background:accumulate" />
      <path
         d="m 97.142,146.89 c 0,0 -0.90097,1.5917 -1.5317,3.2735 -0.63068,1.6818 -0.63068,2.3125 -0.63068,2.3125 0,0 8.1988,5.0454 11.412,6.6372 3.2135,1.5917 9.28,3.9643 9.28,3.9643 l -15.016,-14.686 -3.5138,-1.5016 z"
         id="path5884"
         style="color:#000000;fill:url(#radialGradient5893);fill-rule:nonzero;enable-background:accumulate" />
      <path
         d="m 97.712,146.86 6.487,-0.39042 c 0,0 7.3579,8.9196 9.28,12.223 1.9221,3.3036 2.1623,4.3247 2.1623,4.3247 0,0 -6.7573,-3.9943 -10.752,-8.7995 -3.9943,-4.8052 -7.1477,-7.3579 -7.1777,-7.3579 z"
         id="path5868"
         style="color:#000000;fill:url(#radialGradient5881);fill-rule:nonzero;enable-background:accumulate" />
      <path
         d="m 95.04,142.69 c 0,0 -5.9164,-5.1656 -7.0576,-6.7272 -1.1412,-1.5617 -1.0511,-2.4326 -0.27029,-3.1234 0.78084,-0.69074 1.3214,-0.63068 2.3125,0.03 0.99107,0.66071 7.1177,7.1477 6.8774,7.8084 -0.24026,0.66071 -1.832,2.0722 -1.862,2.0122 z"
         id="path5954"
         style="color:#000000;fill:url(#radialGradient5962);fill-rule:nonzero;stroke:#2d4262;stroke-width:0.192207;stroke-linecap:round;stroke-linejoin:miter;stroke-miterlimit:4;stroke-dasharray:none;stroke-dashoffset:0;stroke-opacity:0.217391;enable-background:accumulate" />
      <path
         d="m 97.292,144.25 c 0,0 -2.4026,-1.3214 -2.4627,-1.862 -0.06006,-0.54058 1.1713,-1.6067 1.5016,-1.8019 0.33036,-0.19522 0.5556,-0.28532 0.5556,-0.28532 0,0 1.7719,1.9821 1.7569,2.6579 -0.01499,0.67573 -1.3965,1.2614 -1.3515,1.2914 z"
         id="path5944"
         style="color:#000000;fill:url(#linearGradient5952);fill-rule:nonzero;stroke:#2d4262;stroke-width:0.192207;stroke-linecap:round;stroke-linejoin:miter;stroke-miterlimit:4;stroke-dasharray:none;stroke-dashoffset:0;stroke-opacity:0.217391;enable-background:accumulate" />
      <path
         d="m 97.142,144.22 c 0,0 0.33036,-0.7508 0.87094,-1.1112 0.54058,-0.36039 0.69074,-0.45049 0.69074,-0.45049 0,0 0.09005,0.66071 0.02998,1.5917 -0.06006,0.931 -0.90097,2.5227 -0.90097,2.5227 l 1.1713,0.48052 1.4416,2.1323 -4.1745,-1.0511 c 0,0 -0.09005,-1.1112 0.36039,-1.6818 0.45048,-0.57062 0.99107,-1.9221 0.99107,-1.9221 l -0.48052,-0.51056 z"
         id="path5866"
         style="color:#000000;fill:#38425a;fill-rule:nonzero;enable-background:accumulate" />
      <path
         d="m 105.81,152.71 c -0.53814,-0.50273 -1.1385,-0.83342 -1.6901,-0.96245 -0.55159,-0.12902 -1.0782,-0.0337 -1.3921,0.30232 -0.31392,0.33602 -0.35275,0.84594 -0.18656,1.3875 0.1662,0.54155 0.53691,1.1181 1.075,1.6208 0.53813,0.50274 1.1385,0.83343 1.6901,0.96245 0.55157,0.12903 1.0577,0.0556 1.3716,-0.28037 0.31392,-0.33602 0.37324,-0.86789 0.20705,-1.4094 -0.16619,-0.54155 -0.5369,-1.1181 -1.075,-1.6208 z m -0.14351,0.15362 c 0.51631,0.48237 0.87589,1.0362 1.0297,1.5374 0.1538,0.50117 0.10235,0.94628 -0.14988,1.2162 -0.25222,0.26999 -0.67231,0.32961 -1.1828,0.21021 -0.51045,-0.1194 -1.0874,-0.44053 -1.6038,-0.92289 -0.51632,-0.48237 -0.8759,-1.0362 -1.0297,-1.5374 -0.1538,-0.50116 -0.12285,-0.92433 0.12938,-1.1943 0.25223,-0.26998 0.69281,-0.35155 1.2033,-0.23215 0.51044,0.1194 1.0874,0.44053 1.6038,0.92289 z"
         id="path5899"
         style="color:#000000;text-indent:0;text-align:start;text-transform:none;direction:ltr;fill:#2d4262;fill-opacity:0.226087;enable-background:accumulate" />
      <path
         d="m 103.78,152.07 c -0.0906,0.10334 -0.23386,0.13279 -0.34968,0.20073 -0.25384,0.1233 -0.50768,0.24659 -0.76152,0.36988 -0.0729,-0.0138 -0.0683,0.0839 -0.0544,0.1278 0.0204,0.0363 0.10118,0.0855 0.11549,0.033 0.0327,-0.0454 0.11395,-0.0652 0.16461,-0.10119 0.054,-0.0147 0.13813,-0.10601 0.17169,-0.0687 0.0327,0.043 0.0174,0.172 0.0854,0.15141 0.19943,-0.0475 0.39885,-0.095 0.59828,-0.14244 -0.32034,0.20021 -0.6407,0.40043 -0.96104,0.60065 -0.008,0.0466 -0.0463,0.082 -0.031,0.1391 0.0162,0.0675 0.10102,0.0336 0.15101,0.0408 0.4705,-0.30032 0.94102,-0.60065 1.4115,-0.90097 0.10298,0.003 0.0227,-0.0996 4.1e-4,-0.14916 -0.0129,-0.0969 -0.098,-0.0386 -0.16004,-0.0299 -0.20709,0.0497 -0.41418,0.0994 -0.62126,0.1491 0.11012,-0.09 0.22024,-0.18019 0.33036,-0.27029 -0.0434,-0.0408 -0.0255,-0.15023 -0.09,-0.15011 l 2e-4,4.3e-4 z m 0.75081,0.63068 c -0.25028,0.15016 -0.50054,0.30032 -0.75081,0.45048 -0.079,-0.0246 -0.10312,0.0671 -0.16867,0.0867 -0.19007,0.10909 -0.38956,0.20512 -0.57374,0.32239 -0.0162,0.0439 -0.0207,0.11082 0.0273,0.13899 0.0375,0.0486 0.10154,0.0176 0.13383,-0.0186 0.17372,-0.0965 0.34744,-0.19303 0.52117,-0.28954 0.023,0.0531 0.12333,0.10752 0.0749,0.16628 -0.15509,0.16479 -0.31019,0.32959 -0.46529,0.49438 -0.009,0.0465 -0.0559,0.0893 -9.7e-4,0.12949 0.0104,0.0221 0.079,0.0788 0.11271,0.0316 0.056,-0.0108 0.0903,-0.0771 0.13276,-0.12027 0.35891,-0.41412 0.71783,-0.82825 1.0767,-1.2424 -0.0494,-0.042 -0.0869,-0.0969 -0.11975,-0.14954 z m -0.39042,0.45048 c -0.0701,0.0701 -0.14015,0.14015 -0.21023,0.21023 -0.0723,-0.0717 0.0351,-0.0928 0.083,-0.13067 0.0424,-0.0265 0.085,-0.0531 0.12724,-0.0796 z m 0.18019,0.21023 c 0.0807,0.33798 0.13878,0.68104 0.21018,1.0211 -0.29026,3e-5 -0.58081,-4e-5 -0.87089,0 -0.046,0.0304 -0.0723,0.0736 -0.061,0.12949 0.0209,0.0278 0.033,0.0621 0.091,0.0504 0.3604,0.009 0.72067,0.027 1.0812,0.03 0.01,-0.18174 -0.0622,-0.35441 -0.0929,-0.53167 -0.0391,-0.17316 -0.0782,-0.34631 -0.11731,-0.51946 0.30024,0.01 0.60095,0.0243 0.90088,0.03 0.0437,-0.0287 0.0868,-0.0858 0.0481,-0.13506 -0.0345,-0.0577 -0.0976,-0.0456 -0.15583,-0.0472 -0.34439,-0.009 -0.68928,-0.0253 -1.0334,-0.0276 z m 1.5917,0.54058 c -0.2729,0.112 -0.55063,0.21828 -0.81873,0.33821 -0.0378,0.0507 -0.0374,0.12838 -0.0664,0.18948 -0.0855,0.27589 -0.18386,0.54867 -0.26147,0.8265 0.003,0.0472 -0.0629,0.19411 0.0231,0.11878 0.28635,-0.16542 0.5899,-0.2995 0.88339,-0.45192 0.0578,-0.004 0.0213,-0.11897 0.0541,-0.16845 0.0617,-0.28422 0.12954,-0.56746 0.1861,-0.8526 z m -0.21023,0.27029 c -0.0401,0.21023 -0.08,0.42046 -0.12013,0.63068 -0.21023,0.11012 -0.42045,0.22024 -0.63068,0.33036 0.0701,-0.25027 0.14015,-0.50054 0.21023,-0.75081 0.18019,-0.0701 0.36039,-0.14015 0.54058,-0.21023 z m 0.54058,0 c -0.0422,0.0487 -0.0525,0.12038 -0.0964,0.1755 -0.24817,0.43199 -0.49634,0.864 -0.7445,1.296 -0.003,0.0462 -0.0125,0.13307 0.06,0.11994 0.0635,0.016 0.0846,-0.0157 0.11868,-0.0298 0.18189,-0.31857 0.36102,-0.64113 0.54184,-0.96123 -0.0586,0.30787 -0.12883,0.61459 -0.18019,0.92318 -0.009,0.0727 0.10571,0.0566 0.15326,0.0888 0.0461,0.0105 0.0514,-0.10903 0.0914,-0.15014 0.16869,-0.33738 0.33738,-0.67475 0.50607,-1.0121 0.0545,-0.0308 0.0342,-0.10707 -0.0118,-0.13506 -0.0354,-0.0238 -0.10824,-0.0297 -0.13573,0.0115 -0.0179,0.0991 -0.0913,0.18528 -0.13165,0.2792 -0.057,0.10833 -0.11403,0.21667 -0.17105,0.325 0.0601,-0.29031 0.12013,-0.58063 0.18019,-0.87094 -0.06,-0.0199 -0.12034,-0.0403 -0.1801,-0.0599 z"
         id="path5901"
         style="color:#000000;text-indent:0;text-align:start;text-transform:none;direction:ltr;fill:#2d4262;fill-opacity:0.226087;enable-background:accumulate" />
      <path
         d="m 89.363,137.28 c 0,0 1.1713,-2.3425 2.6428,-2.4326"
         id="path5964"
         style="color:#000000;fill:none;stroke:#631a17;stroke-width:0.192207;stroke-linecap:round;stroke-linejoin:miter;stroke-miterlimit:4;stroke-dasharray:none;stroke-dashoffset:0;stroke-opacity:0.265217;enable-background:accumulate" />
      <path
         d="m 85.824,130.52 c -2.0069,0 -1.9772,1.7194 -1.9772,1.7194 l -0.25791,25.358 30.862,-26.734 -28.627,-0.34387 z"
         id="path5823"
         style="color:#000000;fill:#ffffff;fill-opacity:0.517391;fill-rule:nonzero;enable-background:accumulate" />
    </g>
  </g>
</svg>
