<?xml version="1.0" encoding="UTF-8" standalone="no"?>
<svg
   xmlns:dc="http://purl.org/dc/elements/1.1/"
   xmlns:cc="http://creativecommons.org/ns#"
   xmlns:rdf="http://www.w3.org/1999/02/22-rdf-syntax-ns#"
   xmlns:svg="http://www.w3.org/2000/svg"
   xmlns="http://www.w3.org/2000/svg"
   xmlns:xlink="http://www.w3.org/1999/xlink"
   xmlns:sodipodi="http://sodipodi.sourceforge.net/DTD/sodipodi-0.dtd"
   xmlns:inkscape="http://www.inkscape.org/namespaces/inkscape"
   width="10.583333mm"
   height="10.583333mm"
   viewBox="0 0 10.583333 10.583333"
   version="1.1"
   id="svg3149"
   inkscape:version="1.0.1 (3bc2e813f5, 2020-09-07)"
   sodipodi:docname="bonus_power.svg">
  <defs
     id="defs3143">
    <linearGradient
       x1="374.92001"
       y1="62.589001"
       x2="414.92001"
       y2="62.589001"
       id="linearGradient4351"
       xlink:href="#linearGradient5142"
       gradientUnits="userSpaceOnUse"
       gradientTransform="translate(88.060379,-40.527306)" />
    <linearGradient
       id="linearGradient5142">
      <stop
         id="stop5144"
         style="stop-color:#b5eda9;stop-opacity:1"
         offset="0" />
      <stop
         id="stop5146"
         style="stop-color:#71d19c;stop-opacity:1"
         offset="1" />
    </linearGradient>
    <linearGradient
       x1="476.48999"
       y1="15.529"
       x2="494.10999"
       y2="27.908001"
       id="linearGradient4353"
       xlink:href="#linearGradient5170"
       gradientUnits="userSpaceOnUse"
       spreadMethod="reflect" />
    <linearGradient
       id="linearGradient5170">
      <stop
         id="stop5172"
         style="stop-color:#ffffff;stop-opacity:1"
         offset="0" />
      <stop
         id="stop5338"
         style="stop-color:#00ffa1;stop-opacity:1"
         offset="0.24004" />
      <stop
         id="stop5176"
         style="stop-color:#3c704c;stop-opacity:1"
         offset="0.80585003" />
      <stop
         id="stop5174"
         style="stop-color:#35493b;stop-opacity:1"
         offset="1" />
    </linearGradient>
    <linearGradient
       x1="474.57999"
       y1="24.781"
       x2="478.07999"
       y2="24.781"
       id="linearGradient6284"
       xlink:href="#linearGradient6107"
       gradientUnits="userSpaceOnUse"
       gradientTransform="matrix(0.89993094,-0.8077311,0.67285507,0.74965924,35.803499,391.62825)" />
    <linearGradient
       id="linearGradient6107">
      <stop
         id="stop6109"
         style="stop-color:#8c321d;stop-opacity:1"
         offset="0" />
      <stop
         id="stop6115"
         style="stop-color:#e2674a;stop-opacity:1"
         offset="0.5" />
      <stop
         id="stop6117"
         style="stop-color:#e3745b;stop-opacity:1"
         offset="0.75" />
      <stop
         id="stop6111"
         style="stop-color:#ab3418;stop-opacity:1"
         offset="1" />
    </linearGradient>
    <linearGradient
       x1="474.57999"
       y1="24.781"
       x2="478.07999"
       y2="24.781"
       id="linearGradient6280"
       xlink:href="#linearGradient6107"
       gradientUnits="userSpaceOnUse"
       gradientTransform="matrix(1.2092581,0,0,1.0073346,-230.70582,314.8182)" />
    <linearGradient
       x1="474.57999"
       y1="24.781"
       x2="478.07999"
       y2="24.781"
       id="linearGradient6276"
       xlink:href="#linearGradient6107"
       gradientUnits="userSpaceOnUse"
       gradientTransform="matrix(1.2092581,0,0,1.0073346,-226.46622,315.29687)" />
    <linearGradient
       x1="474.57999"
       y1="24.781"
       x2="478.07999"
       y2="24.781"
       id="linearGradient6272"
       xlink:href="#linearGradient6107"
       gradientUnits="userSpaceOnUse"
       gradientTransform="matrix(0.89993094,-0.8077311,0.67285507,0.74965924,38.610322,390.76293)" />
    <linearGradient
       x1="474.57999"
       y1="24.781"
       x2="478.07999"
       y2="24.781"
       id="linearGradient6268"
       xlink:href="#linearGradient6107"
       gradientUnits="userSpaceOnUse"
       gradientTransform="matrix(0.89993094,-0.8077311,0.67285507,0.74965924,41.41443,388.15422)" />
  </defs>
  <sodipodi:namedview
     id="base"
     pagecolor="#ffffff"
     bordercolor="#666666"
     borderopacity="1.0"
     inkscape:pageopacity="0.0"
     inkscape:pageshadow="2"
     inkscape:zoom="0.35"
     inkscape:cx="160"
     inkscape:cy="245.71429"
     inkscape:document-units="mm"
     inkscape:current-layer="layer1"
     inkscape:document-rotation="0"
     showgrid="false"
     inkscape:window-width="1254"
     inkscape:window-height="872"
     inkscape:window-x="24"
     inkscape:window-y="0"
     inkscape:window-maximized="0"
     fit-margin-top="0"
     fit-margin-left="0"
     fit-margin-right="0"
     fit-margin-bottom="0"
     inkscape:pagecheckerboard="true" />
  <metadata
     id="metadata3146">
    <rdf:RDF>
      <cc:Work
         rdf:about="">
        <dc:format>image/svg+xml</dc:format>
        <dc:type
           rdf:resource="http://purl.org/dc/dcmitype/StillImage" />
        <dc:title></dc:title>
      </cc:Work>
    </rdf:RDF>
  </metadata>
  <g
     inkscape:label="Ebene 1"
     inkscape:groupmode="layer"
     id="layer1"
     transform="translate(-63.5,-83.154762)">
    <g
       transform="matrix(0.26458333,0,0,0.26458333,-58.996793,82.609138)"
       id="bonus_power">
      <rect
         width="40"
         height="40"
         rx="3"
         ry="3"
         x="462.98001"
         y="2.0622001"
         id="rect3566-6"
         style="fill:url(#linearGradient4351);fill-rule:nonzero" />
      <rect
         width="35.652"
         height="35.652"
         rx="2.6738999"
         ry="2.6738999"
         x="465.14999"
         y="4.2360001"
         id="rect5150-5"
         style="fill:#041400;stroke:url(#linearGradient4353);stroke-width:1.0491" />
      <path
         d="m 471,15.445 1.2776,-1.1467 c 0.5186,-0.46546 1.1833,-0.56478 1.4903,-0.2227 l 17.9,19.943 c 0.0827,1.7514 -1.6064,2.843 -3.1498,2.8271 l -17.9,-19.943 C 470.31107,16.56062 470.48137,15.91051 471,15.4451 Z"
         id="rect6105"
         style="color:#000000;fill:url(#linearGradient6284);fill-rule:nonzero;enable-background:accumulate" />
      <path
         d="m 145.12,81.3 c 0,0.41421 -0.76252,0.75 -1.7031,0.75 -0.9406,0 -1.7031,-0.33579 -1.7031,-0.75 0,-0.41421 0.76252,-0.75 1.7031,-0.75 0.94061,0 1.7031,0.33579 1.7031,0.75 z"
         transform="matrix(0.94121214,-0.84478296,0.67285507,0.74965924,282.37814,75.540494)"
         id="path6119"
         style="color:#000000;fill:#7b2e1c;fill-rule:nonzero;enable-background:accumulate" />
      <rect
         width="4.2323999"
         height="28.457001"
         rx="1.2578"
         ry="0.82972002"
         x="343.17999"
         y="325.54999"
         transform="rotate(-41.909495)"
         id="rect6121"
         style="color:#000000;fill:url(#linearGradient6280);fill-rule:nonzero;enable-background:accumulate" />
      <path
         d="m 145.12,81.3 c 0,0.41421 -0.76252,0.75 -1.7031,0.75 -0.9406,0 -1.7031,-0.33579 -1.7031,-0.75 0,-0.41421 0.76252,-0.75 1.7031,-0.75 0.94061,0 1.7031,0.33579 1.7031,0.75 z"
         transform="matrix(0.94121214,-0.84478296,0.67285507,0.74965924,285.16785,72.30152)"
         id="path6123"
         style="color:#000000;fill:#5c2013;fill-rule:nonzero;enable-background:accumulate" />
      <rect
         width="4.2323999"
         height="28.457001"
         rx="1.2578"
         ry="0.82972002"
         x="347.42001"
         y="326.03"
         transform="rotate(-41.909495)"
         id="rect6127"
         style="color:#000000;fill:url(#linearGradient6276);fill-rule:nonzero;enable-background:accumulate" />
      <path
         d="m 145.12,81.3 c 0,0.41421 -0.76252,0.75 -1.7031,0.75 -0.9406,0 -1.7031,-0.33579 -1.7031,-0.75 0,-0.41421 0.76252,-0.75 1.7031,-0.75 0.94061,0 1.7031,0.33579 1.7031,0.75 z"
         transform="matrix(0.94121214,-0.84478296,0.67285507,0.74965924,288.64268,69.825869)"
         id="path6129"
         style="color:#000000;fill:#7b2e1c;fill-rule:nonzero;enable-background:accumulate" />
      <path
         d="m 473.8,14.579 1.2776,-1.1467 c 0.5186,-0.46545 1.1833,-0.56478 1.4903,-0.2227 l 17.9,19.943 c 0.0827,1.7514 -1.6064,2.843 -3.1498,2.8271 l -17.9,-19.942 c -0.30703,-0.34208 -0.13671,-0.99218 0.38191,-1.4576 z"
         id="rect6133"
         style="color:#000000;fill:url(#linearGradient6272);fill-rule:nonzero;enable-background:accumulate" />
      <path
         d="m 145.12,81.3 c 0,0.41421 -0.76252,0.75 -1.7031,0.75 -0.9406,0 -1.7031,-0.33579 -1.7031,-0.75 0,-0.41421 0.76252,-0.75 1.7031,-0.75 0.94061,0 1.7031,0.33579 1.7031,0.75 z"
         transform="matrix(0.94121214,-0.84478296,0.67285507,0.74965924,285.18495,74.675163)"
         id="path6135"
         style="color:#000000;fill:#8b3622;fill-rule:nonzero;enable-background:accumulate" />
      <path
         d="m 476.61,11.971 1.2776,-1.1467 c 0.51859,-0.46546 1.1833,-0.56478 1.4903,-0.2227 l 17.9,19.943 c 0.30703,0.34208 -0.15484,1.3189 -0.67343,1.7843 -0.9259,1.0573 -1.2724,1.0552 -2.4763,1.0427 l -17.9,-19.943 c -0.30704,-0.34208 -0.13673,-0.99219 0.3819,-1.4576 z"
         id="rect6139"
         style="color:#000000;fill:url(#linearGradient6268);fill-rule:nonzero;enable-background:accumulate" />
      <path
         d="m 482.74,29.099 8.1349,-7.7241 c 0,0 0.20958,0.72546 0.1502,1.7594 -0.0594,1.0339 -0.0908,2.0418 -0.77367,2.7413 -0.68286,0.69943 -1.3063,1.0339 -1.6923,1.4901 -0.33056,0.39067 -1.0094,1.0035 -1.9298,1.186 -0.92037,0.18246 -1.6329,0.42574 -1.6329,0.42574 l -2.2564,0.12164 h 5e-5 -5e-5 z"
         id="path5251"
         style="fill:#2b0505;fill-opacity:0.4" />
      <path
         d="m 145.12,81.3 c 0,0.41421 -0.76252,0.75 -1.7031,0.75 -0.9406,0 -1.7031,-0.33579 -1.7031,-0.75 0,-0.41421 0.76252,-0.75 1.7031,-0.75 0.94061,0 1.7031,0.33579 1.7031,0.75 z"
         transform="matrix(0.94121214,-0.84478296,0.67285507,0.74965924,287.98906,72.06646)"
         id="path6141"
         style="color:#000000;fill:#983b25;fill-rule:nonzero;enable-background:accumulate" />
      <g
         id="g6206"
         style="fill:none;stroke:#4d4d4d;stroke-width:0.2">
        <path
           d="m 141.55,84.598 c 0,0 -0.0884,-3.8891 -2.5191,-3.2262 -2.4307,0.66291 -4.1984,6.0104 -2.6516,9.325 1.5468,3.3146 2.9831,4.7951 2.9831,4.7951"
           transform="translate(332.95392,-70.330752)"
           id="path6196"
           style="color:#000000;enable-background:accumulate" />
        <path
           d="m 144.69,82.035 c 0,0 -3.2704,-5.0823 -5.7894,-2.2539 -2.5191,2.8284 -4.1542,9.0598 -1.5026,12.684"
           transform="translate(332.95392,-70.330752)"
           id="path6198"
           style="color:#000000;stroke-linecap:round;stroke-linejoin:miter;stroke-miterlimit:4;stroke-dasharray:none;stroke-dashoffset:0;enable-background:accumulate" />
        <path
           d="m 145.09,79.825 c 0,0 -6.1872,-5.1707 -7.5572,-1.8562 -1.37,3.3146 -2.5633,10.562 0,14.805"
           transform="translate(332.95392,-70.330752)"
           id="path6200"
           style="color:#000000;stroke-linecap:round;stroke-linejoin:miter;stroke-miterlimit:4;stroke-dasharray:none;stroke-dashoffset:0;enable-background:accumulate" />
        <path
           d="m 142.13,82.079 c 0,0 -2.1655,-5.5243 -4.11,-3.3588 -1.9446,2.1655 -3.2704,9.1482 -0.26517,14.584"
           transform="translate(332.95392,-70.330752)"
           id="path6202"
           style="color:#000000;stroke-linecap:round;stroke-linejoin:miter;stroke-miterlimit:4;stroke-dasharray:none;stroke-dashoffset:0;enable-background:accumulate" />
        <path
           d="m 139.08,85.394 c 0,0 1.9445,-6.5407 -0.66292,-6.7175 -2.6074,-0.17678 -3.8007,9.9437 -0.88388,14.496"
           transform="translate(332.95392,-70.330752)"
           id="path6204"
           style="color:#000000;stroke-linecap:round;stroke-linejoin:miter;stroke-miterlimit:4;stroke-dasharray:none;stroke-dashoffset:0;enable-background:accumulate" />
      </g>
      <path
         d="m 468.3,5.2237 c -2.0069,0 -1.9772,1.7194 -1.9772,1.7194 l -0.25,25.358 30.86,-26.733 -28.63,-0.3439 z"
         id="path5427-0"
         style="color:#000000;fill:#ffffff;fill-opacity:0.552174;fill-rule:nonzero;enable-background:accumulate" />
      <path
         d="m 144.95,95.373 c 0,0 4.6143,-1.7191 6.5518,-4.0941 1.9375,-2.375 2.75,-4.6041 2.75,-4.6041 l 4,4.6616 c 0,0 0.44064,3.6313 -2.8719,6.0063 -3.31,2.375 -6.38,2.582 -6.38,2.582 l -4.0518,-4.5518 z"
         transform="translate(332.95392,-70.330752)"
         id="path6286"
         style="color:#000000;fill:#202020;stroke:#4d4d4d;stroke-width:0.2;stroke-linecap:round;stroke-linejoin:miter;stroke-miterlimit:4;stroke-dasharray:none;stroke-dashoffset:0;enable-background:accumulate" />
      <path
         d="m 486.07,27.43 c -0.75,-0.90625 -2.742,-3.853 -2.742,-3.853 l 0.83782,-0.59547 3.5036,1.4361 c 0,0 -1.7254,-1.3894 -2.4754,-2.4519 l 0.60932,-0.87569 c 0.75,0.96875 3.6179,3.888 3.6179,3.888 l -0.6855,0.66552 c -0.8125,0.03125 -3.4274,-1.0508 -3.4274,-1.0508 0.84375,1.25 1.7518,2.4169 1.7518,2.4169 l -0.99015,0.42033 z"
         id="path5245"
         style="fill:#cbc2c2" />
      <path
         d="m 479.9,25.379 c 1.0625,-0.34375 2.9471,-1.4545 2.9471,-1.4545 0,0 0.23094,0.6511 0.63719,0.93235 l -1.4735,0.634 c 0.375,0.96875 2.0311,2.7598 2.0311,2.7598 l -0.75668,0.33565 c 0,0 -1.4202,-1.672 -1.9514,-2.797 l -0.7965,0.29835 c -0.34375,-0.15625 -0.63721,-0.70858 -0.63721,-0.70858 z"
         id="path5247"
         style="fill:#9f9c9c" />
      <path
         d="m 486.23,20.792 0.71686,0.70859 c 0,0 0.55755,-0.5805 0.55755,-1.268 0,0 2.2394,2.0087 2.7081,2.9462 l 0.15931,-0.85776 c -0.21875,-0.71875 -2.5886,-2.7225 -2.5886,-2.7225 0,0 0.21322,-0.45859 0.30697,-0.83359 l -0.51773,-0.33564 c 0,0 -0.71743,1.8939 -1.3424,2.3626 z"
         id="path5249"
         style="fill:#918e8e" />
    </g>
  </g>
</svg>
