<?xml version="1.0" encoding="UTF-8" standalone="no"?>
<svg
   xmlns:dc="http://purl.org/dc/elements/1.1/"
   xmlns:cc="http://creativecommons.org/ns#"
   xmlns:rdf="http://www.w3.org/1999/02/22-rdf-syntax-ns#"
   xmlns:svg="http://www.w3.org/2000/svg"
   xmlns="http://www.w3.org/2000/svg"
   xmlns:xlink="http://www.w3.org/1999/xlink"
   xmlns:sodipodi="http://sodipodi.sourceforge.net/DTD/sodipodi-0.dtd"
   xmlns:inkscape="http://www.inkscape.org/namespaces/inkscape"
   width="210mm"
   height="297mm"
   viewBox="0 0 210 297"
   version="1.1"
   id="svg365"
   inkscape:version="1.0.2-2 (e86c870879, 2021-01-15)"
   sodipodi:docname="player1_death.svg">
  <defs
     id="defs359">
    <radialGradient
       inkscape:collect="always"
       xlink:href="#linearGradient4740"
       id="radialGradient214"
       gradientUnits="userSpaceOnUse"
       gradientTransform="matrix(1.04008,0.10629,-0.07693,0.50622,-2.19756,9.30497)"
       cx="24.828608"
       cy="19.45216"
       fx="24.828608"
       fy="19.45216"
       r="6.9342494" />
    <linearGradient
       id="linearGradient4740">
      <stop
         id="stop4742"
         offset="0"
         style="stop-color:#730e0e" />
      <stop
         id="stop4744"
         offset="1"
         style="stop-color:#ba1f1f" />
    </linearGradient>
    <radialGradient
       inkscape:collect="always"
       xlink:href="#linearGradient4740"
       id="radialGradient228"
       gradientUnits="userSpaceOnUse"
       gradientTransform="matrix(1.04008,0.10629,-0.07693,0.50622,-2.19756,9.30497)"
       cx="24.828608"
       cy="19.45216"
       fx="24.828608"
       fy="19.45216"
       r="6.9342494" />
    <radialGradient
       inkscape:collect="always"
       xlink:href="#linearGradient37616"
       id="radialGradient246"
       gradientUnits="userSpaceOnUse"
       gradientTransform="matrix(1,0,0,0.82857,-22.72235,-165.96685)"
       cx="46.222408"
       cy="242.37999"
       fx="46.222408"
       fy="242.37999"
       r="17.5" />
    <linearGradient
       id="linearGradient37616">
      <stop
         id="stop37618"
         offset="0"
         style="stop-color:#1919c4" />
      <stop
         id="stop37620"
         offset="1"
         style="stop-color:#000040" />
    </linearGradient>
    <radialGradient
       cx="46.222408"
       cy="242.37999"
       fx="46.222408"
       fy="242.37999"
       gradientTransform="matrix(1,0,0,0.82857,-22.72235,-165.96685)"
       gradientUnits="userSpaceOnUse"
       id="radialGradient4608-6"
       inkscape:collect="always"
       r="17.5"
       xlink:href="#linearGradient4625" />
    <linearGradient
       id="linearGradient4625">
      <stop
         id="stop4627"
         offset="0" />
      <stop
         id="stop4631"
         offset="0.5" />
      <stop
         id="stop4633"
         offset="0.75"
         style="stop-opacity:0.75294119" />
      <stop
         id="stop4629"
         offset="1"
         style="stop-opacity:0" />
    </linearGradient>
    <radialGradient
       cx="166.03752"
       cy="102.89685"
       fx="166.03752"
       fy="102.89685"
       gradientTransform="matrix(1,0,0,4.45504,0,-355.51235)"
       gradientUnits="userSpaceOnUse"
       id="radialGradient4700"
       inkscape:collect="always"
       r="2.2716911"
       xlink:href="#linearGradient4694" />
    <linearGradient
       id="linearGradient4694"
       inkscape:collect="always">
      <stop
         id="stop4696"
         offset="0"
         style="stop-color:#d90000" />
      <stop
         id="stop4698"
         offset="1"
         style="stop-opacity:0;stop-color:#d90000" />
    </linearGradient>
    <radialGradient
       cx="166.03752"
       cy="102.89685"
       fx="166.03752"
       fy="102.89685"
       gradientTransform="matrix(1,0,0,4.45504,0,-355.51235)"
       gradientUnits="userSpaceOnUse"
       id="radialGradient4702"
       inkscape:collect="always"
       r="2.2716911"
       xlink:href="#linearGradient4694" />
  </defs>
  <sodipodi:namedview
     id="base"
     pagecolor="#ffffff"
     bordercolor="#666666"
     borderopacity="1.0"
     inkscape:pageopacity="0.0"
     inkscape:pageshadow="2"
     inkscape:zoom="0.98994949"
     inkscape:cx="188.91389"
     inkscape:cy="325.62725"
     inkscape:document-units="mm"
     inkscape:current-layer="layer1"
     inkscape:document-rotation="0"
     showgrid="false"
     inkscape:window-width="1254"
     inkscape:window-height="1040"
     inkscape:window-x="26"
     inkscape:window-y="0"
     inkscape:window-maximized="0" />
  <metadata
     id="metadata362">
    <rdf:RDF>
      <cc:Work
         rdf:about="">
        <dc:format>image/svg+xml</dc:format>
        <dc:type
           rdf:resource="http://purl.org/dc/dcmitype/StillImage" />
        <dc:title></dc:title>
      </cc:Work>
    </rdf:RDF>
  </metadata>
  <g
     inkscape:label="Ebene 1"
     inkscape:groupmode="layer"
     id="layer1">
    <g
       id="g281"
       transform="matrix(0.26458333,0,0,0.26458333,-35.520088,-4.1334945)">
      <g
         id="player_death">
        <rect
           height="35"
           id="rect4115-7-8-6-83"
           ry="0"
           style="fill:#ff00ff;fill-opacity:0"
           width="35"
           x="172"
           y="45" />
        <g
           id="use3532-7"
           transform="matrix(0.99452,-0.10453,0.10453,0.99452,163.83306,30.26731)">
          <g
             id="g210"
             transform="matrix(0.99939,-0.0349,0.0349,0.99939,-0.74667,0.78157)">
            <rect
               height="8.0215454"
               id="rect202"
               rx="6"
               ry="4"
               transform="matrix(0.99483,0.10153,-0.14827,0.98895,0,0)"
               width="15.667521"
               x="17.194677"
               y="15.441989" />
            <rect
               height="7.6634331"
               id="rect204"
               rx="5.7321362"
               ry="3.8214242"
               style="fill:#dedede"
               transform="matrix(0.99483,0.10153,-0.14827,0.98895,0,0)"
               width="14.968062"
               x="17.544407"
               y="15.621045" />
            <path
               d="m 24.363025,18.442831 -3.382517,-0.324095 c -3.060248,-0.312741 -5.760601,0.974802 -6.055354,2.914258 l -0.0033,0.03108 c -0.294753,1.939455 1.931946,3.76266 4.992194,4.075402 l 3.382517,0.324094 c 0.956328,0.09773 1.853961,0.03036 2.677647,-0.158478 l 0.659836,-6.277919 c -0.676157,-0.28045 -1.436758,-0.49908 -2.271056,-0.584341 z"
               id="path206"
               inkscape:connector-curvature="0"
               style="fill:url(#radialGradient214)" />
            <path
               d="M 39.113106,71.627162 38.585302,67.015815 37.335238,71.775318 36.751875,66.87692 35.52033,71.886435 34.788812,66.821361"
               id="path208"
               inkscape:connector-curvature="0"
               sodipodi:nodetypes="cccccc"
               style="fill:none;stroke:#dedede"
               transform="matrix(0.99452,0.10453,-0.10453,0.99452,-6.51387,-51.22885)" />
          </g>
        </g>
        <g
           id="use3534-461"
           transform="matrix(0.99452,0.10453,-0.10453,0.99452,171.12136,25.39059)">
          <g
             id="g224"
             transform="matrix(0.99939,0.0349,0.0349,-0.99939,-0.75047,68.94412)">
            <rect
               height="8.0215454"
               id="rect216"
               rx="6"
               ry="4"
               transform="matrix(0.99483,0.10153,-0.14827,0.98895,0,0)"
               width="15.667521"
               x="17.194677"
               y="15.441989" />
            <rect
               height="7.6634331"
               id="rect218"
               rx="5.7321362"
               ry="3.8214242"
               style="fill:#dedede"
               transform="matrix(0.99483,0.10153,-0.14827,0.98895,0,0)"
               width="14.968062"
               x="17.544407"
               y="15.621045" />
            <path
               d="m 24.363025,18.442831 -3.382517,-0.324095 c -3.060248,-0.312741 -5.760601,0.974802 -6.055354,2.914258 l -0.0033,0.03108 c -0.294753,1.939455 1.931946,3.76266 4.992194,4.075402 l 3.382517,0.324094 c 0.956328,0.09773 1.853961,0.03036 2.677647,-0.158478 l 0.659836,-6.277919 c -0.676157,-0.28045 -1.436758,-0.49908 -2.271056,-0.584341 z"
               id="path220"
               inkscape:connector-curvature="0"
               style="fill:url(#radialGradient228)" />
            <path
               d="M 39.113106,71.627162 38.585302,67.015815 37.335238,71.775318 36.751875,66.87692 35.52033,71.886435 34.788812,66.821361"
               id="path222"
               inkscape:connector-curvature="0"
               sodipodi:nodetypes="cccccc"
               style="fill:none;stroke:#dedede"
               transform="matrix(0.99452,0.10453,-0.10453,0.99452,-6.51387,-51.22885)" />
          </g>
        </g>
        <g
           id="use4801"
           transform="translate(165.9999,27.6378)">
          <rect
             height="29"
             id="rect230"
             rx="14.5"
             style="fill:url(#radialGradient246)"
             width="35"
             x="6.0000558"
             y="20.362209" />
          <g
             id="g236"
             transform="matrix(0.88807,-0.52021,0.51273,0.90103,-12.04818,20.97091)">
            <ellipse
               id="ellipse232"
               style="fill:#ffffff"
               transform="matrix(1.57269,0,0,1.32893,-42.86456,-52.62696)"
               cx="49.817196"
               cy="59.101128"
               rx="1.3238137"
               ry="1.8812089" />
            <ellipse
               id="ellipse234"
               transform="matrix(1,0,0,1.04167,-15.69659,-32.88622)"
               cx="51.489384"
               cy="56.801872"
               rx="1.4631624"
               ry="1.6721857" />
          </g>
          <g
             id="g242"
             transform="matrix(0.88807,0.52021,0.51273,-0.90103,-12.04818,48.75351)">
            <ellipse
               id="ellipse238"
               style="fill:#ffffff"
               transform="matrix(1.57269,0,0,1.32893,-42.86456,-52.62696)"
               cx="49.817196"
               cy="59.101128"
               rx="1.3238137"
               ry="1.8812089" />
            <ellipse
               id="ellipse240"
               transform="matrix(1,0,0,1.04167,-15.69659,-32.88622)"
               cx="51.489384"
               cy="56.801872"
               rx="1.4631624"
               ry="1.6721857" />
          </g>
        </g>
        <g
           id="torso-4"
           transform="translate(165.9999,27.6378)">
          <rect
             height="29"
             id="rect4105-7-1-6"
             rx="14.5"
             style="fill:url(#radialGradient4608-6)"
             width="35"
             x="6.0000558"
             y="20.362209" />
          <g
             id="eye-0"
             transform="matrix(0.88807,-0.52021,0.51273,0.90103,-12.04818,20.97091)">
            <ellipse
               id="path4217-8"
               style="fill:#ffffff"
               transform="matrix(1.57269,0,0,1.32893,-42.86456,-52.62696)"
               cx="49.817196"
               cy="59.101128"
               rx="1.3238137"
               ry="1.8812089" />
            <ellipse
               id="path5458-7"
               style="fill:#7f0000"
               transform="matrix(1,0,0,1.04167,-15.69659,-32.88622)"
               cx="51.489384"
               cy="56.801872"
               rx="0.34947541"
               ry="1.6721857" />
            <ellipse
               id="path5458-7-7"
               style="fill:#7f0000"
               transform="matrix(-0.08455,-0.99028,1.0466,-0.062,-19.41054,80.83658)"
               cx="51.489384"
               cy="56.801872"
               rx="0.34947541"
               ry="1.6721857" />
            <ellipse
               id="path4217-8-4"
               style="fill:#ffffff"
               transform="matrix(0.78635,1.36199,1.15089,-0.66447,-80.36017,12.31734)"
               cx="49.817196"
               cy="59.101128"
               rx="1.3238137"
               ry="1.8812089" />
            <ellipse
               id="path5458-7-5"
               style="fill:#7f0000"
               transform="matrix(0.5,0.86603,0.90211,-0.52083,-49.68021,25.97512)"
               cx="51.489384"
               cy="56.801872"
               rx="0.34947541"
               ry="1.6721857" />
            <ellipse
               id="path5458-7-7-7"
               style="fill:#7f0000"
               transform="matrix(-0.89988,0.42192,0.46961,0.93738,46.94965,-34.10265)"
               cx="51.489384"
               cy="56.801872"
               rx="0.34947541"
               ry="1.6721857" />
          </g>
          <ellipse
             id="path4674"
             style="fill:url(#radialGradient4700)"
             transform="matrix(0.74436,-0.81234,0.8337,0.72528,-185.8768,95.11174)"
             cx="166.03752"
             cy="102.89685"
             rx="2.2716911"
             ry="10.120466" />
          <ellipse
             id="path4674-3"
             style="fill:url(#radialGradient4702)"
             transform="matrix(0.74436,0.81234,0.8337,-0.72528,-185.8768,-25.38732)"
             cx="166.03752"
             cy="102.89685"
             rx="2.2716911"
             ry="10.120466" />
        </g>
      </g>
    </g>
  </g>
</svg>
