<?xml version="1.0" encoding="UTF-8" standalone="no"?>
<svg>
 <g
 id="arena_ground">
 <rect
 width="39.506001"
 height="39.506001"
 rx="3"
 ry="3"
 x="30.247"
 y="12.609"
 id="rect3984"
 style="fill:#cfcfcf;fill-rule:nonzero" />
 <path
 d="m 30.516,45.707 c 1.6483,-0.54132 3.4545,-1.497 3.9688,-3.287 -0.04231,-1.8029 -1.164,-3.7285 -0.13242,-5.4421 1.705,-1.3364 3.8003,1.5104 2.4055,2.9819 3.5929,6.3127 12.185,-0.95497 15.262,-5.2791 0.43939,-1.046 0.1039,-3.2923 1.3974,-3.394 1.6538,3.1726 0.16036,7.6174 -3.2351,8.9209 -4.1776,2.3135 -8.8939,3.4173 -13.095,5.6803 -1.5885,-0.2705 -3.1551,2.0147 -1.9093,3.241 2.3668,1.3389 5.2083,0.98195 7.8206,1.1581 3.6229,-0.03087 7.2703,-1.4611 9.7171,-4.1785 1.5233,-1.3935 2.9713,-2.867 4.5069,-4.2472 0.60586,1.3216 -0.96055,2.2322 -1.2559,3.412 -0.45925,0.87406 -0.91851,1.7481 -1.3778,2.6222 1.7163,-2.0456 3.4851,-4.2311 5.999,-5.3185 1.6296,0.55606 1.3236,2.7071 0.58819,3.8717 -0.91918,1.7863 1.8771,2.3548 2.259,0.61781 0.18291,-2.001 3.0118,-0.83955 2.1873,0.72386 -0.97451,1.3886 -2.5163,2.3087 -4.002,3.077 -1.5243,1.1938 -2.8996,-0.10791 -3.2766,-1.6422 -2.5914,-1.8444 -6.1571,1.6928 -9.199,2.4164 -4.0987,0.8523 -8.294,0.18397 -12.428,0.05339 -1.6335,-0.42903 -4.74,0.38711 -4.9011,-1.9926 -0.36774,-1.6001 2.983,-3.1405 0.83361,-4.239 -0.73752,-0.28972 -1.4426,-0.01041 -2.1327,0.24365 z"
 id="path5219"
 style="fill:#9e9e9e;fill-opacity:0.14782607" />
 <path
 d="m 32.096,19.082 c 1.6615,-1.2563 3.3231,-2.5126 4.9846,-3.7689 -0.97452,1.4166 -2.0077,2.8857 -2.3081,4.6161 3.6748,1.6778 7.96,-2.4976 10.94,-4.6161 -1.4994,0.81051 -2.9989,1.621 -4.4983,2.4315 0.87249,-2.8379 3.8035,-4.4331 6.571,-4.8899 4.2542,-0.77698 8.57,0.12267 12.85,-0.16877 -0.15093,1.4952 -1.9031,1.6735 -2.9236,2.3646 -2.7998,1.6996 -5.7868,3.2781 -7.9264,5.8263 -0.32045,1.1651 -0.93385,2.9877 -2.4651,2.7141 -1.3494,-0.48818 -1.382,-2.4973 -0.38735,-3.3617 1.7762,-2.0349 4.0112,-3.7145 6.5671,-4.6299 0.56447,-1.5931 -1.714,-1.5406 -2.7061,-1.4122 -1.3884,-0.12733 -2.8517,0.51139 -3.6015,1.7073 -5.3736,2.9482 -10.523,6.302 -16.017,9.0434 1.6971,-1.38 3.4532,-2.6849 5.1759,-4.0323 -3.1471,2.134 -1.1979,-3.9955 -4.2552,-1.8236 z"
 id="path5221"
 style="fill:#9e9e9e;fill-opacity:0.09130435" />
 <path
 d="m 67.475,17.137 c 0,0 -4.2552,3.5257 -3.5257,3.6473 0.72946,0.12158 2.7963,-1.2158 2.7963,-1.2158 0.20801,3.8104 -6.5462,2.4004 -8.1456,5.8357 -0.24315,1.8236 7.4162,-2.7963 7.4162,-2.7963 l -2.9178,3.8905 c 0,0 3.7689,-2.1884 4.3768,-4.7415 0.60788,-2.5531 -0.72946,-3.4041 0,-4.6199 z"
 id="path5223"
 style="fill:#9e9e9e;fill-opacity:0.14782607" />
 <path
 d="m 30.394,29.173 8.6319,-5.1062 c 0,0 -2.4315,1.5805 -4.3768,3.5257 -1.9452,1.9452 3.161,0.12158 3.161,0.12158 -1.9851,2.6826 -5.1241,1.8704 -7.7809,3.0394 l 0.36473,-1.5805 z"
 id="path5227"
 style="fill:#858585;fill-opacity:0.23913042" />
 <path
 d="m 33.355,35.536 c 0,0 6.5335,-2.4071 5.8458,0 -0.68774,2.4071 -0.51581,5.8458 0.17194,5.5019 0.68774,-0.34387 4.6423,-6.5335 2.0632,-7.5652 -2.579,-1.0316 -8.4248,1.7194 -8.081,2.0632 z"
 id="path5229"
 style="fill:#ffffff;fill-opacity:0.12173911" />
 <path
 d="m 62.624,33.071 c 0,0 0.7627,1.0929 0.7627,3.2788 0,2.1859 -0.98062,4.2351 -0.98062,4.2351 0,0 2.506,-2.5957 2.1791,-4.5083 -0.32687,-1.9126 -1.9612,-3.1422 -1.9612,-3.0056 z"
 id="path5231"
 style="fill:#ffffff;fill-opacity:0.10434786" />
 <path
 d="m 60.561,28.831 c 0,0 1.364,5.1581 0.68201,7.3932 -0.68201,2.2352 -1.7537,5.6739 -1.7537,5.6739 0,0 2.9229,-3.2668 2.9229,-6.0177 0,-2.751 -1.9486,-7.2213 -1.8512,-7.0494 z"
 id="path5233"
 style="fill:#ffffff;fill-opacity:0.19130435" />
 <path
 d="m 42.038,13.701 c 0,0 -4.6423,2.4931 -5.0721,3.5247 -0.42984,1.0316 3.7826,-0.42984 3.7826,-0.42984 l -2.665,0.08597 3.9545,-3.1808 z"
 id="path5235"
 style="fill:#ffffff;fill-opacity:0.30869565" />
 <path
 d="m 68.172,21.868 c 0,0 0,1.6334 -1.2895,2.579 -1.2895,0.94564 -5.1581,4.2124 -3.4387,4.0405 1.7194,-0.17194 5.5019,-3.4387 5.5019,-3.4387 0,0 -2.579,2.0632 -2.8369,1.6334 -0.2579,-0.42984 2.4071,-3.5247 2.0632,-4.8142 z"
 id="path5237"
 style="fill:#ffffff;fill-opacity:0.30869565" />
 <path
 d="m 65.937,12.841 c 0,0 2.1492,-0.42984 2.3211,0.60177 0.17194,1.0316 -5.244,2.665 -6.5335,3.4387 -1.2895,0.77371 -3.2668,1.5474 -3.2668,1.5474 0,0 3.8685,-2.665 5.9318,-3.3527 2.0632,-0.68774 2.4931,-1.2895 2.4931,-1.2895 l -7.6511,2.4071 5.1581,-3.0089 -1.3755,1.2895 c 0,0 2.751,-1.0316 2.9229,-1.6334 z"
 id="path5239"
 style="fill:#ffffff;fill-opacity:0.13478262" />
 <rect
 width="39.506001"
 height="39.506001"
 rx="3"
 ry="3"
 x="30.247"
 y="12.609"
 id="arena_ground_old"
 style="color:#000000;fill:none;stroke:#9d9d9d;stroke-width:0.49383;stroke-linecap:round;stroke-linejoin:miter;stroke-miterlimit:4;stroke-dasharray:none;stroke-dashoffset:0;enable-background:accumulate" />
 </g>
</svg>
