<?xml version="1.0" encoding="UTF-8" standalone="no"?>
<svg
   xmlns:dc="http://purl.org/dc/elements/1.1/"
   xmlns:cc="http://creativecommons.org/ns#"
   xmlns:rdf="http://www.w3.org/1999/02/22-rdf-syntax-ns#"
   xmlns:svg="http://www.w3.org/2000/svg"
   xmlns="http://www.w3.org/2000/svg"
   xmlns:sodipodi="http://sodipodi.sourceforge.net/DTD/sodipodi-0.dtd"
   xmlns:inkscape="http://www.inkscape.org/namespaces/inkscape"
   width="10.610246mm"
   height="10.583288mm"
   viewBox="0 0 10.610246 10.583288"
   version="1.1"
   id="svg2670"
   inkscape:version="1.0.1 (3bc2e813f5, 2020-09-07)"
   sodipodi:docname="arena_arrow_right.svg">
  <defs
     id="defs2664">
    <linearGradient
       x1="300"
       y1="32.375"
       x2="310"
       y2="32.375"
       id="linearGradient5200-8"
       gradientUnits="userSpaceOnUse"
       gradientTransform="translate(-0.493147,0.16978464)"
       spreadMethod="reflect">
      <stop
         id="stop5173-7"
         style="stop-color:#a6ffb4;stop-opacity:1"
         offset="0" />
      <stop
         id="stop5178-0"
         style="stop-color:#00bd12;stop-opacity:1"
         offset="1" />
    </linearGradient>
  </defs>
  <sodipodi:namedview
     id="base"
     pagecolor="#ffffff"
     bordercolor="#666666"
     borderopacity="1.0"
     inkscape:pageopacity="0.0"
     inkscape:pageshadow="2"
     inkscape:zoom="0.35"
     inkscape:cx="174.33657"
     inkscape:cy="122.85706"
     inkscape:document-units="mm"
     inkscape:current-layer="layer1"
     inkscape:document-rotation="0"
     showgrid="false"
     inkscape:window-width="1368"
     inkscape:window-height="850"
     inkscape:window-x="-6"
     inkscape:window-y="-6"
     inkscape:window-maximized="1"
     fit-margin-top="0"
     fit-margin-left="0"
     fit-margin-right="0"
     fit-margin-bottom="0"
     inkscape:pagecheckerboard="true" />
  <metadata
     id="metadata2667">
    <rdf:RDF>
      <cc:Work
         rdf:about="">
        <dc:format>image/svg+xml</dc:format>
        <dc:type
           rdf:resource="http://purl.org/dc/dcmitype/StillImage" />
        <dc:title></dc:title>
      </cc:Work>
    </rdf:RDF>
  </metadata>
  <g
     inkscape:label="Ebene 1"
     inkscape:groupmode="layer"
     id="layer1"
     transform="translate(-59.706782,-115.66074)">
    <g
       transform="matrix(0,0.26458333,-0.26458333,0,73.587829,41.576588)"
       id="arena_arrow_right">
      <rect
         width="39.506001"
         height="39.506001"
         rx="3"
         ry="3"
         x="280.25"
         y="12.609"
         id="arena_ground-6-7"
         style="fill:#cfcfcf;fill-rule:nonzero;stroke:#9d9d9d;stroke-width:0.49383;stroke-linecap:round;stroke-linejoin:miter;stroke-miterlimit:4;stroke-dasharray:none;stroke-dashoffset:0" />
      <path
         d="m 313.38,51.978 c -0.54132,-1.6483 -1.497,-3.4545 -3.287,-3.9688 -1.8029,0.0423 -3.7285,1.164 -5.4421,0.13242 -1.3364,-1.705 1.5104,-3.8002 2.9819,-2.4055 6.3127,-3.5929 -0.95497,-12.185 -5.2791,-15.262 -1.046,-0.4394 -3.2923,-0.10391 -3.394,-1.3974 3.1726,-1.6538 7.6174,-0.16036 8.9209,3.2351 2.3135,4.1776 3.4172,8.8939 5.6803,13.095 -0.27049,1.5885 2.0147,3.1551 3.241,1.9093 1.3389,-2.3668 0.98195,-5.2083 1.158,-7.8206 -0.0309,-3.6229 -1.4611,-7.2703 -4.1785,-9.7171 -1.3935,-1.5233 -2.867,-2.9713 -4.2472,-4.5069 1.3216,-0.60586 2.2322,0.96056 3.412,1.2559 0.87406,0.45926 1.7481,0.91851 2.6222,1.3778 -2.0456,-1.7164 -4.2311,-3.4851 -5.3185,-5.999 0.55606,-1.6296 2.7071,-1.3236 3.8717,-0.58819 1.7863,0.91918 2.3548,-1.8771 0.61781,-2.259 -2.001,-0.18291 -0.83955,-3.0118 0.72386,-2.1873 1.3886,0.97451 2.3087,2.5163 3.077,4.002 1.1938,1.5243 -0.1079,2.8996 -1.6422,3.2766 -1.8444,2.5914 1.6928,6.1571 2.4164,9.199 0.8523,4.0987 0.18397,8.294 0.0534,12.428 -0.42903,1.6335 0.38711,4.74 -1.9926,4.9011 -1.6001,0.36775 -3.1405,-2.983 -4.239,-0.8336 -0.28972,0.73752 -0.0104,1.4426 0.24365,2.1327 z"
         id="path5219-2-5"
         style="fill:#9e9e9e;fill-opacity:0.147826" />
      <path
         d="m 286.76,50.397 c -1.2563,-1.6616 -2.5126,-3.3231 -3.7689,-4.9846 1.4166,0.97452 2.8857,2.0077 4.6161,2.3081 1.6778,-3.6748 -2.4976,-7.96 -4.6161,-10.94 0.81052,1.4994 1.621,2.9989 2.4315,4.4983 -2.8379,-0.87249 -4.4331,-3.8035 -4.8899,-6.571 -0.77698,-4.2542 0.12268,-8.57 -0.16877,-12.85 1.4952,0.15093 1.6735,1.9031 2.3646,2.9236 1.6996,2.7998 3.2781,5.7868 5.8263,7.9264 1.1651,0.32045 2.9877,0.93385 2.7141,2.4651 -0.48818,1.3494 -2.4973,1.382 -3.3617,0.38736 -2.0349,-1.7762 -3.7145,-4.0112 -4.6299,-6.5671 -1.5931,-0.56446 -1.5406,1.714 -1.4122,2.7061 -0.12733,1.3884 0.51139,2.8517 1.7073,3.6015 2.9482,5.3736 6.302,10.523 9.0434,16.017 -1.38,-1.6971 -2.6849,-3.4532 -4.0323,-5.1759 2.134,3.1471 -3.9955,1.1979 -1.8236,4.2552 z"
         id="path5221-9-2"
         style="fill:#9e9e9e;fill-opacity:0.0913043" />
      <path
         d="m 284.81,15.018 c 0,0 3.5257,4.2552 3.6473,3.5257 0.12157,-0.72946 -1.2158,-2.7963 -1.2158,-2.7963 3.8104,-0.20801 2.4004,6.5462 5.8357,8.1456 1.8236,0.24315 -2.7963,-7.4162 -2.7963,-7.4162 l 3.8904,2.9178 c 0,0 -2.1884,-3.7689 -4.7415,-4.3768 -2.5531,-0.60788 -3.4042,0.72946 -4.6199,0 z"
         id="path5223-7-6"
         style="fill:#9e9e9e;fill-opacity:0.147826" />
      <path
         d="m 296.85,52.099 -5.1062,-8.6319 c 0,0 1.5805,2.4315 3.5257,4.3768 1.9452,1.9452 0.12158,-3.161 0.12158,-3.161 2.6826,1.9851 1.8704,5.1241 3.0394,7.7809 l -1.5805,-0.36473 z"
         id="path5227-7-1"
         style="fill:#858585;fill-opacity:0.23913" />
      <path
         d="m 303.21,49.138 c 0,0 -2.4071,-6.5335 0,-5.8458 2.4071,0.68774 5.8458,0.5158 5.5019,-0.17194 -0.34387,-0.68774 -6.5335,-4.6422 -7.5652,-2.0632 -1.0316,2.579 1.7194,8.4248 2.0632,8.081 z"
         id="path5229-6-1"
         style="fill:#ffffff;fill-opacity:0.121739" />
      <path
         d="m 300.75,19.87 c 0,0 1.0929,-0.7627 3.2788,-0.7627 2.1859,0 4.2351,0.98062 4.2351,0.98062 0,0 -2.5957,-2.506 -4.5083,-2.1792 -1.9126,0.32687 -3.1422,1.9612 -3.0056,1.9612 z"
         id="path5231-8-7"
         style="fill:#ffffff;fill-opacity:0.104348" />
      <path
         d="m 296.51,21.932 c 0,0 5.1581,-1.364 7.3932,-0.68202 2.2352,0.68202 5.6739,1.7538 5.6739,1.7538 0,0 -3.2668,-2.9229 -6.0177,-2.9229 -2.751,0 -7.2213,1.9486 -7.0494,1.8512 z"
         id="path5233-1-8"
         style="fill:#ffffff;fill-opacity:0.191304" />
      <path
         d="m 281.38,40.455 c 0,0 2.4931,4.6423 3.5247,5.0721 1.0316,0.42984 -0.42983,-3.7826 -0.42983,-3.7826 l 0.086,2.665 -3.1808,-3.9545 z"
         id="path5235-2-8"
         style="fill:#ffffff;fill-opacity:0.308696" />
      <path
         d="m 289.54,14.321 2.579,1.2895 c 0.94564,1.2895 4.2124,5.1581 4.0405,3.4387 -0.17194,-1.7194 -3.4387,-5.5019 -3.4387,-5.5019 0,0 2.0632,2.579 1.6334,2.8369 -0.42984,0.25791 -3.5247,-2.4071 -4.8142,-2.0632 z"
         id="path5237-0-6"
         style="fill:#ffffff;fill-opacity:0.308696" />
      <path
         d="m 280.52,16.556 c 0,0 -0.42984,-2.1492 0.60178,-2.3211 1.0316,-0.17193 2.665,5.244 3.4387,6.5336 0.77371,1.2895 1.5474,3.2668 1.5474,3.2668 0,0 -2.665,-3.8686 -3.3527,-5.9318 -0.68774,-2.0632 -1.2895,-2.4931 -1.2895,-2.4931 l 2.4071,7.6511 -3.0089,-5.1581 1.2895,1.3755 c 0,0 -1.0316,-2.751 -1.6334,-2.9229 z"
         id="path5239-3-7"
         style="fill:#ffffff;fill-opacity:0.134783" />
      <path
         d="m 299.51,17.545 c -0.22097,-0.0221 -10,15 -10,15 h 5 v 15 h 10 v -15 h 5 c 0,0 -9.779,-15.022 -10,-15 z"
         id="rect4176-74"
         style="fill:url(#linearGradient5200-8);fill-rule:evenodd" />
      <path
         d="m 294.58,47.552 c 0,0 9.744,-0.04419 9.9318,0 l 0.94,0.95916 c -0.17678,0.07734 -11.732,0 -11.732,0 l 0.86056,-0.95916 z"
         id="path5169-9"
         style="color:#000000;fill:#65aa5a;fill-rule:nonzero;enable-background:accumulate" />
      <path
         d="m 294.51,32.523 c 0.0312,0.46875 0.0625,15.068 0.0625,15.068 l -0.84852,0.90863 c 0,0 -0.12395,-15.099 -0.0927,-15.185 0.0937,-0.13281 0.80469,-0.72524 0.87872,-0.79196 z"
         id="path5165-0"
         style="color:#000000;fill:#75b36b;fill-rule:nonzero;enable-background:accumulate" />
      <path
         d="m 299.52,17.579 c 0,0 9.5106,14.518 9.9169,14.971 l 1.6638,0.92514 c -0.68,-0.953 -11.64,-17.762 -11.64,-17.762 l 0.0566,1.8668 h -3e-5 z"
         id="path5159-0"
         style="color:#000000;fill:#d2facf;fill-rule:nonzero;enable-background:accumulate" />
      <path
         d="m 299.51,17.548 c -0.23437,0.46875 -9.9833,14.994 -9.9833,14.994 l -1.492,0.7354 c 0,0 11.282,-17.448 11.438,-17.557 l 0.0371,1.8277 h 3e-5 5e-5 z"
         id="path5146-2"
         style="fill:#75b36b" />
      <path
         d="m 293.62,33.326 0.869,-0.79126 c -0.17187,-0.07813 -4.9612,-0.0093 -4.9612,-0.0093 -0.20312,0.03125 -1.4791,0.74588 -1.4791,0.74588 l 5.5713,0.05473 v -4.5e-5 z"
         id="path5161-7"
         style="fill:#65aa5a" />
      <path
         d="m 304.5,32.542 c 0.17187,-0.09375 4.9197,0.0033 4.9197,0.0033 l 1.6604,0.91468 c 0,0 -5.3422,0.04988 -5.5922,0.003 L 304.49997,32.542 Z"
         id="path5163-1"
         style="color:#000000;fill:#75b36b;fill-rule:nonzero;enable-background:accumulate" />
      <path
         d="m 305.49,33.464 c -0.28726,-0.30936 -0.99415,-0.91349 -0.99415,-0.91349 -0.0331,0.65186 0.006,15.008 0.006,15.008 l 0.93138,0.93692 0.0573,-15.032 h -6e-5 -4.3e-4 -4e-5 z"
         id="path5167-6"
         style="color:#000000;fill:#d2facf;fill-rule:nonzero;enable-background:accumulate" />
      <path
         d="m 306.98,31.723 c 0,0 -7.406,-11.603 -7.6712,-11.669 -0.0884,-0.04419 -4.4076,6.942 -4.4076,6.942 0,0 4.2308,-5.8432 4.3633,-5.8653 0.11049,0.0221 7.7155,10.592 7.7155,10.592 z"
         id="path5202-2"
         style="color:#000000;fill:#ecf9ce;fill-opacity:0.891304;fill-rule:nonzero;enable-background:accumulate" />
    </g>
  </g>
</svg>
