<?xml version="1.0" encoding="UTF-8" standalone="no"?>
<svg
   xmlns:dc="http://purl.org/dc/elements/1.1/"
   xmlns:cc="http://creativecommons.org/ns#"
   xmlns:rdf="http://www.w3.org/1999/02/22-rdf-syntax-ns#"
   xmlns:svg="http://www.w3.org/2000/svg"
   xmlns="http://www.w3.org/2000/svg"
   xmlns:xlink="http://www.w3.org/1999/xlink"
   xmlns:sodipodi="http://sodipodi.sourceforge.net/DTD/sodipodi-0.dtd"
   xmlns:inkscape="http://www.inkscape.org/namespaces/inkscape"
   width="10.583333mm"
   height="10.583333mm"
   viewBox="0 0 10.583333 10.583333"
   version="1.1"
   id="svg3722"
   inkscape:version="1.0.1 (3bc2e813f5, 2020-09-07)"
   sodipodi:docname="bonus_neutral_resurrect.svg">
  <defs
     id="defs3716">
    <linearGradient
       x1="418.41"
       y1="22.815001"
       x2="458.41"
       y2="22.815001"
       id="linearGradient4487"
       xlink:href="#linearGradient6612"
       gradientUnits="userSpaceOnUse"
       gradientTransform="translate(-238.20161,124.23681)" />
    <linearGradient
       id="linearGradient6612">
      <stop
         id="stop6614"
         style="stop-color:#edeaa9;stop-opacity:1"
         offset="0" />
      <stop
         id="stop6616"
         style="stop-color:#d1c871;stop-opacity:1"
         offset="1" />
    </linearGradient>
    <linearGradient
       x1="430.25"
       y1="15.637"
       x2="447.85999"
       y2="31.047001"
       id="linearGradient4489"
       xlink:href="#linearGradient6618"
       gradientUnits="userSpaceOnUse"
       gradientTransform="translate(-238.20161,124.23681)"
       spreadMethod="reflect" />
    <linearGradient
       id="linearGradient6618">
      <stop
         id="stop6620"
         style="stop-color:#ffffff;stop-opacity:1"
         offset="0" />
      <stop
         id="stop6622"
         style="stop-color:#f8ff00;stop-opacity:1"
         offset="0.24004" />
      <stop
         id="stop6624"
         style="stop-color:#706d3c;stop-opacity:1"
         offset="0.80585003" />
      <stop
         id="stop6626"
         style="stop-color:#494935;stop-opacity:1"
         offset="1" />
    </linearGradient>
    <linearGradient
       x1="193.37"
       y1="152.8"
       x2="193.75"
       y2="175.62"
       id="linearGradient7219"
       xlink:href="#linearGradient7124"
       gradientUnits="userSpaceOnUse"
       gradientTransform="matrix(1.0986533,0.14670782,0,1.1318561,-18.725907,-50.087358)" />
    <linearGradient
       id="linearGradient7124">
      <stop
         id="stop7126"
         style="stop-color:#ffb033;stop-opacity:1"
         offset="0" />
      <stop
         id="stop7128"
         style="stop-color:#ffb033;stop-opacity:0"
         offset="1" />
    </linearGradient>
    <linearGradient
       x1="193.37"
       y1="152.8"
       x2="193.75"
       y2="175.62"
       id="linearGradient7193"
       xlink:href="#linearGradient7124"
       gradientUnits="userSpaceOnUse"
       gradientTransform="matrix(0.81714751,0.12961702,0,1,34.834698,-25.306886)" />
    <linearGradient
       x1="198.11"
       y1="157.00999"
       x2="197.58"
       y2="167.27"
       id="linearGradient7197"
       xlink:href="#linearGradient7124"
       gradientUnits="userSpaceOnUse"
       gradientTransform="matrix(0.51117365,0,-0.3008148,0.68978262,140.89452,48.706383)" />
    <linearGradient
       x1="193.37"
       y1="152.8"
       x2="192.42"
       y2="168.89999"
       id="linearGradient7306"
       xlink:href="#linearGradient3385-1"
       gradientUnits="userSpaceOnUse"
       gradientTransform="matrix(0.35484239,0.11155309,-0.38634938,0.52382073,185.33413,52.602249)" />
    <linearGradient
       x1="216.89"
       y1="122.59"
       x2="216.89"
       y2="37.970001"
       id="linearGradient3385-1"
       gradientUnits="userSpaceOnUse"
       gradientTransform="translate(-152)">
      <stop
         id="stop3381-7"
         style="stop-color:#fffc07;stop-opacity:1"
         offset="0" />
      <stop
         id="stop3383-2"
         style="stop-color:#fffc07;stop-opacity:0"
         offset="1" />
    </linearGradient>
    <linearGradient
       x1="213.5"
       y1="131.13"
       x2="206.84"
       y2="152.7"
       id="linearGradient7138"
       xlink:href="#linearGradient7124"
       gradientUnits="userSpaceOnUse" />
    <linearGradient
       x1="187.44"
       y1="133.39999"
       x2="198.25999"
       y2="154.08"
       id="linearGradient7130"
       xlink:href="#linearGradient7124"
       gradientUnits="userSpaceOnUse" />
    <linearGradient
       x1="200.97"
       y1="150.56"
       x2="200.47"
       y2="156.66"
       id="linearGradient7148"
       gradientUnits="userSpaceOnUse">
      <stop
         id="stop7144"
         style="stop-color:#ffb033;stop-opacity:1"
         offset="0" />
      <stop
         id="stop7146"
         style="stop-color:#ff5200;stop-opacity:1"
         offset="1" />
    </linearGradient>
    <linearGradient
       x1="200.39"
       y1="154.71001"
       x2="200.39"
       y2="142.78"
       id="linearGradient7158"
       xlink:href="#linearGradient3385-1"
       gradientUnits="userSpaceOnUse" />
  </defs>
  <sodipodi:namedview
     id="base"
     pagecolor="#ffffff"
     bordercolor="#666666"
     borderopacity="1.0"
     inkscape:pageopacity="0.0"
     inkscape:pageshadow="2"
     inkscape:zoom="0.35"
     inkscape:cx="142.85714"
     inkscape:cy="242.85714"
     inkscape:document-units="mm"
     inkscape:current-layer="layer1"
     inkscape:document-rotation="0"
     showgrid="false"
     inkscape:window-width="1254"
     inkscape:window-height="872"
     inkscape:window-x="24"
     inkscape:window-y="0"
     inkscape:window-maximized="0"
     fit-margin-top="0"
     fit-margin-left="0"
     fit-margin-right="0"
     fit-margin-bottom="0"
     inkscape:pagecheckerboard="true" />
  <metadata
     id="metadata3719">
    <rdf:RDF>
      <cc:Work
         rdf:about="">
        <dc:format>image/svg+xml</dc:format>
        <dc:type
           rdf:resource="http://purl.org/dc/dcmitype/StillImage" />
        <dc:title></dc:title>
      </cc:Work>
    </rdf:RDF>
  </metadata>
  <g
     inkscape:label="Ebene 1"
     inkscape:groupmode="layer"
     id="layer1"
     transform="translate(-68.035714,-83.910714)">
    <g
       transform="matrix(0.26458333,0,0,0.26458333,20.357799,50.295401)"
       id="bonus_neutral_resurrect">
      <rect
         width="40"
         height="40"
         rx="3"
         ry="3"
         x="180.2"
         y="127.05"
         id="rect6891"
         style="color:#000000;fill:url(#linearGradient4487);fill-rule:nonzero;enable-background:accumulate" />
      <rect
         width="35.652"
         height="35.652"
         rx="2.6738999"
         ry="2.6738999"
         x="182.31"
         y="129.25999"
         id="rect6893"
         style="fill:#041400;stroke:url(#linearGradient4489);stroke-width:1" />
      <path
         d="m 193.6,153.75 c 0,0 -1.6023,-1.2644 -4.467,-0.14629 -2.8647,1.11811 -5.1467,2.5641 -5.1467,2.5641 0,0 5.1467,-0.71334 5.0011,-0.48266 -0.14568,0.23065 -3.2046,1.3728 -4.2728,2.4307 -1.0682,1.0579 -1.6508,0.22975 -1.6508,0.22975 0,0 0.14567,1.8703 1.6508,1.521 1.5052,-0.34924 5.3895,-1.6313 5.3895,-1.6313 0,0 0.29134,1.5396 -1.7965,1.761 -2.0878,0.22143 -4.6612,1.1783 -4.6612,1.1783 0,0 2.9132,1.4395 5.2438,0.85031 2.3306,-0.58918 4.1756,-2.1936 4.1756,-2.1936 l -1.5538,3.0439 c 0,0 3.3502,-1.6536 3.4473,-2.3909 0.0971,-0.73735 0.0971,-1.3376 0.0971,-1.3376 0,0 -0.19422,2.6752 1.4566,3.9461 1.65082,1.2709 2.5268,1.1074 2.3325,0.93145 -0.19421,-0.17599 -1.2158,-1.5326 -1.2158,-2.433 0,-0.90037 -0.0971,-1.7137 -0.0971,-1.7137 1.2947,3.6094 5.4562,3.0201 9.4269,3.6644 -2.4541,-0.5922 -4.5278,-1.1182 -5.1056,-2.9873 0,0 0.72831,1.0977 3.7872,1.156 3.05889,0.0583 7.0889,-2.6549 7.0889,-2.6549 0,0 -5.341,1.1376 -6.9918,0.31689 -1.6509,-0.82069 -9.6623,-4.8418 -9.6623,-4.8418 l -2.4763,-0.78086 z"
         id="path7217"
         style="color:#000000;opacity:0.329268;fill:url(#linearGradient7219);fill-rule:nonzero;enable-background:accumulate" />
      <path
         d="m 194.12,155.83 c 0,0 -1.0938,-1.7812 -1.875,-1.8438 -0.78125,-0.0625 -3.6875,0.28125 -3.6875,0.28125 0,0 3.5938,-1.2188 4.5,-0.40625 0.90625,0.8125 1.1875,2.0625 1.0625,1.9688 z"
         id="path7262"
         style="color:#000000;fill:#eba42f;fill-rule:nonzero;enable-background:accumulate" />
      <path
         d="m 192.76,154.79 c 0,0 -1.1917,-1.1171 -3.3224,-0.12925 -2.1307,0.98786 -3.828,2.2654 -3.828,2.2654 0,0 3.828,-0.63023 3.7197,-0.42644 -0.10835,0.20378 -2.3835,1.2129 -3.178,2.1476 -0.79449,0.93464 -1.2278,0.20298 -1.2278,0.20298 0,0 0.10834,1.6524 1.2278,1.3438 1.1195,-0.30855 4.0086,-1.4413 4.0086,-1.4413 0,0 0.21669,1.3602 -1.3362,1.5558 -1.5529,0.19563 -3.4669,1.0411 -3.4669,1.0411 0,0 2.1668,1.2718 3.9002,0.75125 1.7334,-0.52054 3.1057,-1.938 3.1057,-1.938 l -1.1556,2.6893 c 0,0 2.4918,-1.4609 2.564,-2.1124 0.0722,-0.65146 0.0722,-1.1818 0.0722,-1.1818 0,0 -0.14446,2.3636 1.0834,3.4864 1.2278,1.1228 1.8793,0.97844 1.7349,0.82294 -0.14444,-0.15549 -0.90427,-1.3541 -0.90427,-2.1496 0,-0.79549 -0.0722,-1.514 -0.0722,-1.514 0.96298,3.1889 4.0582,2.6682 7.0114,3.2376 -1.8253,-0.52322 -3.3677,-0.98797 -3.7974,-2.6393 0,0 0.5417,0.9698 2.8168,1.0213 2.2751,0.0515 5.2725,-2.3456 5.2725,-2.3456 0,0 -3.9724,1.0051 -5.2003,0.27998 -1.2279,-0.72509 -7.1865,-4.2777 -7.1865,-4.2777 l -1.8418,-0.6899 z"
         id="path7185"
         style="color:#000000;fill:url(#linearGradient7193);fill-rule:nonzero;enable-background:accumulate" />
      <path
         d="m 193.05,155.65 c 0,0 -0.46631,-0.64018 -2.198,0.27434 -1.7317,0.91454 -4.54,1.2315 -4.54,1.2315 0,0 4.0481,-0.10355 3.9139,0.0489 -2.058,1.2758 -2.984,2.6973 -4.8296,0.66592 0.86433,3.1431 2.4228,1.8748 4.7111,0.79734 0,0 -0.26327,0.91452 -1.3676,1.2194 -1.1044,0.30484 -2.6473,1.0974 -2.6473,1.0974 0,0 1.0763,0.64018 2.3999,0.0915 1.3237,-0.54872 2.674,-1.6766 2.674,-1.6766 l -1.587,1.9815 c 0,0 2.1172,-1.2804 2.3617,-1.7376 0.24462,-0.45727 0.40415,-0.82308 0.40415,-0.82308 0,0 -0.80829,1.6462 -0.31936,2.2863 0.48892,0.64017 1.3766,0.88403 1.3261,0.79258 -0.0505,-0.0915 -0.60708,-1.2498 -0.36778,-1.7986 0.23929,-0.54872 0.4068,-1.0365 0.4068,-1.0365 0,0 0.47978,1.9487 1.1907,2.1316 0.71091,0.1829 0.84761,1.5579 0.84761,1.5579 0,0 -0.092,-1.1593 -0.22602,-2.0434 -0.13406,-0.88405 0.17171,-1.5852 0.17171,-1.5852 1.9906,1.0416 6.4368,2.9065 10.626,0.10767 -5.3942,2.8499 -9.3336,-1.7298 -11.918,-3.3085 l -1.0325,-0.27435 2e-5,-3e-5 v -4e-5 z"
         id="path7195"
         style="color:#000000;fill:url(#linearGradient7197);fill-rule:nonzero;enable-background:accumulate" />
      <path
         d="m 194.01,155.38 c 0,0 -0.15891,-0.64885 -1.5964,-0.24523 -1.4374,0.40362 -2.7721,0.98215 -2.7721,0.98215 0,0 2.1404,-0.12559 2.008,-0.0246 -2.3422,1.1491 -3.3094,0.95882 -4.9045,-0.21018 0.96175,2.0708 2.1378,1.956 4.4456,1.4348 -1.5177,1.1377 -3.5188,1.3719 -5.242,1.9985 1.9171,0.0587 3.7805,-0.29633 5.7887,-1.142 l -5.5218,4.8095 c 0,0 5.7093,-4.0947 5.9968,-4.4321 0.28751,-0.33738 0.49242,-0.61518 0.49242,-0.61518 -0.94158,1.728 -1.2322,3.3672 -2.213,5.1852 0.84555,-1.6302 1.8406,-3.2021 2.8761,-4.7485 0,0 -0.32541,1.4446 -0.18005,2.0252 0.29229,1.1674 2.8841,2.8637 2.8841,2.8637 0,0 -2.0042,-2.3018 -1.8697,-3.0867 0.13453,-0.78473 0.52717,-1.3172 0.52717,-1.3172 0.94115,1.2879 5.253,4.1476 6.9418,3.5123 -2.702,0.5943 -5.7613,-4.8022 -7.0152,-6.5297 l -0.64611,-0.45975 7e-5,-1.4e-4 z"
         id="path7199"
         style="color:#000000;fill:url(#linearGradient7306);fill-rule:nonzero;enable-background:accumulate" />
      <path
         d="m 193.47,155.24 -2.5625,0.4375 1.8438,-0.0937 c 0,0 -0.125,0.375 -0.6875,0.59375 -0.5625,0.21875 -2.4688,0.6875 -2.4688,0.6875 l 3.0312,-0.34375 c 0,0 0.0625,0.46875 -0.625,0.75 -0.6875,0.28125 -2.5,0.78125 -2.5,0.78125 0,0 2.3438,-0.25 2.75,-0.59375 0.40625,-0.34375 0.90625,-0.4375 0.90625,-0.4375 l -2.4062,1.9062 c 0,0 1.6875,-0.4375 2.125,-1.0938 0.4375,-0.65625 0.5625,-0.84375 0.5625,-0.84375 0,0 -1.0938,1.875 -0.9688,4.125 0.28125,-1.8438 1.4688,-4.5938 1.4688,-4.5938 0,0 0.34375,0.53125 0.40625,0.90625 0.0625,0.375 0.125,1.3125 0.125,1.3125 l -0.15625,-2.2188 c 0,0 0.34375,0.40625 0.5,1.1875 0.15625,0.78125 -0.21875,1.3125 0.25,1.8125 0.46875,0.5 1,0.84375 1,0.84375 0,0 -1.1562,-1.1562 -1.0312,-1.875 0.125,-0.71875 -0.40625,-2.1875 -0.40625,-2.1875 l 0.59375,1.0312 c 0,0 -0.28125,-1.2812 -0.625,-1.4688 -0.34375,-0.1875 -1,-0.59375 -1.125,-0.625 l 5e-5,-5e-5 z"
         id="path7205"
         style="color:#000000;fill:#ffffff;fill-rule:nonzero;enable-background:accumulate" />
      <path
         d="m 204.66,154.82 c 0,0 -2.7842,-4.2426 -1.1932,-7.1594 1.591,-2.9168 4.9497,-7.1153 5.0381,-8.2201 0.0884,-1.1048 -1.4584,-6.4965 -1.4584,-6.4965 l 1.7678,3.5797 -1.4142,-5.3917 c 0,0 3.7565,4.8614 3.9775,6.5849 0.22098,1.7236 -0.92807,-4.9056 -0.92807,-4.9056 0,0 2.5633,4.1984 2.8726,6.143 0.30936,1.9446 0.39775,5.0381 0.39775,5.0381 l 0.44194,-5.8336 c 0,0 1.2374,7.2478 0.97227,7.9991 -0.26517,0.75131 0.92808,-3.182 0.92808,-3.182 0,0 1.0165,3.7565 0.13258,5.2149 -0.88388,1.4584 -2.1213,3.1378 -3.8449,3.4913 -1.7236,0.35355 -3.2704,0.44194 -4.0659,1.8562 -0.79549,1.4142 -1.8562,2.74 -1.8562,2.74 l 0.61872,-1.812 -2.2097,2.2981 c 0,0 0.57452,-1.0165 -0.17678,-1.9446 z"
         id="path7120"
         style="color:#000000;fill:url(#linearGradient7138);fill-rule:nonzero;enable-background:accumulate" />
      <path
         d="m 197.31,153.93 c 0,0 2.0379,-4.5987 0.14437,-7.2566 -1.8936,-2.6579 -5.6236,-6.3301 -5.8575,-7.4108 -0.23389,-1.0807 0.48408,-6.6387 0.48408,-6.6387 l -1.173,3.7966 0.59336,-5.5389 c 0,0 -2.8674,5.3507 -2.8398,7.0882 0.0276,1.7374 0.20278,-4.988 0.20278,-4.988 0,0 -1.8362,4.5232 -1.8616,6.492 -0.0254,1.9688 0.31381,5.043 0.31381,5.043 l -1.2116,-5.7096 c 0,0 -0.17384,7.3504 0.17795,8.0558 0.3518,0.7054 -1.3066,-3.0156 -1.3066,-3.0156 0,0 -0.44268,3.8636 0.58718,5.1798 1.0298,1.3162 2.4222,2.8004 4.0905,2.9026 1.6683,0.1025 3.1343,-0.0326 4.075,1.2526 0.94075,1.2852 2.1187,2.4449 2.1187,2.4449 l -0.82888,-1.7042 2.3907,1.9567 c 0,0 -0.67875,-0.92337 -0.0992,-1.9498 z"
         id="path7122"
         style="color:#000000;fill:url(#linearGradient7130);fill-rule:nonzero;enable-background:accumulate" />
      <path
         d="m 204.56,152.05 c 0,0 -1.25,-4.1875 0.8125,-6.6875 2.0625,-2.5 4.4375,-6.1875 4.375,-7.5625 -0.0625,-1.375 -1.4375,-6.1875 -1.4375,-6.1875 0,0 3.9375,4.5 2.9375,7.9375 -1,3.4375 -2.1875,4.5 -3.875,6.1875 -1.6875,1.6875 -3.25,3.625 -2.8125,6.3125 z"
         id="path7070"
         style="color:#000000;fill:#ff6b31;fill-rule:nonzero;enable-background:accumulate" />
      <path
         d="m 209.19,133.27 c 0,0 1.2188,1.75 1.625,3.4375 0.40625,1.6875 0,3.5 0,3.5 l 0.0625,-2.0625 c 0,0 -0.40625,3.1875 -0.90625,3.9688 -0.5,0.78125 -2.9688,3.375 -2.9688,3.375 l 1.3125,-1.8125 c 0,0 -1.375,1.125 -1.9062,1.9688 -0.53125,0.84375 -1.4688,2.9062 -1.4688,2.9062 l 0.90625,-2.625 -0.9375,1.625 0.53125,-1.5625 c 0,0 -0.59375,0.8125 -0.75,1.2188 -0.15625,0.40625 -0.40625,1.2812 -0.40625,1.2812 0,0 0.34375,-2.375 1.4688,-3.5 1.12505,-1.125 1.625,-1.8125 2.5625,-2.9375 0.9375,-1.125 1.4375,-2.875 1.4375,-2.875 l -0.75,1.3438 c 0,0 0.90625,-2.5625 0.9375,-3.1562 0.0312,-0.59375 -0.46875,-2.3125 -0.46875,-2.3125 l 0.71875,1.125 -1,-2.9062 z"
         id="path7074"
         style="color:#000000;fill:#ffb854;fill-rule:nonzero;enable-background:accumulate" />
      <path
         d="m 210.31,135.86 c 0,0 0.23437,0.875 0.23437,1.7188 0,0.84375 -0.39062,3.375 -0.39062,3.375 v -1.8125 c 0,0 -0.125,2.25 -0.5,2.9375 -0.375,0.6875 -0.96875,1.3438 -0.96875,1.3438 l 0.40625,-1.25 c 0,0 -0.625,1.1562 -1.3125,1.6875 -0.6875,0.53125 -1.5625,1.9062 -1.5625,1.9062 l 0.78,-1.42 -1.2188,1.25 2.0625,-2.4375 -1.1562,0.96875 c 0,0 1.7188,-2.0938 2.1875,-2.4688 0.46875,-0.375 1.0312,-2.4062 1.2188,-2.8438 0.1875,-0.4375 0.25,-1.4688 0.25,-1.4688 l -0.53125,1 c 0,0 0.625,-2.0312 0.5,-2.5 z"
         id="path7076"
         style="color:#000000;fill:#fff34c;fill-rule:nonzero;enable-background:accumulate" />
      <path
         d="m 205.09,154.72 c 0,0 -0.69111,-4.5392 1.6078,-6.4589 2.29891,-1.9197 5.0456,-4.939 5.1546,-6.3316 0.10896,-1.3926 -0.62586,-6.592 -0.62586,-6.592 0,0 3.247,5.6078 1.8584,8.764 -1.3886,3.1561 -2.6658,3.8845 -4.5026,5.0972 -1.8368,1.2127 -3.5838,2.7106 -3.4923,5.5212 z"
         id="path7078"
         style="color:#000000;fill:#ff6b31;fill-rule:nonzero;enable-background:accumulate" />
      <path
         d="m 211.87,137.24 c 0,0 0.96106,2.0929 1.1455,3.8947 0.1844,1.8018 -0.43094,3.5 -0.43094,3.5 l 0.31428,-2.0449 c 0,0 -0.78464,3.0732 -1.3635,3.7138 -0.57887,0.64057 -3.2815,2.5397 -3.2815,2.5397 l 1.4902,-1.4432 c 0,0 -1.4659,0.73814 -2.0826,1.4324 -0.61673,0.69428 -1.7757,2.493 -1.7757,2.493 l 1.1981,-2.37 -1.1051,1.3612 0.70523,-1.413 c 0,0 -0.67322,0.64544 -0.87408,1.0077 -0.20086,0.36229 -0.54993,1.167 -0.54993,1.167 0,0 0.62427,-2.2783 1.8488,-3.0868 1.2245,-0.80848 1.7919,-1.3553 2.8354,-2.2165 1.0435,-0.86122 1.7417,-2.4706 1.7417,-2.4706 l -0.88947,1.1327 c 0,0 1.1904,-2.3075 1.2936,-2.8925 0.10323,-0.58497 -0.16778,-2.4444 -0.16778,-2.4444 l 0.55533,1.3272 -0.60752,-3.1876 z"
         id="path7080"
         style="color:#000000;fill:#ffb854;fill-rule:nonzero;enable-background:accumulate" />
      <path
         d="m 212.64,140.15 c 0,0 0.11852,0.94094 0.0146,1.7847 -0.10389,0.84375 -0.79264,3.2651 -0.79264,3.2651 l 0.22316,-1.8125 c 0,0 -0.3977,2.2148 -0.84436,2.7968 -0.44666,0.58199 -1.1006,1.0712 -1.1006,1.0712 l 0.54609,-1.1357 c 0,0 -0.74572,0.98041 -1.4748,1.3182 -0.7291,0.33782 -1.7431,1.4666 -1.7431,1.4666 l 0.92733,-1.1864 -1.3304,0.9071 2.2912,-1.8572 -1.2355,0.64343 c 0,0 1.917,-1.6102 2.4157,-1.8533 0.49868,-0.24312 1.2918,-2.1161 1.5267,-2.5008 0.23487,-0.38475 0.42218,-1.3984 0.42218,-1.3984 l -0.63597,0.85053 c 0,0 0.85344,-1.8554 0.79049,-2.3593 z"
         id="path7082"
         style="color:#000000;fill:#fff37d;fill-rule:nonzero;enable-background:accumulate" />
      <path
         d="m 205.93,155.69 c 0,0 -0.007,-2.9453 2.1813,-4.1909 2.1881,-1.2456 4.8948,-3.2047 5.1641,-4.1083 0.26933,-0.90359 0.30959,-4.2773 0.30959,-4.2773 0,0 2.032,3.6387 0.45623,5.6866 -1.5757,2.0479 -2.7484,2.5205 -4.4558,3.3074 -1.7074,0.78688 -3.3752,1.7588 -3.6555,3.5825 z"
         id="path7084"
         style="color:#000000;fill:#ff6b31;fill-rule:nonzero;enable-background:accumulate" />
      <path
         d="m 213.89,144.35 c 0,0 0.54632,1.358 0.47297,2.5271 -0.0733,1.1691 -0.80974,2.271 -0.80974,2.271 l 0.52595,-1.3269 c 0,0 -1.0545,1.9941 -1.6255,2.4097 -0.57098,0.41564 -3.0978,1.6479 -3.0978,1.6479 l 1.4437,-0.93646 c 0,0 -1.3334,0.47895 -1.9432,0.92944 -0.60983,0.4505 -1.8187,1.6176 -1.8187,1.6176 l 1.3146,-1.5378 -1.1076,0.88324 0.77611,-0.91685 c 0,0 -0.65137,0.4188 -0.86731,0.65388 -0.21594,0.23507 -0.61349,0.75719 -0.61349,0.75719 0,0 0.81776,-1.4783 1.956,-2.0029 1.1383,-0.52459 1.6876,-0.8794 2.6795,-1.4382 0.99197,-0.55882 1.7871,-1.603 1.7871,-1.603 l -0.89623,0.73499 c 0,0 1.3002,-1.4973 1.4619,-1.8768 0.16172,-0.37956 0.16917,-1.5861 0.16917,-1.5861 l 0.30068,0.86119 -0.10809,-2.0683 z"
         id="path7086"
         style="color:#000000;fill:#ffb854;fill-rule:nonzero;enable-background:accumulate" />
      <path
         d="m 214.17,146.24 c 0,0 -0.0195,0.61054 -0.21475,1.158 -0.19519,0.54748 -1.0857,2.1186 -1.0857,2.1186 l 0.41932,-1.1761 c 0,0 -0.6181,1.4371 -1.0698,1.8148 -0.45173,0.37763 -1.067,0.69505 -1.067,0.69505 l 0.60626,-0.73692 c 0,0 -0.75529,0.63615 -1.4148,0.85535 -0.65947,0.21919 -1.6605,0.95164 -1.6605,0.95164 l 0.93507,-0.76984 -1.2404,0.58859 2.1736,-1.2051 -1.1265,0.4175 c 0,0 1.8258,-1.0448 2.2784,-1.2025 0.45259,-0.15775 1.3616,-1.3731 1.6091,-1.6227 0.24756,-0.24966 0.53492,-0.90738 0.53492,-0.90738 l -0.64597,0.55188 c 0,0 0.95772,-1.2039 0.96861,-1.5309 z"
         id="path7088"
         style="color:#000000;fill:#ffea9c;fill-rule:nonzero;enable-background:accumulate" />
      <path
         d="m 208,143 c 0,0 0.97227,-0.99437 1.2816,-1.591 0.30936,-0.59662 0.81759,-2.1213 0.81759,-2.1213 0,0 -0.35355,2.0992 -0.57452,2.6296 -0.22097,0.53033 -0.39775,0.7734 -0.39775,0.7734 l 0.35355,-1.1048 -1.4805,1.4142 z"
         id="path7090"
         style="color:#000000;fill:#ffffff;fill-rule:nonzero;enable-background:accumulate" />
      <path
         d="m 209.75,146.49 c 0,0 1.2374,-0.99437 1.5468,-1.5689 0.30936,-0.57453 0.7071,-1.4584 0.7071,-1.4584 0,0 -0.59662,2.1434 -0.90598,2.5633 -0.30936,0.41985 -0.46404,0.61872 -0.46404,0.61872 l 0.39775,-1.0607 -1.2816,0.90598 z"
         id="path7092"
         style="color:#000000;fill:#ffffff;fill-rule:nonzero;enable-background:accumulate" />
      <path
         d="m 210.94,150.31 c 0,0 1.1932,-0.66292 1.3479,-0.86179 0.15468,-0.19887 0.83969,-1.127 0.83969,-1.127 0,0 -0.61871,1.5468 -0.88388,1.7678 -0.26516,0.22097 -0.61872,0.35355 -0.61872,0.35355 l 0.61872,-0.7734 -1.3037,0.64082 z"
         id="path7094"
         style="color:#000000;fill:#ffffff;fill-rule:nonzero;enable-background:accumulate" />
      <path
         d="m 197.64,151.56 c 0,0 0.95985,-4.2889 -1.4541,-6.5849 -2.41395,-2.296 -5.2651,-5.7453 -5.32,-7.1209 -0.0549,-1.3755 0.98277,-6.2988 0.98277,-6.2988 0,0 -3.7903,4.8534 -2.4236,8.1833 1.3668,3.3299 2.7234,4.2764 4.6669,5.7983 1.9435,1.522 3.7761,3.3047 3.548,6.0229 z"
         id="path7096"
         style="color:#000000;fill:#ff6b31;fill-rule:nonzero;enable-background:accumulate" />
      <path
         d="m 191.06,133.29 c 0,0 -1.1417,1.858 -1.4248,3.5772 -0.28313,1.7192 0.30883,3.4864 0.30883,3.4864 l -0.24843,-2.0486 c 0,0 0.71329,3.1368 1.314,3.8679 0.60066,0.7311 3.455,3.0822 3.455,3.0822 l -1.5557,-1.6818 c 0,0 1.5615,0.99108 2.201,1.7815 0.63942,0.79041 1.8184,2.7566 1.8184,2.7566 l -1.1954,-2.5294 1.1404,1.5303 -0.70284,-1.5064 c 0,0 0.70312,0.7534 0.90514,1.1434 0.20201,0.38994 0.54509,1.238 0.54509,1.238 0,0 -0.57513,-2.3334 -1.8708,-3.348 -1.29567,-1.0146 -1.8881,-1.6523 -2.9843,-2.6846 -1.0963,-1.0323 -1.7824,-2.7284 -1.7824,-2.7284 l 0.91618,1.2679 c 0,0 -1.1899,-2.4671 -1.2755,-3.0556 -0.0856,-0.5885 0.29445,-2.3476 0.29445,-2.3476 l -0.6651,1.1883 0.80702,-2.9891 z"
         id="path7098"
         style="color:#000000;fill:#ffb854;fill-rule:nonzero;enable-background:accumulate" />
      <path
         d="m 190.1,135.98 c 0,0 -0.17203,0.89366 -0.0976,1.7341 0.0745,0.84046 0.71321,3.325 0.71321,3.325 l -0.15993,-1.8054 c 0,0 0.33146,2.2294 0.79092,2.8789 0.45946,0.64949 1.1488,1.2472 1.1488,1.2472 l -0.54233,-1.2069 c 0,0 0.76668,1.0929 1.5447,1.5573 0.77801,0.46441 1.8299,1.7516 1.8299,1.7516 l -0.95491,-1.3272 1.4064,1.1303 -2.4085,-2.2337 1.3151,0.85604 c 0,0 -2.0126,-1.9237 -2.5442,-2.253 -0.53158,-0.32938 -1.309,-2.2997 -1.547,-2.7178 -0.238,-0.41813 -0.39545,-1.4395 -0.39545,-1.4395 l 0.6532,0.94605 c 0,0 -0.8439,-1.9644 -0.75233,-2.4431 z"
         id="path7100"
         style="color:#000000;fill:#fff34c;fill-rule:nonzero;enable-background:accumulate" />
      <path
         d="m 197.31,154.27 c 0,0 0.33445,-4.5866 -2.2797,-6.2822 -2.61415,-1.6956 -5.8016,-4.4444 -6.0404,-5.8213 -0.23875,-1.3769 0.0839,-6.6252 0.0839,-6.6252 0,0 -2.9583,5.8919 -1.2031,8.9049 1.7552,3.013 3.1777,3.6182 5.2381,4.6532 2.0604,1.0349 4.0504,2.3624 4.2011,5.1707 z"
         id="path7102"
         style="color:#000000;fill:#ff6b31;fill-rule:nonzero;enable-background:accumulate" />
      <path
         d="m 188.56,137.49 c 0,0 -0.83738,2.1753 -0.87451,3.9874 -0.0371,1.8121 0.76713,3.4458 0.76713,3.4458 l -0.51467,-2.0073 c 0,0 1.1056,2.9873 1.7777,3.5708 0.67213,0.58354 3.7138,2.2207 3.7138,2.2207 l -1.7121,-1.2972 c 0,0 1.624,0.59717 2.3412,1.2306 0.71713,0.63348 2.1084,2.316 2.1084,2.316 l -1.4832,-2.2479 1.2953,1.2518 -0.87466,-1.3411 c 0,0 0.77289,0.5795 1.0185,0.92146 0.24558,0.34195 0.6878,1.1106 0.6878,1.1106 0,0 -0.86492,-2.2106 -2.2385,-2.9006 -1.3736,-0.68997 -2.0252,-1.1812 -3.211,-1.9408 -1.1858,-0.75956 -2.0702,-2.2968 -2.0702,-2.2968 l 1.0459,1.0445 c 0,0 -1.4695,-2.1864 -1.631,-2.7593 -0.1614,-0.57296 -0.0373,-2.4507 -0.0373,-2.4507 l -0.47346,1.3744 0.36481,-3.2324 z"
         id="path7104"
         style="color:#000000;fill:#ffb854;fill-rule:nonzero;enable-background:accumulate" />
      <path
         d="m 188,140.47 c 0,0 -0.043,0.94844 0.14194,1.7791 0.18494,0.83067 1.131,3.1777 1.131,3.1777 l -0.39725,-1.7844 c 0,0 0.61837,2.1687 1.1447,2.7064 0.52636,0.53764 1.265,0.96332 1.265,0.96332 l -0.68095,-1.0798 c 0,0 0.87955,0.90634 1.6847,1.1742 0.80518,0.26781 1.9831,1.2967 1.9831,1.2967 l -1.0909,-1.0944 1.4949,0.77822 -2.6005,-1.6341 1.3707,0.52453 c 0,0 -2.1807,-1.4233 -2.7325,-1.6185 -0.55178,-0.1952 -1.5605,-1.9862 -1.8442,-2.3473 -0.28373,-0.36112 -0.57237,-1.3532 -0.57237,-1.3532 l 0.75138,0.7873 c 0,0 -1.0713,-1.7678 -1.0488,-2.2756 z"
         id="path7106"
         style="color:#000000;fill:#fcf470;fill-rule:nonzero;enable-background:accumulate" />
      <path
         d="m 196.5,155.32 c 0,0 -0.25291,-2.9344 -2.6895,-3.9691 -2.4369,-1.0346 -5.4882,-2.7311 -5.8544,-3.6058 -0.36616,-0.8747 -0.70666,-4.2314 -0.70666,-4.2314 0,0 -1.8398,3.816 0.0166,5.7074 1.8564,1.8915 3.1452,2.2518 5.0304,2.8748 1.8852,0.62296 3.7445,1.434 4.2036,3.2242 z"
         id="path7108"
         style="color:#000000;fill:#ff6b31;fill-rule:nonzero;enable-background:accumulate" />
      <path
         d="m 187.04,144.77 c 0,0 -0.46117,1.4042 -0.28001,2.5618 0.18116,1.1576 1.0615,2.1859 1.0615,2.1859 l -0.67641,-1.2721 c 0,0 1.2974,1.887 1.9413,2.2472 0.64388,0.36023 3.4398,1.3497 3.4398,1.3497 l -1.6179,-0.7968 c 0,0 1.4603,0.35147 2.1486,0.74275 0.68829,0.3913 2.0768,1.44 2.0768,1.44 l -1.5337,-1.408 1.2559,0.77545 -0.90627,-0.84016 c 0,0 0.72966,0.35581 0.98005,0.56963 0.25039,0.21381 0.71923,0.69644 0.71923,0.69644 0,0 -1.0001,-1.3955 -2.2569,-1.8108 -1.2568,-0.41531 -1.8723,-0.71699 -2.9765,-1.1802 -1.1042,-0.4632 -2.0419,-1.4284 -2.0419,-1.4284 l 1.018,0.64769 c 0,0 -1.5148,-1.369 -1.7203,-1.7318 -0.20547,-0.36284 -0.31985,-1.5639 -0.31985,-1.5639 l -0.24377,0.88616 -0.0676,-2.0704 z"
         id="path7110"
         style="color:#000000;fill:#ffb854;fill-rule:nonzero;enable-background:accumulate" />
      <path
         d="m 186.91,146.67 c 0,0 0.0746,0.60633 0.33055,1.1333 0.2559,0.52695 1.3415,2.0081 1.3415,2.0081 l -0.54971,-1.132 c 0,0 0.78414,1.3733 1.2979,1.7069 0.51372,0.33361 1.196,0.59183 1.196,0.59183 l -0.70976,-0.67693 c 0,0 0.85936,0.56251 1.58,0.71873 0.72066,0.15621 1.8498,0.79151 1.8498,0.79151 l -1.0623,-0.67875 1.371,0.46944 -2.4179,-0.9956 1.2348,0.30975 c 0,0 -2.0339,-0.86871 -2.5291,-0.98321 -0.49523,-0.1145 -1.5691,-1.2394 -1.8544,-1.4648 -0.2853,-0.22537 -0.64893,-0.85345 -0.64893,-0.85345 l 0.73566,0.48887 c 0,0 -1.1247,-1.109 -1.1652,-1.4337 z"
         id="path7112"
         style="color:#000000;fill:#ffea9c;fill-rule:nonzero;enable-background:accumulate" />
      <path
         d="m 193.18,142.87 c 0,0 -1.1217,-0.8989 -1.5034,-1.464 -0.38164,-0.56514 -1.0567,-2.036 -1.0567,-2.036 0,0 0.56121,2.0577 0.84301,2.5652 0.28178,0.50745 0.49123,0.73291 0.49123,0.73291 l -0.47347,-1.0672 1.6992,1.2692 z"
         id="path7114"
         style="color:#000000;fill:#ffffff;fill-rule:nonzero;enable-background:accumulate" />
      <path
         d="m 191.64,146.51 c 0,0 -1.4037,-0.87392 -1.7834,-1.4171 -0.37969,-0.54315 -0.88066,-1.3861 -0.88066,-1.3861 0,0 0.82361,2.0789 1.1896,2.4679 0.36605,0.38906 0.54809,0.57259 0.54809,0.57259 l -0.51658,-1.0191 1.4429,0.78172 z"
         id="path7116"
         style="color:#000000;fill:#ffffff;fill-rule:nonzero;enable-background:accumulate" />
      <path
         d="m 190.7,150.43 c 0,0 -1.3275,-0.54792 -1.5095,-0.73144 -0.18205,-0.18353 -0.99242,-1.0435 -0.99242,-1.0435 0,0 0.79446,1.4825 1.096,1.6776 0.30149,0.19513 0.68919,0.29389 0.68919,0.29389 l -0.72624,-0.7121 1.443,0.5155 z"
         id="path7118"
         style="color:#000000;fill:#ffffff;fill-rule:nonzero;enable-background:accumulate" />
      <path
         d="m 193.97,154.69 c 0,0 0.35356,-1.812 1.812,-0.83969 1.4584,0.97227 1.6794,2.0329 2.4749,1.1932 0.7955,-0.83969 1.812,-1.6352 1.3258,-3.4913 -0.48614,-1.8562 -1.7678,-4.2426 -1.2374,-5.5243 0.53033,-1.2816 1.591,-1.9445 2.1213,-1.8562 0.53033,0.0884 2.0771,-1.1932 2.0771,-1.1932 l -1.6352,1.9446 2.7842,-1.2816 c 0,0 -2.6516,1.5468 -2.6958,2.2539 -0.0442,0.70711 -0.57452,1.5468 -0.0442,2.6075 0.53033,1.0607 3.7565,4.2868 3.8449,5.4801 0.0884,1.1932 -1.0165,4.5078 -1.9445,5.0381 -0.92808,0.53033 -3.5355,2.1213 -5.2149,0.61872 -1.6794,-1.50258 -2.2097,-2.5191 -2.4307,-3.2704 -0.22097,-0.7513 -1.1049,-0.92808 -1.5468,0.22097 -0.44194,1.149 0.53034,1.3258 0.53034,1.3258 0,0 -3.5797,-0.57452 -0.22098,-3.2262 z"
         id="path7140"
         style="color:#000000;fill:url(#linearGradient7148);fill-rule:nonzero;enable-background:accumulate" />
      <path
         d="m 200.24,144.48 c 0,0 -0.97227,0.22097 -1.37,1.9445 -0.39774,1.7236 1.1932,3.9333 1.37,4.7288 0.17678,0.79549 0,2.4749 -0.39775,3.0494 -0.39774,0.57453 -2.3423,1.8562 -2.3423,1.8562 l 1.6352,-0.48614 c 0,0 0.13258,0.88389 -0.7513,1.0165 -0.88389,0.13258 -2.1655,0.0884 -2.1655,0.0884 0,0 1.0165,0.79549 1.9446,0.61872 0.92807,-0.17678 2.3423,-1.3258 2.3423,-1.3258 l -2.1655,2.0771 2.2981,-1.2374 c 0,0 -1.812,2.1213 -1.5468,2.0329 0.26517,-0.0884 2.3865,-1.8562 2.3865,-1.8562 l -1.0165,1.7678 c 0,0 1.3258,-1.0165 1.6352,-1.6352 0.30936,-0.61872 0.35355,-0.97227 0.35355,-0.97227 0,0 0.0884,1.6352 -0.22097,2.0329 -0.30936,0.39775 -0.57452,0.57452 -0.57452,0.57452 0,0 1.2816,-0.79549 1.37,-1.4142 0.0884,-0.61872 0.0884,-1.9004 0.0884,-1.9004 l 0.26517,1.7678 c 0,0 0.26516,-2.3423 -0.0442,-2.8726 -0.30935,-0.53033 -0.48613,-1.0165 -0.48613,-1.0165 0,0 0.55242,0.39775 0.77339,1.4584 0.22097,1.0607 0,1.9004 0,1.9004 0,0 0.83969,-1.2816 0.53033,-2.1655 -0.30936,-0.88389 -2.055,-3.2704 -2.055,-3.2704 l 1.4142,0.97228 c 0,0 -3.1378,-2.7842 -3.2262,-3.8007 -0.0884,-1.0165 0.13258,-2.2097 0.30936,-2.5633 0.17677,-0.35356 0.92807,-0.97228 0.92807,-0.97228 l -1.1932,0.66292 0.83969,-1.4142 -0.92808,0.35356 -2e-5,-1e-5 z"
         id="path7150"
         style="color:#000000;fill:url(#linearGradient7158);fill-rule:nonzero;enable-background:accumulate" />
      <path
         d="m 199.63,146.98 c 0,0 -0.7071,0.19887 -0.13258,1.7015 0.57453,1.5026 1.0386,1.9887 1.149,2.8726 0.11049,0.88389 -0.26516,2.6075 -0.59662,2.9389 -0.33146,0.33145 -0.7513,0.77339 -0.7513,0.77339 l 0.95017,-0.61871 -0.7734,1.3258 c 0,0 1.4363,-1.1048 1.5026,-1.3921 0.0663,-0.28726 0.11048,-1.0386 0.11048,-1.0386 0,0 0.26517,1.0165 0.0663,1.5247 -0.19887,0.50823 -0.86178,1.5026 -0.7513,1.4584 0.11049,-0.0442 1.127,-1.4363 1.127,-1.4363 l -0.37565,1.9666 c 0,0 0.7955,-1.6794 0.7734,-2.1434 -0.0221,-0.46404 -0.22097,-1.4363 -0.22097,-1.4363 0,0 0.30936,0.90598 0.37565,1.3921 0.0663,0.48613 -0.19887,1.7678 -0.13258,1.6573 0.0663,-0.11049 0.48613,-1.9446 0.48613,-1.9446 0,0 0.37565,2.1434 0.39775,2.0108 0.0221,-0.13258 0.0442,-1.9004 0.0442,-1.9004 l 0.44194,0.86179 c 0,0 -0.13258,-0.97228 -0.44194,-1.6794 -0.30936,-0.70711 -0.66292,-1.37 -0.66292,-1.37 l 1.2374,1.0386 c 0,0 -1.2595,-1.3479 -1.5689,-1.9224 -0.30936,-0.57452 -0.7734,-1.127 -0.7734,-1.127 l 0.97227,0.61872 c 0,0 -1.2374,-1.0607 -1.5689,-1.6352 -0.33146,-0.57453 -0.48614,-1.8562 -0.48614,-1.8562 l -0.13258,0.7513 c 0,0 -0.22097,-0.61872 -0.11049,-0.86178 0.11049,-0.24307 0.24307,-0.83969 0.24307,-0.83969 l -0.44194,0.7734 0.0884,-0.55243 -0.0442,0.0884 z"
         id="path7181"
         style="color:#000000;fill:#ffffff;fill-opacity:0.647826;fill-rule:nonzero;enable-background:accumulate" />
      <path
         d="m 200,144.86 c 0,0.0793 -0.0544,0.14363 -0.12153,0.14363 -0.0671,0 -0.12154,-0.0643 -0.12154,-0.14363 0,-0.0793 0.0544,-0.14363 0.12154,-0.14363 0.0671,0 0.12153,0.0643 0.12153,0.14363 z"
         transform="matrix(2.111888,0,0,1.9230769,-222.27644,-133.64778)"
         id="path7183"
         style="color:#000000;fill:#ffffff;fill-rule:nonzero;enable-background:accumulate" />
      <path
         d="m 195.27,155.38 c 0,0 -0.81758,-0.37565 -1.3921,0.28726 -1.0345,1.0872 -0.85468,1.2899 -0.37565,1.8341 -1.2784,-0.89438 -0.49531,-1.2151 0.7734,-2.4307 l -1.5026,1.0828 c 0,0 1.0607,-1.5026 1.5689,-1.4805 0.50823,0.0221 1.0607,0.28726 1.0607,0.28726 l -0.50823,-0.50823 c -0.22097,-0.0884 -0.72921,-0.0221 -0.72921,-0.0221 0,0 0.22097,-0.41984 0.66292,-0.33145 0.44194,0.0884 0.95017,0.7071 0.95017,0.7071 l -0.50823,-1.0165 0.66291,0.66291 c 0.13258,0.61872 -0.0663,1.6131 -0.0663,1.6131 0,0 -0.0663,-0.53033 -0.59662,-0.68501 z"
         id="path7203"
         style="color:#000000;fill:#ffba38;fill-rule:nonzero;enable-background:accumulate" />
      <path
         d="m 185.46,130.24 c -2.0069,0 -1.9772,1.7194 -1.9772,1.7194 l -0.25791,25.358 30.862,-26.734 -28.627,-0.34387 z"
         id="path6946"
         style="color:#000000;fill:#ffffff;fill-opacity:0.552174;fill-rule:nonzero;enable-background:accumulate" />
    </g>
  </g>
</svg>
